<svg xmlns="http://www.w3.org/2000/svg" xmlns:xlink="http://www.w3.org/1999/xlink" viewBox="0 0 734.691 129.441"><defs><style>.cls-1{fill:none;}.cls-2{isolation:isolate;}.cls-3{clip-path:url(#clip-path);}.cls-4{fill:#3bae36;}.cls-5{clip-path:url(#clip-path-2);}.cls-6{mix-blend-mode:multiply;}.cls-7{fill:#25813a;}.cls-8{fill:#17469b;}</style><clipPath id="clip-path" transform="translate(-2.308 -12.155)"><rect class="cls-1" width="739.226" height="155.121"/></clipPath><clipPath id="clip-path-2" transform="translate(-2.308 -12.155)"><path class="cls-1" d="M724.283-15.867c-76.333,45.19-194.1,99.21-321.842,113.51C181.658,122.359-6.626,59.286-7.9,47.93c-.7-6.221,4.866-43.809,70.654-77.805,54.3-28.058,153.758-14.881,320.438-18.392C605.308-52.946,779.884-48.785,724.283-15.867Z"/></clipPath></defs><g class="cls-2"><g id="レイヤー_2" data-name="レイヤー 2"><g id="レイヤー_1-2" data-name="レイヤー 1"><g class="cls-3"><path class="cls-4" d="M111.438,100.654H107.93A13.728,13.728,0,0,0,97.1,105.439a40.206,40.206,0,0,1-29.2,12.274A41.283,41.283,0,0,1,26.67,76.477c0-22.033,18.5-39.96,41.236-39.96A40.7,40.7,0,0,1,96.9,48.432a14.132,14.132,0,0,0,10.71,4.508h3.03c4.476,0,8.123-2.043,9.755-5.464,1.6-3.348.921-7.358-1.83-10.755A65.3,65.3,0,0,0,67.906,12.634c-35.558,0-65.6,29.237-65.6,63.843,0,35.908,29.427,65.12,65.6,65.12A64.976,64.976,0,0,0,119.177,116.7c2.687-3.527,3.276-7.476,1.614-10.833C119.172,102.6,115.676,100.654,111.438,100.654Z" transform="translate(-2.308 -12.155)"/><path class="cls-4" d="M204.23,12.314c-36.084,0-65.44,28.641-65.44,63.846,0,35.908,29.356,65.12,65.44,65.12s65.44-29.212,65.44-65.12C269.67,40.955,240.314,12.314,204.23,12.314Zm0,105.082A40.719,40.719,0,0,1,163.152,76.16c0-22.035,18.427-39.962,41.078-39.962s41.078,17.927,41.078,39.962A40.719,40.719,0,0,1,204.23,117.4Z" transform="translate(-2.308 -12.155)"/><path class="cls-4" d="M404.653,13.91h-3.826a12.254,12.254,0,0,0-11.535,7.21l-36.3,84.491L316.839,21.443l-.149-.323a12.255,12.255,0,0,0-11.536-7.21h-3.826c-6.715,0-11.227,4.511-11.227,11.225V128.779c0,6.714,4.512,11.225,11.227,11.225h1.435c6.714,0,11.225-4.511,11.225-11.225V75.906l24.783,56.6.133.284A12.256,12.256,0,0,0,350.438,140H355.7a12.257,12.257,0,0,0,11.534-7.209l24.758-56.772v52.756c0,6.714,4.511,11.225,11.224,11.225h1.435c6.714,0,11.225-4.511,11.225-11.225V25.135C415.878,18.421,411.367,13.91,404.653,13.91Z" transform="translate(-2.308 -12.155)"/><path class="cls-4" d="M507.213,92.637C521.1,86.02,529.4,72.439,529.4,55.43c0-24.446-17.465-41.52-42.476-41.52H454.716c-6.716,0-11.227,4.511-11.227,11.225V128.779c0,6.714,4.511,11.225,11.227,11.225h1.435c6.714,0,11.225-4.511,11.225-11.225V96.95h12.115L509.356,134.8a13.437,13.437,0,0,0,10.9,5.2h3.667c4.529,0,8.056-1.955,9.682-5.366,1.62-3.393.927-7.338-1.841-10.757ZM467.376,37.316h19.549c11.174,0,18.114,6.94,18.114,18.114s-6.94,18.115-18.114,18.115H467.376Z" transform="translate(-2.308 -12.155)"/><path class="cls-4" d="M621.5,13.91H565.687c-6.71,0-11.221,4.511-11.221,11.225V128.779c0,6.714,4.511,11.225,11.221,11.225H621.5c6.714,0,11.224-4.511,11.224-11.225v-.956c0-6.714-4.51-11.225-11.224-11.225H578.35V80.366h40.118c6.714,0,11.224-4.511,11.224-11.224v-.957c0-6.714-4.51-11.224-11.224-11.224H578.35V37.316H621.5c6.714,0,11.224-4.511,11.224-11.225v-.956C632.723,18.421,628.213,13.91,621.5,13.91Z" transform="translate(-2.308 -12.155)"/><path class="cls-4" d="M695.727,61.552l-.009,0C680.6,56.8,679.436,53.242,679.436,48.731c0-6.153,5.063-12.692,14.446-12.692a13.981,13.981,0,0,1,11.569,6.448c2.63,4.675,6.358,6.947,11.394,6.947h2.55c3.94,0,7.177-1.526,9.117-4.3,1.889-2.7,2.224-6.131.894-9.786-5.479-14.091-19.424-23.2-35.524-23.2-22.487,0-38.808,15.383-38.808,36.576,0,23.005,17.785,31.659,37,37.582,19.017,5.89,20.566,10.73,20.566,16,0,10.531-9.419,15.245-18.755,15.245-7.927,0-14.856-4.234-17.576-10.61-2.643-6.783-7.682-8.207-11.443-8.207h-1.916a10.977,10.977,0,0,0-9.024,4.02c-1.919,2.514-2.454,5.816-1.456,9.465,5.318,17.475,21.962,29.215,41.415,29.215,24.984,0,43.117-16.455,43.117-39.128C737,77.942,717.162,68.32,695.727,61.552Z" transform="translate(-2.308 -12.155)"/><g class="cls-5"><g class="cls-6"><path class="cls-7" d="M111.438,100.654H107.93A13.728,13.728,0,0,0,97.1,105.439a40.206,40.206,0,0,1-29.2,12.274A41.283,41.283,0,0,1,26.67,76.477c0-22.033,18.5-39.96,41.236-39.96A40.7,40.7,0,0,1,96.9,48.432a14.132,14.132,0,0,0,10.71,4.508h3.03c4.476,0,8.123-2.043,9.755-5.464,1.6-3.348.921-7.358-1.83-10.755A65.3,65.3,0,0,0,67.906,12.634c-35.558,0-65.6,29.237-65.6,63.843,0,35.908,29.427,65.12,65.6,65.12A64.976,64.976,0,0,0,119.177,116.7c2.687-3.527,3.276-7.476,1.614-10.833C119.172,102.6,115.676,100.654,111.438,100.654Z" transform="translate(-2.308 -12.155)"/></g><g class="cls-6"><path class="cls-7" d="M204.23,12.314c-36.084,0-65.44,28.641-65.44,63.846,0,35.908,29.356,65.12,65.44,65.12s65.44-29.212,65.44-65.12C269.67,40.955,240.314,12.314,204.23,12.314Zm0,105.082A40.719,40.719,0,0,1,163.152,76.16c0-22.035,18.427-39.962,41.078-39.962s41.078,17.927,41.078,39.962A40.719,40.719,0,0,1,204.23,117.4Z" transform="translate(-2.308 -12.155)"/></g><g class="cls-6"><path class="cls-7" d="M404.653,13.91h-3.826a12.254,12.254,0,0,0-11.535,7.21l-36.3,84.491L316.839,21.443l-.149-.323a12.255,12.255,0,0,0-11.536-7.21h-3.826c-6.715,0-11.227,4.511-11.227,11.225V128.779c0,6.714,4.512,11.225,11.227,11.225h1.435c6.714,0,11.225-4.511,11.225-11.225V75.906l24.783,56.6.133.284A12.256,12.256,0,0,0,350.438,140H355.7a12.257,12.257,0,0,0,11.534-7.209l24.758-56.772v52.756c0,6.714,4.511,11.225,11.224,11.225h1.435c6.714,0,11.225-4.511,11.225-11.225V25.135C415.878,18.421,411.367,13.91,404.653,13.91Z" transform="translate(-2.308 -12.155)"/></g><g class="cls-6"><path class="cls-7" d="M507.213,92.637C521.1,86.02,529.4,72.439,529.4,55.43c0-24.446-17.465-41.52-42.476-41.52H454.716c-6.716,0-11.227,4.511-11.227,11.225V128.779c0,6.714,4.511,11.225,11.227,11.225h1.435c6.714,0,11.225-4.511,11.225-11.225V96.95h12.115L509.356,134.8a13.437,13.437,0,0,0,10.9,5.2h3.667c4.529,0,8.056-1.955,9.682-5.366,1.62-3.393.927-7.338-1.841-10.757ZM467.376,37.316h19.549c11.174,0,18.114,6.94,18.114,18.114s-6.94,18.115-18.114,18.115H467.376Z" transform="translate(-2.308 -12.155)"/></g><g class="cls-6"><path class="cls-7" d="M621.5,13.91H565.687c-6.71,0-11.221,4.511-11.221,11.225V128.779c0,6.714,4.511,11.225,11.221,11.225H621.5c6.714,0,11.224-4.511,11.224-11.225v-.956c0-6.714-4.51-11.225-11.224-11.225H578.35V80.366h40.118c6.714,0,11.224-4.511,11.224-11.224v-.957c0-6.714-4.51-11.224-11.224-11.224H578.35V37.316H621.5c6.714,0,11.224-4.511,11.224-11.225v-.956C632.723,18.421,628.213,13.91,621.5,13.91Z" transform="translate(-2.308 -12.155)"/></g><path class="cls-8" d="M695.727,61.552l-.009,0C680.6,56.8,679.436,53.242,679.436,48.731c0-6.153,5.063-12.692,14.446-12.692a13.981,13.981,0,0,1,11.569,6.448c2.63,4.675,6.358,6.947,11.394,6.947h2.55c3.94,0,7.177-1.526,9.117-4.3,1.889-2.7,2.224-6.131.894-9.786-5.479-14.091-19.424-23.2-35.524-23.2-22.487,0-38.808,15.383-38.808,36.576,0,23.005,17.785,31.659,37,37.582,19.017,5.89,20.566,10.73,20.566,16,0,10.531-9.419,15.245-18.755,15.245-7.927,0-14.856-4.234-17.576-10.61-2.643-6.783-7.682-8.207-11.443-8.207h-1.916a10.977,10.977,0,0,0-9.024,4.02c-1.919,2.514-2.454,5.816-1.456,9.465,5.318,17.475,21.962,29.215,41.415,29.215,24.984,0,43.117-16.455,43.117-39.128C737,77.942,717.162,68.32,695.727,61.552Z" transform="translate(-2.308 -12.155)"/></g></g></g></g></g></svg>