<svg xmlns="http://www.w3.org/2000/svg" viewBox="0 0 66.756 9.3"><defs><style>.cls-1{fill:#21bf25;}</style></defs><g id="レイヤー_2" data-name="レイヤー 2"><g id="レイヤー_1-2" data-name="レイヤー 1"><path class="cls-1" d="M8.436,3.12l-1.212.1A2.644,2.644,0,0,0,6.5,1.758a2.056,2.056,0,0,0-1.482-.522A2.106,2.106,0,0,0,3.09,2.13a4.7,4.7,0,0,0-.57,2.526A5.4,5.4,0,0,0,2.694,6.12a2.886,2.886,0,0,0,.48,1,1.9,1.9,0,0,0,.72.576,2.127,2.127,0,0,0,.882.186,2.9,2.9,0,0,0,1.746-.456,2.747,2.747,0,0,0,.93-1.416l1.092.276A5.187,5.187,0,0,1,8.1,7.428a3.489,3.489,0,0,1-.756.96,3.449,3.449,0,0,1-1.152.666,4.792,4.792,0,0,1-1.62.246A5.637,5.637,0,0,1,2.79,9.024,3.857,3.857,0,0,1,.36,6.765,5.187,5.187,0,0,1,0,4.746a5.689,5.689,0,0,1,.354-2.1,4.145,4.145,0,0,1,.954-1.475A3.9,3.9,0,0,1,2.694.3,4.815,4.815,0,0,1,4.356.012a5.039,5.039,0,0,1,1.578.22A2.918,2.918,0,0,1,6.984.8l.276-.6H8.436Z"/><path class="cls-1" d="M15.265,0a6.539,6.539,0,0,1,1.794.234,3.5,3.5,0,0,1,1.416.774A3.561,3.561,0,0,1,19.4,2.442a6.375,6.375,0,0,1,.331,2.2,6.248,6.248,0,0,1-.283,1.944,3.753,3.753,0,0,1-.858,1.464,3.8,3.8,0,0,1-1.445.924,5.906,5.906,0,0,1-2.059.324A6.634,6.634,0,0,1,13.3,9.072a3.546,3.546,0,0,1-1.409-.75,3.442,3.442,0,0,1-.925-1.38,5.893,5.893,0,0,1-.33-2.106,7.32,7.32,0,0,1,.259-2.028,3.807,3.807,0,0,1,.816-1.524A3.573,3.573,0,0,1,13.141.33,6.036,6.036,0,0,1,15.265,0Zm.06,1.272a2.038,2.038,0,0,0-1.711.714,3.76,3.76,0,0,0-.557,2.3A9.888,9.888,0,0,0,13.2,6.162,3.284,3.284,0,0,0,13.608,7.3a1.378,1.378,0,0,0,.642.558,2.242,2.242,0,0,0,.834.15A2.711,2.711,0,0,0,16.11,7.83a1.544,1.544,0,0,0,.7-.564,2.731,2.731,0,0,0,.4-1.014,7.843,7.843,0,0,0,.126-1.524,8.4,8.4,0,0,0-.144-1.71,3.05,3.05,0,0,0-.409-1.056,1.4,1.4,0,0,0-.635-.54A2.166,2.166,0,0,0,15.325,1.272Z"/><path class="cls-1" d="M33.984,1.176q-1.08,0-1.08.552V7.572q0,.552,1.08.552v.984H29.508V8.124q1.068,0,1.068-.552V1.848l-2.232,7.26H26.388l-2.232-7.26V7.572q0,.552,1.068.552v.984H21.816V8.124q1.068,0,1.068-.552V1.728q0-.552-1.068-.552V.192H26.2l1.812,6.216L29.82.192h4.164Z"/><path class="cls-1" d="M46.092,7.548a1.906,1.906,0,0,1-.108.652,1.36,1.36,0,0,1-.33.523,1.518,1.518,0,0,1-.575.344,2.563,2.563,0,0,1-.847.125,2.92,2.92,0,0,1-.978-.144,1.732,1.732,0,0,1-.653-.4,1.554,1.554,0,0,1-.372-.588,2.1,2.1,0,0,1-.121-.72v-.78a4.692,4.692,0,0,0-.054-.78,1.2,1.2,0,0,0-.185-.5.756.756,0,0,0-.348-.27,1.551,1.551,0,0,0-.553-.084H39.577v2.64q0,.552,1.331.552v.984H36.072V8.136q1.068,0,1.069-.553V1.729q0-.554-1.069-.553V.192h5.7A8.4,8.4,0,0,1,42.924.27a2.891,2.891,0,0,1,1,.318,1.842,1.842,0,0,1,.7.678,2.226,2.226,0,0,1,.265,1.158,2.19,2.19,0,0,1-.144.822,2.01,2.01,0,0,1-.378.606,1.975,1.975,0,0,1-.535.408,2.543,2.543,0,0,1-.624.228,2.131,2.131,0,0,1,.57.259,1.552,1.552,0,0,1,.421.415,1.892,1.892,0,0,1,.263.62,3.645,3.645,0,0,1,.091.861v.963A.588.588,0,0,0,44.665,8a.344.344,0,0,0,.275.126A.362.362,0,0,0,45.229,8a.6.6,0,0,0,.107-.39V7.032h.756ZM39.577,1.476V3.924h1.535a1.373,1.373,0,0,0,.978-.294A1.411,1.411,0,0,0,42.4,2.592a1.091,1.091,0,0,0-.3-.834,1.411,1.411,0,0,0-.984-.282Z"/><path class="cls-1" d="M56.352,2.892l-1.2.06q-.072-1.536-1.344-1.536H51.552V3.924h.912q.564,0,.672-1.344h1.056l-.18,3.744H52.98q-.132-1.392-.6-1.392h-.828V7.884h1.824q1.9,0,2.04-2.28l1.224.084-.288,3.42h-8.3V8.124q1.068,0,1.068-.552V1.728q0-.552-1.068-.552V.192h8.3Z"/><path class="cls-1" d="M66.252,3.192l-1.08.108a2.346,2.346,0,0,0-.312-.93,1.985,1.985,0,0,0-.606-.63,2.646,2.646,0,0,0-.84-.354,4.381,4.381,0,0,0-1.026-.114,5.128,5.128,0,0,0-.528.03,1.978,1.978,0,0,0-.54.132,1.065,1.065,0,0,0-.42.3.8.8,0,0,0-.168.534.642.642,0,0,0,.186.474,1.466,1.466,0,0,0,.5.312,4.3,4.3,0,0,0,.738.21q.42.084.882.162t.948.186a8.816,8.816,0,0,1,.942.264,2.956,2.956,0,0,1,1.344.912,2.541,2.541,0,0,1,.48,1.632A2.921,2.921,0,0,1,66.5,7.668a2.448,2.448,0,0,1-.708.9,3.188,3.188,0,0,1-1.086.546,4.836,4.836,0,0,1-1.374.186,5.138,5.138,0,0,1-1.446-.168,5.028,5.028,0,0,1-.954-.384,1.026,1.026,0,0,0-.492-.156.387.387,0,0,0-.3.156,1.346,1.346,0,0,0-.216.36H58.836V5.94l1.08-.072a2.054,2.054,0,0,0,.9,1.6,3.764,3.764,0,0,0,2.148.546,5.135,5.135,0,0,0,.714-.048,1.885,1.885,0,0,0,.6-.18,1.018,1.018,0,0,0,.408-.372,1.162,1.162,0,0,0,.15-.624.69.69,0,0,0-.324-.618,2.744,2.744,0,0,0-.834-.336,10.583,10.583,0,0,0-1.146-.21,9.755,9.755,0,0,1-1.26-.252,3.6,3.6,0,0,1-1.83-.978,2.716,2.716,0,0,1-.582-1.866,2.755,2.755,0,0,1,.168-.96,2.071,2.071,0,0,1,.54-.8A2.742,2.742,0,0,1,60.516.21,4.079,4.079,0,0,1,61.908,0a5.33,5.33,0,0,1,1.416.156A5,5,0,0,1,64.248.5a1.642,1.642,0,0,0,.234.108.626.626,0,0,0,.21.036A.548.548,0,0,0,65.07.534a1.427,1.427,0,0,0,.258-.342h.924Z"/></g></g></svg>