<svg xmlns="http://www.w3.org/2000/svg" viewBox="0 0 189.768 26.617"><defs><style>.cls-1{fill:none;stroke:#181818;stroke-linecap:round;stroke-linejoin:round;}.cls-2{fill:#181818;}</style></defs><g id="レイヤー_2" data-name="レイヤー 2"><g id="レイヤー_1-2" data-name="レイヤー 1"><line class="cls-1" x1="182.244" y1="4.343" x2="176.635" y2="12.761"/><line class="cls-1" x1="189.268" y1="11.147" x2="180.344" y2="15.909"/><line class="cls-1" x1="173.288" y1="0.5" x2="172.331" y2="10.57"/><line class="cls-1" x1="7.524" y1="4.343" x2="13.133" y2="12.761"/><line class="cls-1" x1="0.5" y1="11.147" x2="9.425" y2="15.909"/><line class="cls-1" x1="16.481" y1="0.5" x2="17.438" y2="10.57"/></g><g id="レイヤー_2-2" data-name="レイヤー 2"><path class="cls-2" d="M20.94,20.237c-.024.084-.036.156-.048.18s-.024.084-.048.2a12.711,12.711,0,0,1-2.015,4.653,4.878,4.878,0,0,0-1.391-.768,9.736,9.736,0,0,0,2.026-4.629Zm5.421-2.555a8.175,8.175,0,0,0-1.044-1.895l.888-.311a7.63,7.63,0,0,1,1.067,1.895l-.827.311a7.491,7.491,0,0,0,1.5-.084v1.475a10.383,10.383,0,0,0-1.524-.059H23.65V24.83a9.267,9.267,0,0,0,.06,1.344H22.079a8.936,8.936,0,0,0,.072-1.356v-5.8H19.488a10.279,10.279,0,0,0-1.511.059V17.6a7.7,7.7,0,0,0,1.535.084h2.639v-.671a6.879,6.879,0,0,0-.072-1.248H23.7a9.775,9.775,0,0,0-.048,1.283v.636Zm-.1,2.2a13.1,13.1,0,0,0,2.123,4.569,8.811,8.811,0,0,0-1.38.84A16.141,16.141,0,0,1,25.042,20.8a3.368,3.368,0,0,0-.192-.564Zm1.7-2.674a8.6,8.6,0,0,0-1.031-1.859l.851-.312a6.993,6.993,0,0,1,1.055,1.823Z"/><path class="cls-2" d="M39.476,17.694a2.15,2.15,0,0,0-.372.8,20.142,20.142,0,0,1-1.535,3.3A11.712,11.712,0,0,1,32.1,26.378a3.807,3.807,0,0,0-1-1.236,12.129,12.129,0,0,0,2.338-1.2,8.7,8.7,0,0,0,1.967-1.667,13.516,13.516,0,0,0-2.458-1.715l.911-1.068A15.562,15.562,0,0,1,36.274,21.1a11.492,11.492,0,0,0,1.343-2.831l-3.73.036a12.4,12.4,0,0,1-2.806,3.226,3.807,3.807,0,0,0-1.2-.959,10.31,10.31,0,0,0,3.011-3.419,7.283,7.283,0,0,0,.7-1.667l1.56.349a6.169,6.169,0,0,0-.36.671,5.979,5.979,0,0,1-.288.576c.192-.024.192-.024,3.118-.048a3.14,3.14,0,0,0,1.055-.144Z"/><path class="cls-2" d="M42.385,24.063a11.416,11.416,0,0,0,3.55-.888A8.014,8.014,0,0,0,49.5,20.237a9.975,9.975,0,0,0,1.223-2.4,5.175,5.175,0,0,0,1.272,1.176,10.526,10.526,0,0,1-3.8,4.7,12.969,12.969,0,0,1-4.57,1.8,4.255,4.255,0,0,0-.791.2ZM43.4,16.615A16.984,16.984,0,0,1,46.5,18.93l-1.032,1.307A12.566,12.566,0,0,0,42.409,17.8Z"/><path class="cls-2" d="M54.289,16.879a14.488,14.488,0,0,0,2.783.156,4.717,4.717,0,0,0,.479-1.488l1.572.168a8.929,8.929,0,0,0-.48,1.08c-.06.132-.084.168-.108.216.1-.012.1-.012.756-.048a16.2,16.2,0,0,0,3.142-.408l.084,1.367c-.336.024-.336.024-.948.1-.876.108-2.4.2-3.61.24a6.244,6.244,0,0,1-1.1,1.6l.012.024c.084-.06.084-.06.24-.18a2.9,2.9,0,0,1,1.69-.54,1.579,1.579,0,0,1,1.716,1.272q1.384-.5,1.835-.648a3.731,3.731,0,0,0,.887-.36L63.8,20.8a10.371,10.371,0,0,0-1.331.324q-.252.071-1.8.611v.132c.012.312.012.312.012.48v.48c-.012.2-.012.311-.012.395a4.927,4.927,0,0,0,.036.636l-1.391.036a9.682,9.682,0,0,0,.071-1.392v-.287a7.372,7.372,0,0,0-1.151.623,1.263,1.263,0,0,0-.624.984c0,.623.576.875,2.027.875a10.416,10.416,0,0,0,3.526-.5l.12,1.547a3.515,3.515,0,0,0-.551.048,21.761,21.761,0,0,1-3.071.216,5.145,5.145,0,0,1-2.674-.5,1.739,1.739,0,0,1-.876-1.547,1.908,1.908,0,0,1,.528-1.331,5.859,5.859,0,0,1,2.578-1.691.658.658,0,0,0-.731-.648,4.058,4.058,0,0,0-2.459,1.235,5.439,5.439,0,0,0-1.043,1.091l-1.092-1.079a7.286,7.286,0,0,0,1.08-1.067,15.874,15.874,0,0,0,1.439-2.051.587.587,0,0,1,.1-.156c-.048,0-.2.012-.2.012-.192,0-1.247-.024-1.511-.024-.228-.012-.228-.012-.336-.012a1.326,1.326,0,0,0-.192.012Z"/><path class="cls-2" d="M66.385,18.774a5.6,5.6,0,0,0-.863.06v-1.3a4.17,4.17,0,0,0,.875.072h.492v-1a7.645,7.645,0,0,0-.072-1.212h1.391a7.945,7.945,0,0,0-.06,1.212v1h.324a4.237,4.237,0,0,0,.672-.047v1.259a4.22,4.22,0,0,0-.672-.048h-.324v1.859c.432-.168.528-.2,1-.4v1.235c-.492.2-.6.24-1,.408v3.334c0,.96-.3,1.187-1.523,1.187-.252,0-.444-.011-.828-.036a4.5,4.5,0,0,0-.215-1.235,5.766,5.766,0,0,0,.911.072c.312,0,.4-.072.4-.347V22.336c-.708.251-.96.348-1.307.492l-.192-1.356a8.724,8.724,0,0,0,1.5-.4v-2.3Zm4.342,3.97V23.4H69.443c.024-.288.048-.611.048-1.079V17.083a11.2,11.2,0,0,0-.048-1.236,9.164,9.164,0,0,0,1.272.06h4a13.055,13.055,0,0,0,1.368-.06,12.343,12.343,0,0,0-.048,1.32v4.989a11.618,11.618,0,0,0,.048,1.187H74.745v-.6h-1.44v2.279a11.247,11.247,0,0,0,.072,1.475H71.962a11.633,11.633,0,0,0,.084-1.475V22.744Zm0-5.673v1.643h1.319V17.071Zm0,2.77v1.715h1.319V19.841Zm2.578-1.127h1.464V17.071H73.305Zm0,2.842h1.464V19.841H73.305Z"/><path class="cls-2" d="M84.67,20.153c0,.048.012.144.012.288a3.657,3.657,0,0,1,.384,1.691,3.848,3.848,0,0,1-1.788,3.238,8.368,8.368,0,0,1-2.17.984A3.938,3.938,0,0,0,80.256,25a5.666,5.666,0,0,0,2.039-.7,2.527,2.527,0,0,0,1.391-1.751,1.974,1.974,0,0,1-1.763.851,2.21,2.21,0,0,1-1.391-.432,1.872,1.872,0,0,1-.828-1.619,2.208,2.208,0,0,1,2.387-2.182,2,2,0,0,1,1.247.359.494.494,0,0,1-.012-.144c-.011-.024-.011-.7-.011-1.019-1.716.048-2.843.084-3.371.12-1.811.132-1.811.132-2.135.18l-.048-1.428a5.018,5.018,0,0,0,.588.025c.3,0,.492,0,2.039-.06.78-.024.9-.024,1.883-.049.4-.011.4-.011,1.02-.035a6.523,6.523,0,0,0-.073-1.451l1.512-.013a9.434,9.434,0,0,0-.06,1.428c2.086-.012,3.022-.037,3.466-.084l.012,1.379c-.444-.036-1.019-.06-2.015-.06-.288,0-.5,0-1.451.024v.78Zm-2.447.12a1.05,1.05,0,0,0-1.115.96.946.946,0,0,0,1.019.947A1.092,1.092,0,0,0,83.3,21.1C83.3,20.6,82.882,20.273,82.223,20.273Z"/><path class="cls-2" d="M94.079,15.644a20.154,20.154,0,0,0,.792,3.754c.779-.289.779-.289,3.106-1.056a3.284,3.284,0,0,0,.456-.18l.515,1.511a29.291,29.291,0,0,0-3.957,1.152c-1.752.647-2.627,1.415-2.627,2.279s.816,1.247,2.746,1.247a13.123,13.123,0,0,0,3.874-.492l.132,1.643a7.483,7.483,0,0,0-.971.084,25.33,25.33,0,0,1-2.807.18,6.714,6.714,0,0,1-3.478-.66,2.269,2.269,0,0,1-1.043-2,2.817,2.817,0,0,1,1.067-2.147,7.421,7.421,0,0,1,1.631-1.032,30.554,30.554,0,0,1-.8-3.25,5.1,5.1,0,0,0-.192-.78Z"/><path class="cls-2" d="M104.232,22.96c-.576,0-.983.011-1.3.035a9.245,9.245,0,0,0,.06-1.271V17.347a14.619,14.619,0,0,0-.06-1.5,9.17,9.17,0,0,0,1.259.06h5.529a9.245,9.245,0,0,0,1.271-.06,14.638,14.638,0,0,0-.059,1.5v4.377A8.958,8.958,0,0,0,111,23c-.311-.024-.779-.035-1.271-.035h-1.032v1.846c0,.336.108.372,1.044.372s1.163-.048,1.308-.252a3.832,3.832,0,0,0,.215-1.535,4.97,4.97,0,0,0,1.236.5c-.12,1.331-.241,1.775-.54,2.063-.336.312-.852.407-2.207.407-1.991,0-2.35-.167-2.35-1.067V22.96h-1.08a3.682,3.682,0,0,1-1.139,2.218,6.128,6.128,0,0,1-3.047,1.439,3.788,3.788,0,0,0-.695-1.175,5.968,5.968,0,0,0,2.338-.792,2.4,2.4,0,0,0,1.14-1.69Zm.024-5.074h5.409v-.779h-5.409Zm0,1.931h5.409v-.8h-5.409Zm0,1.979h5.409v-.852h-5.409Z"/><path class="cls-2" d="M117.2,19.589a5.967,5.967,0,0,0-.684-.036h-.228a3.51,3.51,0,0,0,.372.768,4.611,4.611,0,0,0,1.007,1.235,3.807,3.807,0,0,0-.575.96,6.106,6.106,0,0,1-.912-1.44c.036.408.036.408.072,1.427V25.07a8.266,8.266,0,0,0,.072,1.415h-1.355a11.405,11.405,0,0,0,.072-1.4V23.391c0-.588.036-1.211.084-1.787a7.408,7.408,0,0,1-1.176,2.411,5.156,5.156,0,0,0-.671-1.128,6.653,6.653,0,0,0,1.211-2,8.762,8.762,0,0,0,.456-1.331h-.5a5.118,5.118,0,0,0-.911.06V18.342a5.2,5.2,0,0,0,.947.06h.564V17.179c-.36.1-.54.132-1.14.24a4.6,4.6,0,0,0-.455-1.116,10.539,10.539,0,0,0,2.866-.708,2.352,2.352,0,0,0,.492-.239l.7,1.055c-.073.024-.1.036-.2.072a10.551,10.551,0,0,1-1.043.372V18.4h.288a4.537,4.537,0,0,0,.792-.048v.4a9.671,9.671,0,0,0,.983.036h1.787v-.42h-1.343c-.492,0-.684.012-.972.036v-.936a6.98,6.98,0,0,0,.972.048h1.343v-.407h-1.5a6.593,6.593,0,0,0-1.056.06V16.123a7.671,7.671,0,0,0,1.14.06h1.415a2.873,2.873,0,0,0-.072-.78h1.355a3.3,3.3,0,0,0-.072.78h1.644a8.155,8.155,0,0,0,1.163-.072v1.056a6.848,6.848,0,0,0-1.068-.06h-1.739v.407h1.5a7.227,7.227,0,0,0,1.008-.048V18.4c-.288-.024-.48-.036-1-.036h-1.512v.42h1.991a7.116,7.116,0,0,0,1.115-.06v1.091a7.7,7.7,0,0,0-1.115-.06h-4.989a7.706,7.706,0,0,0-1.115.06Zm1.583,5.1a10.246,10.246,0,0,0-1.032.035,9.1,9.1,0,0,0,.048-1.079V21.088a7,7,0,0,0-.036-1.007c.276.024.492.024,1,.024h3.957a7.3,7.3,0,0,0,1.032-.036,7.373,7.373,0,0,0-.048,1.067v2.5a7.759,7.759,0,0,0,.048,1.091c-.324-.024-.623-.035-1.007-.035h-.408a8.727,8.727,0,0,0,2.386.767,4.065,4.065,0,0,0-.659,1.115,7.559,7.559,0,0,1-2.783-1.307l.5-.575H119.59l.552.575a7.037,7.037,0,0,1-2.783,1.307,4.81,4.81,0,0,0-.623-1.055,6.6,6.6,0,0,0,2.363-.827Zm.2-3.275H122.5v-.395h-3.513Zm0,1.164H122.5v-.4h-3.513Zm0,1.175H122.5v-.42h-3.513Z"/><path class="cls-2" d="M129.947,16.423c-.06.348-.144.84-.264,1.487-.036.2-.036.2-.072.36.36-.012.528-.024.744-.024a2.322,2.322,0,0,1,1.775.636A2.905,2.905,0,0,1,132.693,21c0,2.063-.347,3.707-.923,4.366a1.519,1.519,0,0,1-1.331.54,5.558,5.558,0,0,1-1.847-.36c.012-.228.024-.408.024-.527A4.507,4.507,0,0,0,128.5,24a5.019,5.019,0,0,0,1.751.48c.348,0,.54-.228.719-.816a10.646,10.646,0,0,0,.312-2.734c0-1.1-.275-1.428-1.2-1.428-.252,0-.444.012-.72.036a25.736,25.736,0,0,1-2.446,6.525l-1.391-.768a17.632,17.632,0,0,0,2.41-5.649c-.179.024-.179.024-.563.1l-1.092.18a4.927,4.927,0,0,0-.492.12l-.143-1.415a24.625,24.625,0,0,0,2.554-.252,16.873,16.873,0,0,0,.312-2.423v-.216l1.559.156a2.792,2.792,0,0,0-.1.372Zm3.646-.492a7.792,7.792,0,0,1,1.26,1.763l-.84.444a8.122,8.122,0,0,0-1.259-1.787Zm1.116,2.375a11.147,11.147,0,0,1,1.8,3.814l-1.367.683a11.207,11.207,0,0,0-1.643-3.9Zm.743-.924a8.865,8.865,0,0,0-1.223-1.738l.8-.42a6.915,6.915,0,0,1,1.248,1.691Z"/><path class="cls-2" d="M142.187,16.675a7.2,7.2,0,0,0-.072-1.188h1.5a7.732,7.732,0,0,0-.072,1.188V19.3h2.567V17.347a7.209,7.209,0,0,0-.048-.948H147.5a6.892,6.892,0,0,0-.06,1.043v2.387a6.575,6.575,0,0,0,.036.768c-.264-.024-.552-.036-.84-.036h-3.094V24.5H146.5V22.5a6.391,6.391,0,0,0-.059-1.019H147.9a9.594,9.594,0,0,0-.06,1.14v2.59a7.577,7.577,0,0,0,.072,1.2h-1.4V25.79h-7.135v.624h-1.4a8.707,8.707,0,0,0,.072-1.2V22.671a9.968,9.968,0,0,0-.06-1.151h1.451a5.947,5.947,0,0,0-.059,1.032V24.5h2.818V20.561h-2.878c-.324,0-.576.012-.864.036.024-.264.036-.492.036-.768V17.455a6.684,6.684,0,0,0-.06-1.056h1.439a7.052,7.052,0,0,0-.048.959V19.3h2.375Z"/><path class="cls-2" d="M158.912,25.634a8.074,8.074,0,0,0-2.219-1.643,5.256,5.256,0,0,0-.647-.3v.132a1.872,1.872,0,0,1-.671,1.619,3.194,3.194,0,0,1-1.979.516c-1.751,0-2.759-.684-2.759-1.871,0-1.308,1.187-2.075,3.2-2.075a6.27,6.27,0,0,1,.8.048,2.312,2.312,0,0,0-.012-.288v-.264c-.012-.168-.012-.168-.024-.648-.576.013-.948.024-1.2.024-.731,0-1.175-.011-2.171-.083-.155-.012-.275-.012-.455-.012l.024-1.3a15.448,15.448,0,0,0,2.794.2c.24,0,.648-.012.984-.024,0-.107,0-.516-.012-1.2-.384.012-.576.012-.756.012-.587,0-2.135-.06-2.938-.12-.132-.012-.228-.012-.264-.012h-.192l.012-1.331a15.78,15.78,0,0,0,3.226.251c.192,0,.6-.011.9-.023a8.562,8.562,0,0,0-.06-1.512h1.523a7.44,7.44,0,0,0-.084,1.464,16.222,16.222,0,0,0,3.454-.456l.06,1.331a7.506,7.506,0,0,0-.948.108c-1.055.144-1.522.18-2.578.24.012.3.012.444.024,1.187.6-.036.6-.036,1.7-.156a8.848,8.848,0,0,0,1.487-.264l.036,1.32c-.2.012-.5.048-.779.084-.18.024-.72.084-1.62.168-.168.011-.347.024-.815.048.036,1.163.036,1.163.048,1.451a10.732,10.732,0,0,1,3.286,1.691c.2.132.264.18.432.276ZM153.671,23.2c-.971,0-1.559.312-1.559.828,0,.444.516.72,1.368.72a1.245,1.245,0,0,0,1.043-.384,1.521,1.521,0,0,0,.144-.768v-.288A4.212,4.212,0,0,0,153.671,23.2Z"/><path class="cls-2" d="M168.67,20.153c0,.048.011.144.011.288a3.633,3.633,0,0,1,.384,1.691,3.847,3.847,0,0,1-1.787,3.238,8.368,8.368,0,0,1-2.17.984A3.938,3.938,0,0,0,164.256,25a5.666,5.666,0,0,0,2.039-.7,2.525,2.525,0,0,0,1.391-1.751,1.976,1.976,0,0,1-1.763.851,2.21,2.21,0,0,1-1.391-.432,1.872,1.872,0,0,1-.828-1.619,2.208,2.208,0,0,1,2.387-2.182,2,2,0,0,1,1.247.359.538.538,0,0,1-.011-.144c-.013-.024-.013-.7-.013-1.019-1.715.048-2.842.084-3.37.12-1.811.132-1.811.132-2.135.18l-.048-1.428a5.018,5.018,0,0,0,.588.025c.3,0,.492,0,2.039-.06.78-.024.9-.024,1.883-.049.4-.011.4-.011,1.02-.035a6.523,6.523,0,0,0-.073-1.451l1.512-.013a9.149,9.149,0,0,0-.06,1.428c2.086-.012,3.022-.037,3.465-.084l.013,1.379c-.444-.036-1.019-.06-2.016-.06-.287,0-.5,0-1.451.024v.78Zm-2.447.12a1.05,1.05,0,0,0-1.115.96.946.946,0,0,0,1.02.947A1.092,1.092,0,0,0,167.3,21.1C167.3,20.6,166.882,20.273,166.223,20.273Z"/></g></g></svg>