<svg xmlns="http://www.w3.org/2000/svg" viewBox="0 0 162.319 237.783"><defs><style>.cls-1{fill:#fff;}.cls-2{fill:#25813a;}.cls-3{fill:#231815;}</style></defs><g id="レイヤー_2" data-name="レイヤー 2"><g id="レイヤー_1-2" data-name="レイヤー 1"><path class="cls-1" d="M112.443,184.053a2.09,2.09,0,0,0,.988.246,2.145,2.145,0,0,0,1.669-.8l17.43-3.621a2.09,2.09,0,0,0,.921,1.354,2.135,2.135,0,0,0,2.951-.626c.2-.3.256-.386.458-1.929h8.12a2.134,2.134,0,0,0,2.136-2.132V125.512c4.4,5.044,9.3,11.047,10.85,13.906.169,1.461.28,6.489-1.166,23.7a61.758,61.758,0,0,1-4.716,19.027c-4.041,9.5-12.18,27.233-17.31,36.264l-28.9-.408c-.458-3.867-.907-8.728-.444-11.4,1.061-6.123,2.339-11.215,5.126-16.153.458-.814.969-1.7,1.552-2.685a2.122,2.122,0,0,0,.029-2.127l-.3-1.451Z"/><path class="cls-1" d="M12.107,176.545a2.049,2.049,0,0,0,.261,1.017L8.9,178.7a61.624,61.624,0,0,1-3.375-15.579c-1.442-17.219-1.331-22.248-1.163-23.7a82.737,82.737,0,0,1,7.751-10.29Z"/><path class="cls-1" d="M12.368,177.563a2.118,2.118,0,0,0,1.87,1.118H25.465c.2,1.543.261,1.625.458,1.929a2.133,2.133,0,0,0,2.951.626h0a2.1,2.1,0,0,0,.921-1.355L47.231,183.5v0a2.12,2.12,0,0,0,1.658.791,2.09,2.09,0,0,0,.988-.246l.613.13-.3,1.452a2.137,2.137,0,0,0,.029,2.127c.588.993,1.095,1.87,1.558,2.685,2.782,4.939,4.059,10.03,5.118,16.153.463,2.671.02,7.532-.438,11.4l-28.907.409c-5.13-9.03-13.265-26.76-17.3-36.264Q9.518,180.436,8.9,178.7Z"/><path class="cls-2" d="M162.227,139.24a2.132,2.132,0,0,1-4.04.613c-.063-.135-.14-.28-.222-.433-.015-.111-.024-.207-.039-.28a2.131,2.131,0,0,1,4.2-.749l0,.021c.039.232.077.5.1.825Z"/><path class="cls-2" d="M162.227,139.24c.289,3.327-.106,11.466-1.181,24.229a65.963,65.963,0,0,1-5.039,20.343c-3.8,8.925-11.186,25.059-16.4,34.664l-4.836-.068c5.131-9.031,13.27-26.76,17.31-36.264a61.7,61.7,0,0,0,4.716-19.027c1.446-17.209,1.334-22.238,1.167-23.7.082.154.159.3.222.433a2.132,2.132,0,0,0,4.04-.613Z"/><path class="cls-2" d="M157.965,139.418c-1.553-2.859-6.447-8.862-10.851-13.906V119.1c1.592,1.741,3.2,3.578,4.437,5.02,2.613,3.033,8.862,10.458,10.491,13.911a2.138,2.138,0,0,1,.184,1.2c-.024-.318-.063-.593-.1-.825a2.132,2.132,0,0,0-4.2.708l0,.021C157.942,139.211,157.95,139.307,157.965,139.418Z"/><path class="cls-2" d="M147.116,119.1v6.408c-.733-.834-1.451-1.644-2.136-2.41v-6.278C145.665,117.534,146.388,118.309,147.116,119.1Z"/><path class="cls-2" d="M146.094,139.1a2.128,2.128,0,0,1-.929,2.861l-.007,0a1.06,1.06,0,0,1-.18.077v-4.98C145.375,137.74,145.746,138.416,146.094,139.1Z"/><path class="cls-2" d="M144.98,178.682h-8.12c.072-.521.159-1.21.275-2.136h7.845v-34.5a1.06,1.06,0,0,0,.18-.077,2.127,2.127,0,0,0,.939-2.858l0-.006c-.347-.685-.718-1.36-1.113-2.039V123.1c.685.766,1.4,1.576,2.136,2.41v51.033a2.134,2.134,0,0,1-2.13,2.137Z"/><path class="cls-2" d="M144.98,137.061v4.98a2.059,2.059,0,0,1-.786.155,2.149,2.149,0,0,1-1.346-.478V133.7Q143.992,135.385,144.98,137.061Z"/><path class="cls-2" d="M144.98,123.1v13.959q-.984-1.679-2.132-3.361V120.773C143.509,121.477,144.223,122.263,144.98,123.1Z"/><path class="cls-2" d="M144.98,116.824V123.1c-.757-.839-1.471-1.625-2.132-2.329v-6.042C143.471,115.3,144.2,116.019,144.98,116.824Z"/><path class="cls-2" d="M144.98,31.132v85.692c-.781-.806-1.509-1.529-2.132-2.093V2.2l2.132-.067Z"/><path class="cls-2" d="M147.116,2.134V119.1c-.728-.8-1.451-1.572-2.136-2.28V2.134l-2.132.067V2.134a2.134,2.134,0,0,1,4.268,0Z"/><path class="cls-2" d="M144.98,176.545h-7.845c.019-.136.034-.276.053-.42.067-.526.14-1.095.212-1.712h5.448v-32.7a2.148,2.148,0,0,0,1.346.477,2.058,2.058,0,0,0,.786-.154Z"/><path class="cls-2" d="M137.959,221.417c.516-.887,1.071-1.871,1.649-2.941l3.062.043a4.725,4.725,0,0,1,4.793,4.656v.079l-.014,12.4a2.132,2.132,0,0,1-4.263,0v-.008l.015-12.4a.457.457,0,0,0-.14-.332.467.467,0,0,0-.333-.136.373.373,0,0,1-.082,0l-6.533-.091,0-.222A2.134,2.134,0,0,0,137.959,221.417Z"/><path class="cls-1" d="M142.294,141.029a45.941,45.941,0,0,0-2.618-4.4c-1.095-1.658-2.31-3.346-3.563-5.091-.752-1.051-1.519-2.117-2.281-3.2a18.881,18.881,0,0,1-2.4-4.513c-1.538-4.4-.005-7.16.916-8.313A7.544,7.544,0,0,1,141.2,113.5a7.053,7.053,0,0,1,1.648,1.229v6.042a37.6,37.6,0,0,0-3.388-3.375,3.287,3.287,0,0,0-3.775.766c-.969,1.215-1.046,3.882,1.644,7.724.747,1.071,1.5,2.122,2.247,3.159,1.142,1.581,2.247,3.124,3.274,4.653v8.018A2.171,2.171,0,0,1,142.294,141.029Z"/><path class="cls-1" d="M142.849,120.773V133.7c-1.028-1.529-2.132-3.072-3.274-4.653-.743-1.037-1.5-2.088-2.247-3.159-2.691-3.842-2.613-6.509-1.644-7.724a3.286,3.286,0,0,1,3.775-.766A37.754,37.754,0,0,1,142.849,120.773Z"/><path class="cls-1" d="M142.294,141.029a2.167,2.167,0,0,0,.555.689v32.7H137.4c.246-1.992.55-4.417.883-7.059.863-6.924,1.91-15.357,2.661-21.413a13.01,13.01,0,0,0-1.76-8.987l.492-.329A45.941,45.941,0,0,1,142.294,141.029Z"/><path class="cls-2" d="M135.254,174.415H137.4c-.072.617-.144,1.186-.212,1.711-.019.145-.034.285-.053.42h-2.15C135.066,175.919,135.153,175.2,135.254,174.415Z"/><path class="cls-2" d="M134.985,176.545h2.15c-.116.925-.2,1.615-.275,2.135h-2.141C134.777,178.185,134.869,177.457,134.985,176.545Z"/><path class="cls-1" d="M135.573,139.245c1.017,1.3,1.451,3.66,1.142,6.171-1.692,13.608-2.931,23.564-3.611,29H120.047c.072-.14.144-.28.221-.425,1.78-3.394,4.8-17.753,6.413-26.717a2.134,2.134,0,0,0,.483-2.74v0c.554-3.274,3.4-6.822,6.224-6.488A3.1,3.1,0,0,1,135.573,139.245Z"/><path class="cls-2" d="M133.1,174.415h2.15c-.1.786-.188,1.5-.269,2.131h-2.151C132.911,175.938,133,175.225,133.1,174.415Z"/><path class="cls-2" d="M132.834,176.545h2.151c-.116.911-.208,1.639-.266,2.135h-2.155C132.617,178.258,132.708,177.544,132.834,176.545Z"/><path class="cls-2" d="M134.772,218.408l4.836.068c-.578,1.07-1.133,2.055-1.649,2.941a2.134,2.134,0,0,1-1.841,1.056,2.1,2.1,0,0,1-1.071-.289,2.135,2.135,0,0,1-.772-2.917C134.435,218.992,134.6,218.7,134.772,218.408Z"/><path class="cls-2" d="M136.4,180.611a2.135,2.135,0,0,1-2.951.626,2.09,2.09,0,0,1-.921-1.354l2.083-.433s.039-.275.106-.767h2.141C136.658,180.225,136.6,180.307,136.4,180.611Z"/><path class="cls-1" d="M120.047,174.415H133.1c-.1.81-.193,1.523-.27,2.131H118.962c.043-.082.082-.164.125-.246C119.4,175.692,119.709,175.075,120.047,174.415Z"/><path class="cls-1" d="M118.962,176.545h13.872q-.189,1.5-.27,2.135h-14.7C118.253,177.944,118.61,177.25,118.962,176.545Z"/><path class="cls-2" d="M132.511,179.082c.009-.067.029-.2.053-.4h2.155c-.067.492-.1.762-.106.767l-2.083.432A2.028,2.028,0,0,1,132.511,179.082Z"/><path class="cls-2" d="M133.639,135.923c-4.007-.469-7.469,3.573-8.433,7.565h-2.184c1.036-5.236,5.564-10.3,10.863-9.682a7.364,7.364,0,0,1,5.044,2.806c.086.111.173.227.255.343a13.01,13.01,0,0,1,1.76,8.987c-.752,6.056-1.8,14.49-2.661,21.413-.333,2.642-.637,5.067-.883,7.059h-2.146c.892-7.137,2.524-20.266,3.578-28.738C139.377,141.275,138.046,136.443,133.639,135.923Z"/><path class="cls-2" d="M127.366,124.365a2.133,2.133,0,0,1-1.4,2.671,2.1,2.1,0,0,1-.635.1H90.7a2.131,2.131,0,0,1,0-4.262h34.63A2.138,2.138,0,0,1,127.366,124.365Z"/><path class="cls-1" d="M127.462,145.619a2.135,2.135,0,0,1-.781,1.654c.18-.983.343-1.9.483-2.739A2.124,2.124,0,0,1,127.462,145.619Z"/><path class="cls-2" d="M125.206,143.488c.964-3.992,4.426-8.033,8.433-7.565,4.407.521,5.738,5.352,5.191,9.754-1.056,8.472-2.685,21.6-3.578,28.738H133.1c.68-5.434,1.919-15.392,3.611-29,.309-2.512-.125-4.875-1.142-6.172a3.1,3.1,0,0,0-2.185-1.205c-2.825-.333-5.67,3.216-6.224,6.488v0a2.134,2.134,0,0,0-1.839-1.045Z"/><path class="cls-2" d="M125.327,55.453a2.131,2.131,0,0,1,0,4.262H87.043A2.132,2.132,0,0,1,85.732,55.9l23.179-18.058a2.132,2.132,0,0,1,2.623,3.361L93.25,55.453Z"/><path class="cls-2" d="M125.327,81.635a2.131,2.131,0,0,1,0,4.262H91.343a2.131,2.131,0,0,1,0-4.262h33.984Z"/><path class="cls-2" d="M125.327,102.252a2.132,2.132,0,0,1,0,4.263H111.5a2.132,2.132,0,0,1,0-4.263h13.825Z"/><path class="cls-2" d="M126.628,29.565l-9.87,7.584a2.132,2.132,0,0,1-2.6-3.38l4.894-3.761H87.043a2.131,2.131,0,1,1,0-4.262h38.283a2.13,2.13,0,0,1,1.3,3.819Z"/><path class="cls-2" d="M125.327,143.488a2.133,2.133,0,0,1,1.838,1.046c-.14.834-.3,1.755-.482,2.739a2.168,2.168,0,0,1-1.355.478h-.9c.231-1.244.443-2.445.636-3.578.039-.227.087-.453.145-.685Z"/><path class="cls-2" d="M125.061,144.173c-.193,1.133-.405,2.334-.636,3.578h-2.163c.252-1.355.487-2.676.7-3.935.019-.111.038-.216.062-.328h2.185C125.148,143.719,125.1,143.946,125.061,144.173Z"/><path class="cls-2" d="M123.022,143.488c-.025.111-.044.217-.063.328-.212,1.259-.449,2.58-.7,3.935h-66a2.132,2.132,0,1,1-.009-4.263h66.771Z"/><path class="cls-1" d="M56.26,147.75h66c-1.857,10.063-4.557,21.949-5.768,24.259-.443.848-.829,1.615-1.21,2.362-.01.015-.014.029-.024.044H47.06c-.01-.015-.015-.029-.024-.044-.376-.752-.767-1.519-1.211-2.362-1.21-2.31-3.905-14.2-5.767-24.259h8.308a2.133,2.133,0,0,0,2.137-2.129v0h3.625A2.132,2.132,0,0,0,56.26,147.75Z"/><path class="cls-2" d="M118.383,173c1.437-2.744,4.229-15.348,6.042-25.252h.9a2.161,2.161,0,0,0,1.355-.477c-1.62,8.964-4.633,23.324-6.413,26.718-.077.144-.149.284-.221.424h-2.43C117.893,173.923,118.147,173.45,118.383,173Z"/><path class="cls-2" d="M116.392,176.545c.439-.743.848-1.457,1.225-2.132h2.43c-.337.661-.651,1.278-.959,1.886-.044.081-.082.163-.125.246Z"/><path class="cls-1" d="M115.259,183.272c1.117-1.847,1.919-3.288,2.608-4.59h14.7c-.024.2-.043.333-.053.4a2.057,2.057,0,0,0,.019.8L115.1,183.5A2.163,2.163,0,0,0,115.259,183.272Z"/><path class="cls-2" d="M116.392,176.545h2.57c-.352.7-.709,1.4-1.095,2.135h-2.753C115.557,177.95,115.987,177.235,116.392,176.545Z"/><path class="cls-2" d="M115.114,178.682h2.753c-.689,1.3-1.49,2.743-2.608,4.59a2.163,2.163,0,0,1-.159.232l-2.657.549a1.308,1.308,0,0,1-.116-.062,1.822,1.822,0,0,1-.3-.227C113.069,182.038,114.126,180.321,115.114,178.682Z"/><path class="cls-2" d="M115.259,174.415h2.358c-.377.675-.786,1.388-1.226,2.131h-2.222C114.55,175.813,114.9,175.123,115.259,174.415Z"/><path class="cls-2" d="M124.425,147.75c-1.813,9.9-4.605,22.508-6.042,25.252-.236.448-.492.921-.766,1.413h-2.358c.009-.015.014-.029.024-.044.381-.747.767-1.514,1.21-2.362,1.21-2.31,3.91-14.2,5.768-24.259Z"/><path class="cls-2" d="M116.392,176.545c-.405.689-.835,1.4-1.278,2.135h-2.107c.433-.771.81-1.47,1.162-2.135Z"/><path class="cls-2" d="M47.06,174.415h68.2c-.357.708-.709,1.4-1.09,2.131H48.149C47.769,175.813,47.418,175.118,47.06,174.415Z"/><path class="cls-2" d="M112.443,184.053l2.657-.549a2.145,2.145,0,0,1-1.669.8A2.09,2.09,0,0,1,112.443,184.053Z"/><path class="cls-2" d="M114.169,176.545c-.352.665-.728,1.364-1.162,2.135h-63.7c-.433-.771-.81-1.47-1.163-2.135Z"/><path class="cls-2" d="M115.114,178.682c-.988,1.639-2.045,3.356-3.091,5.083a2.127,2.127,0,0,1-.414-2.7c.53-.878.988-1.664,1.4-2.382Z"/><path class="cls-1" d="M112.443,184.053l-.613.131-.072.014c.087-.144.18-.288.265-.433a1.719,1.719,0,0,0,.3.227C112.366,184.015,112.4,184.034,112.443,184.053Z"/><path class="cls-2" d="M112.134,185.635a2.122,2.122,0,0,1-.029,2.127c-.583.988-1.094,1.871-1.553,2.685-2.786,4.939-4.064,10.03-5.125,16.153-.463,2.671-.014,7.532.444,11.4l-4.3-.058c-.492-4.248-.873-9.026-.343-12.069,1.138-6.558,2.527-12.05,5.608-17.517.477-.844,1-1.75,1.6-2.763a2.137,2.137,0,0,1,2.922-.752A2.108,2.108,0,0,1,112.134,185.635Z"/><path class="cls-2" d="M104.328,102.252a2.132,2.132,0,0,1,0,4.263H33.892a2.132,2.132,0,1,1,0-4.263Z"/><path class="cls-2" d="M136.113,222.7l-32.219-.454.009-.588a1.62,1.62,0,0,0,.27-.019,2.134,2.134,0,0,0,1.852-2.382c-.048-.4-.1-.82-.154-1.253l28.9.409c-.168.294-.337.584-.5.858a2.137,2.137,0,0,0,.772,2.918,2.108,2.108,0,0,0,1.071.288Z"/><path class="cls-2" d="M101.57,217.941l4.3.058c.053.432.108.853.154,1.253a2.134,2.134,0,0,1-1.852,2.382,1.62,1.62,0,0,1-.27.019,2.137,2.137,0,0,1-2.112-1.87C101.719,219.185,101.642,218.567,101.57,217.941Z"/><path class="cls-2" d="M103.894,222.241l-2.97-.043a.441.441,0,0,0-.3.144.448.448,0,0,0-.121.343v.106l.082,12.387a2.131,2.131,0,1,1-4.262.029l-.082-12.339a4.734,4.734,0,0,1,4.523-4.936l.087,0h.081l.642.01c.072.627.149,1.244.221,1.842a2.137,2.137,0,0,0,2.112,1.871Z"/><path class="cls-2" d="M85.315,122.869a2.131,2.131,0,0,1,0,4.262H33.892A2.132,2.132,0,0,1,31.76,125a2.091,2.091,0,0,1,.169-.829,2.126,2.126,0,0,1,1.963-1.3Z"/><path class="cls-2" d="M84.13,81.635a2.131,2.131,0,0,1,0,4.262H33.892a2.131,2.131,0,1,1,0-4.262Z"/><path class="cls-2" d="M70.715,20.582V60.794a2.131,2.131,0,0,1-2.129,2.135H31.866A2.132,2.132,0,0,1,29.735,60.8h0V20.582a2.132,2.132,0,0,1,2.131-2.131H68.584A2.131,2.131,0,0,1,70.715,20.582ZM66.452,58.664V22.713H34V58.664Z"/><rect class="cls-1" x="33.998" y="22.713" width="32.455" height="35.951"/><path class="cls-2" d="M61.1,205.872c.526,3.042.144,7.816-.347,12.069l-4.3.058c.458-3.868.9-8.728.438-11.4-1.06-6.124-2.338-11.216-5.118-16.153-.463-.815-.97-1.693-1.558-2.686a2.132,2.132,0,0,1,3.648-2.206l.021.037c.6,1.017,1.129,1.918,1.6,2.762C58.569,193.822,59.958,199.314,61.1,205.872Z"/><path class="cls-2" d="M61.472,217.931a4.725,4.725,0,0,1,4.613,4.835l0,.1L66,235.208a2.132,2.132,0,0,1-2.131,2.117h-.014a2.133,2.133,0,0,1-2.122-2.144h0l.082-12.388a.753.753,0,0,1,0-.106.452.452,0,0,0-.125-.342.444.444,0,0,0-.3-.144l-2.97.043-.01-.588a2.133,2.133,0,0,0,2.112-1.871c.077-.6.149-1.215.222-1.842l.641-.01Z"/><path class="cls-2" d="M56.453,218l4.3-.058c-.073.627-.145,1.244-.222,1.842a2.132,2.132,0,0,1-2.112,1.871,1.753,1.753,0,0,1-.27-.02,2.127,2.127,0,0,1-1.848-2.373v-.009C56.346,218.852,56.4,218.433,56.453,218Z"/><path class="cls-1" d="M50.3,183.759c.087.144.181.294.265.439l-.072-.015-.613-.13a1.308,1.308,0,0,0,.116-.062A1.568,1.568,0,0,0,50.3,183.759Z"/><path class="cls-2" d="M50.3,183.759c-1.045-1.721-2.1-3.442-3.086-5.077h2.1c.409.718.868,1.5,1.4,2.382A2.115,2.115,0,0,1,50.3,183.759Z"/><path class="cls-2" d="M50.3,183.759a1.568,1.568,0,0,1-.3.232,1.293,1.293,0,0,1-.115.062l-2.647-.545v0a1.5,1.5,0,0,1-.164-.232c-1.124-1.847-1.92-3.288-2.609-4.59h2.753C48.193,180.317,49.249,182.038,50.3,183.759Z"/><path class="cls-2" d="M48.366,143.488a2.132,2.132,0,0,1,.009,4.263H40.059c-.253-1.355-.487-2.676-.7-3.935-.019-.111-.038-.216-.062-.328Z"/><path class="cls-2" d="M47.229,183.508l2.647.545a2.094,2.094,0,0,1-.989.246A2.12,2.12,0,0,1,47.229,183.508Z"/><path class="cls-2" d="M48.149,176.545c.353.665.729,1.364,1.163,2.135h-2.1c-.443-.732-.872-1.446-1.277-2.135Z"/><path class="cls-2" d="M45.932,176.545c.405.689.834,1.4,1.277,2.135H44.456c-.385-.737-.742-1.431-1.1-2.135Z"/><path class="cls-2" d="M44.712,174.415H47.06c.357.7.709,1.4,1.089,2.131H45.932C45.493,175.8,45.083,175.09,44.712,174.415Z"/><path class="cls-1" d="M44.456,178.682h-14.7c-.057-.424-.149-1.138-.274-2.136H43.357C43.714,177.25,44.071,177.944,44.456,178.682Z"/><path class="cls-2" d="M44.712,174.415c.371.675.781,1.388,1.22,2.131H43.357c-.039-.082-.082-.169-.126-.252-.308-.608-.617-1.22-.959-1.881Z"/><path class="cls-1" d="M43.231,176.3c.044.082.087.169.126.252H29.485c-.077-.607-.164-1.321-.27-2.131H42.272C42.614,175.075,42.923,175.688,43.231,176.3Z"/><path class="cls-2" d="M47.036,174.371c.009.015.014.029.024.044H44.712c-.28-.492-.536-.965-.772-1.413-1.442-2.744-4.233-15.348-6.046-25.252h2.165c1.861,10.063,4.556,21.949,5.767,24.259C46.269,172.852,46.661,173.619,47.036,174.371Z"/><path class="cls-1" d="M42.272,174.415H29.214c-.68-5.435-1.919-15.393-3.6-29-.313-2.511.125-4.874,1.143-6.171a3.1,3.1,0,0,1,2.179-1.206c2.527-.3,5.068,2.508,5.974,5.449H33.893a2.131,2.131,0,1,0-.009,4.262h1.841c1.644,8.983,4.576,22.9,6.326,26.24C42.127,174.135,42.2,174.273,42.272,174.415Z"/><path class="cls-2" d="M37.894,147.75c1.813,9.9,4.6,22.508,6.046,25.252.237.448.492.921.772,1.413h-2.44c-.072-.14-.144-.28-.222-.425-1.75-3.337-4.682-17.257-6.326-26.24Z"/><path class="cls-2" d="M37.894,147.75c-.232-1.244-.444-2.444-.637-3.577-.038-.227-.086-.454-.144-.685H39.3c.024.111.043.216.062.328.212,1.258.449,2.58.7,3.934Z"/><path class="cls-2" d="M37.257,144.173c.193,1.133.405,2.334.637,3.578h-2.17c-.212-1.172-.4-2.257-.569-3.221a8.278,8.278,0,0,0-.252-1.042h2.208C37.171,143.719,37.219,143.946,37.257,144.173Z"/><path class="cls-1" d="M35.155,144.529c.164.965.357,2.05.569,3.221H33.892a2.131,2.131,0,1,1-.009-4.262H34.9A8.26,8.26,0,0,1,35.155,144.529Z"/><path class="cls-1" d="M111.9,38.215a2.134,2.134,0,0,0-3-.372h0L85.729,55.9a2.133,2.133,0,0,0,1.312,3.814h38.283a2.131,2.131,0,1,0,0-4.262H93.245L111.529,41.2a2.128,2.128,0,0,0,.378-2.984Zm-2.532,66.168a2.134,2.134,0,0,0,2.131,2.132h13.825a2.132,2.132,0,0,0,0-4.263H111.5a2.133,2.133,0,0,0-2.131,2.131Zm4.4-67.626a2.127,2.127,0,0,0,2.982.4l.008-.006,9.87-7.584a2.13,2.13,0,0,0-1.3-3.819H87.044a2.131,2.131,0,1,0,0,4.262h32.011l-4.9,3.761a2.134,2.134,0,0,0-.391,2.992ZM89.212,83.764A2.131,2.131,0,0,0,91.343,85.9h33.984a2.131,2.131,0,0,0,0-4.262H91.343a2.13,2.13,0,0,0-2.131,2.132h0Zm17.247,20.618a2.131,2.131,0,0,0-2.131-2.131H33.892a2.131,2.131,0,1,0,0,4.262h70.436a2.131,2.131,0,0,0,2.131-2.13Zm-20.2-20.618a2.132,2.132,0,0,0-2.131-2.131H33.892a2.131,2.131,0,1,0,0,4.262H84.13a2.132,2.132,0,0,0,2.131-2.129ZM33.892,122.869a2.126,2.126,0,0,0-1.963,1.3l-1.041-.352c1.538-4.4,0-7.161-.916-8.313a7.542,7.542,0,0,0-8.853-2.006c-.829.337-2.7,2.155-4.749,4.345V4.588H134.583a2.131,2.131,0,0,0,2.131-2.131.312.312,0,0,0,0-.068l6.138-.188v112.53A7.074,7.074,0,0,0,141.2,113.5a7.544,7.544,0,0,0-8.853,2.005c-.921,1.154-2.454,3.915-.916,8.313l-4.065.545a2.139,2.139,0,0,0-2.04-1.495H90.7A2.132,2.132,0,0,0,88.566,125H87.448a2.132,2.132,0,0,0-2.131-2.131ZM70.715,60.794V20.582a2.131,2.131,0,0,0-2.131-2.131H31.866a2.132,2.132,0,0,0-2.131,2.131V60.794a2.132,2.132,0,0,0,2.13,2.135H68.584A2.132,2.132,0,0,0,70.715,60.8Z"/><path class="cls-1" d="M29.759,178.682h14.7c.689,1.3,1.485,2.743,2.609,4.59a1.5,1.5,0,0,0,.164.232l-17.436-3.621a2.038,2.038,0,0,0,.015-.8C29.8,179.015,29.779,178.88,29.759,178.682Z"/><path class="cls-2" d="M29.793,179.883l-2.088-.433s-.038-.275-.1-.767h2.155c.02.2.039.333.049.4A2.033,2.033,0,0,1,29.793,179.883Z"/><path class="cls-2" d="M29.759,178.682H27.6c-.063-.5-.154-1.226-.27-2.136h2.151C29.61,177.544,29.7,178.258,29.759,178.682Z"/><path class="cls-2" d="M27.334,176.545c-.077-.627-.164-1.341-.265-2.132h2.145c.106.81.193,1.524.27,2.132Z"/><path class="cls-2" d="M27.546,218.408,56.453,218c-.053.432-.107.853-.155,1.253a2.128,2.128,0,0,0,1.838,2.381h.009a1.751,1.751,0,0,0,.27.019l.01.588-32.219.454,0-.222a2.13,2.13,0,0,0,1.842-3.207C27.884,218.992,27.715,218.7,27.546,218.408Z"/><path class="cls-2" d="M27.6,178.682H25.465c-.072-.521-.159-1.21-.275-2.136h2.146C27.45,177.457,27.541,178.185,27.6,178.682Z"/><path class="cls-2" d="M22.71,218.476l4.836-.068c.169.294.338.584.5.858a2.133,2.133,0,0,1-3.684,2.151C23.843,220.53,23.289,219.541,22.71,218.476Z"/><path class="cls-2" d="M27.069,174.415c.1.79.188,1.5.265,2.131H25.188c-.019-.135-.033-.275-.053-.42-.067-.525-.139-1.1-.216-1.711Z"/><path class="cls-1" d="M26.64,118.164c.969,1.215,1.041,3.882-1.649,7.724-.748,1.071-1.5,2.122-2.247,3.159a82.576,82.576,0,0,0-6.374,9.778V124.19a76.633,76.633,0,0,1,6.494-6.794A3.3,3.3,0,0,1,26.64,118.164Z"/><path class="cls-2" d="M27.705,179.449l2.088.432a2.1,2.1,0,0,1-.921,1.355,2.134,2.134,0,0,1-2.951-.626h0c-.2-.3-.255-.386-.458-1.929H27.6C27.667,179.174,27.705,179.444,27.705,179.449Z"/><path class="cls-2" d="M23.491,145.677c-.549-4.4.786-9.234,5.193-9.754,4-.469,7.464,3.573,8.428,7.565H34.9c-.906-2.941-3.447-5.748-5.974-5.449a3.1,3.1,0,0,0-2.179,1.206c-1.018,1.3-1.457,3.66-1.143,6.171,1.687,13.608,2.927,23.564,3.605,29H27.067C26.177,167.28,24.542,154.149,23.491,145.677Z"/><path class="cls-1" d="M28.434,133.806a7.35,7.35,0,0,0-5.039,2.806c-.087.111-.174.227-.256.343l-.492-.329c1.09-1.658,2.305-3.346,3.559-5.091.757-1.051,1.523-2.117,2.28-3.2a18.885,18.885,0,0,0,2.4-4.513l1.041.352a2.091,2.091,0,0,0-.169.829,2.132,2.132,0,0,0,2.132,2.131H85.315A2.132,2.132,0,0,0,87.447,125h1.117a2.131,2.131,0,0,0,2.131,2.131h34.63a2.134,2.134,0,0,0,2.04-2.767l4.064-.545a18.885,18.885,0,0,0,2.4,4.513c.761,1.085,1.528,2.151,2.28,3.2,1.254,1.745,2.469,3.433,3.563,5.091l-.491.328c-.082-.115-.169-.231-.256-.342a7.36,7.36,0,0,0-5.043-2.806c-5.3-.622-9.827,4.445-10.864,9.682H56.259a2.132,2.132,0,0,0-2.132,2.131H50.5a2.135,2.135,0,0,0-2.136-2.131H39.3C38.265,138.252,33.733,133.184,28.434,133.806Z"/><path class="cls-2" d="M28.684,135.923c-4.407.52-5.742,5.352-5.193,9.754,1.051,8.471,2.686,21.6,3.578,28.738H24.918c-.245-1.992-.549-4.417-.877-7.06-.868-6.923-1.914-15.356-2.668-21.412a13.025,13.025,0,0,1,1.765-8.988c.082-.115.168-.231.255-.342a7.352,7.352,0,0,1,5.039-2.806c5.3-.622,9.832,4.445,10.864,9.682H37.111C36.148,139.5,32.686,135.455,28.684,135.923Z"/><path class="cls-2" d="M22.71,218.476c.579,1.065,1.133,2.055,1.649,2.941a2.135,2.135,0,0,0,1.842,1.056l0,.222-6.529.092a.378.378,0,0,1-.082-.006.5.5,0,0,0-.337.136.457.457,0,0,0-.14.332l.014,12.4a2.128,2.128,0,0,1-2.121,2.136H17a2.131,2.131,0,0,1-2.131-2.131l-.015-12.4a4.732,4.732,0,0,1,4.73-4.735h.068Z"/><path class="cls-1" d="M23.139,136.955a13,13,0,0,0-1.764,8.987c.752,6.056,1.8,14.49,2.667,21.413.328,2.642.632,5.067.878,7.059H16.37V141.27a2.164,2.164,0,0,0,.79.694,2.1,2.1,0,0,0,.964.232,2.132,2.132,0,0,0,1.905-1.167,44.142,44.142,0,0,1,2.618-4.4Z"/><path class="cls-1" d="M20.029,141.029a2.132,2.132,0,0,1-1.905,1.167,2.1,2.1,0,0,1-.964-.232,2.164,2.164,0,0,1-.79-.694v-2.445a82.658,82.658,0,0,1,6.374-9.778c.742-1.037,1.5-2.088,2.247-3.159,2.69-3.842,2.618-6.509,1.649-7.724a3.291,3.291,0,0,0-3.776-.766,76.565,76.565,0,0,0-6.494,6.793v-6.344c2.049-2.189,3.92-4.007,4.749-4.345a7.542,7.542,0,0,1,8.853,2.006c.92,1.153,2.454,3.915.916,8.313a18.936,18.936,0,0,1-2.4,4.513c-.758,1.085-1.524,2.151-2.281,3.2-1.254,1.745-2.469,3.433-3.559,5.091A44.142,44.142,0,0,0,20.029,141.029Z"/><path class="cls-2" d="M16.37,138.825v2.445a2.14,2.14,0,0,1-.145-2.17C16.273,139.009,16.316,138.917,16.37,138.825Z"/><path class="cls-2" d="M16.37,117.846v6.345c-.7.781-1.408,1.6-2.132,2.435v-6.457C14.947,119.379,15.67,118.593,16.37,117.846Z"/><path class="cls-2" d="M14.238,2.457H134.583l2.127-.068a.389.389,0,0,1,0,.068,2.132,2.132,0,0,1-2.132,2.131H16.37V117.846c-.7.747-1.423,1.533-2.132,2.324Z"/><path class="cls-2" d="M14.238,176.545V126.626c.724-.839,1.437-1.654,2.132-2.435v14.636c-.054.091-.1.183-.145.275a2.138,2.138,0,0,0,.145,2.169v33.145h8.548c.078.613.15,1.186.217,1.712.019.144.033.284.053.419Z"/><path class="cls-2" d="M14.238,120.17v6.456c-.709.825-1.427,1.664-2.131,2.5v-6.558C12.782,121.805,13.505,120.985,14.238,120.17Z"/><path class="cls-2" d="M14.238,2.457V120.17c-.733.815-1.456,1.635-2.131,2.4V2.457A2.131,2.131,0,0,1,14.238.326H134.583a2.126,2.126,0,0,1,2.127,2.063l-2.127.068Z"/><path class="cls-2" d="M14.238,176.545h10.95c.116.925.2,1.615.275,2.135H14.238a2.117,2.117,0,0,1-1.87-1.117,2.046,2.046,0,0,1-.261-1.017V129.129c.7-.839,1.422-1.678,2.131-2.5Z"/><path class="cls-2" d="M12.107,129.129a83.124,83.124,0,0,0-7.75,10.289c.014-.115.024-.207.038-.279a2.134,2.134,0,0,0-4.031-1.278c1.746-3.52,7.836-10.752,10.4-13.737.41-.477.863-1,1.34-1.553Z"/><path class="cls-2" d="M4.137,139.852a2.132,2.132,0,0,1-4.046-.641c.029-.308.063-.578.1-.8a2.133,2.133,0,1,1,4.2.728h0c-.015.072-.024.164-.039.279C4.276,139.573,4.2,139.717,4.137,139.852Z"/><path class="cls-3" d="M.279,138.035c.029-.058.053-.116.087-.174a2.126,2.126,0,0,0-.173.549c-.039.223-.073.493-.1.8A2.144,2.144,0,0,1,.279,138.035Z"/><path class="cls-2" d="M4.358,139.418c-.168,1.452-.279,6.481,1.163,23.7A61.624,61.624,0,0,0,8.9,178.7q.621,1.743,1.345,3.448c4.041,9.5,12.175,27.233,17.305,36.264l-4.836.068c-5.212-9.61-12.6-25.738-16.394-34.663A65.976,65.976,0,0,1,1.273,163.47C.2,150.668-.2,142.524.091,139.211a2.133,2.133,0,0,0,4.046.642C4.2,139.717,4.276,139.573,4.358,139.418Z"/></g></g></svg>