<svg xmlns="http://www.w3.org/2000/svg" viewBox="0 0 159.54 160.633"><defs><style>.cls-1{fill:#25813a;}</style></defs><g id="レイヤー_2" data-name="レイヤー 2"><g id="レイヤー_" data-name="レイヤー １"><path class="cls-1" d="M156.594,88.362c-2.912-1.752-6.842-.789-10.512,2.577-.783.718-1.55,1.44-2.307,2.15-3.549,3.336-6.9,6.487-10.332,7.726a6.791,6.791,0,0,1-1.95.4,2.114,2.114,0,0,0,.255,4.22,11.04,11.04,0,0,0,3.132-.644c4.253-1.536,7.915-4.978,11.791-8.622.744-.7,1.5-1.408,2.27-2.115,2.6-2.388,4.534-2.632,5.475-2.069a2.222,2.222,0,0,1,.831,2.418c-1.321,2.244-12.372,14.892-15.7,17.033-3.182,2.049-26.422,10.367-36.078,11.963-6.311,1.046-21.9-.978-30.842-2.592a41.428,41.428,0,0,0-9.677-.471,2.092,2.092,0,0,0-.4.064L51.783,103.173c3.64-2.158,8.765-5.152,11.483-5.784,4.807-1.117,8.925-1.756,13.37-1.254,2.236.253,4.71.622,7.1.978,2.994.446,5.823.867,8.08,1.054,2.456.2,9.477-.084,15.671-.336,3.861-.158,7.848-.322,8.723-.263,4.376.286,7.1,1.716,8.1,4.251a2.089,2.089,0,0,0,.661.877,2.108,2.108,0,0,0-1.052.58c-.422.431-1.633.812-3.6,1.133a66.355,66.355,0,0,1-7.872.795c-.568.015-1.446.027-2.485.043-6.245.09-9.635.186-10.835.462a56.3,56.3,0,0,0-11.4,4.689l-.289.145a2.114,2.114,0,0,0,.478,4.022,2.163,2.163,0,0,0,.379.035,2.861,2.861,0,0,0,1.342-.43c5.8-2.939,8.877-3.982,10.433-4.34,1.017-.226,7.276-.317,9.949-.355,1.058-.016,1.953-.029,2.531-.043a71.12,71.12,0,0,0,8.446-.85c2.25-.367,4.526-.9,5.939-2.344a2.114,2.114,0,0,0-.029-2.99,2.05,2.05,0,0,0-.179-.144,1.943,1.943,0,0,0,.321-.09,2.115,2.115,0,0,0,1.2-2.741c-1.132-2.883-4.091-6.424-11.756-6.924-1.041-.07-4.011.047-9.172.257-5.771.235-12.957.528-15.151.346-2.119-.174-4.88-.586-7.8-1.022-2.429-.361-4.94-.735-7.25-1-5.053-.574-9.572.12-14.8,1.338-3.371.784-8.513,3.792-12.768,6.316l-.508-.813a4.192,4.192,0,0,0-5.833-1.3l-2.425,1.511a2.114,2.114,0,1,0,2.236,3.589l2.437-1.562L63.2,129.335l-5.35,3.157L35.971,96.025a2.114,2.114,0,0,0-2.995-.665c-.1.066-10.21,6.861-31.936,19.676a2.114,2.114,0,0,0,2.149,3.642c16.577-9.778,26.447-16.083,30.29-18.587l20.772,34.62c-5.032,2.907-19.765,11.422-37.991,21.977a2.115,2.115,0,1,0,2.119,3.66c22.613-13.1,39.847-23.05,39.848-23.05a2.112,2.112,0,0,0,.772-.79,2.1,2.1,0,0,0,.8-.258l5.546-3.272a4.192,4.192,0,0,0,1.426-5.835l-1.657-2.65a34.872,34.872,0,0,1,6.763.476c6.413,1.158,18.709,2.94,27.091,2.939a33.064,33.064,0,0,0,5.194-.336c9.7-1.605,33.83-10.1,37.677-12.58C145.47,112.654,158.686,98,159.3,95.631A6.445,6.445,0,0,0,156.594,88.362Z"/><path class="cls-1" d="M103.93,21.1a.646.646,0,0,0-.529-1.018H99.6a.646.646,0,0,0-.548.3c-3.038,4.853-6.032,9.7-9.109,14.557a.65.65,0,0,1-1.1,0L79.732,20.384a.645.645,0,0,0-.548-.3h-3.81a.646.646,0,0,0-.532,1.014L85.354,36.28a.646.646,0,0,1-.531,1.014H78.441a.646.646,0,0,0-.646.646v1.515a.646.646,0,0,0,.646.646H86.47a.646.646,0,0,1,.646.646v4.216a.646.646,0,0,1-.646.646H78.441a.646.646,0,0,0-.646.646V47.77a.647.647,0,0,0,.646.647H86.47a.646.646,0,0,1,.646.646v8.188a.646.646,0,0,0,.646.646h3a.646.646,0,0,0,.646-.646V49.063a.646.646,0,0,1,.646-.646h7.976a.647.647,0,0,0,.647-.647V46.255a.647.647,0,0,0-.647-.646H92.052a.646.646,0,0,1-.646-.646V40.747a.646.646,0,0,1,.646-.646h7.976a.647.647,0,0,0,.647-.646V37.94a.647.647,0,0,0-.647-.646H93.764a.647.647,0,0,1-.528-1.019Z"/><path class="cls-1" d="M89.155,74.955a37.5,37.5,0,0,0,34.076-53.1,1.843,1.843,0,0,0-3.349,1.538,33.836,33.836,0,1,1-5.51-8.412,1.842,1.842,0,1,0,2.749-2.454A37.478,37.478,0,1,0,89.155,74.955Z"/></g></g></svg>