<svg xmlns="http://www.w3.org/2000/svg" viewBox="0 0 960.75 287"><defs><style>.cls-1{fill:#fed527;}.cls-2{fill:#ffeea6;}.cls-3{fill:#989898;}.cls-4{fill:#f7faf5;}.cls-5{opacity:0.67;}.cls-6{fill:none;stroke:#f2f2f2;stroke-miterlimit:10;stroke-width:1.515px;}</style></defs><g id="レイヤー_2" data-name="レイヤー 2"><g id="レイヤー_1-2" data-name="レイヤー 1"><circle class="cls-1" cx="143.121" cy="143.121" r="136.864" transform="translate(-21.077 261.469) rotate(-80.783)"/><path class="cls-2" d="M143.121,12.513a130.608,130.608,0,0,1,92.354,222.962A130.608,130.608,0,1,1,50.768,50.768a129.75,129.75,0,0,1,92.353-38.255m0-12.513A143.122,143.122,0,1,0,286.243,143.121,143.122,143.122,0,0,0,143.121,0Z"/><path d="M83.559,184.624l11.846-1.184q.377,4.684,1.862,6.543a4.883,4.883,0,0,0,4.025,1.857q3.834,0,6.724-4.389t4.78-13.111a13.962,13.962,0,0,1-8.686,3.231,15.234,15.234,0,0,1-12.33-6.112q-4.936-6.11-4.937-17.095a37.336,37.336,0,0,1,6.308-21.538q6.306-9.259,16.444-9.261a15.6,15.6,0,0,1,9.488,3.1q4.206,3.1,6.713,9.531t2.508,17.364q0,22.4-8.034,36.507t-20,14.107a14.91,14.91,0,0,1-11.645-5.061Q84.1,194.049,83.559,184.624Zm32.576-36.506q0-6.246-2.026-9.18a5.981,5.981,0,0,0-5.05-2.935q-3.729,0-6.428,4.254-3.511,5.654-3.511,15.13,0,6.139,1.971,9.073a5.732,5.732,0,0,0,4.835,2.935A7.268,7.268,0,0,0,110.6,165.4q2.349-1.993,3.943-6.677A32.848,32.848,0,0,0,116.135,148.118Z"/><path d="M182.859,143.164l-11.846,1.185q-.376-4.737-1.857-6.6A4.806,4.806,0,0,0,165.2,135.9q-3.823,0-6.7,4.387t-4.766,13.165a13.643,13.643,0,0,1,8.669-3.284,15.177,15.177,0,0,1,12.3,6.132q4.926,6.133,4.926,17.106a36.867,36.867,0,0,1-6.38,21.6q-6.381,9.171-16.181,9.171a15.838,15.838,0,0,1-9.611-3.147,20.909,20.909,0,0,1-6.784-9.525q-2.5-6.375-2.5-17.353,0-22.276,8.023-36.428t19.976-14.152a14.705,14.705,0,0,1,11.415,4.792Q181.944,133.15,182.859,143.164Zm-32.468,36.42q0,6.291,2.019,9.219a5.959,5.959,0,0,0,5.034,2.93q3.715,0,6.354-4.247,3.553-5.643,3.554-15.051,0-6.182-1.992-9.111a5.778,5.778,0,0,0-4.846-2.929,7.235,7.235,0,0,0-4.6,1.962q-2.342,1.962-3.931,6.638A32.833,32.833,0,0,0,150.391,179.584Z"/><rect class="cls-1" x="634.749" y="19.308" width="319.565" height="256.713"/><path class="cls-2" d="M947.88,25.743V269.586h-306.7V25.743h306.7m12.87-12.87H628.315V282.456H960.75V12.873Z"/><path d="M673.526,59.879a11.84,11.84,0,0,0-.15-2.35h2.9a19.84,19.84,0,0,0-.125,2.35v1.4h1.774a13.351,13.351,0,0,0,2.4-.15V63.8a18.715,18.715,0,0,0-1.95-.074,25.611,25.611,0,0,1-1.7,7.573c1.575,2,1.775,2.274,3.549,4.773l-1.974,2.2a35.748,35.748,0,0,0-2.875-4.325,24.534,24.534,0,0,1-4.973,6.174,8.938,8.938,0,0,0-1.9-2.324,17.326,17.326,0,0,0,5.124-6.124,45.567,45.567,0,0,0-4.249-4.6l1.825-1.849c.5.5.5.5,1.974,2.024.2.2.625.675,1.574,1.776a24.244,24.244,0,0,0,.976-5.3H671.1a15.92,15.92,0,0,0-2.324.125V61.129a17.979,17.979,0,0,0,2.473.15h2.275Zm8.323,6.749a31.381,31.381,0,0,1,3.524,5.774L683.1,73.9a22.3,22.3,0,0,0-3.5-6.048Zm1.4-1.55a15.579,15.579,0,0,0-2.374.125v-2.75a15.054,15.054,0,0,0,2.374.125h3.175V60.6a16.751,16.751,0,0,0-.175-2.974h3a22.485,22.485,0,0,0-.15,2.974v1.974h.3a14.355,14.355,0,0,0,2.35-.149v2.8c-.2-.025-.2-.025-.575-.075a14.529,14.529,0,0,0-1.75-.075H689.1V77.15c0,1.3-.075,1.724-.449,2.174-.476.6-1.375.85-3.025.85-1.025,0-1.95-.024-2.949-.1A8.3,8.3,0,0,0,681.9,77.3a25.1,25.1,0,0,0,3.024.3c1.35,0,1.5-.075,1.5-.6V65.078Z"/><path d="M699.339,62.3c-.024,10.872-.474,14.046-2.574,17.945a9.6,9.6,0,0,0-2.249-2.149,12.121,12.121,0,0,0,1.624-4.349,69.956,69.956,0,0,0,.525-10.572c0-1.8-.025-2.65-.1-3.5a20.1,20.1,0,0,0,2.6.125h6.374V58.7a6.5,6.5,0,0,0-.124-1.425h3.023a5.659,5.659,0,0,0-.125,1.451V59.8h6.474a21.311,21.311,0,0,0,2.949-.15v2.775a23.982,23.982,0,0,0-2.924-.125h-8.273a31.86,31.86,0,0,1,6.249,4.148l-1.925,2.125A24.044,24.044,0,0,0,704.513,64l1.925-1.7Zm-.2,14.671a15.165,15.165,0,0,0,1.351-4.1,31.258,31.258,0,0,0,.549-4.824l2.6.675a32.621,32.621,0,0,1-1.974,9.873Zm8.573-10.4a18.054,18.054,0,0,0-.125,2.35v7.849c0,.674.2.774,1.7.774,1.973,0,2-.1,2-4.6a10.91,10.91,0,0,0,2.649.875c-.2,3.424-.425,4.674-.975,5.373s-1.575.975-3.7.975c-3.474,0-4.348-.375-4.348-1.874V68.9a11.131,11.131,0,0,0-.151-2.326ZM715.46,78.15a29.973,29.973,0,0,0-2.874-9.048l2.374-1.175a44.756,44.756,0,0,1,3.175,8.948Z"/><path d="M740.925,71.977a22.189,22.189,0,0,0,2.849-.151v2.525a28.263,28.263,0,0,0-2.849-.125h-5.1a21.855,21.855,0,0,0,8.5,3.624,10.452,10.452,0,0,0-1.375,2.5,23.3,23.3,0,0,1-5.549-2.324,20.31,20.31,0,0,1-3.749-2.749c.025.724.075,1.649.075,1.974v1.125a12.33,12.33,0,0,0,.125,2.1h-2.9a9.9,9.9,0,0,0,.149-2.1v-1.1c0-.3,0-.4.025-.8v-.624a4.523,4.523,0,0,1,.026-.526c-2.25,2.15-4.674,3.549-8.849,5.049a7.913,7.913,0,0,0-1.549-2.4,22.708,22.708,0,0,0,8.2-3.749h-4.6a21.955,21.955,0,0,0-2.824.125V71.826a21.762,21.762,0,0,0,2.774.151h6.8V71.8a8.319,8.319,0,0,0-.125-1.624h2.875a8.015,8.015,0,0,0-.125,1.624v.176ZM738.6,65.228a10.209,10.209,0,0,1-2.25,2.274,54.821,54.821,0,0,1,6.323,1.85l-1.624,2a55.447,55.447,0,0,0-7.2-2.4c-2.7,1.2-6,1.825-10.8,2.075a6.349,6.349,0,0,0-1.05-2.15h.776a35.693,35.693,0,0,0,7.222-.8c-.9-.15-1.349-.224-4.8-.674a18.342,18.342,0,0,0,2.274-2.175h-2.924c-1.1,0-1.925.05-2.749.125v-2.3a15,15,0,0,0,2.525.125h4.8a14.216,14.216,0,0,0,1.3-2.1l2.675.625a6.223,6.223,0,0,0-.5.65,4.791,4.791,0,0,1-.325.45,2.294,2.294,0,0,1-.275.375h9.023a15.94,15.94,0,0,0,2.55-.125v2.3a20.947,20.947,0,0,0-2.75-.125Zm-7.448-6.373a10.3,10.3,0,0,0-.125-1.675h3.049a7.731,7.731,0,0,0-.125,1.675h6.7a26.735,26.735,0,0,0,2.7-.1,12.307,12.307,0,0,0-.1,1.775v.725a12.254,12.254,0,0,0,.076,1.475H740.65v-1.7H724.829V62.7h-2.7a8.262,8.262,0,0,0,.1-1.4v-.8a13.015,13.015,0,0,0-.1-1.75c.875.075,1.651.1,2.75.1Zm-.776,6.373c-.274.325-.424.475-.824.9,1.85.324,2.249.4,3.8.725a8.857,8.857,0,0,0,2.175-1.625Z"/><path d="M750.042,70.4c0-.85.026-1.65.076-2.749a13.561,13.561,0,0,1-2.1,2.9,10.386,10.386,0,0,0-1.125-3.074,21.539,21.539,0,0,0,4.3-7.1,15.44,15.44,0,0,0,.9-3.249l2.824.8c-.125.375-.174.5-.4,1.125a30.141,30.141,0,0,1-1.749,4.374V77.6c0,1.125.05,1.949.125,2.9h-3a21.341,21.341,0,0,0,.149-2.924Zm11-10.148a15.664,15.664,0,0,0-.174-2.624h3.1a13.217,13.217,0,0,0-.175,2.649v2.3h3.125a18.09,18.09,0,0,0,2.7-.149v2.849c-1.125-.1-1.875-.15-2.675-.15h-3.149V69.8h3.9a21.4,21.4,0,0,0,2.8-.15v2.875a22.866,22.866,0,0,0-2.75-.151h-3.949v5.2a15.436,15.436,0,0,0,.175,2.874h-3.1a18.6,18.6,0,0,0,.174-2.874v-5.2h-4.273a21.2,21.2,0,0,0-2.8.151V69.652a20.627,20.627,0,0,0,2.8.15h4.273V65.128H757.59a18.144,18.144,0,0,1-2.024,3.65,9.282,9.282,0,0,0-2.225-1.8,19.721,19.721,0,0,0,2.7-5.149,13.557,13.557,0,0,0,.775-3.175l2.749.7c-.175.574-.225.724-.449,1.5-.25.775-.351,1.1-.55,1.724h2.473Z"/><path d="M784.555,62.078a11.593,11.593,0,0,0,1.6-.074v2.3a12.079,12.079,0,0,0-1.6-.074H782.88a6.778,6.778,0,0,0,2.2,1.6,8.032,8.032,0,0,0-1.45,2.049,9.066,9.066,0,0,1-2.224-2.374c.05.525.075.824.075,1.025v.9a3.7,3.7,0,0,0,.1.924h-2.675a4.6,4.6,0,0,0,.075-.824v-.951c0-.224.025-.625.075-1.074a14.192,14.192,0,0,1-4.074,3.924,8.494,8.494,0,0,0-1.624-2.074,10.012,10.012,0,0,0,4-3.124h-1.35a11.773,11.773,0,0,0-2.075.124v-2.4a11.8,11.8,0,0,0,2.1.125h2.974V59.129a7.985,7.985,0,0,0-.125-1.7h2.725a9.786,9.786,0,0,0-.1,1.649v3Zm-1.275,17a13.4,13.4,0,0,0-2.324-1.524,13.118,13.118,0,0,1-5.974,2.975,10.919,10.919,0,0,0-1.3-2.3,13.666,13.666,0,0,0,4.949-1.85c-1.25-.55-1.925-.825-3.7-1.474a21.032,21.032,0,0,0,1.625-2.475h-.726a10.691,10.691,0,0,0-1.973.125V70.027a10.373,10.373,0,0,0,1.973.125h1.875a18.091,18.091,0,0,0,.65-1.775l2.6.5c-.225.625-.326.8-.525,1.275h3.948a8.84,8.84,0,0,0,1.85-.125v2.524a9.859,9.859,0,0,0-2.024-.125,9.287,9.287,0,0,1-1.5,3.2,13.054,13.054,0,0,1,2.024,1.125Zm-6.6-21.394a12.488,12.488,0,0,1,1.749,3.3l-2.2.825a12.943,12.943,0,0,0-1.675-3.324Zm2.549,14.746c-.35.6-.425.725-.875,1.4,1.05.374,1.375.5,2.125.825a6.474,6.474,0,0,0,1.125-2.225ZM786,58.555a21.567,21.567,0,0,1-1.9,3.374l-2.125-.95a12.326,12.326,0,0,0,1.775-3.349Zm10.872,5.674a12.877,12.877,0,0,0-1.749-.1,20.425,20.425,0,0,1-2.549,9.8,13.276,13.276,0,0,0,4.749,3.9,11.418,11.418,0,0,0-1.45,2.649,17.111,17.111,0,0,1-4.874-4.3,19.384,19.384,0,0,1-5.673,4.475,7.72,7.72,0,0,0-1.35-2.5,15.344,15.344,0,0,0,1.975-1.075A15.507,15.507,0,0,0,789.5,73.95a17.073,17.073,0,0,1-2.1-5.873c-.449.7-.625.951-1.15,1.65a8.744,8.744,0,0,0-1.8-1.8,18.356,18.356,0,0,0,3.374-7.2,18.112,18.112,0,0,0,.6-3.4l2.749.55c-.1.3-.15.524-.349,1.374-.151.65-.375,1.5-.651,2.475h4.35a13.512,13.512,0,0,0,2.348-.125Zm-7.522-.1c-.2.45-.2.45-.325.776a19.665,19.665,0,0,0,2,6.573,18.1,18.1,0,0,0,1.55-7.349Z"/><path d="M812.924,131.964l-6.491-1.181q.844-5.9,3.737-8.866a10.227,10.227,0,0,1,14.445.042,11.413,11.413,0,0,1,2.782,8.066,15.763,15.763,0,0,1-2.052,7.671,52.879,52.879,0,0,1-6.181,8.065,66.142,66.142,0,0,0-5.79,7.194h11.718l-1.264,7.363H803.314a22.052,22.052,0,0,1,2.923-8.74,81.121,81.121,0,0,1,7.615-9.751,69.042,69.042,0,0,0,5.564-7.025,9.616,9.616,0,0,0,1.574-4.834,5.274,5.274,0,0,0-1.026-3.442,3.14,3.14,0,0,0-2.515-1.25Q813.993,125.276,812.924,131.964Z"/><path d="M855.279,129.182l-6.182.618a6.567,6.567,0,0,0-.97-3.442,2.505,2.505,0,0,0-2.065-.97,4.24,4.24,0,0,0-3.5,2.29,20.82,20.82,0,0,0-2.486,6.871,7.11,7.11,0,0,1,4.524-1.714,7.921,7.921,0,0,1,6.421,3.2q2.571,3.2,2.571,8.927a19.239,19.239,0,0,1-3.33,11.272q-3.33,4.787-8.444,4.787a8.263,8.263,0,0,1-5.017-1.643,10.921,10.921,0,0,1-3.54-4.972,25.422,25.422,0,0,1-1.307-9.055q0-11.627,4.187-19.013t10.426-7.386a7.677,7.677,0,0,1,5.957,2.5Q854.8,123.955,855.279,129.182Zm-16.945,19.007A8.617,8.617,0,0,0,839.388,153a3.107,3.107,0,0,0,2.627,1.529,3.93,3.93,0,0,0,3.316-2.216,14.593,14.593,0,0,0,1.855-7.855,8.589,8.589,0,0,0-1.04-4.755,3.015,3.015,0,0,0-2.529-1.529,3.788,3.788,0,0,0-2.4,1.023,7.671,7.671,0,0,0-2.051,3.465A17.133,17.133,0,0,0,838.334,148.189Z"/><path d="M870.39,151.915H857.116l1.152-6.744,18.291-26.05h5.681L877.8,145.059h4.1l-1.181,6.856h-4.1l-1.439,8.4h-6.238Zm1.179-6.856,2.209-12.842-8.9,12.842Z"/><path d="M896.388,154.945c0-.6.018-1.159.053-1.931a9.554,9.554,0,0,1-1.476,2.037,7.323,7.323,0,0,0-.79-2.16A15.135,15.135,0,0,0,897.2,147.9a10.881,10.881,0,0,0,.632-2.284l1.985.562c-.088.263-.123.351-.281.79a21.276,21.276,0,0,1-1.23,3.074V160c0,.79.035,1.37.088,2.037h-2.107a14.972,14.972,0,0,0,.105-2.054Zm7.728-7.129a10.991,10.991,0,0,0-.123-1.845h2.177a9.324,9.324,0,0,0-.123,1.862v1.615h2.2a12.725,12.725,0,0,0,1.9-.105v2c-.79-.069-1.316-.1-1.879-.1h-2.213v3.285h2.741a15.055,15.055,0,0,0,1.966-.106v2.02a16.05,16.05,0,0,0-1.931-.106h-2.776v3.654a10.876,10.876,0,0,0,.123,2.019h-2.177a13.036,13.036,0,0,0,.123-2.019v-3.654h-3a14.892,14.892,0,0,0-1.968.106v-2.02a14.521,14.521,0,0,0,1.968.106h3V151.24h-2.424a12.774,12.774,0,0,1-1.423,2.564,6.577,6.577,0,0,0-1.563-1.265,13.889,13.889,0,0,0,1.9-3.617,9.445,9.445,0,0,0,.544-2.23l1.933.491c-.124.4-.159.51-.317,1.054-.176.544-.246.773-.387,1.211h1.74Z"/><path d="M113.465,231.7l.48.5-5.325,5.354,5.325,5.325-.48.5-5.325-5.28-5.31,5.28-.5-.5,5.325-5.325-5.325-5.354.5-.5,5.31,5.326Zm-8.475,5.835a1.144,1.144,0,0,1-1.14,1.156,1.166,1.166,0,0,1-1.155-1.156,1.148,1.148,0,0,1,2.3,0Zm4.29,4.38a1.162,1.162,0,0,1-1.14,1.155,1.158,1.158,0,0,1-.105-2.31h.045c.015.015.015.015.03.015l.03-.015A1.143,1.143,0,0,1,109.28,241.911Zm.015-8.715a1.144,1.144,0,0,1-1.14,1.156A1.166,1.166,0,0,1,107,233.2a1.152,1.152,0,0,1,1.155-1.139A1.139,1.139,0,0,1,109.3,233.2Zm4.275,4.35a1.141,1.141,0,1,1-1.14-1.14A1.14,1.14,0,0,1,113.57,237.546Z"/><path d="M129.755,232.086a7.443,7.443,0,0,0-.09-1.349h1.155a7.33,7.33,0,0,0-.09,1.349v4.441h3.855a6.109,6.109,0,0,0,1.185-.09,9.6,9.6,0,0,0-.06,1.184v5.295a11.761,11.761,0,0,0,.09,1.515h-1.05v-.8h-9.105a9.611,9.611,0,0,0-1.395.09v-1.08a8.487,8.487,0,0,0,1.38.075h9.12v-2.3H126.2a8.217,8.217,0,0,0-1.335.075v-1.065a7.94,7.94,0,0,0,1.38.075h8.5v-2.069h-9a8.99,8.99,0,0,0-1.365.074v-1.065a9,9,0,0,0,1.41.076h3.96Zm-4.26-.42a16.293,16.293,0,0,1,2.34,3.646l-.885.509a14.873,14.873,0,0,0-2.3-3.69Zm10.335.361a15.139,15.139,0,0,1-2.505,4.049l-.825-.509a12.2,12.2,0,0,0,2.4-3.991Z"/><path d="M142.9,242.916a9.708,9.708,0,0,0,.09,1.47h-1.11a10.21,10.21,0,0,0,.09-1.485v-4.664a15.374,15.374,0,0,1-2.07,1.769,2.835,2.835,0,0,0-.555-.84,12.919,12.919,0,0,0,2.7-2.22,10.156,10.156,0,0,0,1.86-2.79H141.1a10.367,10.367,0,0,0-1.2.06v-.989a9.853,9.853,0,0,0,1.17.059h.885v-1.394a8.6,8.6,0,0,0-.075-1.155H143a6.389,6.389,0,0,0-.09,1.169v1.38h.87a5.343,5.343,0,0,0,.87-.045l.465.526c-.105.165-.2.33-.36.644a12.928,12.928,0,0,1-1.65,2.55A9.1,9.1,0,0,0,145.52,239a3.6,3.6,0,0,0-.51.825,9.772,9.772,0,0,1-2.115-1.889Zm5.2-10.769a8.926,8.926,0,0,0-.1-1.366h1.185a7.084,7.084,0,0,0-.105,1.366v3.239h1.964a9.584,9.584,0,0,0,1.471-.09v1.05c-.466-.045-.946-.074-1.471-.074h-1.964v6.4h2.37a10.411,10.411,0,0,0,1.619-.09v1.125a10.22,10.22,0,0,0-1.619-.105h-5.4a9.909,9.909,0,0,0-1.6.105v-1.125a10.435,10.435,0,0,0,1.62.09h2.04v-6.4h-1.485c-.51,0-1,.029-1.47.074V235.3a9.446,9.446,0,0,0,1.47.09H148.1Z"/><path d="M155.69,233.376a6.518,6.518,0,0,0,1.2.075h2.43a5.864,5.864,0,0,0,1.2-.075v.976a6.829,6.829,0,0,0-1.095-.061H156.89a8.8,8.8,0,0,0-1.2.061Zm.451,10.92c.044-.435.074-.96.074-1.455v-2.01a10.556,10.556,0,0,0-.06-1.23,4.715,4.715,0,0,0,.96.06h2.055l.39-.014h.195a2.772,2.772,0,0,0,.315-.016,8.763,8.763,0,0,0-.045,1.155v1.741c0,.434.015.719.03.914-.165-.015-.45-.03-.84-.03H157.07v.885Zm.044-8.79a5.95,5.95,0,0,0,1.021.061h1.919a5.653,5.653,0,0,0,.99-.061v.931a6.232,6.232,0,0,0-.99-.061h-1.919a6.171,6.171,0,0,0-1.021.061Zm0,2.056a5.758,5.758,0,0,0,1.021.059h1.9a5.666,5.666,0,0,0,1-.059v.929a6.328,6.328,0,0,0-1-.06h-1.92a5.985,5.985,0,0,0-1,.06Zm.03-6.255a5.331,5.331,0,0,0,1.08.074h1.815a5.421,5.421,0,0,0,1.08-.074v.944a7.4,7.4,0,0,0-1.08-.059h-1.815a7.535,7.535,0,0,0-1.08.059Zm.84,11.324h2.16v-2.205h-2.16Zm11.6.36a1.063,1.063,0,0,1-.39.945,2.323,2.323,0,0,1-1.185.195c-.33,0-.525-.015-1.44-.075a3.127,3.127,0,0,0-.195-.96,10.331,10.331,0,0,0,1.77.165c.435,0,.54-.09.54-.45V232.192h-5.595v1.754a55.136,55.136,0,0,1-.36,7.44,8.613,8.613,0,0,1-.945,3,1.836,1.836,0,0,0-.765-.66,6.8,6.8,0,0,0,.87-2.864,60.4,60.4,0,0,0,.315-7.156,17.008,17.008,0,0,0-.09-2.385,11.9,11.9,0,0,0,1.455.06h4.62a11.432,11.432,0,0,0,1.455-.06,12.345,12.345,0,0,0-.06,1.47Zm-4.905-8.264a7.579,7.579,0,0,0-1.065.059v-.87a6.189,6.189,0,0,0,1.05.075h.75v-.21a6.144,6.144,0,0,0-.075-1.169h.945a6.133,6.133,0,0,0-.075,1.184v.2h.78a5.887,5.887,0,0,0,1.095-.075v.87a7.118,7.118,0,0,0-1.095-.059h-.78v1.6h.99a5.106,5.106,0,0,0,1.065-.075v.9a5.105,5.105,0,0,0-1.05-.075h-2.745a5.057,5.057,0,0,0-1.02.075v-.9a4.9,4.9,0,0,0,1.02.075h.945v-1.6Zm2.955,6.344a5.778,5.778,0,0,0,.045.81.338.338,0,0,0-.105-.015,1.545,1.545,0,0,0-.195.015h-.06c-.1,0-.1,0-.7-.045h-1.89v.99h-.87a7.253,7.253,0,0,0,.06-1.14v-2.579a8.884,8.884,0,0,0-.045-.976,10.1,10.1,0,0,0,1.035.045h1.71a9.01,9.01,0,0,0,1.065-.045,7.847,7.847,0,0,0-.045.93Zm-2.91,0h2.115v-2.145H163.79Z"/><path d="M171.755,238.4a18.509,18.509,0,0,0,3.015-3.345,6.464,6.464,0,0,1,.75-.9,1.56,1.56,0,0,1,2.49.1c.15.136.405.421,1.095,1.216,1.83,2.159,5.16,5.175,5.955,5.4l-.51,1.29a2.688,2.688,0,0,0-.36-.315,45.975,45.975,0,0,1-6.555-6.465c-.405-.465-.645-.645-.9-.645-.33,0-.465.121-1.185,1.08a39.489,39.489,0,0,1-2.625,3.195c-.27.3-.3.33-.435.5Zm9.72-5.67a11.287,11.287,0,0,1,1.544,2.325l-.749.449a11.109,11.109,0,0,0-1.545-2.385Zm1.695-.826a12.635,12.635,0,0,1,1.545,2.34l-.75.436a10.935,10.935,0,0,0-1.53-2.37Z"/><path class="cls-3" d="M741.308,128.259s-7.5-5.185-10.424-13.161a2.754,2.754,0,1,0-1.849-.215c-2.165,2.953-7.086,8.566-13.8,9.577-.473.071-.955.123-1.446.153-2.77.167-1.909.521.788.944q-.39.043-.788.069c-10.028.607,27.524,3.646,27.524,3.646s-.571-.395-1.458-1.133C740.773,128.216,741.308,128.259,741.308,128.259Z"/><path class="cls-3" d="M702.8,124.613c-.491-.03-.973-.082-1.446-.153-6.719-1.011-11.64-6.624-13.805-9.577a2.752,2.752,0,1,0-1.849.215c-2.929,7.976-10.424,13.161-10.424,13.161s.535-.043,1.458-.12c-.887.738-1.458,1.133-1.458,1.133s37.552-3.039,27.524-3.646q-.4-.026-.788-.069C704.71,125.134,705.571,124.78,702.8,124.613Z"/><path class="cls-4" d="M748.291,112.981a3.119,3.119,0,0,0-2.307,5.222c-6.164,5.128-23.442,16.332-36.553-5.672a3.123,3.123,0,1,0-2.108,0c-13.471,22.608-31.339,10.161-37.035,5.265a3.095,3.095,0,1,0-1.417.929l5.841,37.466a1.561,1.561,0,0,0-.82,1.369v.467a2.26,2.26,0,0,0,0,3.578v.466a1.559,1.559,0,0,0,1.556,1.555h66.141a1.559,1.559,0,0,0,1.556-1.555v-.6a2.258,2.258,0,0,0,0-3.319v-.6a1.56,1.56,0,0,0-1.086-1.481l5.752-36.893a3.161,3.161,0,0,0,.48.04,3.123,3.123,0,1,0,0-6.245Z"/><path d="M87.3,71.6h.232a19.435,19.435,0,0,0,1.962-.077v1.419A9.009,9.009,0,0,0,92.9,69.949l1.7,1.213a14.569,14.569,0,0,1-4.13,3.692,6.6,6.6,0,0,0-1.291-1.5c-.439-.026-.981-.052-1.755-.052h-3.82v1.419H81.619a18.182,18.182,0,0,0,.155-2.4V68.5c0-.413.026-1.059.1-1.962-.181.258-.181.258-.619.877a7.39,7.39,0,0,0-.465-.98,18.2,18.2,0,0,1-1.91,7.176,7.628,7.628,0,0,0-1.626-2.065c1.368-2.634,1.807-5.7,1.807-12.7,0-1.962-.026-2.479-.1-3.562.7.026,1.188.051,2.272.051H87.04a21.859,21.859,0,0,0,2.3-.077,12.556,12.556,0,0,0-.052,1.549v2.013a14.97,14.97,0,0,0,.052,1.652c-.671-.026-1.162-.052-1.936-.052H81.155c-.078,2.4-.13,3.124-.233,4.7a13.063,13.063,0,0,0,2.22-4.491l1.652.49c-.129.31-.258.594-.749,1.652h1.7a12.1,12.1,0,0,0,.9-2.142l1.652.49c-.232.491-.748,1.42-.877,1.652h.336a12.58,12.58,0,0,0,1.935-.1v1.858a12.962,12.962,0,0,0-1.961-.1H87.3v1.316h.568a11.056,11.056,0,0,0,1.574-.077v1.7a13.073,13.073,0,0,0-1.6-.078H87.3v1.265h.568a11.556,11.556,0,0,0,1.574-.077v1.729a9.458,9.458,0,0,0-1.6-.077H87.3ZM78.16,51.855a13.49,13.49,0,0,0,2.633.155h6.092a16.777,16.777,0,0,0,2.659-.155v2.3a15.312,15.312,0,0,0-2.375-.129H80.793a17.587,17.587,0,0,0-2.633.129Zm3,5.988v.542l-.026.129v.207h6.117V57.069H81.155Zm4.439,7.9V64.425H83.607v1.316Zm-1.987,2.814h1.987V67.29H83.607Zm0,3.046h1.987V70.13H83.607Zm8.879-17.578a15.516,15.516,0,0,0-2.375.129V51.829a13.634,13.634,0,0,0,2.659.155h5.7a13.758,13.758,0,0,0,2.71-.155v2.323a18.326,18.326,0,0,0-2.71-.129H96.564a21.242,21.242,0,0,1-.877,2.245h1.936c1.29,0,1.884-.026,2.452-.077-.052.749-.077,1.394-.077,2.375v8.75c0,.956.025,1.781.077,2.582-.671-.052-1.445-.078-2.22-.078H92.77c-.826,0-1.394.026-2.117.078.052-.827.078-1.523.078-2.376v-8.9a21.363,21.363,0,0,0-.1-2.427c.671.051,1.11.077,2.22.077h.593a12.142,12.142,0,0,0,.826-2.245Zm.336,6.118h5.033V58.2H92.822Zm0,3.716h5.033V62H92.822Zm0,4h5.033V65.716H92.822Zm4.491,2.014a13.305,13.305,0,0,0,4.337,3.045,9.269,9.269,0,0,0-1.5,1.911,17.738,17.738,0,0,1-4.389-3.666Z"/><path d="M108.9,68.633c0-.568-.026-.853-.051-1.343-1.111.336-1.652.49-3.227.852a6.836,6.836,0,0,0-1.084-2.117,34.051,34.051,0,0,0,6.246-1.6,28.27,28.27,0,0,0,3.8-1.652,21.861,21.861,0,0,1-2.814-2.374,23.515,23.515,0,0,1-4.7,3.071,7.289,7.289,0,0,0-1.419-1.781A18.167,18.167,0,0,0,112.1,57.4a11.042,11.042,0,0,0,1.574-2.142l2.272.7a3.709,3.709,0,0,0-.465.543,5.365,5.365,0,0,1-.465.594h5.111a16.381,16.381,0,0,0,2.22-.1l1.446,1.213c-.233.233-.233.233-.62.646a34.066,34.066,0,0,1-4.569,3.923,29.16,29.16,0,0,0,9.938,2.736,8.22,8.22,0,0,0-1.032,2.426c-1.42-.309-1.859-.413-3.149-.774-.026.542-.026.878-.026,1.5v3.587a14.749,14.749,0,0,0,.129,2.3h-2.426v-.954H111.17v.954h-2.426a16.583,16.583,0,0,0,.155-2.323Zm6.221-15.9a10.645,10.645,0,0,0-.129-1.755h2.684a10.852,10.852,0,0,0-.155,1.755v.491h7.022a24.583,24.583,0,0,0,2.993-.13,12.8,12.8,0,0,0-.1,1.859v1.885a12.774,12.774,0,0,0,.1,1.858h-2.348V55.236h-17.4v3.433H105.44a13.716,13.716,0,0,0,.129-1.884V54.952c0-.723-.051-1.29-.1-1.859a23.387,23.387,0,0,0,2.865.13h6.789Zm7.33,13.862a26.388,26.388,0,0,1-5.859-2.556,28.854,28.854,0,0,1-5.679,2.556H122.45Zm-11.28,4.982h10.894V68.581H111.17ZM113.416,58.9l-.181.181a20.18,20.18,0,0,0,3.356,2.556,24.053,24.053,0,0,0,3.536-2.737Z"/><path d="M137.134,66.361a53.067,53.067,0,0,1-2.943,7.2,9.494,9.494,0,0,0-.465.954l-2.038-1.884a22.567,22.567,0,0,0,3.562-7.614Zm-3.794-8.673a24.928,24.928,0,0,1,4.052,3.355l-1.549,1.73a20.254,20.254,0,0,0-4.052-3.511Zm.877-6.376a23.81,23.81,0,0,1,3.924,3.3l-1.523,1.755a18.924,18.924,0,0,0-3.95-3.562Zm12.932,10.274h4.517a25.132,25.132,0,0,0,2.736-.1,15.736,15.736,0,0,0-.129,2.581v8.311c0,1.6-.619,2.013-3.02,2.013-.671,0-1.626-.051-2.168-.077a8.411,8.411,0,0,0-.491-2.245,17.741,17.741,0,0,0,2.633.232c.723,0,.878-.1.878-.593V63.522h-4.956v5.446h1.574V66.9c0-.929-.025-1.445-.077-2.013h2.065a12.66,12.66,0,0,0-.1,2.013v2.039a18.24,18.24,0,0,0,.052,1.936c-.388-.026-.929-.052-1.781-.052h-5.318v1.42h-1.987a16.259,16.259,0,0,0,.1-2.064V66.9a15.086,15.086,0,0,0-.1-2.039h2.09a13.3,13.3,0,0,0-.1,2.014v2.09h1.575V63.522h-4.827v8.415a20.868,20.868,0,0,0,.129,2.787h-2.4a22.781,22.781,0,0,0,.155-2.89v-8.08c0-1.007-.025-1.5-.077-2.246a19.232,19.232,0,0,0,1.987.078h5.034V59.7h-5.059a19.1,19.1,0,0,0-2.736.155v-2.3a17.586,17.586,0,0,0,2.684.155h1.755v-2.3H140.7a18.25,18.25,0,0,0-2.478.129V53.223a16.735,16.735,0,0,0,2.53.155h1.032v-.311a9.619,9.619,0,0,0-.155-1.961h2.5A13.1,13.1,0,0,0,144,53.067v.311h4.44v-.337a13.512,13.512,0,0,0-.129-1.935h2.5a9.687,9.687,0,0,0-.155,1.935v.337h1.471a17.368,17.368,0,0,0,2.556-.155v2.323a23.034,23.034,0,0,0-2.53-.129h-1.5v2.3h2.116a14.045,14.045,0,0,0,2.762-.155v2.3a18.678,18.678,0,0,0-2.788-.155h-5.6Zm1.291-3.872v-2.3H144v2.3Z"/><path d="M169.783,60.76h-4.9a26.2,26.2,0,0,0-2.711.1,17.135,17.135,0,0,0,.1-2.065V54.1a16.327,16.327,0,0,0-.1-2.065,22.551,22.551,0,0,0,2.917.129H176.52a19.8,19.8,0,0,0,2.917-.129,15.758,15.758,0,0,0-.1,2.065v4.7a16.015,16.015,0,0,0,.1,2.065,25.956,25.956,0,0,0-2.684-.1h-4.647v3.845h5.937a15.606,15.606,0,0,0,2.607-.129v2.4a17.83,17.83,0,0,0-2.607-.129h-5.937v4.7a33.228,33.228,0,0,0,5.008.362c1.42,0,3.484-.078,5.162-.207a8.479,8.479,0,0,0-.7,2.478c-1.11.026-3.691.077-4.543.077-3.846,0-6.762-.516-8.776-1.6a10.373,10.373,0,0,1-4.078-3.9,20.3,20.3,0,0,1-3.614,5.858,7.658,7.658,0,0,0-1.884-1.652,15.191,15.191,0,0,0,3.51-5.265,17.675,17.675,0,0,0,1.368-5.524l2.427.49c-.1.387-.181.672-.362,1.42-.18.852-.309,1.343-.516,2.039a9.267,9.267,0,0,0,4.672,4.776ZM164.6,54.306V58.7h12.416V54.306Z"/><path d="M190.377,59.133c-.155,8.286-.774,11.513-2.916,15.359a8.78,8.78,0,0,0-1.833-1.936,14.71,14.71,0,0,0,1.678-4.465c.568-2.788.774-5.7.774-11.926a32.608,32.608,0,0,0-.1-3.278c.878.077,1.755.129,2.813.129h6.557v-.645a7.34,7.34,0,0,0-.155-1.549H199.8a6.92,6.92,0,0,0-.129,1.574v.62h6.685a21.222,21.222,0,0,0,3-.155v2.272a26.8,26.8,0,0,0-2.711-.1H190.4V57.2h4.053v-.232a10.293,10.293,0,0,0-.1-1.42h2.453a7.9,7.9,0,0,0-.1,1.368V57.2h5.421v-.207a13.031,13.031,0,0,0-.1-1.445h2.452a8.048,8.048,0,0,0-.1,1.471V57.2H207.1a14.321,14.321,0,0,0,2.323-.129v2.193a13.025,13.025,0,0,0-2.323-.129h-2.736v2.556a14.96,14.96,0,0,0,.077,1.6,13.33,13.33,0,0,0-1.678-.052h-6.582a14.871,14.871,0,0,0-1.833.052,16.043,16.043,0,0,0,.1-1.6V59.133ZM206.51,66.1c-.206.232-.284.31-1.006,1.136a20.776,20.776,0,0,1-3.9,3.433,23.055,23.055,0,0,0,7.976,1.574,10.818,10.818,0,0,0-.955,2.427,24.875,24.875,0,0,1-9.241-2.685,27.023,27.023,0,0,1-9.034,2.736,7.9,7.9,0,0,0-.9-2.246,24.4,24.4,0,0,0,7.925-1.781,15.423,15.423,0,0,1-3.795-3.948,15.9,15.9,0,0,0-2.116.1V64.761a16.82,16.82,0,0,0,2.684.129h9.163c.93,0,1.394-.026,1.988-.078Zm-10.351.646a11.032,11.032,0,0,0,3.33,2.864,15.221,15.221,0,0,0,3.588-2.864Zm.542-5.4h5.421v-2.22H196.7Z"/><g class="cls-5"><path class="cls-4" d="M204.018,228.669A29.748,29.748,0,0,1,220,220.108c10.349-1.988,16.177.974,16.177.974s-7.788,8.44-14.347,10.657S204.018,228.669,204.018,228.669Z"/><path class="cls-4" d="M223.086,199.667s5.809-6.4,6.671-13.954a15.978,15.978,0,0,0-3.187-12.026s-3.93,7.04-4.741,11.866S223.086,199.667,223.086,199.667Z"/><path class="cls-4" d="M225.34,206.285s6.383-8.577,17.131-11.006c8.043-1.818,12.327-1.1,12.327-1.1s-6.863,11.2-13.658,14.061S225.34,206.285,225.34,206.285Z"/><path class="cls-4" d="M206.162,220.246a21.265,21.265,0,0,0,7.909-11.366c2.075-7.546-1.4-16.758-1.4-16.758s-5.114,8.489-6.7,14.35S206.162,220.246,206.162,220.246Z"/><path class="cls-4" d="M237.92,177.835s3.5-7.933,2.122-15.331-6.382-10.273-6.382-10.273-1.588,7.921-.947,12.731S237.92,177.835,237.92,177.835Z"/><path class="cls-4" d="M242.392,182.293a34.8,34.8,0,0,1,12.633-15.654c6.755-4.371,11.072-4.968,11.072-4.968s-3.087,12.536-8.534,17.36S242.392,182.293,242.392,182.293Z"/><path class="cls-4" d="M245.9,153.189s1.293-8.062-1.68-14.348-8.151-7.544-8.151-7.544.426,7.543,2.129,11.7S245.9,153.189,245.9,153.189Z"/><path class="cls-4" d="M246.8,129.1s-1-6.5-4.836-10.591a10.918,10.918,0,0,0-8.118-3.773s2.191,5.682,4.525,8.448S246.8,129.1,246.8,129.1Z"/><path class="cls-4" d="M250.779,155.068a30.475,30.475,0,0,1,8.019-15.717c5.589-5.5,8.428-6.307,8.428-6.307s-.568,11.273-4.333,16.407S250.779,155.068,250.779,155.068Z"/><path class="cls-4" d="M244.148,110.549s-.969-6.777-4.881-10.946a10.789,10.789,0,0,0-8.328-3.722s2.2,5.883,4.581,8.712S244.148,110.549,244.148,110.549Z"/><path class="cls-4" d="M248.552,111.7a22.975,22.975,0,0,1,1.438-14.373c2.786-5.766,4.48-7.448,4.48-7.448s2.854,8.638,1.526,13.7S248.552,111.7,248.552,111.7Z"/><path class="cls-4" d="M251.829,129.919a23.587,23.587,0,0,1,5.168-13.9c4.267-5,6.387-6.23,6.387-6.23s.586,9.32-2.051,14S251.829,129.919,251.829,129.919Z"/><path class="cls-4" d="M239.38,91.377s-2.521-5.1-6.683-7.252a8.75,8.75,0,0,0-7.525-.492s3.261,4.022,5.868,5.566S239.38,91.377,239.38,91.377Z"/><path class="cls-4" d="M244.006,96.588a18.391,18.391,0,0,1-2.595-11.845,35.344,35.344,0,0,1,1.6-7.244s4.488,6.018,4.754,10.435S244.006,96.588,244.006,96.588Z"/><path class="cls-4" d="M231.583,78.328s-2.129-3.17-5.114-4.172a5.97,5.97,0,0,0-5.1.488,19.408,19.408,0,0,0,4.421,3.121C227.67,78.524,231.583,78.328,231.583,78.328Z"/><path class="cls-4" d="M236.936,80.617a12.524,12.524,0,0,1-3.267-7.518,26.531,26.531,0,0,1,.117-5.088s3.765,3.331,4.518,6.242S236.936,80.617,236.936,80.617Z"/><path class="cls-4" d="M227.439,68.977a8.08,8.08,0,0,0-2.129-6.588c-2.8-2.868-7.057-2.567-7.057-2.567a16.351,16.351,0,0,0,3.345,5.791A18.379,18.379,0,0,0,227.439,68.977Z"/><path class="cls-4" d="M82.225,228.669a29.748,29.748,0,0,0-15.984-8.561c-10.349-1.988-16.177.974-16.177.974s7.788,8.44,14.347,10.657S82.225,228.669,82.225,228.669Z"/><path class="cls-4" d="M63.157,199.667s-5.81-6.4-6.671-13.954a15.978,15.978,0,0,1,3.187-12.026s3.929,7.04,4.74,11.866S63.157,199.667,63.157,199.667Z"/><path class="cls-4" d="M60.9,206.285s-6.384-8.577-17.131-11.006c-8.043-1.818-12.327-1.1-12.327-1.1s6.863,11.2,13.658,14.061S60.9,206.285,60.9,206.285Z"/><path class="cls-4" d="M80.081,220.246a21.269,21.269,0,0,1-7.91-11.366c-2.074-7.546,1.4-16.758,1.4-16.758s5.114,8.489,6.7,14.35S80.081,220.246,80.081,220.246Z"/><path class="cls-4" d="M48.323,177.835S44.823,169.9,46.2,162.5s6.382-10.273,6.382-10.273,1.588,7.921.947,12.731S48.323,177.835,48.323,177.835Z"/><path class="cls-4" d="M43.851,182.293a34.8,34.8,0,0,0-12.633-15.654c-6.755-4.371-11.072-4.968-11.072-4.968s3.087,12.536,8.534,17.36S43.851,182.293,43.851,182.293Z"/><path class="cls-4" d="M40.347,153.189s-1.293-8.062,1.68-14.348,8.151-7.544,8.151-7.544-.426,7.543-2.129,11.7S40.347,153.189,40.347,153.189Z"/><path class="cls-4" d="M39.439,129.1s1-6.5,4.837-10.591a10.918,10.918,0,0,1,8.118-3.773s-2.191,5.682-4.525,8.448S39.439,129.1,39.439,129.1Z"/><path class="cls-4" d="M35.464,155.068a30.475,30.475,0,0,0-8.019-15.717c-5.589-5.5-8.428-6.307-8.428-6.307s.568,11.273,4.333,16.407S35.464,155.068,35.464,155.068Z"/><path class="cls-4" d="M42.1,110.549s.969-6.777,4.881-10.946A10.789,10.789,0,0,1,55.3,95.881s-2.2,5.883-4.581,8.712S42.1,110.549,42.1,110.549Z"/><path class="cls-4" d="M37.691,111.7a22.983,22.983,0,0,0-1.438-14.373c-2.786-5.766-4.481-7.448-4.481-7.448s-2.853,8.638-1.525,13.7S37.691,111.7,37.691,111.7Z"/><path class="cls-4" d="M34.414,129.919a23.587,23.587,0,0,0-5.168-13.9c-4.267-5-6.387-6.23-6.387-6.23s-.586,9.32,2.051,14S34.414,129.919,34.414,129.919Z"/><path class="cls-4" d="M46.863,91.377s2.521-5.1,6.683-7.252a8.751,8.751,0,0,1,7.525-.492S57.81,87.655,55.2,89.2,46.863,91.377,46.863,91.377Z"/><path class="cls-4" d="M42.237,96.588a18.391,18.391,0,0,0,2.595-11.845,35.436,35.436,0,0,0-1.6-7.244s-4.488,6.018-4.755,10.435S42.237,96.588,42.237,96.588Z"/><path class="cls-4" d="M54.66,78.328s2.129-3.17,5.113-4.172a5.972,5.972,0,0,1,5.106.488,19.433,19.433,0,0,1-4.421,3.121C58.572,78.524,54.66,78.328,54.66,78.328Z"/><path class="cls-4" d="M49.306,80.617A12.517,12.517,0,0,0,52.573,73.1a26.492,26.492,0,0,0-.116-5.088s-3.765,3.331-4.518,6.242S49.306,80.617,49.306,80.617Z"/><path class="cls-4" d="M58.8,68.977a8.08,8.08,0,0,1,2.129-6.588c2.8-2.868,7.057-2.567,7.057-2.567a16.369,16.369,0,0,1-3.345,5.791A18.379,18.379,0,0,1,58.8,68.977Z"/></g><polygon class="cls-4" points="187.82 93.986 180.931 92.985 180.901 92.981 177.807 86.712 174.713 92.981 167.794 93.986 167.794 93.987 172.8 98.867 171.619 105.758 177.807 102.504 183.995 105.758 182.813 98.867 187.82 93.986"/><polygon class="cls-4" points="112.156 92.985 112.126 92.981 109.032 86.712 105.938 92.981 99.019 93.986 99.019 93.987 104.025 98.867 102.843 105.758 109.032 102.504 115.22 105.758 114.038 98.867 119.045 93.986 112.156 92.985"/><polygon class="cls-4" points="146.544 92.985 146.514 92.981 143.419 86.712 140.325 92.981 133.406 93.986 133.406 93.987 138.413 98.867 137.231 105.758 143.419 102.504 149.608 105.758 148.426 98.867 153.433 93.986 146.544 92.985"/><path d="M189.782,183.182a5.379,5.379,0,0,1,.93-1.891,4.423,4.423,0,0,1,1.59-1.274,5.182,5.182,0,0,1,2.28-.465,5.089,5.089,0,0,1,2.34.479,4.18,4.18,0,0,1,1.515,1.306,5.2,5.2,0,0,1,.825,1.935,11.05,11.05,0,0,1,.24,2.34,8.1,8.1,0,0,1-.3,2.264,4.934,4.934,0,0,1-.915,1.785,4.137,4.137,0,0,1-1.575,1.17,5.642,5.642,0,0,1-2.28.42,5.546,5.546,0,0,1-2.325-.434,3.984,3.984,0,0,1-1.53-1.2,4.8,4.8,0,0,1-.84-1.83,9.827,9.827,0,0,1-.255-2.295A8.556,8.556,0,0,1,189.782,183.182Zm2.79,3.45a4.081,4.081,0,0,0,.21,1.125,2.117,2.117,0,0,0,.57.885,1.872,1.872,0,0,0,2.2,0,2.179,2.179,0,0,0,.6-.885,4.076,4.076,0,0,0,.24-1.11q.045-.585.045-1.066c0-.3-.015-.664-.045-1.094a5.719,5.719,0,0,0-.225-1.246,2.653,2.653,0,0,0-.555-1.019,1.318,1.318,0,0,0-1.035-.42,1.555,1.555,0,0,0-1.125.39,2.5,2.5,0,0,0-.615.96,4.4,4.4,0,0,0-.255,1.23c-.03.439-.045.83-.045,1.17Q192.542,186.032,192.572,186.632Zm17.25-7.32-12.36,22.29h-2.61l12.42-22.29Zm-4.56,13.889a5.108,5.108,0,0,1,.93-1.83,4.43,4.43,0,0,1,1.59-1.229,5.33,5.33,0,0,1,2.28-.45,5.229,5.229,0,0,1,2.34.464,4.179,4.179,0,0,1,1.515,1.26,4.938,4.938,0,0,1,.825,1.875,10.642,10.642,0,0,1,.24,2.311,8.272,8.272,0,0,1-.3,2.28,5.247,5.247,0,0,1-.915,1.83,4.156,4.156,0,0,1-1.575,1.215,5.5,5.5,0,0,1-2.28.435,5.37,5.37,0,0,1-2.325-.451,3.984,3.984,0,0,1-1.53-1.245,5.086,5.086,0,0,1-.84-1.875,10.023,10.023,0,0,1-.255-2.309A8.279,8.279,0,0,1,205.262,193.2Zm2.79,3.42a4.53,4.53,0,0,0,.21,1.186,2.32,2.32,0,0,0,.57.944,1.75,1.75,0,0,0,2.205,0,2.38,2.38,0,0,0,.6-.944,4.505,4.505,0,0,0,.24-1.17q.045-.615.045-1.1c0-.3-.015-.654-.045-1.064a4.949,4.949,0,0,0-.225-1.17,2.543,2.543,0,0,0-.555-.96,1.339,1.339,0,0,0-1.035-.405,1.635,1.635,0,0,0-1.125.36,2.281,2.281,0,0,0-.615.9,4,4,0,0,0-.255,1.17c-.03.42-.045.8-.045,1.141C208.022,195.832,208.032,196.2,208.052,196.621Z"/><path d="M694.335,141.986l-2.3-.417a5.482,5.482,0,0,1,1.322-3.136,3.619,3.619,0,0,1,5.108.014,4.037,4.037,0,0,1,.985,2.853,5.579,5.579,0,0,1-.726,2.713,18.719,18.719,0,0,1-2.187,2.852,23.4,23.4,0,0,0-2.047,2.544h4.144l-.447,2.605h-7.255a7.812,7.812,0,0,1,1.033-3.091,28.724,28.724,0,0,1,2.694-3.449,24.22,24.22,0,0,0,1.967-2.485,3.4,3.4,0,0,0,.557-1.709,1.871,1.871,0,0,0-.362-1.217,1.113,1.113,0,0,0-.89-.443Q694.714,139.62,694.335,141.986Z"/><path d="M700.788,147.273a16.283,16.283,0,0,1,.9-5.4,8.626,8.626,0,0,1,2.132-3.662,3.1,3.1,0,0,1,2.106-.824,2.849,2.849,0,0,1,2.381,1.276,6.271,6.271,0,0,1,.94,3.743,16.405,16.405,0,0,1-.89,5.4,8.556,8.556,0,0,1-2.122,3.657,3.134,3.134,0,0,1-2.117.805A2.875,2.875,0,0,1,701.742,151,6.124,6.124,0,0,1,700.788,147.273Zm2.295.577a3.165,3.165,0,0,0,.314,1.649.928.928,0,0,0,.8.478,1.42,1.42,0,0,0,1.123-.687,9.7,9.7,0,0,0,1.157-3.533,23.4,23.4,0,0,0,.492-4.029,2.956,2.956,0,0,0-.318-1.575.94.94,0,0,0-.8-.483,1.33,1.33,0,0,0-1.063.676,10.63,10.63,0,0,0-1.283,3.906A20.494,20.494,0,0,0,703.083,147.85Z"/><path d="M713.917,141.986l-2.3-.417a5.482,5.482,0,0,1,1.322-3.136,3.619,3.619,0,0,1,5.108.014,4.037,4.037,0,0,1,.985,2.853,5.579,5.579,0,0,1-.726,2.713,18.719,18.719,0,0,1-2.187,2.852,23.4,23.4,0,0,0-2.047,2.544h4.144l-.447,2.605h-7.255a7.812,7.812,0,0,1,1.033-3.091,28.724,28.724,0,0,1,2.694-3.449,24.22,24.22,0,0,0,1.967-2.485,3.4,3.4,0,0,0,.557-1.709,1.871,1.871,0,0,0-.362-1.217,1.113,1.113,0,0,0-.89-.443Q714.3,139.62,713.917,141.986Z"/><path d="M720.37,147.273a16.283,16.283,0,0,1,.9-5.4,8.636,8.636,0,0,1,2.132-3.662,3.1,3.1,0,0,1,2.106-.824,2.849,2.849,0,0,1,2.381,1.276,6.271,6.271,0,0,1,.94,3.743,16.405,16.405,0,0,1-.89,5.4,8.556,8.556,0,0,1-2.122,3.657,3.134,3.134,0,0,1-2.117.805A2.875,2.875,0,0,1,721.324,151,6.124,6.124,0,0,1,720.37,147.273Zm2.295.577a3.165,3.165,0,0,0,.314,1.649.928.928,0,0,0,.8.478,1.42,1.42,0,0,0,1.123-.687,9.7,9.7,0,0,0,1.157-3.533,23.4,23.4,0,0,0,.492-4.029,2.956,2.956,0,0,0-.318-1.575.94.94,0,0,0-.8-.483,1.33,1.33,0,0,0-1.063.676,10.63,10.63,0,0,0-1.283,3.906A20.494,20.494,0,0,0,722.665,147.85Z"/><line class="cls-6" x1="673.75" y1="167.431" x2="915.693" y2="167.431"/><path d="M805.747,204.525l1.237-7.194a40.234,40.234,0,0,0,13.253-10.594h4l-7.124,41.449h-6.645l4.927-28.551a30.109,30.109,0,0,1-9.648,4.89Z"/><path d="M832.758,195l1.265-7.446h22.284l-.983,5.732a28.712,28.712,0,0,0-3.682,4.665,62.292,62.292,0,0,0-4.749,8.627,99.023,99.023,0,0,0-4.271,11.184,87.482,87.482,0,0,0-2.669,10.426h-6.295a67.784,67.784,0,0,1,2.613-10.622,87.939,87.939,0,0,1,4.749-12.07A75.481,75.481,0,0,1,847.2,195Z"/><path d="M865.7,205.48a9.594,9.594,0,0,1-2.67-3.283,9.371,9.371,0,0,1-.9-4.152,11.9,11.9,0,0,1,1.447-5.739,10.032,10.032,0,0,1,9.147-5.486,9.211,9.211,0,0,1,6.941,2.737,11.273,11.273,0,0,1,1.215,12.739,10.6,10.6,0,0,1-4.306,3.8,9.767,9.767,0,0,1,3.1,3.751,11.83,11.83,0,0,1,1.026,5.044,15.108,15.108,0,0,1-2.863,9.077,10.908,10.908,0,0,1-9.262,4.918,9.128,9.128,0,0,1-7.114-3.119,11.963,11.963,0,0,1-2.793-8.29A14.334,14.334,0,0,1,860.6,210,10.474,10.474,0,0,1,865.7,205.48Zm-.422,12.14a5.6,5.6,0,0,0,1.061,3.667,3.336,3.336,0,0,0,2.682,1.279,4.309,4.309,0,0,0,3.839-2.627,12.529,12.529,0,0,0,1.438-6.113,5.189,5.189,0,0,0-1.089-3.457,3.377,3.377,0,0,0-2.68-1.292,4.5,4.5,0,0,0-3.645,2.3A10.739,10.739,0,0,0,865.278,217.62Zm2.923-19.041a4.682,4.682,0,0,0,1,3.154,3.141,3.141,0,0,0,2.486,1.162,4.035,4.035,0,0,0,3.092-1.6,5.726,5.726,0,0,0,1.377-3.867,4.943,4.943,0,0,0-1-3.251,3.129,3.129,0,0,0-2.515-1.205,3.967,3.967,0,0,0-3.105,1.584A6.018,6.018,0,0,0,868.2,198.579Z"/><path d="M896.924,221.02c0-.6.018-1.159.053-1.932a9.52,9.52,0,0,1-1.476,2.037,7.317,7.317,0,0,0-.79-2.16,15.119,15.119,0,0,0,3.021-4.987,10.858,10.858,0,0,0,.632-2.283l1.985.561c-.088.264-.123.352-.281.79a21.276,21.276,0,0,1-1.23,3.074v9.958c0,.79.035,1.37.088,2.037h-2.107a14.955,14.955,0,0,0,.105-2.054Zm7.728-7.13a10.991,10.991,0,0,0-.123-1.845h2.177a9.324,9.324,0,0,0-.123,1.862v1.616h2.2a12.722,12.722,0,0,0,1.9-.106v2c-.791-.069-1.317-.1-1.88-.1h-2.213V220.6h2.741a14.88,14.88,0,0,0,1.966-.106v2.02a16.247,16.247,0,0,0-1.931-.106h-2.776v3.654a10.876,10.876,0,0,0,.123,2.019h-2.177a13.036,13.036,0,0,0,.123-2.019v-3.654h-3a15.067,15.067,0,0,0-1.968.106v-2.02a14.358,14.358,0,0,0,1.968.106h3v-3.284h-2.424a12.718,12.718,0,0,1-1.423,2.563,6.588,6.588,0,0,0-1.562-1.265,13.9,13.9,0,0,0,1.9-3.617,9.5,9.5,0,0,0,.545-2.23l1.932.491c-.123.4-.159.51-.317,1.054-.176.545-.246.773-.386,1.212h1.739Z"/><path class="cls-3" d="M741.042,195.369s-7.494-5.185-10.423-13.161a2.754,2.754,0,1,0-1.849-.215c-2.165,2.953-7.086,8.567-13.8,9.577q-.71.108-1.446.153c-2.77.168-1.909.521.788.945-.261.028-.523.052-.788.068-10.028.608,27.523,3.646,27.523,3.646s-.57-.4-1.457-1.133Z"/><path class="cls-3" d="M702.536,191.723q-.736-.045-1.446-.153c-6.719-1.01-11.64-6.624-13.805-9.577a2.752,2.752,0,1,0-1.849.215c-2.929,7.976-10.424,13.161-10.424,13.161s.535-.043,1.458-.12c-.887.738-1.458,1.133-1.458,1.133s37.552-3.038,27.524-3.646c-.266-.016-.528-.04-.788-.068C704.444,192.244,705.306,191.891,702.536,191.723Z"/><path class="cls-4" d="M748.026,180.092a3.119,3.119,0,0,0-2.307,5.221c-6.164,5.128-23.442,16.333-36.553-5.672a3.123,3.123,0,1,0-2.108,0c-13.471,22.608-31.339,10.161-37.035,5.265a3.1,3.1,0,1,0-1.417.929l5.841,37.467a1.559,1.559,0,0,0-.82,1.369v.466a2.26,2.26,0,0,0,0,3.578v.467a1.56,1.56,0,0,0,1.555,1.555h66.142a1.559,1.559,0,0,0,1.555-1.555v-.6a2.255,2.255,0,0,0,0-3.319v-.6a1.561,1.561,0,0,0-1.085-1.482l5.752-36.893a3.161,3.161,0,0,0,.48.041,3.123,3.123,0,1,0,0-6.245Z"/><path d="M694.071,208.339l-2.3-.418a5.477,5.477,0,0,1,1.321-3.135,3.616,3.616,0,0,1,5.109.015,4.033,4.033,0,0,1,.984,2.853,5.565,5.565,0,0,1-.726,2.712,18.759,18.759,0,0,1-2.186,2.853,23.345,23.345,0,0,0-2.048,2.544h4.144l-.447,2.6h-7.255a7.789,7.789,0,0,1,1.034-3.09,28.681,28.681,0,0,1,2.693-3.449,24.337,24.337,0,0,0,1.968-2.484,3.4,3.4,0,0,0,.556-1.71,1.869,1.869,0,0,0-.362-1.217,1.111,1.111,0,0,0-.89-.442Q694.449,205.974,694.071,208.339Z"/><path d="M700.523,213.626a16.294,16.294,0,0,1,.9-5.4,8.611,8.611,0,0,1,2.132-3.662,3.1,3.1,0,0,1,2.107-.826,2.844,2.844,0,0,1,2.38,1.278,6.264,6.264,0,0,1,.94,3.741,16.407,16.407,0,0,1-.89,5.4,8.556,8.556,0,0,1-2.122,3.657,3.129,3.129,0,0,1-2.117.805,2.875,2.875,0,0,1-2.375-1.262A6.12,6.12,0,0,1,700.523,213.626Zm2.3.576a3.173,3.173,0,0,0,.313,1.651.93.93,0,0,0,.8.476,1.417,1.417,0,0,0,1.123-.685,9.7,9.7,0,0,0,1.157-3.533,23.438,23.438,0,0,0,.493-4.031,2.957,2.957,0,0,0-.319-1.575.939.939,0,0,0-.8-.481,1.326,1.326,0,0,0-1.063.675,10.615,10.615,0,0,0-1.282,3.906A20.389,20.389,0,0,0,702.819,214.2Z"/><path d="M711.208,210l.438-2.544a14.2,14.2,0,0,0,4.686-3.747h1.415l-2.519,14.659h-2.35l1.743-10.1a9.593,9.593,0,0,1-1.677,1.043A9.439,9.439,0,0,1,711.208,210Z"/><path d="M720.1,215.007l2.187-.218a2.294,2.294,0,0,0,.343,1.207.9.9,0,0,0,.744.343,1.5,1.5,0,0,0,1.24-.81,7.336,7.336,0,0,0,.883-2.419,2.582,2.582,0,0,1-1.6.595,2.811,2.811,0,0,1-2.275-1.128,4.891,4.891,0,0,1-.911-3.155,6.887,6.887,0,0,1,1.164-3.976,3.534,3.534,0,0,1,3.035-1.709,2.881,2.881,0,0,1,1.751.572,3.855,3.855,0,0,1,1.239,1.759,9.032,9.032,0,0,1,.463,3.2,13.525,13.525,0,0,1-1.482,6.738q-1.485,2.6-3.692,2.6a2.749,2.749,0,0,1-2.149-.934A4.262,4.262,0,0,1,720.1,215.007Zm6.013-6.737a3.037,3.037,0,0,0-.374-1.7,1.105,1.105,0,0,0-.933-.541,1.415,1.415,0,0,0-1.185.786,5.238,5.238,0,0,0-.649,2.792,3.042,3.042,0,0,0,.364,1.674,1.058,1.058,0,0,0,.892.542,1.341,1.341,0,0,0,.862-.368,2.739,2.739,0,0,0,.729-1.232A6.088,6.088,0,0,0,726.108,208.27Z"/><line class="cls-6" x1="673.485" y1="235.299" x2="915.428" y2="235.299"/><polygon class="cls-4" points="900.416 66.685 893.746 65.715 893.716 65.711 890.72 59.641 887.724 65.711 881.025 66.685 881.025 66.685 885.873 71.41 884.728 78.082 890.72 74.932 896.712 78.082 895.568 71.41 900.416 66.685"/><polygon class="cls-4" points="827.154 65.715 827.125 65.711 824.129 59.641 821.133 65.711 814.433 66.685 814.433 66.685 819.281 71.41 818.137 78.082 824.129 74.932 830.121 78.082 828.976 71.41 833.824 66.685 827.154 65.715"/><polygon class="cls-4" points="860.45 65.715 860.421 65.711 857.425 59.641 854.429 65.711 847.729 66.685 847.729 66.685 852.577 71.41 851.433 78.082 857.425 74.932 863.417 78.082 862.272 71.41 867.12 66.685 860.45 65.715"/><circle class="cls-1" cx="454.146" cy="143.879" r="136.865" transform="translate(31.278 363.271) rotate(-45)"/><path class="cls-2" d="M454.146,13.271A130.608,130.608,0,0,1,546.5,236.232,130.608,130.608,0,1,1,361.792,51.525a129.752,129.752,0,0,1,92.354-38.254m0-12.514A143.122,143.122,0,1,0,597.267,143.879,143.122,143.122,0,0,0,454.146.757Z"/><path d="M415.128,187.482H389.694l2.207-12.923,35.049-49.913h10.883l-8.512,49.7h7.857l-2.261,13.138H427.07l-2.758,16.1H412.36Zm2.259-13.138,4.232-24.607-17.057,24.607Z"/><path d="M446.02,185.382l11.846-1.185q.378,4.684,1.862,6.542a4.881,4.881,0,0,0,4.025,1.858q3.834,0,6.724-4.388t4.78-13.111a13.967,13.967,0,0,1-8.686,3.23,15.234,15.234,0,0,1-12.329-6.111q-4.938-6.109-4.938-17.1a37.338,37.338,0,0,1,6.308-21.538q6.307-9.261,16.444-9.261a15.608,15.608,0,0,1,9.488,3.1q4.206,3.1,6.713,9.53t2.508,17.366q0,22.4-8.033,36.506t-20,14.108a14.917,14.917,0,0,1-11.645-5.062Q446.56,194.8,446.02,185.382ZM478.6,148.875q0-6.245-2.026-9.18a5.978,5.978,0,0,0-5.05-2.935q-3.727,0-6.428,4.254-3.512,5.653-3.511,15.131,0,6.138,1.971,9.072a5.733,5.733,0,0,0,4.835,2.935,7.267,7.267,0,0,0,4.672-1.993q2.349-1.99,3.943-6.676A32.853,32.853,0,0,0,478.6,148.875Z"/><g class="cls-5"><path class="cls-4" d="M515.042,229.426a29.748,29.748,0,0,1,15.984-8.561c10.349-1.988,16.177.974,16.177.974s-7.788,8.441-14.347,10.657S515.042,229.426,515.042,229.426Z"/><path class="cls-4" d="M534.11,200.424s5.81-6.4,6.671-13.953a15.979,15.979,0,0,0-3.187-12.027s-3.929,7.04-4.74,11.866S534.11,200.424,534.11,200.424Z"/><path class="cls-4" d="M536.364,207.043s6.384-8.578,17.131-11.007c8.044-1.817,12.327-1.1,12.327-1.1s-6.863,11.2-13.658,14.062S536.364,207.043,536.364,207.043Z"/><path class="cls-4" d="M517.186,221a21.264,21.264,0,0,0,7.91-11.365c2.074-7.546-1.4-16.759-1.4-16.759s-5.114,8.489-6.7,14.35S517.186,221,517.186,221Z"/><path class="cls-4" d="M548.944,178.593s3.5-7.934,2.122-15.332-6.382-10.272-6.382-10.272-1.588,7.92-.947,12.73S548.944,178.593,548.944,178.593Z"/><path class="cls-4" d="M553.416,183.05A34.791,34.791,0,0,1,566.049,167.4c6.755-4.372,11.073-4.969,11.073-4.969s-3.088,12.536-8.535,17.36S553.416,183.05,553.416,183.05Z"/><path class="cls-4" d="M556.92,153.946s1.293-8.062-1.68-14.348-8.151-7.544-8.151-7.544.426,7.543,2.129,11.7S556.92,153.946,556.92,153.946Z"/><path class="cls-4" d="M557.828,129.856s-1-6.5-4.837-10.591a10.919,10.919,0,0,0-8.118-3.772s2.191,5.681,4.526,8.447S557.828,129.856,557.828,129.856Z"/><path class="cls-4" d="M561.8,155.825a30.475,30.475,0,0,1,8.019-15.717c5.589-5.5,8.428-6.307,8.428-6.307s-.568,11.274-4.333,16.407S561.8,155.825,561.8,155.825Z"/><path class="cls-4" d="M555.172,111.306s-.969-6.776-4.881-10.946a10.786,10.786,0,0,0-8.328-3.721s2.2,5.882,4.581,8.712S555.172,111.306,555.172,111.306Z"/><path class="cls-4" d="M559.576,112.456a22.983,22.983,0,0,1,1.438-14.373c2.786-5.766,4.481-7.448,4.481-7.448s2.853,8.638,1.525,13.7S559.576,112.456,559.576,112.456Z"/><path class="cls-4" d="M562.853,130.676a23.6,23.6,0,0,1,5.168-13.9c4.267-5,6.387-6.229,6.387-6.229s.586,9.319-2.051,14S562.853,130.676,562.853,130.676Z"/><path class="cls-4" d="M550.4,92.134s-2.52-5.1-6.683-7.252a8.751,8.751,0,0,0-7.525-.492s3.261,4.022,5.868,5.566S550.4,92.134,550.4,92.134Z"/><path class="cls-4" d="M555.03,97.346a18.4,18.4,0,0,1-2.6-11.846,35.436,35.436,0,0,1,1.6-7.244s4.488,6.018,4.755,10.435S555.03,97.346,555.03,97.346Z"/><path class="cls-4" d="M542.607,79.085s-2.129-3.169-5.113-4.172a5.972,5.972,0,0,0-5.106.488,19.433,19.433,0,0,0,4.421,3.121C538.7,79.281,542.607,79.085,542.607,79.085Z"/><path class="cls-4" d="M547.961,81.374a12.523,12.523,0,0,1-3.267-7.517,26.42,26.42,0,0,1,.117-5.088s3.764,3.33,4.517,6.241S547.961,81.374,547.961,81.374Z"/><path class="cls-4" d="M538.463,69.734a8.079,8.079,0,0,0-2.129-6.587c-2.795-2.869-7.056-2.567-7.056-2.567a16.358,16.358,0,0,0,3.344,5.79A18.379,18.379,0,0,0,538.463,69.734Z"/><path class="cls-4" d="M393.249,229.426a29.748,29.748,0,0,0-15.984-8.561c-10.348-1.988-16.177.974-16.177.974s7.788,8.441,14.348,10.657S393.249,229.426,393.249,229.426Z"/><path class="cls-4" d="M374.181,200.424s-5.809-6.4-6.671-13.953a15.979,15.979,0,0,1,3.187-12.027s3.93,7.04,4.741,11.866S374.181,200.424,374.181,200.424Z"/><path class="cls-4" d="M371.928,207.043s-6.384-8.578-17.132-11.007c-8.043-1.817-12.327-1.1-12.327-1.1s6.863,11.2,13.658,14.062S371.928,207.043,371.928,207.043Z"/><path class="cls-4" d="M391.105,221a21.26,21.26,0,0,1-7.909-11.365c-2.074-7.546,1.395-16.759,1.395-16.759s5.114,8.489,6.7,14.35S391.105,221,391.105,221Z"/><path class="cls-4" d="M359.347,178.593s-3.5-7.934-2.122-15.332,6.382-10.272,6.382-10.272,1.588,7.92.947,12.73S359.347,178.593,359.347,178.593Z"/><path class="cls-4" d="M354.875,183.05A34.783,34.783,0,0,0,342.242,167.4c-6.755-4.372-11.072-4.969-11.072-4.969s3.088,12.536,8.534,17.36S354.875,183.05,354.875,183.05Z"/><path class="cls-4" d="M351.371,153.946s-1.293-8.062,1.681-14.348,8.15-7.544,8.15-7.544-.425,7.543-2.129,11.7S351.371,153.946,351.371,153.946Z"/><path class="cls-4" d="M350.464,129.856s1-6.5,4.837-10.591a10.918,10.918,0,0,1,8.117-3.772s-2.191,5.681-4.525,8.447S350.464,129.856,350.464,129.856Z"/><path class="cls-4" d="M346.488,155.825a30.475,30.475,0,0,0-8.019-15.717c-5.589-5.5-8.428-6.307-8.428-6.307s.568,11.274,4.334,16.407S346.488,155.825,346.488,155.825Z"/><path class="cls-4" d="M353.119,111.306s.969-6.776,4.881-10.946a10.786,10.786,0,0,1,8.328-3.721s-2.2,5.882-4.581,8.712S353.119,111.306,353.119,111.306Z"/><path class="cls-4" d="M348.716,112.456a22.983,22.983,0,0,0-1.438-14.373c-2.787-5.766-4.481-7.448-4.481-7.448s-2.854,8.638-1.526,13.7S348.716,112.456,348.716,112.456Z"/><path class="cls-4" d="M345.438,130.676a23.587,23.587,0,0,0-5.168-13.9c-4.267-5-6.387-6.229-6.387-6.229s-.586,9.319,2.051,14S345.438,130.676,345.438,130.676Z"/><path class="cls-4" d="M357.887,92.134s2.521-5.1,6.683-7.252a8.75,8.75,0,0,1,7.525-.492s-3.261,4.022-5.868,5.566S357.887,92.134,357.887,92.134Z"/><path class="cls-4" d="M353.262,97.346A18.4,18.4,0,0,0,355.856,85.5a35.344,35.344,0,0,0-1.6-7.244s-4.488,6.018-4.754,10.435S353.262,97.346,353.262,97.346Z"/><path class="cls-4" d="M365.685,79.085s2.129-3.169,5.113-4.172a5.973,5.973,0,0,1,5.106.488,19.422,19.422,0,0,1-4.422,3.121C369.6,79.281,365.685,79.085,365.685,79.085Z"/><path class="cls-4" d="M360.331,81.374a12.523,12.523,0,0,0,3.267-7.517,26.524,26.524,0,0,0-.117-5.088s-3.765,3.33-4.518,6.241S360.331,81.374,360.331,81.374Z"/><path class="cls-4" d="M369.828,69.734a8.077,8.077,0,0,1,2.13-6.587c2.794-2.869,7.056-2.567,7.056-2.567a16.351,16.351,0,0,1-3.345,5.79A18.379,18.379,0,0,1,369.828,69.734Z"/></g><polygon class="cls-4" points="498.546 94.744 491.658 93.743 491.627 93.738 488.533 87.469 485.439 93.738 478.52 94.744 478.52 94.744 483.527 99.624 482.345 106.515 488.533 103.261 494.722 106.515 493.54 99.624 498.546 94.744"/><polygon class="cls-4" points="422.882 93.743 422.852 93.738 419.758 87.469 416.664 93.738 409.745 94.744 409.745 94.744 414.751 99.624 413.57 106.515 419.758 103.261 425.946 106.515 424.765 99.624 429.771 94.744 422.882 93.743"/><polygon class="cls-4" points="457.27 93.743 457.24 93.738 454.146 87.469 451.052 93.738 444.133 94.744 444.133 94.744 449.139 99.624 447.957 106.515 454.146 103.261 460.334 106.515 459.152 99.624 464.159 94.744 457.27 93.743"/><path d="M503.122,184.684a16.491,16.491,0,0,0-.089-1.77c.63.06,1.289.09,2.13.09h6.509v-4.62h-6.84a24.072,24.072,0,0,1-4.98,6.09,5.325,5.325,0,0,0-1.649-1.8,19.485,19.485,0,0,0,5.969-7.92,12.64,12.64,0,0,0,.75-2.189l2.52.63c-.15.33-.21.45-.39.839-.18.361-.18.361-.66,1.411-.24.54-.24.54-.39.87h14.61a17.144,17.144,0,0,0,2.79-.151v2.37a17.853,17.853,0,0,0-2.79-.15h-6.6V183h5.249a17.605,17.605,0,0,0,2.79-.15v2.34a22.633,22.633,0,0,0-2.729-.121h-5.31v5.581h7.379a22.1,22.1,0,0,0,3.12-.18v2.519a23.346,23.346,0,0,0-3.12-.179h-7.379v4.62a14.809,14.809,0,0,0,.21,2.909h-2.73a15.014,15.014,0,0,0,.18-2.939v-4.59h-10.62a23.356,23.356,0,0,0-3.12.179v-2.519a22.416,22.416,0,0,0,3.12.18h2.07Zm8.55,5.97v-5.581h-6.24v5.581Z"/><path d="M410.018,68.657c-.2.151-.5.426-1.425,1.25a16.456,16.456,0,0,1-2.4,1.725,22.053,22.053,0,0,0,6.549,2.225,12.212,12.212,0,0,0-1.325,2.874,21.631,21.631,0,0,1-9-4.349,13.3,13.3,0,0,1-3.824-4.949h-2.175v5.674a43.534,43.534,0,0,0,5.025-1.35l.024,2.5a72.2,72.2,0,0,1-9.772,2.4c-.6.125-.675.125-1.125.25l-.525-2.8a25.048,25.048,0,0,0,3.549-.451V67.433h-1.35a15.7,15.7,0,0,0-2.548.15v-2.7a16.142,16.142,0,0,0,2.6.149h1.3v-7.9a19.28,19.28,0,0,0-.1-2.475,20.071,20.071,0,0,0,2.725.125h11.2a16.913,16.913,0,0,0,2.9-.15v2.649a20.656,20.656,0,0,0-2.874-.125H396.471v1.25h10.6a17.019,17.019,0,0,0,2.3-.125V60.56a21.636,21.636,0,0,0-2.3-.125h-10.6v1.224h10.6a16.478,16.478,0,0,0,2.3-.125v2.3a14.921,14.921,0,0,0-2.3-.125h-10.6v1.324h13.322a15.888,15.888,0,0,0,2.475-.149v2.7a14.613,14.613,0,0,0-2.25-.15h-2.35Zm-8.6-1.224a7.859,7.859,0,0,0,2.624,2.9,18.118,18.118,0,0,0,3.35-2.9Z"/><path d="M420.061,63.584a13.726,13.726,0,0,0-.075-1.45c.525.051,1.075.075,1.75.075h5.448V58.96H421.96a22.989,22.989,0,0,1-4.124,4.924,10.967,10.967,0,0,0-1.849-2.225,15.5,15.5,0,0,0,4.874-6.273,7.235,7.235,0,0,0,.6-1.824l2.975.6c-.15.3-.2.374-.375.749-.025.076-.275.6-.725,1.575h11.7a17.73,17.73,0,0,0,2.548-.125v2.724a18.526,18.526,0,0,0-2.548-.125h-5.1v3.249h4.023a18.2,18.2,0,0,0,2.575-.125v2.65a23.255,23.255,0,0,0-2.5-.1h-4.1v4.049h5.8a20.206,20.206,0,0,0,2.724-.151v2.85a21.214,21.214,0,0,0-2.724-.149h-5.8v3.124a15.048,15.048,0,0,0,.149,2.673h-3.048a18.356,18.356,0,0,0,.149-2.723V71.233h-8.4a21.517,21.517,0,0,0-2.725.149v-2.85a20.756,20.756,0,0,0,2.725.151h1.274Zm7.123,5.1V64.634h-4.5v4.049Z"/><path d="M452.873,69.058c-1.424,3.224-3.024,4.7-5.074,4.7-2.849,0-4.9-2.9-4.9-6.924a10.735,10.735,0,0,1,2.749-7.273,11.22,11.22,0,0,1,8.6-3.5c6,0,9.9,3.649,9.9,9.272a9.628,9.628,0,0,1-6.073,9.323,16.335,16.335,0,0,1-3.924,1.05,7.975,7.975,0,0,0-1.525-2.925,13.269,13.269,0,0,0,4.974-1.374,7,7,0,0,0,3.474-6.249A6.191,6.191,0,0,0,458,59.61a5.448,5.448,0,0,0-2.525-.749A36.189,36.189,0,0,1,452.873,69.058ZM449.2,60.11a8.37,8.37,0,0,0-3.4,6.749c0,2.048.874,3.673,1.975,3.673.824,0,1.674-1.049,2.574-3.2a32.974,32.974,0,0,0,2.074-8.448A6.36,6.36,0,0,0,449.2,60.11Z"/><path d="M473.588,62.659a13.817,13.817,0,0,0-2.349.125V61.459h-2.3a9.83,9.83,0,0,0,.124-1.849V57.761a15.431,15.431,0,0,0-.1-1.875,27.244,27.244,0,0,0,2.749.1h6.5v-.575a7.746,7.746,0,0,0-.15-1.574h3.074a7.65,7.65,0,0,0-.125,1.574v.575h6.849c1.274,0,1.925-.025,2.774-.1a14.343,14.343,0,0,0-.1,1.824v1.9a13.742,13.742,0,0,0,.1,1.849h-2.3v1.325a14.334,14.334,0,0,0-2.374-.125h-5.023c-.025.8-.025.8-.051,1.375h4.674a15.375,15.375,0,0,0,2.225-.1v2.375a16.253,16.253,0,0,0-2.225-.1h-4.823c-.075.625-.1.825-.2,1.35h7.8a17.092,17.092,0,0,0,2.575-.125v2.625a21.72,21.72,0,0,0-2.7-.151h-6.373a8.494,8.494,0,0,0,2.325,2.1,15.829,15.829,0,0,0,4.4,1.7c.624.176,1.4.325,2.774.575a9.962,9.962,0,0,0-1.3,2.7,24.423,24.423,0,0,1-4.674-1.45,13.22,13.22,0,0,1-5.924-4.749,9.816,9.816,0,0,1-3.649,3.924,16.232,16.232,0,0,1-6.1,2.25,8.22,8.22,0,0,0-1.324-2.6,15.227,15.227,0,0,0,5.424-1.525,7.376,7.376,0,0,0,3.173-2.925h-5.523a22.785,22.785,0,0,0-2.675.151V67.433a16.156,16.156,0,0,0,2.525.125h6.548c.1-.475.15-.75.225-1.35h-4.224a16.447,16.447,0,0,0-2.25.1V63.934a15.8,15.8,0,0,0,2.25.1h4.4c.025-.7.025-.7.025-1.375Zm4.7-2.2a12.053,12.053,0,0,0-.1-1.6h2.9a8.137,8.137,0,0,0-.1,1.6h4.973c.95,0,1.35-.025,1.975-.075v-2.05H471.664v2.05a17.465,17.465,0,0,0,1.924.075Z"/><path d="M497.478,68.308a37.688,37.688,0,0,1-.976,7.5l-2.173-1.15a23.768,23.768,0,0,0,1.024-6.823Zm-3.05-3.974a7.092,7.092,0,0,0,1.175.1c.175,0,.2,0,.75-.026.649-.874.649-.874,1.2-1.7a25.263,25.263,0,0,0-3.1-3.749l1.249-2.124c.25.275.525.574.825.9a16.246,16.246,0,0,0,1.8-4.124l2.324,1c-.175.3-.25.449-.5.924a26.686,26.686,0,0,1-2.15,3.9,14.07,14.07,0,0,1,.9,1.15,24.865,24.865,0,0,0,2.2-4.149l2.274,1.149a16.076,16.076,0,0,0-1.025,1.625c-.8,1.375-2.5,3.924-3.4,5.1.974-.05,1.249-.075,2.249-.2a13.7,13.7,0,0,0-.7-1.6l1.651-.675a26.63,26.63,0,0,1,1.874,5.025l-1.874.7c-.125-.6-.175-.85-.276-1.249-.549.074-.75.1-1.324.175v7.647a21.185,21.185,0,0,0,.15,2.85H498a21.157,21.157,0,0,0,.151-2.85V66.684c-1.6.124-1.6.124-1.775.124a12.439,12.439,0,0,0-1.674.176Zm8.448,3.6a38.421,38.421,0,0,1,.825,5.523l-1.95.375a32.486,32.486,0,0,0-.7-5.523Zm3.575,5.149c-.826,0-1.2,0-2.125.074.05-.6.075-1.449.075-2.349v-4.8c0-1.024-.025-1.5-.075-2.1.625.05,1.025.05,2.075.05h7.722a16.013,16.013,0,0,0,2.15-.075,20.837,20.837,0,0,0-.1,2.35v4.449a23.281,23.281,0,0,0,.1,2.473c-.85-.049-1.3-.074-2.074-.074h-1.425a11.877,11.877,0,0,0,5.273,1.924,10.579,10.579,0,0,0-1.349,2.175,16.121,16.121,0,0,1-5.824-2.775l1.425-1.324h-4.6l1.6,1.249a13.542,13.542,0,0,1-6.2,2.85,6.338,6.338,0,0,0-1.3-2,12.91,12.91,0,0,0,5.65-2.1Zm-.6-15.7a15.449,15.449,0,0,0-2.225.1V55.261a15.489,15.489,0,0,0,2.35.125h2.9a8.5,8.5,0,0,0-.125-1.549h2.826a6.269,6.269,0,0,0-.151,1.549h3.249a15.847,15.847,0,0,0,2.375-.125v2.225a16.044,16.044,0,0,0-2.274-.1h-3.35v.85H514.2a15.829,15.829,0,0,0,2.1-.1V60.16c-.625-.05-1.05-.075-2.075-.075h-2.8v.925h3.849a15.265,15.265,0,0,0,2.325-.125v2.3a16.085,16.085,0,0,0-2.325-.125h-9.822a19.308,19.308,0,0,0-2.425.1V60.885a15.141,15.141,0,0,0,2.4.125h3.449v-.925h-2.5c-1.049,0-1.5.025-2.149.075V58.135a16.237,16.237,0,0,0,2.124.1h2.524v-.85Zm1,9.122H513.7v-.824H506.85Zm0,2.375H513.7v-.825H506.85Zm0,2.424H513.7v-.9H506.85Z"/></g></g></svg>