<svg xmlns="http://www.w3.org/2000/svg" viewBox="0 0 154.35 154.349"><defs><style>.cls-1{fill:#36af35;stroke:#fff;stroke-miterlimit:10;stroke-width:7.35px;}.cls-2{fill:#fff;}</style></defs><g id="レイヤー_2" data-name="レイヤー 2"><g id="レイヤー_1-2" data-name="レイヤー 1"><circle class="cls-1" cx="77.175" cy="77.175" r="73.5"/><path class="cls-2" d="M41.957,60.529a15.383,15.383,0,0,0,.153-2.464V47.73a17.18,17.18,0,0,0-.153-2.464c.822.038,1.414.057,2.427.057h3.992a5.425,5.425,0,0,1,4.069,1.356,4.466,4.466,0,0,1,1.185,3.286,4.906,4.906,0,0,1-1.28,3.515,5.413,5.413,0,0,1-4.069,1.376H44.632v3.19a15.333,15.333,0,0,0,.153,2.483Zm6.324-7.87a2.4,2.4,0,0,0,2.713-2.617,2.573,2.573,0,0,0-.631-1.834,2.606,2.606,0,0,0-2.082-.688H44.632v5.139Z"/><path class="cls-2" d="M69.09,46.928a8.238,8.238,0,0,1,2.139,5.96c0,4.833-2.807,7.967-7.145,7.967s-7.125-3.115-7.125-7.967a8.176,8.176,0,0,1,2.178-5.96,6.62,6.62,0,0,1,4.928-1.911A6.7,6.7,0,0,1,69.09,46.928Zm-.535,5.96a6.172,6.172,0,0,0-1.509-4.451A4.113,4.113,0,0,0,64.1,47.272c-2.751,0-4.489,2.177-4.489,5.635a6.309,6.309,0,0,0,1.548,4.509,4.123,4.123,0,0,0,2.961,1.165C66.854,58.581,68.555,56.4,68.555,52.888Z"/><path class="cls-2" d="M78.284,45.323a14.33,14.33,0,0,0-.153,2.464V58.065a14.457,14.457,0,0,0,.153,2.464h-2.9a14.473,14.473,0,0,0,.152-2.464V47.787a14.346,14.346,0,0,0-.152-2.464Z"/><path class="cls-2" d="M92.844,60.529a18.912,18.912,0,0,0-1.223-2.043l-4.929-7.432c-.363-.573-.841-1.4-1.3-2.292.019.267.019.267.077.974.018.363.057,1.223.057,1.662v6.266a21.041,21.041,0,0,0,.153,2.865H82.891a20.765,20.765,0,0,0,.152-2.884V47.787a15.871,15.871,0,0,0-.152-2.464h2.98a10.513,10.513,0,0,0,1.165,2.025l4.833,7.279c.459.687,1.07,1.681,1.49,2.445-.076-.745-.133-1.891-.133-2.694V47.959a16.772,16.772,0,0,0-.153-2.636h2.789a16.772,16.772,0,0,0-.153,2.636V58.065a14.464,14.464,0,0,0,.153,2.464Z"/><path class="cls-2" d="M107.2,58.046a15.667,15.667,0,0,0,.154,2.483h-2.885a16.087,16.087,0,0,0,.152-2.483V47.615h-2.579a19.047,19.047,0,0,0-2.617.134v-2.56a19.12,19.12,0,0,0,2.6.134h7.565a20.209,20.209,0,0,0,2.809-.134v2.56a20.188,20.188,0,0,0-2.809-.134H107.2Z"/><path class="cls-2" d="M74.877,84.186l-6.134-1.115q.8-5.577,3.532-8.378a9.663,9.663,0,0,1,13.65.04,10.778,10.778,0,0,1,2.63,7.621,14.885,14.885,0,0,1-1.939,7.25,49.972,49.972,0,0,1-5.842,7.622,62.576,62.576,0,0,0-5.472,6.8H86.377l-1.195,6.958H65.8a20.838,20.838,0,0,1,2.762-8.26,76.814,76.814,0,0,1,7.2-9.215,65.369,65.369,0,0,0,5.258-6.639A9.09,9.09,0,0,0,82.5,82.3a4.986,4.986,0,0,0-.969-3.253,2.968,2.968,0,0,0-2.377-1.182Q75.886,77.866,74.877,84.186Z"/></g></g></svg>