<svg xmlns="http://www.w3.org/2000/svg" viewBox="0 0 64.761 64.761"><defs><style>.cls-1{fill:#36af35;stroke:#fff;stroke-miterlimit:10;stroke-width:6px;}.cls-2{fill:#fff;}</style></defs><g id="レイヤー_2" data-name="レイヤー 2"><g id="レイヤー_1-2" data-name="レイヤー 1"><rect class="cls-1" x="3" y="3" width="58.761" height="58.761" rx="12"/><path class="cls-2" d="M24.657,38.532l4.065-.6a5.891,5.891,0,0,0,.921,2.927,2.179,2.179,0,0,0,1.771.813,2.982,2.982,0,0,0,2.367-1.166,4.611,4.611,0,0,0,.975-3.062,3.868,3.868,0,0,0-.8-2.628,2.622,2.622,0,0,0-2.07-.913,3.47,3.47,0,0,0-.672.072l.741-4.317.433.036a3.246,3.246,0,0,0,2.566-1.021,4.234,4.234,0,0,0,.9-2.9,3.068,3.068,0,0,0-.612-2.042,1.941,1.941,0,0,0-1.548-.723q-2,0-2.79,3.632l-3.884-.939a10.742,10.742,0,0,1,2.294-4.752,6.187,6.187,0,0,1,4.7-2.1,5.652,5.652,0,0,1,4.4,1.87A7.222,7.222,0,0,1,40.1,25.759a7.021,7.021,0,0,1-1.021,3.777,5.97,5.97,0,0,1-2.7,2.384,5.67,5.67,0,0,1,1.987,2.2,6.571,6.571,0,0,1,.7,3.062,9.232,9.232,0,0,1-1.933,5.691A6.979,6.979,0,0,1,31.36,45.9a5.98,5.98,0,0,1-4.481-1.869A9.2,9.2,0,0,1,24.657,38.532Z"/></g></g></svg>