<svg xmlns="http://www.w3.org/2000/svg" viewBox="0 0 1222.318 380.928"><defs><style>.cls-1{fill:#36af35;}.cls-2,.cls-5,.cls-6,.cls-7,.cls-8,.cls-9{fill:none;stroke-miterlimit:10;}.cls-2{stroke:#36af35;}.cls-3{fill:#fff;}.cls-4{fill:#25813a;}.cls-5,.cls-6,.cls-7,.cls-8,.cls-9{stroke:#25813a;}.cls-5{stroke-width:3px;}.cls-6{stroke-width:2px;}.cls-7{stroke-width:0.62px;}.cls-8{stroke-width:0.902px;}</style></defs><g id="レイヤー_2" data-name="レイヤー 2"><g id="レイヤー_1-2" data-name="レイヤー 1"><path class="cls-1" d="M211.634,64.124l-31.556,7.783v46.457l31.527,2.715,17.189-2.921V71.084ZM208.257,116.6l-10.3-.887v-8.836l-6.127-.075v8.383l-7.577-.652V75.177l24-5.92Z"/><polygon class="cls-1" points="206.132 72.682 201.158 73.726 201.158 79.581 206.132 78.724 206.132 72.682"/><polygon class="cls-1" points="189.148 76.586 185.682 77.319 185.682 82.458 189.148 81.863 189.148 76.586"/><polygon class="cls-1" points="197.095 74.796 192.692 75.718 192.692 81.147 197.095 80.387 197.095 74.796"/><polygon class="cls-1" points="189.149 86.726 185.682 87.2 185.682 92.348 189.149 92.003 189.149 86.726"/><polygon class="cls-1" points="197.095 85.57 192.692 86.167 192.692 91.595 197.095 91.161 197.095 85.57"/><polygon class="cls-1" points="206.132 84.263 201.158 84.937 201.158 90.7 206.132 90.21 206.132 84.263"/><polygon class="cls-1" points="206.132 95.954 201.158 96.26 201.158 102.024 206.132 101.901 206.132 95.954"/><polygon class="cls-1" points="197.095 96.548 192.692 96.819 192.692 102.247 197.095 102.139 197.095 96.548"/><polygon class="cls-1" points="189.148 97.073 185.682 97.289 185.682 102.436 189.148 102.35 189.148 97.073"/><path class="cls-1" d="M257.152,100.832a14.15,14.15,0,0,0-.588-2.2l-.84-2.288h-6.719l-.84,2.288a10.49,10.49,0,0,0-.63,2.2h-3.443a22.926,22.926,0,0,0,1.113-2.477l4.619-12.115a12.438,12.438,0,0,0,.672-2.121h3.653a13.905,13.905,0,0,0,.714,2.121l4.661,12.115a22,22,0,0,0,1.071,2.477Zm-4.43-13.123c-.084-.23-.147-.482-.378-1.175-.336.987-.336.987-.4,1.175l-2.184,6.215h5.207Z"/><path class="cls-1" d="M269.438,100.181a14.912,14.912,0,0,0,.105,2.142H267a12.563,12.563,0,0,0,.126-2.184v-5.27a14.185,14.185,0,0,1-2.33,1.785,8.137,8.137,0,0,0-1.071-2.184,14.5,14.5,0,0,0,3.611-2.834,12.488,12.488,0,0,0,2.289-3.233H266.2a14.175,14.175,0,0,0-1.763.084V86.156a12.815,12.815,0,0,0,1.658.084h1.05V84.476a9.651,9.651,0,0,0-.126-1.6h2.541a8.966,8.966,0,0,0-.126,1.638V86.24h.861a7.634,7.634,0,0,0,1.217-.063l1.008,1.092a5.745,5.745,0,0,0-.462.882,17.268,17.268,0,0,1-2.1,3.59,12.377,12.377,0,0,0,3.338,2.667,8.929,8.929,0,0,0-1.155,2.057,11.542,11.542,0,0,1-2.708-2.373Zm8.9-.986h2.52a18,18,0,0,0,2.393-.126v2.54a17.229,17.229,0,0,0-2.393-.147h-7.181a16.935,16.935,0,0,0-2.373.147v-2.54a19.043,19.043,0,0,0,2.415.126h2.289v-8.21h-1.575c-.714,0-1.386.042-2.058.105V88.717a14.157,14.157,0,0,0,2.058.106h1.575v-3.7a14.841,14.841,0,0,0-.147-2.183h2.624a12.3,12.3,0,0,0-.147,2.183v3.7h2.226a13.621,13.621,0,0,0,2.057-.106V91.09c-.672-.063-1.322-.105-2.057-.105H278.34Z"/><path class="cls-1" d="M318.205,85.085a12.825,12.825,0,0,0-.735,1.512,35.023,35.023,0,0,1-2.96,5.941,50.608,50.608,0,0,1,4.682,4.452l-2.016,2.163a31.222,31.222,0,0,0-4.262-4.431,24.128,24.128,0,0,1-3.275,3.507,26.709,26.709,0,0,1-5,3.464,6.493,6.493,0,0,0-1.847-2.184,22.692,22.692,0,0,0,8.1-6.487,37.5,37.5,0,0,0-5.564-3.779l1.848-1.848c1.533.9,2.436,1.49,3.464,2.225,1.575,1.134,1.575,1.134,1.743,1.239a25.642,25.642,0,0,0,2.96-6.761Z"/><path class="cls-1" d="M324.739,98.4a20.026,20.026,0,0,0,6.214-1.554,14.027,14.027,0,0,0,6.236-5.144,17.517,17.517,0,0,0,2.142-4.2,9.05,9.05,0,0,0,2.225,2.058,18.416,18.416,0,0,1-6.655,8.23,22.677,22.677,0,0,1-8,3.15,7.434,7.434,0,0,0-1.386.357Zm1.784-13.039a29.605,29.605,0,0,1,5.417,4.053L330.135,91.7a22.058,22.058,0,0,0-5.354-4.262Z"/><path class="cls-1" d="M355.4,92.35A11.4,11.4,0,0,1,353.927,98c-1.113,1.848-2.645,3-5.48,4.137a6.65,6.65,0,0,0-1.7-2.309c2.52-.778,4.1-1.89,4.976-3.507a8.913,8.913,0,0,0,.924-3.968h-5.123a20.817,20.817,0,0,0-2.666.1v-2.5a14.775,14.775,0,0,0,2.708.147h12.283a14.9,14.9,0,0,0,2.708-.147v2.5a20.8,20.8,0,0,0-2.666-.1Zm-8.42-7.685a14.247,14.247,0,0,0,2.709.147h8.062a14.247,14.247,0,0,0,2.709-.147v2.562a19.735,19.735,0,0,0-2.667-.106h-8.146a19.735,19.735,0,0,0-2.667.106Z"/><path class="cls-1" d="M380.785,88.969a15.044,15.044,0,0,0,2.729-.146v2.645a21.542,21.542,0,0,0-2.687-.105h-4.3c-.189,2.919-.546,4.3-1.512,5.921a12.638,12.638,0,0,1-5.354,4.7,6.523,6.523,0,0,0-1.911-2.268,9.687,9.687,0,0,0,5.06-4.136,9.074,9.074,0,0,0,1.029-4.22h-5.207a21.562,21.562,0,0,0-2.687.105V88.823a15.194,15.194,0,0,0,2.729.146h5.291c.021-.882.021-1.26.021-1.638V86.093a13.2,13.2,0,0,0-.105-2.015h2.9a13.221,13.221,0,0,0-.1,2.015l-.021,1.26c-.021,1.386-.021,1.386-.021,1.616Z"/><path class="cls-1" d="M387.739,98.4a20.026,20.026,0,0,0,6.214-1.554,14.027,14.027,0,0,0,6.236-5.144,17.517,17.517,0,0,0,2.142-4.2,9.05,9.05,0,0,0,2.225,2.058,18.416,18.416,0,0,1-6.655,8.23,22.677,22.677,0,0,1-8,3.15,7.434,7.434,0,0,0-1.386.357Zm1.784-13.039a29.605,29.605,0,0,1,5.417,4.053L393.135,91.7a22.058,22.058,0,0,0-5.354-4.262Z"/><path class="cls-1" d="M423.793,101.609a40.356,40.356,0,0,0-6.446-6.236,24.935,24.935,0,0,1-8,6.068,8.381,8.381,0,0,0-1.7-2.33,17.366,17.366,0,0,0,4.2-2.31,20.238,20.238,0,0,0,7.055-8.546l.231-.546c-.336.022-.336.022-6.95.126a16.868,16.868,0,0,0-2.289.168l-.084-2.687a9.19,9.19,0,0,0,1.848.126h.5l7.391-.1a4.546,4.546,0,0,0,1.868-.231l1.386,1.428a4.046,4.046,0,0,0-.672,1.133,27.821,27.821,0,0,1-3.275,5.8,32.624,32.624,0,0,1,3.884,3.045c.525.462.525.462,3.065,2.918Z"/><path class="cls-1" d="M440.426,87.983l.021-.946v-.671a13.362,13.362,0,0,0-.105-2.33h2.708a7.735,7.735,0,0,0-.084,1.406c0,1.281,0,1.281-.021,2.541h1.344a14.866,14.866,0,0,0,2.729-.148V90.4a21.335,21.335,0,0,0-2.687-.105h-1.407a25.437,25.437,0,0,1-.147,3.464,8.413,8.413,0,0,1-3.023,6.027,11.692,11.692,0,0,1-4.094,2.2,6.239,6.239,0,0,0-1.575-2.226,9.743,9.743,0,0,0,4.01-1.994c1.428-1.239,2.037-2.625,2.226-5.039.042-.484.042-.987.084-2.436h-5.438v3.15a12.9,12.9,0,0,0,.084,1.763h-2.73a13.81,13.81,0,0,0,.084-1.8V90.292h-1.281a21.355,21.355,0,0,0-2.687.105V87.835a14.879,14.879,0,0,0,2.729.148h1.239v-2.1a11.192,11.192,0,0,0-.1-1.869h2.751a10.5,10.5,0,0,0-.084,1.806v2.163Z"/><path class="cls-1" d="M455.211,92.035c-.042.126-.063.251-.084.293,0,.042-.042.168-.084.358a22.19,22.19,0,0,1-3.528,8.167,9.107,9.107,0,0,0-2.435-1.364,17.06,17.06,0,0,0,3.548-8.084Zm9.553-4.494c.441,0,.651,0,1.155-.02a2.417,2.417,0,0,1,.714-4.725,2.424,2.424,0,0,1,.839,4.7v2.478a18.052,18.052,0,0,0-2.666-.105h-4.85v10.183a16.218,16.218,0,0,0,.1,2.352h-2.856a15.632,15.632,0,0,0,.126-2.372V89.872H452.67a17.9,17.9,0,0,0-2.645.105V87.4a13.5,13.5,0,0,0,2.687.146h4.619V86.366a11.917,11.917,0,0,0-.126-2.163h2.835a16.731,16.731,0,0,0-.084,2.226v1.112Zm-.231,3.864a23.184,23.184,0,0,0,3.716,8,13.848,13.848,0,0,0-2.414,1.448A28,28,0,0,1,462.391,93a5.385,5.385,0,0,0-.336-.965Zm.735-6.194a1.375,1.375,0,1,0,2.75,0,1.375,1.375,0,0,0-2.75,0Z"/><path class="cls-1" d="M470.71,91.405a20.616,20.616,0,0,0,3.4.147H485.3a20.6,20.6,0,0,0,3.4-.147v2.919a22.813,22.813,0,0,0-3.422-.106H474.132a22.829,22.829,0,0,0-3.422.106Z"/><path class="cls-1" d="M495.783,101.861a14.147,14.147,0,0,0,.126-2.352V86.051a13.475,13.475,0,0,0-.126-2.141h2.877a14.055,14.055,0,0,0-.084,2.2v3.905a61.725,61.725,0,0,1,9.532,4.431l-1.47,2.477a49.756,49.756,0,0,0-7.433-4.011,6.805,6.805,0,0,1-.713-.356,10.857,10.857,0,0,1,.084,1.428v5.543a23.077,23.077,0,0,0,.084,2.33Z"/><rect class="cls-2" x="149.794" y="48.101" width="392" height="89"/><path class="cls-1" d="M211.565,185.07l-31.555,7.784v46.457l31.527,2.715,17.188-2.921V192.03Zm-3.377,52.477-10.3-.887v-8.835l-6.128-.076v8.384l-7.576-.653V196.124l24-5.921Z"/><polygon class="cls-1" points="206.064 193.628 201.09 194.672 201.09 200.528 206.064 199.67 206.064 193.628"/><polygon class="cls-1" points="189.08 197.533 185.614 198.266 185.614 203.405 189.08 202.81 189.08 197.533"/><polygon class="cls-1" points="197.027 195.743 192.623 196.665 192.623 202.093 197.027 201.334 197.027 195.743"/><polygon class="cls-1" points="189.08 207.672 185.614 208.147 185.614 213.294 189.08 212.95 189.08 207.672"/><polygon class="cls-1" points="197.027 206.516 192.623 207.113 192.623 212.541 197.027 212.107 197.027 206.516"/><polygon class="cls-1" points="206.064 205.209 201.09 205.883 201.09 211.647 206.064 211.157 206.064 205.209"/><polygon class="cls-1" points="206.064 216.9 201.09 217.206 201.09 222.97 206.064 222.848 206.064 216.9"/><polygon class="cls-1" points="197.027 217.494 192.623 217.765 192.623 223.194 197.027 223.085 197.027 217.494"/><polygon class="cls-1" points="189.08 218.019 185.614 218.235 185.614 223.382 189.08 223.296 189.08 218.019"/><path class="cls-1" d="M247.971,221.778c-1.218,0-1.827.022-2.688.063a14.976,14.976,0,0,0,.189-2.834v-11.4a20.018,20.018,0,0,0-.168-2.583c.882.042,1.218.042,2.646.042h4.955c3.254,0,5.081,1.47,5.081,4.094a3.755,3.755,0,0,1-1.176,2.961,3.553,3.553,0,0,1-1.659.882,3.84,3.84,0,0,1,2.121.966,4.144,4.144,0,0,1,1.3,3.213c0,2.939-1.953,4.6-5.438,4.6Zm4.64-9.868a2.226,2.226,0,0,0,2.54-2.288,2.143,2.143,0,0,0-.546-1.555,2.976,2.976,0,0,0-2.015-.65h-4.347v4.493Zm-4.368,7.5h4.515c1.868,0,2.918-.924,2.918-2.624a2.276,2.276,0,0,0-.672-1.827,3.435,3.435,0,0,0-2.288-.713h-4.473Z"/><path class="cls-1" d="M271.175,221.128a14.873,14.873,0,0,0,.1,2.14h-2.54a12.537,12.537,0,0,0,.126-2.183v-5.27a14.152,14.152,0,0,1-2.331,1.785,8.116,8.116,0,0,0-1.071-2.183,14.507,14.507,0,0,0,3.612-2.835,12.492,12.492,0,0,0,2.288-3.233h-3.422a14.379,14.379,0,0,0-1.764.084V207.1a12.822,12.822,0,0,0,1.659.084h1.05v-1.763a9.625,9.625,0,0,0-.126-1.6h2.54a8.931,8.931,0,0,0-.126,1.637v1.722h.861a7.649,7.649,0,0,0,1.218-.063l1.008,1.092a5.791,5.791,0,0,0-.462.882,17.215,17.215,0,0,1-2.1,3.589,12.354,12.354,0,0,0,3.338,2.667,8.99,8.99,0,0,0-1.154,2.058,11.5,11.5,0,0,1-2.709-2.373Zm8.9-.987h2.52a18.013,18.013,0,0,0,2.394-.126v2.541a17.085,17.085,0,0,0-2.394-.148h-7.181a16.766,16.766,0,0,0-2.372.148v-2.541a19.036,19.036,0,0,0,2.414.126h2.289v-8.21h-1.575c-.714,0-1.386.043-2.057.1v-2.373a14.153,14.153,0,0,0,2.057.1h1.575v-3.695a14.841,14.841,0,0,0-.147-2.183h2.624a12.3,12.3,0,0,0-.147,2.183v3.695H282.3a13.658,13.658,0,0,0,2.058-.1v2.373c-.672-.062-1.323-.1-2.058-.1h-2.226Z"/><path class="cls-1" d="M310.011,222.922a12.649,12.649,0,0,0,.126-1.868v-5.48a3.606,3.606,0,0,1-.63.4,33.27,33.27,0,0,1-5.921,2.352,8.664,8.664,0,0,0-1.239-2.289,26.137,26.137,0,0,0,5.837-1.953,22.527,22.527,0,0,0,6.509-4.451h-.441c-.126.021-.126.021-7.685.063a15.468,15.468,0,0,0-2.225.105v-2.541a10.767,10.767,0,0,0,2.246.19H310.1v-1.722a8.67,8.67,0,0,0-.105-1.512H312.8a6.785,6.785,0,0,0-.105,1.47v1.742h3.548a4.434,4.434,0,0,0,1.428-.188l1.218,1.427a4.927,4.927,0,0,0-.924.9,27.123,27.123,0,0,1-4.283,3.927,34.274,34.274,0,0,1,7.328,3.295L319.627,219a37.486,37.486,0,0,0-6.4-3.359c-.273-.126-.315-.126-.525-.231.021.252.042.84.042,1.029v4.619a9.4,9.4,0,0,0,.105,1.868Z"/><path class="cls-1" d="M327.735,209.506a24.189,24.189,0,0,1,2.058,4.976l-2.373.756a21.042,21.042,0,0,0-1.91-5.081Zm12.052.147a4.42,4.42,0,0,0-.294,1.071,17.925,17.925,0,0,1-2.9,6.991,16.122,16.122,0,0,1-6.4,5.061,7.628,7.628,0,0,0-1.68-2.079,13.6,13.6,0,0,0,3.569-1.932,12.064,12.064,0,0,0,4.766-7.285,9.315,9.315,0,0,0,.378-2.415Zm-7.58-1.008a20.642,20.642,0,0,1,2.037,4.829l-2.331.735a23.079,23.079,0,0,0-1.91-4.934Z"/><path class="cls-1" d="M348.714,222.524a14.147,14.147,0,0,0,.126-2.352V206.713a13.492,13.492,0,0,0-.126-2.141h2.877a14.077,14.077,0,0,0-.084,2.2v3.905a61.67,61.67,0,0,1,9.532,4.43l-1.47,2.477a49.721,49.721,0,0,0-7.432-4.009,6.7,6.7,0,0,1-.714-.358,10.857,10.857,0,0,1,.084,1.428v5.543a23.1,23.1,0,0,0,.084,2.331Z"/><path class="cls-1" d="M382.9,207.091a5.754,5.754,0,0,0-.357,1.491c-.672,4.914-1.659,7.391-3.842,9.743a17.082,17.082,0,0,1-6.509,4.157,9.026,9.026,0,0,0-1.722-2.415,13.721,13.721,0,0,0,4.262-1.952c3-2.037,4.577-5.123,5-9.68l-9.994.021v3.128a9.649,9.649,0,0,0,.084,1.848l-2.813.022a12.656,12.656,0,0,0,.084-1.806v-4.011a12.689,12.689,0,0,0-.063-1.7c.567.062,1.238.1,1.742.1h10.162a8.807,8.807,0,0,0,2.583-.23Z"/><path class="cls-1" d="M386.641,212.068a20.655,20.655,0,0,0,3.4.146h11.191a20.662,20.662,0,0,0,3.4-.146v2.918a23.054,23.054,0,0,0-3.423-.1H390.063a23.045,23.045,0,0,0-3.422.1Z"/><path class="cls-1" d="M424.522,208.141A3.95,3.95,0,0,0,424,209.4a21.785,21.785,0,0,1-4.3,8.1,21.205,21.205,0,0,1-7.475,5.333,6.467,6.467,0,0,0-1.785-2.2,18.946,18.946,0,0,0,4.6-2.477,16.628,16.628,0,0,0,6.13-8.861l-6.319.105a20.548,20.548,0,0,1-4.913,5.375,5.579,5.579,0,0,0-2.037-1.806,16.157,16.157,0,0,0,5.438-6.089,7.827,7.827,0,0,0,1.071-2.771l2.876.567a10.486,10.486,0,0,0-.63,1.238l-.273.546a4.953,4.953,0,0,1-.336.672c.273-.02.609-.042,1.008-.042l4.6-.062a3.72,3.72,0,0,0,1.533-.21Z"/><path class="cls-1" d="M447.139,207.847c-.441-.042-.735-.062-1.449-.084a9.761,9.761,0,0,1-1.89,3.695,11.917,11.917,0,0,0,3.59,1.512,6.54,6.54,0,0,0-1.028,2.058,12.864,12.864,0,0,1-3.99-2.142,11.148,11.148,0,0,1-3.947,2.163,7.414,7.414,0,0,0-.924-1.617,4.9,4.9,0,0,0-.672,1.134,8.033,8.033,0,0,1-2.666-2.226v.252c.021.19.021.19.063.756v.546a6.184,6.184,0,0,0,.063.924H432.21a3.848,3.848,0,0,0,.084-.924v-.566c0-.232.021-.546.042-.946a9.185,9.185,0,0,1-3.422,2.772,6.337,6.337,0,0,0-1.155-1.574,8.637,8.637,0,0,0,3.276-2h-.588a10.141,10.141,0,0,0-1.6.064c.042-.462.063-.861.063-1.386v-1.491a11.506,11.506,0,0,0-.063-1.344,14.461,14.461,0,0,0,1.659.064h1.784v-.714h-2.246a10.91,10.91,0,0,0-1.869.1v-1.952a14.776,14.776,0,0,0,1.869.1h2.246a6.139,6.139,0,0,0-.1-1.092h2.121c-.042.357-.063.588-.084,1.092h2.351a14.3,14.3,0,0,0,1.827-.1v1.932a16.283,16.283,0,0,0-1.785-.084h-2.414v.714h1.806a14.2,14.2,0,0,0,1.658-.064,9.667,9.667,0,0,0-.063,1.281,9.742,9.742,0,0,0,2.688-4.871l2.162.357c-.336.861-.462,1.176-.692,1.679h3.317a15.93,15.93,0,0,0,2.058-.126ZM436.6,217h-5.291a18.885,18.885,0,0,0-2.141.084v-1.994a13.871,13.871,0,0,0,2.141.1h12.7a13.829,13.829,0,0,0,2.184-.1v1.994A19.739,19.739,0,0,0,444.01,217h-5.186v1.008h4.409a11.311,11.311,0,0,0,1.911-.1V219.9a12.234,12.234,0,0,0-1.911-.1h-4.409v1.113h6.047a17.211,17.211,0,0,0,2.372-.126v2.079a20.741,20.741,0,0,0-2.372-.126H430.51a20.133,20.133,0,0,0-2.352.126v-2.079a17.318,17.318,0,0,0,2.352.126h1.238v-1.7a6.749,6.749,0,0,0-.105-1.407h2.394a9.389,9.389,0,0,0-.084,1.407v1.7H436.6Zm-5.941-8.02v1.176h1.637v-1.176Zm3.548,1.176h1.68v-1.176h-1.68Zm3.548,2.961a9.389,9.389,0,0,0,3.213-1.576,8.717,8.717,0,0,1-1.428-2.12,11.29,11.29,0,0,1-1.113,1.26,5.241,5.241,0,0,0-.819-.966v.546a11.636,11.636,0,0,0,.063,1.364,13.234,13.234,0,0,0-1.574-.042h-.819a7.223,7.223,0,0,0,2.582,1.408Zm2.919-5.313a7.145,7.145,0,0,0,1.637,2.415,6.618,6.618,0,0,0,1.26-2.457h-2.876Z"/><path class="cls-1" d="M456.57,211.122a63.852,63.852,0,0,1-.4,6.887,12.11,12.11,0,0,1-1.7,5.187,11.043,11.043,0,0,0-1.512-1.659c.021.777.042,1.091.1,1.785h-2.414a18.212,18.212,0,0,0,.126-2.5v-5.858c0-.8.021-1.511.063-2.751a10.723,10.723,0,0,1-1.428,2.247,11.416,11.416,0,0,0-.945-2.519,16.035,16.035,0,0,0,2.877-4.7,15.618,15.618,0,0,0,1.049-3.465l2.268.546c-.105.315-.21.651-.357,1.092a17.637,17.637,0,0,1-1.344,3.4v12.241a7.842,7.842,0,0,0,1.029-2.813,37.5,37.5,0,0,0,.462-7.013c0-.8-.021-1.449-.084-2.121a15.889,15.889,0,0,0,2.2.1h9.406a15.737,15.737,0,0,0,2.288-.1v2.1a19.755,19.755,0,0,0-2.036-.084Zm.923-5.983a6.369,6.369,0,0,0-.083-1.26h2.33a6.688,6.688,0,0,0-.084,1.26v.482h2.877v-.482a6.276,6.276,0,0,0-.084-1.26h2.33a6.831,6.831,0,0,0-.084,1.26v.482h1.323a13.4,13.4,0,0,0,2.121-.125v2.121a18.482,18.482,0,0,0-2.121-.084H464.7v.21a5.869,5.869,0,0,0,.063,1.007H462.47a7.5,7.5,0,0,0,.063-1.029v-.188h-2.877v.188a6.159,6.159,0,0,0,.063,1.029H457.43a7.621,7.621,0,0,0,.063-1.007v-.21h-.881a16.966,16.966,0,0,0-2.1.084v-2.1a20.006,20.006,0,0,0,2.1.1h.881Zm1.512,14.571v1.26a12.665,12.665,0,0,0,.105,2.268h-2.2a12.5,12.5,0,0,0,.126-2.268v-6.635a21.929,21.929,0,0,0-.084-2.289c.629.042,1.049.064,2.225.064h6.383a17.086,17.086,0,0,0,2.037-.084,18.4,18.4,0,0,0-.084,2.246v7.16c0,1.386-.441,1.7-2.415,1.7-.168,0-.168,0-.924-.02a5.7,5.7,0,0,0-.42-1.827,10.134,10.134,0,0,0,1.26.1c.378,0,.462-.084.462-.483v-1.2h-2.31v.966a14.709,14.709,0,0,0,.105,2.31h-2.141a13.448,13.448,0,0,0,.126-2.31v-.966Zm2.247-5.816h-2.247v1.176h2.247Zm0,2.855h-2.247v1.176h2.247Zm4.22-1.679v-1.176h-2.31v1.176Zm0,2.855v-1.176h-2.31v1.176Z"/><rect class="cls-2" x="149.725" y="169.048" width="392" height="89"/><path class="cls-1" d="M211.565,306.08l-31.555,7.784v46.457l31.527,2.715,17.188-2.921V313.041Zm-3.377,52.478-10.3-.887v-8.836l-6.128-.075v8.383l-7.576-.653V317.134l24-5.921Z"/><polygon class="cls-1" points="206.064 314.639 201.09 315.683 201.09 321.538 206.064 320.68 206.064 314.639"/><polygon class="cls-1" points="189.08 318.543 185.614 319.276 185.614 324.415 189.08 323.82 189.08 318.543"/><polygon class="cls-1" points="197.027 316.753 192.623 317.675 192.623 323.103 197.027 322.344 197.027 316.753"/><polygon class="cls-1" points="189.08 328.683 185.614 329.157 185.614 334.305 189.08 333.96 189.08 328.683"/><polygon class="cls-1" points="197.027 327.527 192.623 328.123 192.623 333.552 197.027 333.118 197.027 327.527"/><polygon class="cls-1" points="206.064 326.22 201.09 326.893 201.09 332.657 206.064 332.167 206.064 326.22"/><polygon class="cls-1" points="206.064 337.911 201.09 338.217 201.09 343.981 206.064 343.858 206.064 337.911"/><polygon class="cls-1" points="197.027 338.505 192.623 338.776 192.623 344.204 197.027 344.096 197.027 338.505"/><polygon class="cls-1" points="189.08 339.03 185.614 339.246 185.614 344.393 189.08 344.307 189.08 339.03"/><path class="cls-1" d="M259.56,337.687a8.019,8.019,0,0,1-1.406,3.149,7.149,7.149,0,0,1-5.732,2.289,7.223,7.223,0,0,1-5.4-2.016,10.613,10.613,0,0,1,.168-13.375,7.3,7.3,0,0,1,5.249-1.994,7.411,7.411,0,0,1,4.031,1.008,6.447,6.447,0,0,1,2.226,2.289,7.493,7.493,0,0,1,.65,1.616l-2.918.672a4.376,4.376,0,0,0-.9-1.806,3.8,3.8,0,0,0-3.065-1.3c-2.982,0-4.787,2.331-4.787,6.195,0,3.842,1.847,6.235,4.787,6.235a4.009,4.009,0,0,0,3.4-1.554,4.285,4.285,0,0,0,.693-1.931Z"/><path class="cls-1" d="M271.994,342.138a14.888,14.888,0,0,0,.1,2.141h-2.541a12.55,12.55,0,0,0,.126-2.184v-5.269a14.1,14.1,0,0,1-2.33,1.785,8.107,8.107,0,0,0-1.071-2.184,14.438,14.438,0,0,0,3.611-2.835,12.455,12.455,0,0,0,2.289-3.233h-3.422a14.581,14.581,0,0,0-1.764.084v-2.33a13,13,0,0,0,1.659.084h1.049v-1.764a9.613,9.613,0,0,0-.126-1.595h2.541a8.927,8.927,0,0,0-.126,1.636V328.2h.861a7.612,7.612,0,0,0,1.218-.064l1.007,1.092a5.887,5.887,0,0,0-.462.882,17.173,17.173,0,0,1-2.1,3.59,12.393,12.393,0,0,0,3.338,2.667,8.956,8.956,0,0,0-1.155,2.058,11.524,11.524,0,0,1-2.708-2.374Zm8.9-.987h2.52a17.986,17.986,0,0,0,2.393-.126v2.541a17.219,17.219,0,0,0-2.393-.147h-7.181a16.911,16.911,0,0,0-2.372.147v-2.541a19.025,19.025,0,0,0,2.414.126h2.289v-8.21h-1.575c-.714,0-1.386.043-2.058.106v-2.374a14.157,14.157,0,0,0,2.058.106h1.575v-3.695a14.845,14.845,0,0,0-.147-2.184h2.624a12.311,12.311,0,0,0-.147,2.184v3.695h2.226a13.636,13.636,0,0,0,2.058-.106v2.374c-.672-.063-1.323-.106-2.058-.106H280.9Z"/><path class="cls-1" d="M320.53,330.559a5.169,5.169,0,0,0-.588,1.028,15.315,15.315,0,0,1-5.144,6.131,6.942,6.942,0,0,0-2.1-1.7,10.591,10.591,0,0,0,3.464-2.961c.294-.42.42-.609.8-1.238-.336.062-.483.084-.8.125-2.12.252-4.283.525-6.466.84v4.724a9.383,9.383,0,0,0,.084,1.806c.147.819.818,1.049,2.96,1.049a23.286,23.286,0,0,0,6.446-.818l.126,2.834c-.567.022-.735.022-1.281.084a46.752,46.752,0,0,1-5.207.357,14.48,14.48,0,0,1-3.737-.357,2.744,2.744,0,0,1-1.806-1.932,8.042,8.042,0,0,1-.21-2.645v-4.808l-1.974.252a12.287,12.287,0,0,0-2.33.4l-.273-2.6a4.967,4.967,0,0,0,.5.022,16.6,16.6,0,0,0,1.848-.148l2.225-.272V327.85a10.42,10.42,0,0,0-.126-1.994h2.9a10.2,10.2,0,0,0-.126,1.952v2.645l7.642-.924a3.941,3.941,0,0,0,1.617-.356Z"/><path class="cls-1" d="M330,327.745a9.037,9.037,0,0,0-.5-1.973l2.771-.442a14.428,14.428,0,0,0,.252,1.974l.336,1.827,4.43-.693a10.817,10.817,0,0,0,2.016-.462l.441,2.519a17.69,17.69,0,0,0-2.016.274l-4.43.692.63,3.443,4.934-.776a18.661,18.661,0,0,0,2.184-.483l.462,2.519a5.119,5.119,0,0,0-.966.106,1.566,1.566,0,0,0-.336.042c-.147.02-.42.062-.84.126l-5,.8.756,4.073a11.867,11.867,0,0,0,.5,2.162l-2.814.5a15.865,15.865,0,0,0-.273-2.2l-.756-4.137-5.186.819a16.918,16.918,0,0,0-2.141.462l-.42-2.583a12.8,12.8,0,0,0,2.225-.21l5.1-.818-.63-3.443-3.906.608a22.429,22.429,0,0,0-2.309.483l-.42-2.583a19.261,19.261,0,0,0,2.309-.23l3.906-.61Z"/><path class="cls-1" d="M359.086,340.7a9.292,9.292,0,0,0,1.932-.126v2.394a16.045,16.045,0,0,0-1.932-.084h-10.9a15.588,15.588,0,0,0-1.931.084v-2.394a9.4,9.4,0,0,0,1.931.126h6.194c.357-1.868.8-4.829,1.008-6.739h-5.207a13.488,13.488,0,0,0-1.869.084v-2.373a12.005,12.005,0,0,0,1.932.126h5.312a4.714,4.714,0,0,0,1.554-.188l1.154,1.007a7.54,7.54,0,0,0-.482,2.394c-.315,2.309-.546,3.8-.9,5.689Z"/><path class="cls-1" d="M371.289,326a10.674,10.674,0,0,0-.084,1.89v5.8a10.124,10.124,0,0,0,.084,1.847h-2.877a15.115,15.115,0,0,0,.105-1.889v-5.774a13.242,13.242,0,0,0-.084-1.889Zm9.532.022a9.942,9.942,0,0,0-.105,1.952v2.835a24.785,24.785,0,0,1-.546,6.361,8.041,8.041,0,0,1-4.136,4.893,17.821,17.821,0,0,1-4.094,1.616,7.171,7.171,0,0,0-1.47-2.5,11.337,11.337,0,0,0,4.535-1.68c1.974-1.3,2.667-2.583,2.9-5.354.084-.9.1-1.827.1-3.506v-2.625a11.039,11.039,0,0,0-.1-1.994Z"/><path class="cls-1" d="M397.328,333.981a11.4,11.4,0,0,1-1.47,5.648c-1.113,1.848-2.645,3-5.48,4.136a6.672,6.672,0,0,0-1.7-2.31c2.519-.776,4.094-1.889,4.976-3.506a8.914,8.914,0,0,0,.923-3.968h-5.123a20.77,20.77,0,0,0-2.666.105v-2.5a14.754,14.754,0,0,0,2.708.148h12.283a14.9,14.9,0,0,0,2.709-.148v2.5a20.779,20.779,0,0,0-2.667-.105Zm-8.419-7.685a14.206,14.206,0,0,0,2.708.148h8.063a14.219,14.219,0,0,0,2.708-.148v2.562a19.776,19.776,0,0,0-2.666-.105h-8.147a19.757,19.757,0,0,0-2.666.105Z"/><path class="cls-1" d="M423.241,330.517a4.042,4.042,0,0,0-.714.692,28.093,28.093,0,0,1-3.9,3.444v7.138a12.4,12.4,0,0,0,.1,2.016l-2.709-.021a12.591,12.591,0,0,0,.105-2v-5.627a29.535,29.535,0,0,1-5.942,2.667,8.537,8.537,0,0,0-1.3-2.183,22.458,22.458,0,0,0,4.976-1.89,23.969,23.969,0,0,0,5.963-4.263,7.8,7.8,0,0,0,1.28-1.511Z"/><path class="cls-1" d="M432.042,326.968a9.958,9.958,0,0,0-.126-1.974h2.436a16.678,16.678,0,0,0-.1,1.974v1.176h1.491a11.21,11.21,0,0,0,2.015-.126v2.247a15.6,15.6,0,0,0-1.637-.064,21.512,21.512,0,0,1-1.428,6.363c1.323,1.679,1.491,1.91,2.981,4.009l-1.658,1.848a30.156,30.156,0,0,0-2.415-3.632,20.652,20.652,0,0,1-4.178,5.186,7.51,7.51,0,0,0-1.6-1.952,14.571,14.571,0,0,0,4.3-5.145,38.183,38.183,0,0,0-3.569-3.863l1.533-1.554c.42.42.42.42,1.658,1.7.168.168.525.567,1.323,1.491a20.363,20.363,0,0,0,.819-4.452h-3.884a13.5,13.5,0,0,0-1.953.106v-2.289a15.128,15.128,0,0,0,2.079.126h1.91Zm6.992,5.669a26.336,26.336,0,0,1,2.96,4.85l-1.91,1.26a18.73,18.73,0,0,0-2.94-5.081Zm1.176-1.3a13.066,13.066,0,0,0-2,.106v-2.31a12.754,12.754,0,0,0,2,.105h2.666v-1.659a14.088,14.088,0,0,0-.147-2.5h2.52a18.931,18.931,0,0,0-.126,2.5v1.659h.252a12.02,12.02,0,0,0,1.973-.126v2.351c-.168-.02-.168-.02-.482-.062a12.154,12.154,0,0,0-1.47-.064h-.273v10.142c0,1.092-.063,1.448-.378,1.826-.4.5-1.155.714-2.541.714-.86,0-1.637-.021-2.477-.084a6.953,6.953,0,0,0-.651-2.33,21.1,21.1,0,0,0,2.541.252c1.133,0,1.259-.064,1.259-.5V331.335Z"/><path class="cls-1" d="M452.475,328.4a11.949,11.949,0,0,1-2.12,2.267,9.466,9.466,0,0,0-1.491-1.574,8.624,8.624,0,0,0,3.233-4.283l2.247.4c-.084.148-.294.568-.672,1.26h2.814a14.06,14.06,0,0,0,2.036-.126v1.47a7.105,7.105,0,0,0,1.6-3l2.247.4c-.42.882-.42.882-.609,1.282h4.136a17.7,17.7,0,0,0,2.309-.126v2.162a16.427,16.427,0,0,0-2.2-.105h-1.722c.315.5.588,1.008.882,1.6l-2.121.566a12.925,12.925,0,0,0-1.007-2.162h-1.386a10.5,10.5,0,0,1-1.218,1.49h.315a6.5,6.5,0,0,0-.105,1.134h6.194a12.527,12.527,0,0,0,2.247-.146v2.183a16.185,16.185,0,0,0-2.247-.1h-6.194v1.05H464.4c1.05-.021,1.7-.042,1.953-.084a13.17,13.17,0,0,0-.084,1.743v1.973a1.41,1.41,0,0,1-.609,1.365,3.355,3.355,0,0,1-1.554.231c-.378,0-.882-.021-1.469-.063a5.514,5.514,0,0,0-.42-1.827,11.11,11.11,0,0,0,1.322.126c.441,0,.588-.084.588-.4V335.87h-4.493v.756a13.522,13.522,0,0,0,4.136,3.339,22.635,22.635,0,0,0,4.619,1.722,8.5,8.5,0,0,0-1.511,2.078,21.905,21.905,0,0,1-4.094-1.932,12.354,12.354,0,0,1-1.911-1.428A6.947,6.947,0,0,1,459.551,339c.021.693.042.966.042,1.532l.021,1.6a10.719,10.719,0,0,0,.168,2.184h-2.561a11.72,11.72,0,0,0,.168-1.974v-.23l-.021-1.534c0-.272.021-.923.062-1.469a11.72,11.72,0,0,1-3.275,2.919,23.051,23.051,0,0,1-3.527,1.742,8.031,8.031,0,0,0-1.617-2.016,23.894,23.894,0,0,0,4.409-1.805,15.206,15.206,0,0,0,2.415-1.722,7.914,7.914,0,0,0,1.533-1.6v-.756h-4.095v1.848a11.366,11.366,0,0,0,.084,1.7h-2.351a16.158,16.158,0,0,0,.105-1.932V335.64a13.945,13.945,0,0,0-.084-1.7,15.248,15.248,0,0,0,1.826.084h4.515v-1.05h-5.732c-.861,0-1.575.042-2.226.1V330.9a13.551,13.551,0,0,0,2.226.146h5.732a6.972,6.972,0,0,0-.105-1.134h1.406a7.468,7.468,0,0,0-1.2-1.07c.231-.189.294-.252.462-.4a8.109,8.109,0,0,0-.944-.042h-1.218c.357.609.483.861.84,1.575l-2.058.588a16.843,16.843,0,0,0-.945-2.163Z"/><rect class="cls-2" x="149.725" y="290.058" width="392" height="89"/><rect class="cls-1" y="48.08" width="78" height="331"/><path class="cls-3" d="M36.732,188.157a8.048,8.048,0,0,1-.215,2.295,2.372,2.372,0,0,1-2.484,1.566,8.4,8.4,0,0,1-5.1-1.917,3.965,3.965,0,0,1-1.485-3.05,5.761,5.761,0,0,1,2.322-3.995,14.43,14.43,0,0,1,3.94-2.294l-.026-4.157c-.217,0-.217,0-1.107.053-.405.028-.783.028-1.458.028-.4,0-1.16-.028-1.485-.028-.35-.026-.593-.026-.675-.026a5.249,5.249,0,0,0-.566.026l-.027-3.022a16.641,16.641,0,0,0,3.266.242c.27,0,.567,0,.945-.026.648-.028.782-.028,1.079-.028v-1.781a18.618,18.618,0,0,0-.161-3.1h3.374a16.468,16.468,0,0,0-.162,2.942v1.728a30.18,30.18,0,0,0,5.209-1.026l.108,3.023c-.485.081-1,.162-2.861.486-.891.162-1.431.243-2.456.351v3.508a18.742,18.742,0,0,1,5.506-.755c4.508,0,7.72,2.753,7.72,6.586a6,6,0,0,1-6.127,6.155,4.358,4.358,0,0,1-4.427-3,9.018,9.018,0,0,1-.459-3.455,11.418,11.418,0,0,0,3-1.188,9.354,9.354,0,0,0-.054,1.188,5.2,5.2,0,0,0,.378,2.375,1.867,1.867,0,0,0,1.7.918,2.774,2.774,0,0,0,2.726-3c0-2.321-1.89-3.833-4.778-3.833a17.27,17.27,0,0,0-5.182.891Zm-3.049-4.345c-2.025,1.08-3.213,2.267-3.213,3.239,0,.459.27.863.891,1.241a3.245,3.245,0,0,0,1.727.594c.459,0,.595-.242.595-1.133Zm14.953-5.452a23.027,23.027,0,0,0-5.4-5.831l2.537-1.7a22.892,22.892,0,0,1,5.345,5.534Z"/><path class="cls-3" d="M30.74,219.37c0-.54,0-.809-.027-1.322-1.052.27-1.566.4-3.05.729a8.185,8.185,0,0,0-1.268-2.619,41.274,41.274,0,0,0,6.046-1.376,36.387,36.387,0,0,0,4.022-1.593,19.162,19.162,0,0,1-2.619-2.159,21.37,21.37,0,0,1-4.7,2.888,7.935,7.935,0,0,0-1.646-2.105,21.939,21.939,0,0,0,6.856-4.508,7.264,7.264,0,0,0,1.512-1.89H30.2v3.563H27.285a11.567,11.567,0,0,0,.135-2.025v-2.186a14.584,14.584,0,0,0-.108-2,25.5,25.5,0,0,0,3.077.135h6.965v-.378a8.237,8.237,0,0,0-.136-1.782h3.347A7.819,7.819,0,0,0,40.4,202.5v.405h7.207a25.851,25.851,0,0,0,3.158-.135,13.609,13.609,0,0,0-.108,2v2.241a10.837,10.837,0,0,0,.135,2.024H47.854v-3.617H36.247l2.51.7c-.027.028-.3.352-.837.972H43a15.567,15.567,0,0,0,2.186-.107l1.863,1.484c-.243.243-.243.243-.729.783a30.243,30.243,0,0,1-4.562,3.941,31.5,31.5,0,0,0,9.988,2.3,10.457,10.457,0,0,0-1.242,3.022c-1.3-.242-1.674-.323-2.942-.62-.027.7-.027.782-.027,1.512v3.752a15.888,15.888,0,0,0,.135,2.483h-3v-1H33.575v.972h-2.97c.081-.865.135-1.647.135-2.484Zm14.144-2.213a28.3,28.3,0,0,1-5.749-2.348,29.554,29.554,0,0,1-5.588,2.348Zm-11.309,5.021H44.668v-2.564H33.575Zm2.159-12.714a22.606,22.606,0,0,0,3.32,2.375,23.03,23.03,0,0,0,3.374-2.483H35.842Z"/><path class="cls-3" d="M37.705,246.668a16.894,16.894,0,0,0-2.484.135v-1.862a10.971,10.971,0,0,0-1.053,2.375,13.9,13.9,0,0,1-1.376-3c.054,1.646.081,2.969.081,3.752v6.856a26.3,26.3,0,0,0,.162,3.293H29.984a27.188,27.188,0,0,0,.162-3.293V249.34c.054-2.024.108-3.293.162-3.752a21.149,21.149,0,0,1-2.753,6.4,14.152,14.152,0,0,0-1.377-3.321,16.328,16.328,0,0,0,2.565-4.589,18.8,18.8,0,0,0,1.026-3.346h-1.08a10.759,10.759,0,0,0-1.809.108v-2.807a10.183,10.183,0,0,0,1.809.107h1.457v-2.159a16.967,16.967,0,0,0-.162-2.807h3.051a15.6,15.6,0,0,0-.162,2.807v2.159H33.6a8.03,8.03,0,0,0,1.538-.107v2.78a13.745,13.745,0,0,0-1.565-.081h-.6a10.68,10.68,0,0,0,2.241,3.643v-.242a19.166,19.166,0,0,0,2.753.135H41.24v-1.484H38.757a19.7,19.7,0,0,0-2.537.107v-2.537a19.771,19.771,0,0,0,2.483.108H41.24v-1.4H38.3a16.392,16.392,0,0,0-2.564.135v-2.672a17.468,17.468,0,0,0,2.564.135h.378a12.077,12.077,0,0,0-1.538-2.619l2.537-.863a18.5,18.5,0,0,1,1.782,3.482h2.4a13.819,13.819,0,0,0,1.62-3.482l2.888.782a26.409,26.409,0,0,1-1.566,2.7h1.323a18.878,18.878,0,0,0,2.7-.163v2.7a18.631,18.631,0,0,0-2.673-.135H44.021v1.4h3.32a17.324,17.324,0,0,0,2.7-.136v2.592a17.071,17.071,0,0,0-2.7-.134h-3.32v1.484h4.373A21,21,0,0,0,51.2,244.1v2.726a23.45,23.45,0,0,0-2.807-.162H44.209a10.726,10.726,0,0,0,1.7,3.158,13.46,13.46,0,0,0,2.484-2.969l2.213,1.566a22.654,22.654,0,0,1-3.077,3.293,13.98,13.98,0,0,0,4.292,2.888,12.118,12.118,0,0,0-1.782,2.673,15.626,15.626,0,0,1-3.239-2.565,14.131,14.131,0,0,1-2.888-4.4c.081,1.215.081,1.43.081,1.944v3.752c0,1.538-.864,2.078-3.374,2.078-.4,0-1.161-.027-1.944-.081a7.208,7.208,0,0,0-.729-2.726,12.116,12.116,0,0,0,2.565.243c.567,0,.728-.135.728-.621v-2.537a37.386,37.386,0,0,1-5.182,3.427c-.216.136-.756.514-1.161.783l-1.106-2.888A13.057,13.057,0,0,0,36,252.8a34.648,34.648,0,0,0,5.236-3.158v-2.969Zm-.622.216a16.107,16.107,0,0,1,2.7,3.05l-2,1.512a17.425,17.425,0,0,0-2.591-3.078Z"/><line class="cls-2" x1="77.794" y1="92.697" x2="149.794" y2="92.697"/><line class="cls-2" x1="77.794" y1="213.197" x2="149.794" y2="213.197"/><line class="cls-2" x1="77.794" y1="334.197" x2="149.794" y2="334.197"/><path class="cls-1" d="M98.452,79.45c0-.577.017-1.169.048-1.873a8.726,8.726,0,0,1-1.3,1.888,4.671,4.671,0,0,0-.672-1.184,13.86,13.86,0,0,0,2.753-4.546,11.355,11.355,0,0,0,.608-2.193l1.312.352a6.013,6.013,0,0,0-.239.721,22.335,22.335,0,0,1-1.329,3.249v8.291a16.513,16.513,0,0,0,.08,1.873H98.356a16.393,16.393,0,0,0,.1-1.905Zm7.187-4.13a10.592,10.592,0,0,1-1.536,2.72v5.827c1.152-.288,1.792-.5,3.3-1.008l.016,1.184c-1.377.464-2.177.7-3.393,1.04-.3.081-.3.081-1.7.416-.272.065-.272.065-.64.161-.448.112-.448.112-.656.175l-.241-1.312a12.638,12.638,0,0,0,2.129-.368v-4.69a12.555,12.555,0,0,1-2.193,1.841,4.126,4.126,0,0,0-.752-1.041,10.822,10.822,0,0,0,4.418-4.945h-2.049a12.025,12.025,0,0,0-1.585.08V74.119a10.312,10.312,0,0,0,1.585.1h2.817V72.758a5.112,5.112,0,0,0-.1-1.2h1.409a7.051,7.051,0,0,0-.081,1.217v1.44h3.2a11.052,11.052,0,0,0,1.665-.1v1.3a12.491,12.491,0,0,0-1.665-.1h-2.8a15.523,15.523,0,0,0,.72,3.409,9.972,9.972,0,0,0,2.7-2.4l.928.9a21.015,21.015,0,0,1-3.2,2.594,12.021,12.021,0,0,0,3.81,4.689,5.714,5.714,0,0,0-.817,1.168c-3.217-2.768-4.721-5.714-5.25-10.355Z"/><path class="cls-1" d="M123,74.375a11.748,11.748,0,0,0-1.425-.064H120.15V75.7h1.1a10.243,10.243,0,0,0,1.377-.064,8.495,8.495,0,0,0-.049,1.248v1.745a9,9,0,0,0,.049,1.3,10.207,10.207,0,0,0-1.345-.063h-.864a9.807,9.807,0,0,0,2.561,2.577,3.407,3.407,0,0,0-.64,1.008,9.194,9.194,0,0,1-2.273-2.721c.048.656.08,1.216.08,1.7v1.889a9.122,9.122,0,0,0,.095,1.713h-1.264a11.2,11.2,0,0,0,.1-1.713V82.474a14.75,14.75,0,0,1,.08-1.664,11,11,0,0,1-2.753,3.81,2.985,2.985,0,0,0-.736-.994,11.28,11.28,0,0,0,3.089-3.76h-.832a10.341,10.341,0,0,0-1.345.063,10.852,10.852,0,0,0,.064-1.376V76.984a10.3,10.3,0,0,0-.064-1.344,11.7,11.7,0,0,0,1.489.064h1.008V74.311h-1.328a10.767,10.767,0,0,0-1.6.08V73.159a10.366,10.366,0,0,0,1.6.08h1.328v-.08a9.62,9.62,0,0,0-.1-1.585h1.249a9.457,9.457,0,0,0-.08,1.537v.128h1.424a13.114,13.114,0,0,0,1.329-.048V71.974a8.6,8.6,0,0,0,1.584.1h4.37a9.689,9.689,0,0,0,1.617-.1v1.265a10.854,10.854,0,0,0-1.617-.08h-1.52a14.435,14.435,0,0,1-.577,1.585h1.633c.784,0,1.121-.017,1.489-.048-.033.4-.049.88-.049,1.488v5.234c0,.592.016,1.073.049,1.569-.5-.032-.881-.048-1.377-.048h-3.7c-.56,0-.976.016-1.344.048.032-.5.048-.849.048-1.457V76.2a13.17,13.17,0,0,0-.064-1.5c.352.031.7.048,1.393.048h.736a11.965,11.965,0,0,0,.56-1.585h-1.889a7.693,7.693,0,0,0-1.248.064Zm-5.3,2.337v2.161h1.376V76.712Zm2.449,2.161h1.392V76.712H120.15Zm5.73,4.93a9.982,9.982,0,0,1-3.345,2.385,3.181,3.181,0,0,0-.769-.944,7.594,7.594,0,0,0,1.873-.945,6.964,6.964,0,0,0,1.329-1.184Zm-1.264-6.691h4.1V75.751h-4.1Zm0,2.353h4.1v-1.36h-4.1Zm0,2.433h4.1V80.457h-4.1Zm3.377,1.217a8.276,8.276,0,0,0,2.961,2.144,3.364,3.364,0,0,0-.816.929,10.967,10.967,0,0,1-2.994-2.4Z"/><path class="cls-1" d="M98.649,199.484c0-.577.016-1.169.048-1.873a8.726,8.726,0,0,1-1.3,1.888,4.643,4.643,0,0,0-.673-1.184,13.843,13.843,0,0,0,2.753-4.546,11.309,11.309,0,0,0,.609-2.192l1.312.351a6.169,6.169,0,0,0-.24.721,22.206,22.206,0,0,1-1.328,3.249v8.291a16.273,16.273,0,0,0,.08,1.873H98.553a16.387,16.387,0,0,0,.1-1.9Zm7.187-4.13a10.612,10.612,0,0,1-1.536,2.721V203.9c1.152-.288,1.792-.5,3.3-1.008l.016,1.185c-1.377.463-2.177.7-3.393,1.04-.3.08-.3.08-1.7.416-.272.064-.272.064-.64.16-.449.112-.449.112-.657.176l-.24-1.313a12.654,12.654,0,0,0,2.129-.368V199.5a12.592,12.592,0,0,1-2.193,1.841,4.144,4.144,0,0,0-.752-1.041,10.822,10.822,0,0,0,4.418-4.945h-2.049a12.19,12.19,0,0,0-1.585.08v-1.281a10.3,10.3,0,0,0,1.585.1h2.817v-1.457a5.112,5.112,0,0,0-.1-1.2h1.408a7.065,7.065,0,0,0-.08,1.217v1.44h3.2a11.038,11.038,0,0,0,1.664-.1v1.3a12.281,12.281,0,0,0-1.664-.1h-2.8a15.523,15.523,0,0,0,.72,3.409,9.972,9.972,0,0,0,2.7-2.4l.928.9a21,21,0,0,1-3.2,2.594,12.012,12.012,0,0,0,3.81,4.689,5.714,5.714,0,0,0-.817,1.168c-3.217-2.768-4.722-5.713-5.25-10.355Z"/><path class="cls-1" d="M123.2,194.41a11.526,11.526,0,0,0-1.425-.065h-1.424v1.393h1.1a10.227,10.227,0,0,0,1.376-.064,8.678,8.678,0,0,0-.048,1.248v1.745a9.183,9.183,0,0,0,.048,1.3,10.18,10.18,0,0,0-1.344-.063h-.865a9.826,9.826,0,0,0,2.562,2.577,3.432,3.432,0,0,0-.641,1.008,9.224,9.224,0,0,1-2.273-2.721c.048.656.081,1.216.081,1.7v1.889a9.122,9.122,0,0,0,.095,1.713h-1.264a11.2,11.2,0,0,0,.1-1.713v-1.841a14.759,14.759,0,0,1,.08-1.664,10.986,10.986,0,0,1-2.753,3.81,2.971,2.971,0,0,0-.736-.993,11.3,11.3,0,0,0,3.089-3.761h-.833a10.334,10.334,0,0,0-1.344.063,10.852,10.852,0,0,0,.064-1.376v-1.569a10.318,10.318,0,0,0-.064-1.344,11.688,11.688,0,0,0,1.488.064h1.009v-1.393h-1.328a10.758,10.758,0,0,0-1.6.08v-1.232a10.366,10.366,0,0,0,1.6.08h1.328v-.08a9.62,9.62,0,0,0-.1-1.585h1.249a9.464,9.464,0,0,0-.08,1.537v.128h1.424a13.078,13.078,0,0,0,1.328-.048v-1.217a8.615,8.615,0,0,0,1.585.1h4.37a9.7,9.7,0,0,0,1.617-.1v1.265a10.862,10.862,0,0,0-1.617-.08h-1.52a14.645,14.645,0,0,1-.577,1.585h1.633c.784,0,1.12-.017,1.488-.048-.032.4-.048.88-.048,1.488v5.235c0,.591.016,1.072.048,1.568-.5-.032-.88-.048-1.376-.048H125c-.56,0-.976.016-1.344.048.032-.5.048-.849.048-1.457v-5.33a13.17,13.17,0,0,0-.064-1.5c.352.031.7.048,1.392.048h.737a11.965,11.965,0,0,0,.56-1.585h-1.889a7.693,7.693,0,0,0-1.248.064Zm-5.3,2.337v2.16h1.377v-2.16Zm2.45,2.16h1.392v-2.16h-1.392Zm5.729,4.93a9.972,9.972,0,0,1-3.345,2.385,3.162,3.162,0,0,0-.768-.944,7.612,7.612,0,0,0,1.873-.945,6.9,6.9,0,0,0,1.328-1.184Zm-1.264-6.691h4.1v-1.36h-4.1Zm0,2.353h4.1v-1.36h-4.1Zm0,2.433h4.1v-1.44h-4.1Zm3.378,1.217a8.267,8.267,0,0,0,2.961,2.144,3.4,3.4,0,0,0-.817.929,10.962,10.962,0,0,1-2.993-2.4Z"/><path class="cls-1" d="M98.649,322.484c0-.577.016-1.169.048-1.873a8.726,8.726,0,0,1-1.3,1.888,4.643,4.643,0,0,0-.673-1.184,13.843,13.843,0,0,0,2.753-4.546,11.309,11.309,0,0,0,.609-2.192l1.312.351a6.169,6.169,0,0,0-.24.721,22.206,22.206,0,0,1-1.328,3.249v8.291a16.273,16.273,0,0,0,.08,1.873H98.553a16.387,16.387,0,0,0,.1-1.9Zm7.187-4.13a10.612,10.612,0,0,1-1.536,2.721V326.9c1.152-.288,1.792-.5,3.3-1.008l.016,1.185c-1.377.463-2.177.7-3.393,1.04-.3.08-.3.08-1.7.416-.272.064-.272.064-.64.16-.449.112-.449.112-.657.176l-.24-1.313a12.654,12.654,0,0,0,2.129-.368V322.5a12.592,12.592,0,0,1-2.193,1.841,4.144,4.144,0,0,0-.752-1.041,10.822,10.822,0,0,0,4.418-4.945h-2.049a12.19,12.19,0,0,0-1.585.08v-1.281a10.3,10.3,0,0,0,1.585.1h2.817v-1.457a5.112,5.112,0,0,0-.1-1.2h1.408a7.065,7.065,0,0,0-.08,1.217v1.44h3.2a11.038,11.038,0,0,0,1.664-.1v1.3a12.281,12.281,0,0,0-1.664-.1h-2.8a15.523,15.523,0,0,0,.72,3.409,9.972,9.972,0,0,0,2.7-2.4l.928.9a21,21,0,0,1-3.2,2.594,12.012,12.012,0,0,0,3.81,4.689,5.714,5.714,0,0,0-.817,1.168c-3.217-2.768-4.722-5.713-5.25-10.355Z"/><path class="cls-1" d="M123.2,317.41a11.526,11.526,0,0,0-1.425-.065h-1.424v1.393h1.1a10.227,10.227,0,0,0,1.376-.064,8.678,8.678,0,0,0-.048,1.248v1.745a9.183,9.183,0,0,0,.048,1.3,10.18,10.18,0,0,0-1.344-.063h-.865a9.826,9.826,0,0,0,2.562,2.577,3.432,3.432,0,0,0-.641,1.008,9.224,9.224,0,0,1-2.273-2.721c.048.656.081,1.216.081,1.7v1.889a9.122,9.122,0,0,0,.095,1.713h-1.264a11.2,11.2,0,0,0,.1-1.713v-1.841a14.759,14.759,0,0,1,.08-1.664,10.986,10.986,0,0,1-2.753,3.81,2.971,2.971,0,0,0-.736-.993,11.3,11.3,0,0,0,3.089-3.761h-.833a10.334,10.334,0,0,0-1.344.063,10.852,10.852,0,0,0,.064-1.376v-1.569a10.318,10.318,0,0,0-.064-1.344,11.688,11.688,0,0,0,1.488.064h1.009v-1.393h-1.328a10.758,10.758,0,0,0-1.6.08v-1.232a10.366,10.366,0,0,0,1.6.08h1.328v-.08a9.62,9.62,0,0,0-.1-1.585h1.249a9.464,9.464,0,0,0-.08,1.537v.128h1.424a13.078,13.078,0,0,0,1.328-.048v-1.217a8.615,8.615,0,0,0,1.585.1h4.37a9.7,9.7,0,0,0,1.617-.1v1.265a10.862,10.862,0,0,0-1.617-.08h-1.52a14.645,14.645,0,0,1-.577,1.585h1.633c.784,0,1.12-.017,1.488-.048-.032.4-.048.88-.048,1.488v5.235c0,.591.016,1.072.048,1.568-.5-.032-.88-.048-1.376-.048H125c-.56,0-.976.016-1.344.048.032-.5.048-.849.048-1.457v-5.33a13.17,13.17,0,0,0-.064-1.5c.352.031.7.048,1.392.048h.737a11.965,11.965,0,0,0,.56-1.585h-1.889a7.693,7.693,0,0,0-1.248.064Zm-5.3,2.337v2.16h1.377v-2.16Zm2.45,2.16h1.392v-2.16h-1.392Zm5.729,4.93a9.972,9.972,0,0,1-3.345,2.385,3.162,3.162,0,0,0-.768-.944,7.612,7.612,0,0,0,1.873-.945,6.9,6.9,0,0,0,1.328-1.184Zm-1.264-6.691h4.1v-1.36h-4.1Zm0,2.353h4.1v-1.36h-4.1Zm0,2.433h4.1v-1.44h-4.1Zm3.378,1.217a8.267,8.267,0,0,0,2.961,2.144,3.4,3.4,0,0,0-.817.929,10.962,10.962,0,0,1-2.993-2.4Z"/><rect class="cls-4" x="565.794" y="187.697" width="25" height="51"/><polygon class="cls-4" points="615.794 214.364 582.794 171.063 582.794 257.665 615.794 214.364"/><rect class="cls-4" x="635.856" y="49.928" width="78" height="331"/><path class="cls-3" d="M672.588,190.006a8.052,8.052,0,0,1-.215,2.295,2.373,2.373,0,0,1-2.484,1.565,8.4,8.4,0,0,1-5.1-1.917,3.965,3.965,0,0,1-1.485-3.05,5.763,5.763,0,0,1,2.322-4,14.43,14.43,0,0,1,3.94-2.294l-.026-4.157c-.217,0-.217,0-1.107.054-.4.027-.783.027-1.458.027-.405,0-1.16-.027-1.485-.027-.35-.027-.593-.027-.674-.027a5.062,5.062,0,0,0-.567.027l-.027-3.023a16.641,16.641,0,0,0,3.266.242c.27,0,.567,0,.945-.026.648-.027.782-.027,1.079-.027v-1.782a18.618,18.618,0,0,0-.161-3.1h3.374a16.475,16.475,0,0,0-.162,2.942v1.728a30.189,30.189,0,0,0,5.209-1.025l.108,3.022c-.485.081-1,.162-2.861.486-.891.162-1.431.243-2.456.351V181.8a18.742,18.742,0,0,1,5.506-.756c4.508,0,7.72,2.754,7.72,6.587a6,6,0,0,1-6.127,6.154,4.358,4.358,0,0,1-4.427-3,9.018,9.018,0,0,1-.459-3.455,11.418,11.418,0,0,0,3-1.188,9.354,9.354,0,0,0-.054,1.188,5.2,5.2,0,0,0,.378,2.375,1.867,1.867,0,0,0,1.7.918,2.774,2.774,0,0,0,2.726-3c0-2.322-1.89-3.833-4.778-3.833a17.3,17.3,0,0,0-5.182.89Zm-3.049-4.346c-2.025,1.08-3.213,2.268-3.213,3.239,0,.459.27.864.891,1.242a3.252,3.252,0,0,0,1.727.593c.459,0,.6-.242.6-1.133Zm14.953-5.452a23.027,23.027,0,0,0-5.4-5.831l2.537-1.7a22.871,22.871,0,0,1,5.345,5.533Z"/><path class="cls-3" d="M666.6,221.219c0-.54,0-.81-.027-1.323-1.052.27-1.566.405-3.05.729a8.169,8.169,0,0,0-1.268-2.618,41.408,41.408,0,0,0,6.046-1.377,36.387,36.387,0,0,0,4.022-1.593,19.162,19.162,0,0,1-2.619-2.159,21.294,21.294,0,0,1-4.7,2.888,7.935,7.935,0,0,0-1.646-2.1,21.921,21.921,0,0,0,6.856-4.508,7.277,7.277,0,0,0,1.512-1.889h-5.669v3.562h-2.915a11.555,11.555,0,0,0,.135-2.024v-2.187a14.593,14.593,0,0,0-.108-2,25.5,25.5,0,0,0,3.077.135h6.965v-.378a8.228,8.228,0,0,0-.136-1.781h3.347a7.813,7.813,0,0,0-.161,1.755v.4h7.207a25.851,25.851,0,0,0,3.158-.135,13.609,13.609,0,0,0-.108,2v2.241a10.855,10.855,0,0,0,.135,2.025H683.71v-3.617H672.1l2.51.7c-.027.027-.3.351-.837.971h5.075a15.567,15.567,0,0,0,2.186-.107l1.863,1.484c-.243.244-.243.244-.729.784a30.29,30.29,0,0,1-4.562,3.94,31.5,31.5,0,0,0,9.988,2.295,10.469,10.469,0,0,0-1.242,3.022c-1.3-.242-1.674-.323-2.942-.62-.027.7-.027.782-.027,1.512V225a15.888,15.888,0,0,0,.135,2.483h-3v-1H669.431v.972h-2.97c.081-.864.135-1.647.135-2.483Zm14.144-2.214a28.3,28.3,0,0,1-5.749-2.348,29.554,29.554,0,0,1-5.588,2.348Zm-11.309,5.021h11.093v-2.564H669.431Zm2.159-12.714a22.606,22.606,0,0,0,3.32,2.375,23.03,23.03,0,0,0,3.374-2.483H671.7Z"/><path class="cls-3" d="M673.561,248.516a16.894,16.894,0,0,0-2.484.135v-1.862a10.971,10.971,0,0,0-1.053,2.375,13.9,13.9,0,0,1-1.376-3c.054,1.646.081,2.97.081,3.752v6.856a26.287,26.287,0,0,0,.162,3.293H665.84a27.159,27.159,0,0,0,.163-3.293v-5.588c.053-2.024.107-3.293.161-3.752a21.124,21.124,0,0,1-2.753,6.4,14.126,14.126,0,0,0-1.377-3.32,16.343,16.343,0,0,0,2.565-4.589,18.81,18.81,0,0,0,1.026-3.347h-1.08a10.759,10.759,0,0,0-1.809.108v-2.807a10.183,10.183,0,0,0,1.809.107H666v-2.159a16.947,16.947,0,0,0-.163-2.807h3.051a15.6,15.6,0,0,0-.162,2.807v2.159h.729a8.03,8.03,0,0,0,1.538-.107v2.78a13.745,13.745,0,0,0-1.565-.081h-.6a10.693,10.693,0,0,0,2.241,3.644v-.243a19.166,19.166,0,0,0,2.753.135H677.1V244.63h-2.483a19.7,19.7,0,0,0-2.537.107V242.2a19.771,19.771,0,0,0,2.483.108H677.1v-1.4h-2.942a16.516,16.516,0,0,0-2.564.135v-2.672a17.468,17.468,0,0,0,2.564.135h.378a12.072,12.072,0,0,0-1.538-2.618l2.537-.864a18.532,18.532,0,0,1,1.782,3.482h2.4a13.819,13.819,0,0,0,1.62-3.482l2.888.783a26.368,26.368,0,0,1-1.566,2.7h1.323a19.042,19.042,0,0,0,2.7-.162v2.7a18.779,18.779,0,0,0-2.673-.135h-4.129v1.4h3.32a17.476,17.476,0,0,0,2.7-.135v2.592a16.923,16.923,0,0,0-2.7-.135h-3.32v1.484h4.373a21,21,0,0,0,2.807-.162v2.727a23.24,23.24,0,0,0-2.807-.163h-4.185a10.73,10.73,0,0,0,1.7,3.159,13.491,13.491,0,0,0,2.484-2.97l2.213,1.566a22.6,22.6,0,0,1-3.077,3.293,13.962,13.962,0,0,0,4.292,2.888,12.118,12.118,0,0,0-1.782,2.673,15.593,15.593,0,0,1-3.239-2.565,14.131,14.131,0,0,1-2.888-4.4c.081,1.215.081,1.431.081,1.944v3.752c0,1.538-.864,2.078-3.374,2.078-.4,0-1.161-.027-1.944-.081a7.208,7.208,0,0,0-.729-2.726,12.116,12.116,0,0,0,2.565.243c.567,0,.728-.135.728-.621v-2.537a37.476,37.476,0,0,1-5.182,3.428c-.216.135-.756.513-1.161.783l-1.106-2.889a13.057,13.057,0,0,0,2.213-.891,34.561,34.561,0,0,0,5.236-3.158v-2.969Zm-.621.216a16.165,16.165,0,0,1,2.7,3.05l-2,1.512a17.421,17.421,0,0,0-2.591-3.077Z"/><line class="cls-5" x1="699.794" y1="213.197" x2="811.294" y2="213.197"/><path class="cls-4" d="M734.05,194.5a16.223,16.223,0,0,0-2.193-.112h-9.764a17.049,17.049,0,0,0-2.225.112v-1.585a16.231,16.231,0,0,0,2.225.113h9.764a15.285,15.285,0,0,0,2.193-.113Z"/><path class="cls-4" d="M738.717,188.326a11.931,11.931,0,0,0-.1-1.633h1.425a9.394,9.394,0,0,0-.112,1.6v1.473h.288a7.258,7.258,0,0,0,1.28-.08v1.232a10.737,10.737,0,0,0-1.28-.063h-.288v3.057a17.041,17.041,0,0,0,1.6-.624l.047,1.12c-.688.3-.912.4-1.648.673v4.8c0,.96-.432,1.217-2.033,1.217-.256,0-.48,0-.96-.032a3.335,3.335,0,0,0-.272-1.2,10.846,10.846,0,0,0,1.536.112c.416,0,.513-.1.513-.432v-4.034c-.593.208-.593.208-1.169.4-.368.127-.576.208-.768.288l-.288-1.3a11.054,11.054,0,0,0,2.225-.592v-3.457H737.9a8.969,8.969,0,0,0-1.3.08V189.67a7.951,7.951,0,0,0,1.3.1h.817Zm6.738.672c-1.408.208-2,.288-3.185.4a3.72,3.72,0,0,0-.5-1.137,25.314,25.314,0,0,0,6-.9,6.972,6.972,0,0,0,1.761-.7l.784,1.136c-.224.065-.272.08-.592.176a26.151,26.151,0,0,1-3.057.8V191.5h2.753a11.723,11.723,0,0,0,1.68-.1v1.328a13.6,13.6,0,0,0-1.68-.1h-2.753v2.561H748.9a8.142,8.142,0,0,0,1.217-.064,10.389,10.389,0,0,0-.064,1.376v3.17a13.921,13.921,0,0,0,.08,1.6H748.8v-.864H743.39v.864h-1.28a14.344,14.344,0,0,0,.08-1.6v-3.2a11.478,11.478,0,0,0-.064-1.345,8.312,8.312,0,0,0,1.152.064h2.177v-2.561h-2.289a12.367,12.367,0,0,0-1.68.1V191.4a13.235,13.235,0,0,0,1.68.1h2.289Zm-2.049,10.308h5.411v-3.025h-5.411Z"/><path class="cls-4" d="M753.916,189.238l.577.016c.223,0,.432-.016.928-.048,2.24-.161,6.626-.417,9.267-.529a11.682,11.682,0,0,0,1.873-.159l.112,1.424h-.192A7.714,7.714,0,0,0,762.4,191.3a5.1,5.1,0,0,0-2.545,4.081c0,1.408.817,2.369,2.417,2.9a7.617,7.617,0,0,0,2.4.416l-.224,1.552a3.279,3.279,0,0,0-.512-.095,8.8,8.8,0,0,1-3.537-1.185,4,4,0,0,1-1.9-3.458c0-2.337,1.584-4.418,4.29-5.634a34.136,34.136,0,0,1-3.522.352,44.9,44.9,0,0,0-5.266.513Zm10.836,2.529a12.576,12.576,0,0,1,1.681,2.481l-.944.528a11.17,11.17,0,0,0-1.665-2.528Zm1.824-.864a11.9,11.9,0,0,1,1.681,2.432l-.928.529a11.738,11.738,0,0,0-1.648-2.482Z"/><path class="cls-4" d="M771.708,194.664c0-.577.016-1.168.048-1.873a8.725,8.725,0,0,1-1.3,1.889,4.641,4.641,0,0,0-.672-1.184,13.843,13.843,0,0,0,2.753-4.546,11.315,11.315,0,0,0,.609-2.193l1.312.352a6.169,6.169,0,0,0-.24.721,22.319,22.319,0,0,1-1.328,3.249v8.291a16.513,16.513,0,0,0,.08,1.873h-1.361a16.393,16.393,0,0,0,.1-1.905Zm7.187-4.129a10.622,10.622,0,0,1-1.536,2.72v5.826c1.152-.288,1.792-.5,3.3-1.007l.015,1.184c-1.376.464-2.177.7-3.392,1.04-.3.08-.3.08-1.7.416-.271.065-.271.065-.639.16-.449.113-.449.113-.657.176l-.24-1.312a12.763,12.763,0,0,0,2.129-.368v-4.69a12.555,12.555,0,0,1-2.193,1.841,4.126,4.126,0,0,0-.752-1.041,10.832,10.832,0,0,0,4.418-4.945H775.6a12.016,12.016,0,0,0-1.585.08v-1.282a10.157,10.157,0,0,0,1.585.1h2.816v-1.457a5.119,5.119,0,0,0-.1-1.2h1.408a7.058,7.058,0,0,0-.08,1.217v1.44h3.2a10.882,10.882,0,0,0,1.664-.1v1.3a12.464,12.464,0,0,0-1.664-.095h-2.8a15.462,15.462,0,0,0,.721,3.409,9.972,9.972,0,0,0,2.7-2.4l.928.9a21.113,21.113,0,0,1-3.2,2.594,12.018,12.018,0,0,0,3.809,4.689,5.748,5.748,0,0,0-.816,1.168c-3.217-2.768-4.722-5.714-5.25-10.355Z"/><path class="cls-4" d="M793.855,189.59a11.546,11.546,0,0,0-1.425-.064h-1.425v1.392h1.105a10.276,10.276,0,0,0,1.377-.063,8.495,8.495,0,0,0-.049,1.248v1.745a9,9,0,0,0,.049,1.3,10.207,10.207,0,0,0-1.345-.063h-.864a9.819,9.819,0,0,0,2.56,2.577,3.407,3.407,0,0,0-.639,1.007,9.179,9.179,0,0,1-2.274-2.72c.048.656.08,1.216.08,1.7v1.889a9.1,9.1,0,0,0,.1,1.713h-1.264a11.2,11.2,0,0,0,.1-1.713v-1.841a14.75,14.75,0,0,1,.08-1.664,11,11,0,0,1-2.753,3.809,2.991,2.991,0,0,0-.736-.993,11.28,11.28,0,0,0,3.089-3.76h-.832a10.341,10.341,0,0,0-1.345.063,10.852,10.852,0,0,0,.064-1.376V192.2a10.3,10.3,0,0,0-.064-1.344,11.728,11.728,0,0,0,1.488.063h1.009v-1.392h-1.328a10.646,10.646,0,0,0-1.6.08v-1.233a10.229,10.229,0,0,0,1.6.081h1.328v-.081a9.614,9.614,0,0,0-.1-1.584h1.248a9.574,9.574,0,0,0-.08,1.537v.128h1.425a13.091,13.091,0,0,0,1.328-.048v-1.217a8.615,8.615,0,0,0,1.585.1h4.37a9.786,9.786,0,0,0,1.616-.1v1.265a10.816,10.816,0,0,0-1.616-.081h-1.52a14.49,14.49,0,0,1-.577,1.585h1.632c.785,0,1.121-.016,1.49-.047-.033.4-.049.879-.049,1.488v5.234c0,.592.016,1.073.049,1.569-.5-.033-.881-.048-1.377-.048h-3.7c-.56,0-.976.015-1.344.048.032-.5.048-.849.048-1.457v-5.331a13.151,13.151,0,0,0-.064-1.5c.352.031.7.047,1.393.047h.736a12.008,12.008,0,0,0,.56-1.585H795.1a7.664,7.664,0,0,0-1.248.065Zm-5.3,2.337v2.16h1.377v-2.16Zm2.449,2.16H792.4v-2.16h-1.393Zm5.731,4.931a9.985,9.985,0,0,1-3.346,2.385,3.166,3.166,0,0,0-.768-.945,7.552,7.552,0,0,0,1.872-.944,6.938,6.938,0,0,0,1.33-1.184Zm-1.265-6.691h4.1v-1.361h-4.1Zm0,2.353h4.1v-1.36h-4.1Zm0,2.433h4.1v-1.441h-4.1Zm3.378,1.217a8.267,8.267,0,0,0,2.961,2.144,3.383,3.383,0,0,0-.817.929A10.95,10.95,0,0,1,798,199Z"/><rect class="cls-6" x="810.818" y="47.197" width="410.5" height="331"/><path class="cls-4" d="M919.956,90.66,888.4,98.444V144.9l31.527,2.715,17.188-2.921V97.62Zm-3.378,52.477-10.3-.887v-8.835l-6.128-.075v8.383l-7.576-.653V101.714l24-5.921Z"/><polygon class="cls-4" points="914.454 99.218 909.48 100.263 909.48 106.118 914.454 105.26 914.454 99.218"/><polygon class="cls-4" points="897.47 103.123 894.004 103.856 894.004 108.995 897.47 108.4 897.47 103.123"/><polygon class="cls-4" points="905.417 101.333 901.013 102.255 901.013 107.683 905.417 106.924 905.417 101.333"/><polygon class="cls-4" points="897.47 113.263 894.004 113.737 894.004 118.885 897.47 118.54 897.47 113.263"/><polygon class="cls-4" points="905.417 112.107 901.013 112.703 901.013 118.131 905.417 117.698 905.417 112.107"/><polygon class="cls-4" points="914.454 110.799 909.48 111.473 909.48 117.237 914.454 116.747 914.454 110.799"/><polygon class="cls-4" points="914.454 122.49 909.48 122.797 909.48 128.56 914.454 128.438 914.454 122.49"/><polygon class="cls-4" points="905.417 123.084 901.013 123.356 901.013 128.784 905.417 128.675 905.417 123.084"/><polygon class="cls-4" points="897.47 123.61 894.004 123.825 894.004 128.973 897.47 128.886 897.47 123.61"/><path class="cls-4" d="M957.16,129.008a39.228,39.228,0,0,0-4.789.168v-5.1a28.806,28.806,0,0,0,4.872.225h11.2V113.356H957.579c-2.576,0-3.639.028-4.816.139V108.4a29.323,29.323,0,0,0,4.9.252h12.852c1.513,0,2.3-.029,3.108-.084-.055.98-.084,1.456-.084,2.856v14.615a42.511,42.511,0,0,0,.168,4.62h-5.263v-1.651Z"/><path class="cls-4" d="M992.86,107.615a11.124,11.124,0,0,0-.729,2.073c-2.183,7.252-3.388,10.807-5.208,15.456a86.078,86.078,0,0,0,9.605-1.092A46.114,46.114,0,0,0,993,117.388l4.4-1.681a60.358,60.358,0,0,1,6.664,13.385l-4.788,2.436a21.457,21.457,0,0,0-1.035-3.136c-4,.7-6.861,1.092-11.2,1.54l-6.412.615a14.7,14.7,0,0,0-1.54.253l-.727-5.236c.531.028.756.028.895.028.168,0,.392,0,.7-.028l.869-.029a5.36,5.36,0,0,0,.7-.027,128.72,128.72,0,0,0,4.648-13.916,24.8,24.8,0,0,0,1.092-5.013Z"/><path class="cls-4" d="M1013.16,129.008a39.228,39.228,0,0,0-4.789.168v-5.1a28.806,28.806,0,0,0,4.872.225h11.2V113.356h-10.865c-2.576,0-3.639.028-4.816.139V108.4a29.323,29.323,0,0,0,4.9.252h12.852c1.513,0,2.3-.029,3.108-.084-.055.98-.084,1.456-.084,2.856v14.615a42.511,42.511,0,0,0,.168,4.62h-5.263v-1.651Z"/><path class="cls-4" d="M1053.423,116.324h3.3a25.733,25.733,0,0,0,3.276-.168v4.284a27.277,27.277,0,0,0-3.3-.168h-2.1a17.493,17.493,0,0,0,2.856,3.555,15.767,15.767,0,0,0,3.416,2.464,21.651,21.651,0,0,0-2.1,4.425,18.343,18.343,0,0,1-5.487-6.5c.055.895.084,1.792.084,2.491V128.7a32.226,32.226,0,0,0,.167,3.556h-4.423a33.2,33.2,0,0,0,.168-3.556v-1.708c0-.755.027-1.595.084-2.66a18.5,18.5,0,0,1-5.825,6.273,17.8,17.8,0,0,0-2.267-3.78v1.791a32.357,32.357,0,0,0,.168,3.613h-4.425a33.331,33.331,0,0,0,.168-3.613v-3.78c0-.615.028-1.708.084-2.687a15.024,15.024,0,0,1-2.184,4.508,22.2,22.2,0,0,0-1.372-4.76,19.32,19.32,0,0,0,3.164-7.42h-.643a7.755,7.755,0,0,0-1.792.139v-4.171a7.551,7.551,0,0,0,1.792.139h.924v-1.819a19.711,19.711,0,0,0-.168-2.912h4.452a19.7,19.7,0,0,0-.168,2.912v1.819h.5a5.972,5.972,0,0,0,1.288-.111v1.96a17.174,17.174,0,0,0,1.539-5.88l3.892.98c-.112.364-.2.7-.419,1.652-.057.2-.057.223-.168.7h1.372v-1.177a20.047,20.047,0,0,0-.168-2.827h4.479a19.347,19.347,0,0,0-.168,2.827v1.177h2.548a25.31,25.31,0,0,0,3.276-.168V114a28.039,28.039,0,0,0-3.3-.168h-2.521Zm-12.151,10.36A16.906,16.906,0,0,0,1044.94,124a16.455,16.455,0,0,0,2.939-3.723h-.924a20.689,20.689,0,0,0-3.3.2V118.9c-.449,1.091-.925,2.408-1.2,3.36a9.445,9.445,0,0,1-1.233-2.353c.028.756.057,1.821.057,2.857Zm2.38-10.557a10.283,10.283,0,0,0,1.456.169,14.9,14.9,0,0,0-2.044-1.736v.028a5.511,5.511,0,0,0-1.2-.112h-.5a11.174,11.174,0,0,0,2.3,3.7Zm3.023-2.3a17.5,17.5,0,0,1-1.147,2.465c.588.028.867.028,1.427.028h2.325v-2.493Z"/><path class="cls-4" d="M1066.36,120.5c-1.009,0-2.212.057-3.08.113v-4.033a29.984,29.984,0,0,0,3.191.141h6.328a29.216,29.216,0,0,0,3.136-.141v4.033c-.867-.056-2.071-.113-3.108-.113h-1.091v5.181c1.763-.309,2.8-.532,5.235-1.093v3.977c-5.235,1.2-7.924,1.708-12.124,2.324-.924.14-1.372.2-1.932.336l-.616-4.4a39.169,39.169,0,0,0,5.236-.5V120.5Zm18.759-10.387a15.979,15.979,0,0,0,2.716-.14v4.256a30.744,30.744,0,0,0-3.639-.168h-3.221a32.572,32.572,0,0,0,1.372,8.6,12.233,12.233,0,0,0,1.96,3.975,14.852,14.852,0,0,0,.784-4.088,15.9,15.9,0,0,0,3.472,2.073,15.18,15.18,0,0,1-1.6,5.767,2.852,2.852,0,0,1-2.38,1.569c-1.624,0-3.471-1.624-4.9-4.34-1.68-3.164-2.659-7.476-3.024-13.552h-10.668c-1.316,0-2.408.056-3.639.168V109.94a31.731,31.731,0,0,0,3.639.168h10.529a30.986,30.986,0,0,0-.225-3.949h4.62a10.237,10.237,0,0,0-.112,1.653c0,.252,0,.84.028,2.3h2.576a14.192,14.192,0,0,0-2.127-2.409l3.191-1.624a22.632,22.632,0,0,1,2.52,2.913l-2.184,1.12Z"/><path class="cls-4" d="M1095.675,115.9a25.507,25.507,0,0,1-3.92,1.9,18.283,18.283,0,0,0-2.1-4.116,21.369,21.369,0,0,0,6.439-3.08,16.614,16.614,0,0,0,4.7-4.537h4.536a16.454,16.454,0,0,0,4.733,4.313,24.137,24.137,0,0,0,6.691,3.107,18.744,18.744,0,0,0-1.96,4.424,25.967,25.967,0,0,1-4.172-2.044v1.6a24.215,24.215,0,0,0-2.66-.112h-9.66a26.089,26.089,0,0,0-2.632.112Zm-1.26,6.971a29.444,29.444,0,0,0-3.416.168V118.76c.981.084,2.128.14,3.416.14H1112c1.344,0,2.38-.056,3.388-.14v4.283a28.913,28.913,0,0,0-3.388-.168h-2.772a61.417,61.417,0,0,1,5.908,7.225l-3.864,2.38c-.644-1.008-.644-1.008-1.316-2.073-3.248.365-3.248.365-4.788.5-1.847.2-9.408.84-10.584.9-.98.084-1.763.168-2.464.279l-.532-4.676c.729.057,1.233.084,1.848.084.308,0,.308,0,1.961-.055a33.848,33.848,0,0,0,2.435-4.565Zm12.657-9.3a20.624,20.624,0,0,1-3.92-3.723,19.583,19.583,0,0,1-3.949,3.723Zm-4.313,9.3a35.28,35.28,0,0,1-2.435,4.425c4.087-.168,4.087-.168,7-.421-.785-.951-1.176-1.4-2.38-2.687l3.3-1.317Z"/><path class="cls-4" d="M1126.139,129.232a27.449,27.449,0,0,0,.112,2.967h-4.479a21.5,21.5,0,0,0,.168-3.08v-5.683a19.521,19.521,0,0,1-2.492,1.763,15.7,15.7,0,0,0-1.792-4.2,16.863,16.863,0,0,0,4.368-3.191,12.328,12.328,0,0,0,2.911-3.893h-3.947a18.9,18.9,0,0,0-2.437.113v-4.144a14.69,14.69,0,0,0,2.156.111h1.26v-2.071a13.087,13.087,0,0,0-.168-2.128h4.452a12.089,12.089,0,0,0-.139,2.155V110h.756a9.841,9.841,0,0,0,1.624-.084l1.819,1.933a9.551,9.551,0,0,0-.644,1.315,23.016,23.016,0,0,1-2.519,4.565,13.629,13.629,0,0,0,4.479,3.359,19.749,19.749,0,0,0-2.1,4,13,13,0,0,1-3.389-2.884Zm12.349-1.96h2.239a29.873,29.873,0,0,0,3.416-.14v4.4c-1.176-.113-2.3-.168-3.388-.168h-9.1a31.824,31.824,0,0,0-3.277.168v-4.4a30.36,30.36,0,0,0,3.361.14h2.323V117.024h-1.455c-.952,0-1.849.055-2.744.139v-4.339a18.43,18.43,0,0,0,2.744.14h1.455v-3.78a24.559,24.559,0,0,0-.2-3.3h4.788a22.782,22.782,0,0,0-.168,3.3v3.78h2.212a18.387,18.387,0,0,0,2.771-.14v4.339c-.924-.084-1.792-.139-2.771-.139h-2.212Z"/><path class="cls-4" d="M928.823,178.128a12.613,12.613,0,0,0-.736,1.512,34.869,34.869,0,0,1-2.96,5.941,50.357,50.357,0,0,1,4.682,4.452l-2.016,2.163a31.208,31.208,0,0,0-4.261-4.431,24.137,24.137,0,0,1-3.276,3.507,26.667,26.667,0,0,1-5,3.464,6.516,6.516,0,0,0-1.847-2.184,22.719,22.719,0,0,0,8.1-6.487,37.554,37.554,0,0,0-5.564-3.779l1.847-1.848c1.533.9,2.436,1.49,3.465,2.226,1.574,1.133,1.574,1.133,1.742,1.238a25.649,25.649,0,0,0,2.961-6.761Z"/><path class="cls-4" d="M935.356,191.44a20.025,20.025,0,0,0,6.215-1.554,14.032,14.032,0,0,0,6.236-5.144,17.517,17.517,0,0,0,2.142-4.2,9.014,9.014,0,0,0,2.225,2.058,18.426,18.426,0,0,1-6.656,8.231,22.679,22.679,0,0,1-8,3.149,7.434,7.434,0,0,0-1.386.357Zm1.785-13.039a29.72,29.72,0,0,1,5.417,4.053l-1.806,2.288a22.02,22.02,0,0,0-5.354-4.262Z"/><path class="cls-4" d="M966.014,185.393a11.374,11.374,0,0,1-1.47,5.647c-1.112,1.848-2.645,3-5.479,4.137a6.663,6.663,0,0,0-1.7-2.309c2.519-.778,4.094-1.89,4.976-3.507a8.913,8.913,0,0,0,.924-3.968h-5.123a20.779,20.779,0,0,0-2.667.1V183a14.781,14.781,0,0,0,2.709.147h12.282a14.917,14.917,0,0,0,2.709-.147v2.5a20.779,20.779,0,0,0-2.667-.1Zm-8.419-7.685a14.235,14.235,0,0,0,2.708.147h8.063a14.26,14.26,0,0,0,2.709-.147v2.562a19.753,19.753,0,0,0-2.667-.106h-8.147a19.717,19.717,0,0,0-2.666.106Z"/><path class="cls-4" d="M991.4,182.012a15.051,15.051,0,0,0,2.729-.146v2.645a21.552,21.552,0,0,0-2.687-.1H987.14c-.188,2.919-.546,4.3-1.512,5.921a12.635,12.635,0,0,1-5.353,4.7,6.532,6.532,0,0,0-1.911-2.268,9.7,9.7,0,0,0,5.06-4.136,9.074,9.074,0,0,0,1.029-4.22h-5.207a21.57,21.57,0,0,0-2.688.1v-2.645a15.2,15.2,0,0,0,2.73.146h5.291c.021-.882.021-1.26.021-1.638v-1.238a13.2,13.2,0,0,0-.105-2.015h2.9a13.129,13.129,0,0,0-.1,2.015l-.022,1.26c-.02,1.386-.02,1.386-.02,1.616Z"/><path class="cls-4" d="M998.356,191.44a20.025,20.025,0,0,0,6.215-1.554,14.032,14.032,0,0,0,6.236-5.144,17.517,17.517,0,0,0,2.142-4.2,9.014,9.014,0,0,0,2.225,2.058,18.426,18.426,0,0,1-6.656,8.231,22.679,22.679,0,0,1-8,3.149,7.434,7.434,0,0,0-1.386.357Zm1.785-13.039a29.72,29.72,0,0,1,5.417,4.053l-1.806,2.288a22.02,22.02,0,0,0-5.354-4.262Z"/><path class="cls-4" d="M1034.411,194.652a40.405,40.405,0,0,0-6.447-6.236,24.931,24.931,0,0,1-8,6.068,8.4,8.4,0,0,0-1.7-2.33,17.348,17.348,0,0,0,4.2-2.31,20.223,20.223,0,0,0,7.055-8.546l.231-.546c-.335.022-.335.022-6.95.126a16.852,16.852,0,0,0-2.288.168l-.084-2.687a9.19,9.19,0,0,0,1.848.126h.5l7.39-.105a4.549,4.549,0,0,0,1.869-.231l1.385,1.428a4.1,4.1,0,0,0-.672,1.133,27.731,27.731,0,0,1-3.275,5.795,32.549,32.549,0,0,1,3.885,3.045c.524.462.524.462,3.065,2.918Z"/><path class="cls-4" d="M1051.043,181.026l.021-.945v-.672a13.362,13.362,0,0,0-.105-2.33h2.708a7.829,7.829,0,0,0-.084,1.406c0,1.281,0,1.281-.02,2.541h1.344a14.879,14.879,0,0,0,2.729-.148v2.562a21.355,21.355,0,0,0-2.687-.1h-1.408a25.718,25.718,0,0,1-.146,3.464,8.413,8.413,0,0,1-3.023,6.027,11.7,11.7,0,0,1-4.1,2.2,6.247,6.247,0,0,0-1.574-2.226,9.731,9.731,0,0,0,4.009-1.994c1.428-1.239,2.037-2.625,2.226-5.039.042-.483.042-.987.084-2.436h-5.438v3.15a12.9,12.9,0,0,0,.084,1.763h-2.729a13.99,13.99,0,0,0,.084-1.8v-3.108h-1.281a21.363,21.363,0,0,0-2.688.1v-2.562a14.884,14.884,0,0,0,2.73.148h1.239v-2.1a11.174,11.174,0,0,0-.106-1.869h2.751a10.5,10.5,0,0,0-.084,1.806v2.163Z"/><path class="cls-4" d="M1065.829,185.078c-.042.126-.064.252-.084.294,0,.042-.042.167-.084.357a22.206,22.206,0,0,1-3.528,8.167,9.122,9.122,0,0,0-2.435-1.364,17.065,17.065,0,0,0,3.548-8.084Zm9.552-4.494c.442,0,.652,0,1.156-.02a2.417,2.417,0,0,1,.713-4.725,2.424,2.424,0,0,1,.84,4.7v2.478a18.078,18.078,0,0,0-2.667-.105h-4.849V193.1a16.253,16.253,0,0,0,.1,2.352h-2.855a15.632,15.632,0,0,0,.126-2.372V182.915h-4.661a17.912,17.912,0,0,0-2.646.105v-2.582a13.5,13.5,0,0,0,2.688.146h4.619v-1.175a11.9,11.9,0,0,0-.126-2.162h2.835a16.524,16.524,0,0,0-.084,2.225v1.112Zm-.23,3.864a23.147,23.147,0,0,0,3.716,8,13.775,13.775,0,0,0-2.414,1.448,28,28,0,0,1-3.444-7.853,5.385,5.385,0,0,0-.336-.965Zm.734-6.194a1.376,1.376,0,1,0,2.751,0,1.376,1.376,0,0,0-2.751,0Z"/><path class="cls-4" d="M1081.328,184.448a20.6,20.6,0,0,0,3.4.147h11.19a20.623,20.623,0,0,0,3.4-.147v2.919a22.829,22.829,0,0,0-3.422-.106h-11.15a22.8,22.8,0,0,0-3.421.106Z"/><path class="cls-4" d="M1106.4,194.9a14.257,14.257,0,0,0,.126-2.352V179.094a13.475,13.475,0,0,0-.126-2.141h2.876a14.055,14.055,0,0,0-.084,2.2v3.905a61.639,61.639,0,0,1,9.532,4.431l-1.47,2.477a49.683,49.683,0,0,0-7.432-4.011,6.869,6.869,0,0,1-.714-.356,10.857,10.857,0,0,1,.084,1.428v5.543a23.077,23.077,0,0,0,.084,2.33Z"/><rect class="cls-7" x="886.246" y="160.197" width="259.644" height="51.716"/><path class="cls-4" d="M940.773,256.661a12.663,12.663,0,0,0,.126-1.869v-5.48a3.606,3.606,0,0,1-.63.4,33.256,33.256,0,0,1-5.92,2.352,8.683,8.683,0,0,0-1.24-2.289,26.115,26.115,0,0,0,5.837-1.952,22.553,22.553,0,0,0,6.509-4.451h-.44c-.126.02-.126.02-7.685.062a15.464,15.464,0,0,0-2.226.106V241a10.857,10.857,0,0,0,2.247.189h3.506v-1.722a8.648,8.648,0,0,0-.105-1.511h2.813a6.781,6.781,0,0,0-.1,1.469v1.742h3.548a4.424,4.424,0,0,0,1.427-.188l1.218,1.428a4.943,4.943,0,0,0-.924.9,27.03,27.03,0,0,1-4.283,3.927,34.257,34.257,0,0,1,7.328,3.3l-1.385,2.205a37.461,37.461,0,0,0-6.4-3.36c-.272-.126-.314-.126-.524-.231.02.252.042.84.042,1.029v4.619a9.5,9.5,0,0,0,.1,1.869Z"/><path class="cls-4" d="M958.5,243.245a24.2,24.2,0,0,1,2.058,4.975l-2.373.756a21.018,21.018,0,0,0-1.911-5.081Zm12.052.146a4.42,4.42,0,0,0-.294,1.071,17.936,17.936,0,0,1-2.9,6.992,16.114,16.114,0,0,1-6.4,5.06,7.628,7.628,0,0,0-1.68-2.079,13.564,13.564,0,0,0,3.57-1.932,12.066,12.066,0,0,0,4.766-7.285,9.309,9.309,0,0,0,.378-2.415Zm-7.58-1.008a20.685,20.685,0,0,1,2.037,4.829l-2.331.736a23.139,23.139,0,0,0-1.91-4.935Z"/><path class="cls-4" d="M979.477,256.262a14.16,14.16,0,0,0,.125-2.351V240.452a13.645,13.645,0,0,0-.125-2.142h2.876a14.077,14.077,0,0,0-.084,2.2v3.905a61.72,61.72,0,0,1,9.533,4.43l-1.47,2.478a49.636,49.636,0,0,0-7.433-4.01,6.7,6.7,0,0,1-.714-.358,10.857,10.857,0,0,1,.084,1.428v5.543a23.086,23.086,0,0,0,.084,2.331Z"/><path class="cls-4" d="M1013.662,240.83a5.734,5.734,0,0,0-.356,1.491c-.672,4.913-1.66,7.39-3.843,9.742a17.074,17.074,0,0,1-6.509,4.157,8.982,8.982,0,0,0-1.722-2.415,13.681,13.681,0,0,0,4.263-1.952c3-2.037,4.577-5.123,5-9.68l-9.994.022v3.128a9.442,9.442,0,0,0,.084,1.847l-2.814.022a12.647,12.647,0,0,0,.084-1.806v-4.011a12.7,12.7,0,0,0-.063-1.7,17.2,17.2,0,0,0,1.743.1h10.162a8.752,8.752,0,0,0,2.582-.231Z"/><path class="cls-4" d="M1017.4,245.806a20.63,20.63,0,0,0,3.4.147H1032a20.608,20.608,0,0,0,3.4-.147v2.918a23.256,23.256,0,0,0-3.422-.1h-11.149a23.282,23.282,0,0,0-3.423.1Z"/><path class="cls-4" d="M1055.284,241.879a3.942,3.942,0,0,0-.524,1.26,21.777,21.777,0,0,1-4.305,8.1,21.209,21.209,0,0,1-7.475,5.333,6.443,6.443,0,0,0-1.784-2.2,18.952,18.952,0,0,0,4.6-2.478,16.63,16.63,0,0,0,6.131-8.86l-6.32.1a20.548,20.548,0,0,1-4.913,5.375,5.588,5.588,0,0,0-2.037-1.806,16.156,16.156,0,0,0,5.439-6.088,7.851,7.851,0,0,0,1.07-2.772l2.877.567a4.294,4.294,0,0,0-.357.651,4.239,4.239,0,0,0-.273.588l-.273.546a4.953,4.953,0,0,1-.336.672c.273-.021.609-.042,1.008-.042l4.6-.063a3.712,3.712,0,0,0,1.532-.21Z"/><path class="cls-4" d="M1077.9,241.585c-.441-.042-.735-.062-1.449-.084a9.745,9.745,0,0,1-1.89,3.7,11.937,11.937,0,0,0,3.591,1.511,6.531,6.531,0,0,0-1.029,2.058,12.828,12.828,0,0,1-3.989-2.142,11.155,11.155,0,0,1-3.948,2.164,7.38,7.38,0,0,0-.923-1.618,4.9,4.9,0,0,0-.672,1.134,8.033,8.033,0,0,1-2.666-2.225v.252c.02.189.02.189.062.755v.546a6.167,6.167,0,0,0,.064.924h-2.079a3.848,3.848,0,0,0,.084-.924v-.566c0-.232.021-.546.042-.945a9.2,9.2,0,0,1-3.422,2.771,6.359,6.359,0,0,0-1.156-1.574,8.64,8.64,0,0,0,3.276-2h-.588a10.3,10.3,0,0,0-1.6.063c.042-.462.064-.861.064-1.386v-1.491a11.473,11.473,0,0,0-.064-1.344,14.485,14.485,0,0,0,1.659.064h1.785v-.714h-2.247a10.9,10.9,0,0,0-1.869.105v-1.953a14.776,14.776,0,0,0,1.869.1h2.247a6.15,6.15,0,0,0-.105-1.092h2.12c-.042.358-.062.588-.084,1.092h2.352a14.3,14.3,0,0,0,1.827-.1V240.6a16.565,16.565,0,0,0-1.785-.084h-2.414v.714h1.8a14.208,14.208,0,0,0,1.659-.064,9.674,9.674,0,0,0-.063,1.282,9.758,9.758,0,0,0,2.688-4.871l2.162.356c-.336.861-.462,1.176-.693,1.68h3.318a15.914,15.914,0,0,0,2.057-.126Zm-10.54,9.155h-5.291a18.639,18.639,0,0,0-2.141.084V248.83a13.891,13.891,0,0,0,2.141.1h12.7a13.852,13.852,0,0,0,2.184-.1v1.994a19.482,19.482,0,0,0-2.184-.084h-5.185v1.008H1074a11.284,11.284,0,0,0,1.91-.1v1.994a12.229,12.229,0,0,0-1.91-.1h-4.409v1.112h6.047a17.231,17.231,0,0,0,2.372-.126V256.6a20.766,20.766,0,0,0-2.372-.126h-14.362a20.115,20.115,0,0,0-2.351.126v-2.079a17.3,17.3,0,0,0,2.351.126h1.239v-1.7a6.738,6.738,0,0,0-.105-1.407h2.394a9.242,9.242,0,0,0-.084,1.407v1.7h2.645Zm-5.942-8.021V243.9h1.638v-1.176Zm3.549,1.176h1.679v-1.176h-1.679Zm3.548,2.961a9.374,9.374,0,0,0,3.212-1.575,8.752,8.752,0,0,1-1.427-2.12,11.368,11.368,0,0,1-1.114,1.259,5.159,5.159,0,0,0-.818-.965V244a11.655,11.655,0,0,0,.063,1.365,13.244,13.244,0,0,0-1.575-.042h-.819a7.227,7.227,0,0,0,2.583,1.407Zm2.919-5.313a7.107,7.107,0,0,0,1.637,2.415,6.6,6.6,0,0,0,1.26-2.457h-2.877Z"/><path class="cls-4" d="M1087.332,244.861a64.181,64.181,0,0,1-.4,6.887,12.092,12.092,0,0,1-1.7,5.186,11.133,11.133,0,0,0-1.511-1.659c.021.777.042,1.092.105,1.785h-2.415a18.054,18.054,0,0,0,.126-2.5V248.7c0-.8.022-1.512.064-2.751a10.749,10.749,0,0,1-1.428,2.247,11.456,11.456,0,0,0-.946-2.52,16.035,16.035,0,0,0,2.877-4.7,15.612,15.612,0,0,0,1.05-3.465l2.268.546c-.106.315-.21.651-.358,1.092a17.57,17.57,0,0,1-1.343,3.4v12.241a7.835,7.835,0,0,0,1.029-2.813,37.574,37.574,0,0,0,.462-7.013c0-.8-.022-1.449-.084-2.121a15.858,15.858,0,0,0,2.2.106h9.406a15.729,15.729,0,0,0,2.289-.106v2.1a19.509,19.509,0,0,0-2.037-.084Zm.924-5.984a6.271,6.271,0,0,0-.084-1.259h2.331a6.592,6.592,0,0,0-.084,1.259v.483h2.876v-.483a6.271,6.271,0,0,0-.084-1.259h2.331a6.725,6.725,0,0,0-.084,1.259v.483h1.322a13.37,13.37,0,0,0,2.121-.126v2.121a18.482,18.482,0,0,0-2.121-.084h-1.322v.21a5.905,5.905,0,0,0,.062,1.008h-2.288a7.527,7.527,0,0,0,.063-1.03v-.188h-2.876v.188a6.188,6.188,0,0,0,.062,1.03h-2.288a7.636,7.636,0,0,0,.063-1.008v-.21h-.882a16.986,16.986,0,0,0-2.1.084v-2.1a19.98,19.98,0,0,0,2.1.105h.882Zm1.512,14.572v1.259a12.65,12.65,0,0,0,.105,2.268h-2.205a12.489,12.489,0,0,0,.126-2.268v-6.634a21.9,21.9,0,0,0-.084-2.289c.63.042,1.05.063,2.225.063h6.383a16.863,16.863,0,0,0,2.037-.084,18.407,18.407,0,0,0-.084,2.246v7.16c0,1.386-.441,1.7-2.415,1.7-.168,0-.168,0-.923-.021a5.7,5.7,0,0,0-.42-1.827,10.135,10.135,0,0,0,1.259.1c.378,0,.462-.084.462-.483v-1.2h-2.309v.965a14.7,14.7,0,0,0,.105,2.31h-2.141a13.552,13.552,0,0,0,.126-2.31v-.965Zm2.247-5.817h-2.247v1.176h2.247Zm0,2.856h-2.247v1.176h2.247Zm4.219-1.68v-1.176h-2.309v1.176Zm0,2.856v-1.176h-2.309v1.176Z"/><rect class="cls-7" x="886.246" y="221.555" width="259.644" height="51.716"/><path class="cls-4" d="M951.156,306.329a5.14,5.14,0,0,0-.588,1.028,15.313,15.313,0,0,1-5.144,6.131,6.927,6.927,0,0,0-2.1-1.7,10.617,10.617,0,0,0,3.465-2.961c.294-.42.42-.609.8-1.239-.336.063-.484.084-.8.126-2.121.252-4.283.525-6.467.84v4.724a9.358,9.358,0,0,0,.084,1.805c.147.82.819,1.05,2.96,1.05a23.286,23.286,0,0,0,6.446-.818l.126,2.834a12.7,12.7,0,0,0-1.281.084,46.752,46.752,0,0,1-5.207.357,14.486,14.486,0,0,1-3.737-.357,2.746,2.746,0,0,1-1.806-1.932,8.075,8.075,0,0,1-.21-2.645v-4.808l-1.973.252a12.407,12.407,0,0,0-2.331.4l-.273-2.6c.232.021.4.021.5.021a16.572,16.572,0,0,0,1.848-.147l2.225-.272V303.62a10.356,10.356,0,0,0-.126-2h2.9a10.219,10.219,0,0,0-.126,1.953v2.645l7.642-.924a3.936,3.936,0,0,0,1.617-.356Z"/><path class="cls-4" d="M960.629,303.515a9.049,9.049,0,0,0-.5-1.974l2.771-.441a14.77,14.77,0,0,0,.252,1.974l.336,1.827,4.431-.694a10.853,10.853,0,0,0,2.016-.461l.44,2.519a17.749,17.749,0,0,0-2.016.274l-4.429.692.63,3.443,4.933-.776a18.844,18.844,0,0,0,2.184-.484l.462,2.52a5.2,5.2,0,0,0-.966.1,1.632,1.632,0,0,0-.336.042c-.147.021-.42.063-.84.126l-5,.8.756,4.074a11.867,11.867,0,0,0,.5,2.162l-2.814.5a15.714,15.714,0,0,0-.272-2.2l-.756-4.136-5.187.819a16.918,16.918,0,0,0-2.141.462l-.42-2.583a12.923,12.923,0,0,0,2.226-.21l5.1-.818-.63-3.444-3.905.609a22.4,22.4,0,0,0-2.31.483l-.42-2.583a19.3,19.3,0,0,0,2.31-.23l3.9-.61Z"/><path class="cls-4" d="M989.713,316.469a9.282,9.282,0,0,0,1.931-.126v2.394a16.027,16.027,0,0,0-1.931-.084h-10.9a15.6,15.6,0,0,0-1.931.084v-2.394a9.407,9.407,0,0,0,1.931.126h6.195c.356-1.868.8-4.829,1.008-6.739H980.81a13.339,13.339,0,0,0-1.869.084v-2.373a12.022,12.022,0,0,0,1.932.126h5.312a4.685,4.685,0,0,0,1.554-.189l1.154,1.008a7.6,7.6,0,0,0-.482,2.394c-.315,2.309-.546,3.8-.9,5.689Z"/><path class="cls-4" d="M1001.915,301.772a10.674,10.674,0,0,0-.084,1.89v5.794a10.131,10.131,0,0,0,.084,1.848h-2.876a15.159,15.159,0,0,0,.1-1.89v-5.773a13.3,13.3,0,0,0-.083-1.89Zm9.532.021a9.988,9.988,0,0,0-.1,1.953v2.835a24.832,24.832,0,0,1-.546,6.361,8.045,8.045,0,0,1-4.137,4.892,17.734,17.734,0,0,1-4.094,1.617,7.173,7.173,0,0,0-1.469-2.5,11.343,11.343,0,0,0,4.535-1.68c1.973-1.3,2.666-2.583,2.9-5.355.084-.9.105-1.826.105-3.5v-2.625a11.059,11.059,0,0,0-.105-2Z"/><path class="cls-4" d="M1027.954,309.75a11.382,11.382,0,0,1-1.47,5.649c-1.112,1.848-2.645,3-5.479,4.136a6.676,6.676,0,0,0-1.7-2.31c2.519-.776,4.094-1.89,4.976-3.506a8.918,8.918,0,0,0,.924-3.969h-5.123a20.733,20.733,0,0,0-2.667.106v-2.5a14.781,14.781,0,0,0,2.709.147h12.282a14.917,14.917,0,0,0,2.709-.147v2.5a20.733,20.733,0,0,0-2.667-.106Zm-8.419-7.684a14.229,14.229,0,0,0,2.708.147h8.063a14.26,14.26,0,0,0,2.709-.147v2.561a19.852,19.852,0,0,0-2.667-.1H1022.2a19.806,19.806,0,0,0-2.666.1Z"/><path class="cls-4" d="M1053.867,306.287a4.042,4.042,0,0,0-.714.692,28.022,28.022,0,0,1-3.9,3.443v7.139a12.4,12.4,0,0,0,.105,2.016l-2.709-.021a12.569,12.569,0,0,0,.106-2v-5.627a29.616,29.616,0,0,1-5.942,2.667,8.592,8.592,0,0,0-1.3-2.184,22.388,22.388,0,0,0,4.976-1.889,23.932,23.932,0,0,0,5.963-4.263,7.817,7.817,0,0,0,1.281-1.512Z"/><path class="cls-4" d="M1062.669,302.738a10.023,10.023,0,0,0-.126-1.974h2.435a16.666,16.666,0,0,0-.105,1.974v1.176h1.491a11.215,11.215,0,0,0,2.016-.126v2.247a15.623,15.623,0,0,0-1.638-.064,21.5,21.5,0,0,1-1.428,6.362c1.323,1.68,1.491,1.911,2.982,4.01l-1.659,1.848a30.261,30.261,0,0,0-2.414-3.632,20.652,20.652,0,0,1-4.179,5.186,7.5,7.5,0,0,0-1.6-1.953,14.572,14.572,0,0,0,4.3-5.144,38.193,38.193,0,0,0-3.569-3.863l1.532-1.554c.42.42.42.42,1.659,1.7.168.168.524.566,1.322,1.49a20.4,20.4,0,0,0,.82-4.451h-3.885a13.484,13.484,0,0,0-1.952.106v-2.289a15.113,15.113,0,0,0,2.078.126h1.911Zm6.991,5.669a26.4,26.4,0,0,1,2.961,4.85l-1.911,1.26a18.689,18.689,0,0,0-2.94-5.081Zm1.176-1.3a13.079,13.079,0,0,0-1.994.1V304.9a12.753,12.753,0,0,0,1.994.1h2.667v-1.658a13.967,13.967,0,0,0-.148-2.5h2.52a18.91,18.91,0,0,0-.126,2.5v1.658H1076a12.042,12.042,0,0,0,1.974-.126v2.352l-.483-.063a12.2,12.2,0,0,0-1.47-.063h-.273v10.142c0,1.091-.063,1.448-.378,1.826-.4.5-1.154.714-2.54.714-.861,0-1.638-.021-2.478-.084a6.923,6.923,0,0,0-.651-2.33,21.283,21.283,0,0,0,2.541.251c1.134,0,1.26-.063,1.26-.5V307.105Z"/><path class="cls-4" d="M1083.1,304.165a11.962,11.962,0,0,1-2.121,2.268,9.425,9.425,0,0,0-1.491-1.574,8.636,8.636,0,0,0,3.234-4.283l2.247.4c-.084.148-.294.567-.672,1.26h2.813a14.06,14.06,0,0,0,2.036-.126v1.47a7.094,7.094,0,0,0,1.6-3l2.247.4c-.42.882-.42.882-.609,1.281h4.136a17.722,17.722,0,0,0,2.31-.126v2.162a16.473,16.473,0,0,0-2.2-.1H1094.9c.316.5.588,1.008.882,1.6l-2.12.566a13.016,13.016,0,0,0-1.008-2.162h-1.386a10.555,10.555,0,0,1-1.217,1.49h.314a6.524,6.524,0,0,0-.1,1.134h6.193a12.417,12.417,0,0,0,2.247-.147v2.184a16.185,16.185,0,0,0-2.247-.105h-6.193v1.049h4.765c1.05-.02,1.7-.042,1.953-.084a13.186,13.186,0,0,0-.084,1.744v1.973a1.407,1.407,0,0,1-.609,1.364,3.349,3.349,0,0,1-1.554.232c-.378,0-.881-.022-1.469-.064a5.514,5.514,0,0,0-.42-1.826,11.125,11.125,0,0,0,1.323.126c.44,0,.588-.084.588-.4V311.64h-4.493v.756a13.52,13.52,0,0,0,4.135,3.339,22.568,22.568,0,0,0,4.62,1.721,8.479,8.479,0,0,0-1.512,2.079,21.936,21.936,0,0,1-4.094-1.932,12.354,12.354,0,0,1-1.911-1.428,6.966,6.966,0,0,1-1.322-1.406c.02.692.042.966.042,1.532l.02,1.6a10.792,10.792,0,0,0,.168,2.184h-2.561a11.72,11.72,0,0,0,.168-1.974v-.231l-.021-1.533c0-.272.021-.924.063-1.47a11.708,11.708,0,0,1-3.276,2.919,22.963,22.963,0,0,1-3.527,1.743,8.03,8.03,0,0,0-1.616-2.016,23.855,23.855,0,0,0,4.409-1.806,15.145,15.145,0,0,0,2.414-1.721,7.914,7.914,0,0,0,1.533-1.6v-.756h-4.1v1.848a11.513,11.513,0,0,0,.084,1.7h-2.351a16.158,16.158,0,0,0,.105-1.932V311.41a13.973,13.973,0,0,0-.084-1.7,15.052,15.052,0,0,0,1.826.084h4.515v-1.049h-5.732c-.861,0-1.575.042-2.226.105v-2.184a13.429,13.429,0,0,0,2.226.147h5.732a6.972,6.972,0,0,0-.105-1.134h1.407a7.511,7.511,0,0,0-1.2-1.07c.231-.19.294-.252.461-.4a8.1,8.1,0,0,0-.944-.042H1086.4c.357.61.483.862.84,1.576l-2.057.588a16.854,16.854,0,0,0-.946-2.164Z"/><rect class="cls-7" x="887.509" y="284.555" width="259.644" height="51.716"/><rect class="cls-8" x="819.29" y="54.461" width="393.557" height="317.338"/><path class="cls-4" d="M947.891,23.732a11.615,11.615,0,0,0,2.552-4.8l1.76.792a15.8,15.8,0,0,1-2.662,5.3Zm8.647-16.678a6.876,6.876,0,0,0-.11-1.431h2.222a8.6,8.6,0,0,0-.11,1.431v.484h6.469c1.034,0,1.606-.022,2.354-.088a9.728,9.728,0,0,0-.088,1.562V10.2a11.5,11.5,0,0,0,.088,1.759h-1.826c-.176.529-.33.748-.638.9a7.426,7.426,0,0,1-3.058.374c-2.773,0-3.3-.22-3.3-1.3V9.254H956.6a4.381,4.381,0,0,1-1.231,2.266c-1.276,1.364-2.618,2.068-5.435,2.861a5.884,5.884,0,0,0-1.123-1.606c2.377-.485,3.543-.925,4.555-1.761a3.07,3.07,0,0,0,1.232-1.76h-4.378V11.9H948.2a10.832,10.832,0,0,0,.088-1.673V9.012A10.327,10.327,0,0,0,948.2,7.45c.726.066,1.319.088,2.354.088h5.985Zm1.276,5.589a37.345,37.345,0,0,1-2.684,3.564c4.356-.154,4.356-.154,6.865-.374-.572-.484-.969-.77-2-1.541l1.54-.967a28.424,28.424,0,0,1,4.776,4l-1.673,1.187c-.528-.615-.7-.813-1.078-1.231-4.181.439-7.767.681-12.63.857-.682.022-.9.022-1.562.088l-.308-2.046c.946.066.946.066,3.806.066a20.969,20.969,0,0,0,2.839-4.18Zm-2.354,6.248a10.431,10.431,0,0,0-.088,1.629v2.354c0,.814.132.858,2.618.858,2.42,0,3.124-.088,3.366-.418a4.89,4.89,0,0,0,.33-2.222,7.437,7.437,0,0,0,1.914.594c-.351,3.719-.527,3.828-5.83,3.828-3.653,0-4.335-.308-4.335-1.979V20.7a10.088,10.088,0,0,0-.11-1.805Zm3.63,3.323a11.99,11.99,0,0,0-2.508-3.125l1.584-.9a12.4,12.4,0,0,1,2.553,2.9Zm1.32-11c0,.462.133.485,2.179.485,1.21,0,1.254-.044,1.342-1.519a5.972,5.972,0,0,0,1.408.4V9.254H960.41ZM966.043,24.9a24.447,24.447,0,0,0-3.235-5.456l1.673-.836a26.948,26.948,0,0,1,3.367,5.17Z"/><path class="cls-4" d="M972.4,25.119a18.321,18.321,0,0,0,.155-2.663V9.98c0-.968-.044-1.607-.111-2.376a18.5,18.5,0,0,0,2.4.11h12.1a19.055,19.055,0,0,0,2.421-.11,18.106,18.106,0,0,0-.11,2.376V22.456a22.828,22.828,0,0,0,.132,2.663H987.1V23.468H974.709v1.651Zm2.311-3.675H987.1V9.738H974.709Z"/><path class="cls-4" d="M1000.714,8.946a9.217,9.217,0,0,0,.946-2.838l2.42.307a2.259,2.259,0,0,0-.264.506c-.242.573-.242.573-.682,1.607-.066.132-.132.286-.176.374a.619.619,0,0,0,.176-.022h.11c.11,0,.506-.022,1.1-.066a27.611,27.611,0,0,0,5.852-.748l.132,2.091c-.484.044-.484.044-1.716.2-1.54.2-4.379.4-6.535.44a13.243,13.243,0,0,1-2.376,3.433l.022.044a4.773,4.773,0,0,1,.461-.353,5.5,5.5,0,0,1,3.345-1.143,3.321,3.321,0,0,1,2.135.7,2.646,2.646,0,0,1,.9,1.672c1.783-.66,2.971-1.1,3.565-1.3a5.609,5.609,0,0,0,1.562-.639l.9,2.113a35.457,35.457,0,0,0-5.788,1.826c.023.793.023.793.023,1.188v1.034c-.023.374-.023.617-.023.771a7.858,7.858,0,0,0,.067,1.078l-2.135.044a25.953,25.953,0,0,0,.132-2.86v-.529c-2.706,1.233-3.7,2.113-3.7,3.279,0,1.32,1.144,1.8,4.224,1.8a18.561,18.561,0,0,0,6.1-.9l.221,2.376a5.924,5.924,0,0,0-.969.11,39.7,39.7,0,0,1-5.479.4,9.487,9.487,0,0,1-4.752-.881,3.035,3.035,0,0,1-1.541-2.706c0-2.046,1.827-3.807,5.633-5.435a1.372,1.372,0,0,0-1.5-1.408c-1.32,0-2.948.792-4.686,2.288a8.777,8.777,0,0,0-1.805,1.937l-1.694-1.7a18.51,18.51,0,0,0,3.543-4c.263-.418.725-1.166,1.364-2.223h-.374l-2.135-.022c-.55-.022-.968-.044-1.276-.044h-.132a2.175,2.175,0,0,0-.33.022l.044-2.09a23.815,23.815,0,0,0,4.291.264Z"/><path class="cls-4" d="M1036.884,16.8a25.57,25.57,0,0,0-3.169-.154h-13.246c-1.21,0-2.332.066-3.191.154V14.248a24.8,24.8,0,0,0,3.191.155h13.246a22.925,22.925,0,0,0,3.169-.155Z"/><path class="cls-4" d="M1043.107,11.52a24.047,24.047,0,0,0-2.53.133V9.386a17.4,17.4,0,0,0,2.53.154h5.875V7.846a11.635,11.635,0,0,0-.154-2.024h2.288a13.893,13.893,0,0,0-.132,2V9.54h6.205a16.489,16.489,0,0,0,2.575-.154v2.267a25.576,25.576,0,0,0-2.575-.133h-5.171a21.673,21.673,0,0,0,3.477,4.907,19.006,19.006,0,0,0,4.973,3.872,6.9,6.9,0,0,0-1.254,2.025,23.894,23.894,0,0,1-4.313-3.63,21.714,21.714,0,0,1-4.026-5.875c.065,1.254.109,2.068.109,2.684V19.6h2.244a12.239,12.239,0,0,0,2.091-.109v2.178a15.3,15.3,0,0,0-2.2-.132h-2.135V23.27a18.508,18.508,0,0,0,.155,2.662h-2.311a19.084,19.084,0,0,0,.154-2.662V21.532h-1.914a15.093,15.093,0,0,0-2.2.132V19.486a12.357,12.357,0,0,0,2.112.109h2v-4.07c0-.748.022-1.233.088-2.641a21.442,21.442,0,0,1-3.961,5.986,22.912,22.912,0,0,1-4,3.5,6.124,6.124,0,0,0-1.255-1.914,20.233,20.233,0,0,0,4.885-4.2,18.849,18.849,0,0,0,3.1-4.731Z"/><path class="cls-4" d="M1066.625,16.757c0-.99,0-1.452.044-2.552a18.93,18.93,0,0,1-2.486,3.19,9.089,9.089,0,0,0-1.056-2.046,20.527,20.527,0,0,0,4.708-7.041,9.6,9.6,0,0,0,.748-2.618l2.2.638c-.177.418-.265.637-.484,1.232a37.77,37.77,0,0,1-1.651,3.916V23.182a23.344,23.344,0,0,0,.155,2.75h-2.333a22.516,22.516,0,0,0,.154-2.794Zm8.207,5.831c0,.66.374.792,2.442.792,2.223,0,3.037-.132,3.324-.506.374-.506.527-1.452.659-4.027a8.276,8.276,0,0,0,2,.792c-.2,2.575-.506,4-1.013,4.644-.638.792-1.782,1.011-5.259,1.011-3.586,0-4.224-.33-4.224-2.222V8.528a19.473,19.473,0,0,0-.132-2.53h2.333a19.27,19.27,0,0,0-.133,2.53v5.457a24.234,24.234,0,0,0,3.7-2.443,14.273,14.273,0,0,0,2.728-2.64l1.629,1.629c-.2.153-.287.241-.529.462a34.495,34.495,0,0,1-7.525,5.258Z"/><line class="cls-9" x1="906.949" y1="32.176" x2="894.949" y2="0.176"/><line class="cls-9" x1="1125.187" y1="32.176" x2="1137.187" y2="0.176"/></g></g></svg>