<svg xmlns="http://www.w3.org/2000/svg" viewBox="0 0 586.462 849.481"><defs><style>.cls-1{fill:#36af35;}.cls-2,.cls-5,.cls-6,.cls-7,.cls-8,.cls-9{fill:none;stroke-miterlimit:10;}.cls-2{stroke:#36af35;stroke-width:1.08px;}.cls-3{fill:#fff;}.cls-4{fill:#25813a;}.cls-5,.cls-6,.cls-7,.cls-8,.cls-9{stroke:#25813a;}.cls-5{stroke-width:3px;}.cls-6{stroke-width:2px;}.cls-7{stroke-width:0.62px;}.cls-8{stroke-width:0.902px;}</style></defs><g id="レイヤー_2" data-name="レイヤー 2"><g id="レイヤー_1-2" data-name="レイヤー 1"><path class="cls-1" d="M228.95,17.84l-34.073,8.4V76.406l34.041,2.931,18.56-3.154V25.355ZM225.3,74.5l-11.121-.958V64l-6.616-.081v9.051l-8.181-.7V29.775L225.3,23.382Z"/><polygon class="cls-1" points="223.009 27.08 217.639 28.208 217.639 34.53 223.009 33.604 223.009 27.08"/><polygon class="cls-1" points="204.671 31.296 200.928 32.088 200.928 37.637 204.671 36.994 204.671 31.296"/><polygon class="cls-1" points="213.251 29.364 208.497 30.359 208.497 36.22 213.251 35.401 213.251 29.364"/><polygon class="cls-1" points="204.671 42.245 200.928 42.757 200.928 48.315 204.671 47.943 204.671 42.245"/><polygon class="cls-1" points="213.251 40.997 208.497 41.641 208.497 47.502 213.251 47.033 213.251 40.997"/><polygon class="cls-1" points="223.009 39.585 217.639 40.313 217.639 46.536 223.009 46.007 223.009 39.585"/><polygon class="cls-1" points="223.009 52.208 217.639 52.539 217.639 58.762 223.009 58.63 223.009 52.208"/><polygon class="cls-1" points="213.251 52.85 208.497 53.143 208.497 59.004 213.251 58.887 213.251 52.85"/><polygon class="cls-1" points="204.671 53.417 200.928 53.65 200.928 59.208 204.671 59.115 204.671 53.417"/><path class="cls-1" d="M278.1,57.476a15.171,15.171,0,0,0-.635-2.381l-.906-2.471H269.3l-.907,2.471a11.292,11.292,0,0,0-.68,2.381H264a24.832,24.832,0,0,0,1.2-2.675l4.987-13.082a13.445,13.445,0,0,0,.726-2.289h3.944a15.122,15.122,0,0,0,.771,2.289L280.659,54.8a23.872,23.872,0,0,0,1.156,2.675Zm-4.783-14.17c-.091-.248-.159-.521-.408-1.269-.363,1.066-.363,1.066-.431,1.269l-2.358,6.711h5.622Z"/><path class="cls-1" d="M291.363,56.773a16.2,16.2,0,0,0,.113,2.312h-2.743a13.5,13.5,0,0,0,.136-2.358V51.038a15.273,15.273,0,0,1-2.516,1.926,8.791,8.791,0,0,0-1.156-2.358,15.637,15.637,0,0,0,3.9-3.06,13.454,13.454,0,0,0,2.471-3.491h-3.695a15.317,15.317,0,0,0-1.9.091V41.629a13.833,13.833,0,0,0,1.79.09h1.134v-1.9a10.384,10.384,0,0,0-.136-1.723H291.5a9.644,9.644,0,0,0-.136,1.768v1.859h.93a8.326,8.326,0,0,0,1.314-.067l1.089,1.179a6.254,6.254,0,0,0-.5.952,18.625,18.625,0,0,1-2.267,3.876,13.364,13.364,0,0,0,3.6,2.88,9.624,9.624,0,0,0-1.246,2.222,12.446,12.446,0,0,1-2.925-2.563Zm9.612-1.065H303.7a19.564,19.564,0,0,0,2.584-.136v2.742a18.661,18.661,0,0,0-2.584-.158h-7.753a18.337,18.337,0,0,0-2.562.158V55.572a20.681,20.681,0,0,0,2.607.136h2.471V46.843h-1.7c-.771,0-1.5.045-2.222.114V44.4a15.408,15.408,0,0,0,2.222.113h1.7v-3.99a15.932,15.932,0,0,0-.159-2.357h2.834a13.284,13.284,0,0,0-.159,2.357v3.99h2.4A14.843,14.843,0,0,0,305.6,44.4v2.562c-.725-.069-1.428-.114-2.222-.114h-2.4Z"/><path class="cls-1" d="M344.019,40.473a13.8,13.8,0,0,0-.793,1.632,37.743,37.743,0,0,1-3.2,6.416,54.369,54.369,0,0,1,5.056,4.806l-2.177,2.335a33.8,33.8,0,0,0-4.6-4.784,25.951,25.951,0,0,1-3.536,3.787,28.826,28.826,0,0,1-5.4,3.74,7.034,7.034,0,0,0-2-2.358,24.494,24.494,0,0,0,8.751-7,40.525,40.525,0,0,0-6.008-4.081l2-2c1.655.974,2.63,1.609,3.741,2.4,1.7,1.224,1.7,1.224,1.881,1.337a27.718,27.718,0,0,0,3.2-7.3Z"/><path class="cls-1" d="M351.074,54.846a21.636,21.636,0,0,0,6.71-1.677,15.158,15.158,0,0,0,6.734-5.555,18.932,18.932,0,0,0,2.312-4.534,9.762,9.762,0,0,0,2.4,2.221c-1.927,4.15-4.081,6.825-7.187,8.887a24.471,24.471,0,0,1-8.637,3.4,7.92,7.92,0,0,0-1.5.386ZM353,40.767a32.129,32.129,0,0,1,5.849,4.376l-1.95,2.471a23.78,23.78,0,0,0-5.781-4.6Z"/><path class="cls-1" d="M384.177,48.317a12.3,12.3,0,0,1-1.587,6.1c-1.2,1.995-2.856,3.242-5.917,4.467a7.185,7.185,0,0,0-1.836-2.494c2.72-.84,4.421-2.041,5.373-3.787a9.632,9.632,0,0,0,1-4.284h-5.531a22.408,22.408,0,0,0-2.88.113v-2.7a15.985,15.985,0,0,0,2.925.158h13.262a16.127,16.127,0,0,0,2.925-.158v2.7a22.39,22.39,0,0,0-2.879-.113Zm-9.091-8.3a15.4,15.4,0,0,0,2.925.158h8.7a15.407,15.407,0,0,0,2.925-.158v2.765a21.516,21.516,0,0,0-2.88-.113h-8.8a21.489,21.489,0,0,0-2.879.113Z"/><path class="cls-1" d="M411.59,44.667a16.231,16.231,0,0,0,2.947-.159v2.857a23.2,23.2,0,0,0-2.9-.114h-4.647c-.2,3.152-.59,4.648-1.633,6.393-1.246,2.064-2.833,3.469-5.78,5.078a7.055,7.055,0,0,0-2.064-2.448c2.721-1.179,4.444-2.585,5.464-4.466a9.8,9.8,0,0,0,1.111-4.557h-5.622a23.188,23.188,0,0,0-2.9.114V44.508a16.381,16.381,0,0,0,2.947.159h5.713c.023-.953.023-1.361.023-1.769V41.561a14.208,14.208,0,0,0-.114-2.176h3.129a14.266,14.266,0,0,0-.114,2.176l-.022,1.361c-.023,1.5-.023,1.5-.023,1.745Z"/><path class="cls-1" d="M419.1,54.846a21.636,21.636,0,0,0,6.71-1.677,15.158,15.158,0,0,0,6.734-5.555,18.932,18.932,0,0,0,2.312-4.534,9.762,9.762,0,0,0,2.4,2.221c-1.927,4.15-4.081,6.825-7.186,8.887a24.485,24.485,0,0,1-8.638,3.4,7.92,7.92,0,0,0-1.5.386Zm1.927-14.079a32.129,32.129,0,0,1,5.849,4.376l-1.95,2.471a23.78,23.78,0,0,0-5.781-4.6Z"/><path class="cls-1" d="M458.027,58.314a43.533,43.533,0,0,0-6.959-6.732,26.942,26.942,0,0,1-8.638,6.551,9.092,9.092,0,0,0-1.836-2.516,18.738,18.738,0,0,0,4.534-2.494,21.852,21.852,0,0,0,7.617-9.227l.25-.59c-.363.024-.363.024-7.5.136a18.1,18.1,0,0,0-2.471.182l-.091-2.9a9.872,9.872,0,0,0,2,.136h.544l7.98-.113a4.9,4.9,0,0,0,2.018-.25l1.5,1.542a4.377,4.377,0,0,0-.726,1.224,29.974,29.974,0,0,1-3.536,6.257,35.072,35.072,0,0,1,4.194,3.288c.567.5.567.5,3.31,3.151Z"/><path class="cls-1" d="M475.987,43.6l.022-1.021v-.726a14.4,14.4,0,0,0-.113-2.515h2.924a8.367,8.367,0,0,0-.09,1.518c0,1.383,0,1.383-.023,2.744h1.451a16.06,16.06,0,0,0,2.947-.16v2.766a23.2,23.2,0,0,0-2.9-.113h-1.519a27.523,27.523,0,0,1-.158,3.74,9.079,9.079,0,0,1-3.265,6.507,12.577,12.577,0,0,1-4.421,2.38,6.733,6.733,0,0,0-1.7-2.4,10.522,10.522,0,0,0,4.33-2.153c1.542-1.338,2.2-2.834,2.4-5.441.046-.522.046-1.066.091-2.63h-5.872v3.4a13.94,13.94,0,0,0,.091,1.9h-2.947a14.909,14.909,0,0,0,.091-1.949V46.1h-1.383a23.2,23.2,0,0,0-2.9.113V43.442a16.06,16.06,0,0,0,2.947.16h1.338V41.335a12.052,12.052,0,0,0-.114-2.019h2.97a11.306,11.306,0,0,0-.091,1.95V43.6Z"/><path class="cls-1" d="M491.951,47.977c-.045.136-.068.272-.091.317,0,.045-.045.181-.09.386a23.968,23.968,0,0,1-3.809,8.818,9.87,9.87,0,0,0-2.63-1.473,18.412,18.412,0,0,0,3.831-8.729Zm10.315-4.852c.476,0,.7,0,1.247-.022a2.609,2.609,0,0,1,.771-5.1,2.618,2.618,0,0,1,.906,5.078v2.675a19.484,19.484,0,0,0-2.879-.113h-5.237V56.637a17.435,17.435,0,0,0,.114,2.539h-3.083a16.973,16.973,0,0,0,.136-2.562V45.642h-5.033a19.31,19.31,0,0,0-2.857.113V42.967a14.57,14.57,0,0,0,2.9.158h4.988v-1.27a12.925,12.925,0,0,0-.136-2.334h3.06a18.041,18.041,0,0,0-.091,2.4v1.2Zm-.249,4.171a24.988,24.988,0,0,0,4.012,8.638,15.033,15.033,0,0,0-2.607,1.564,30.257,30.257,0,0,1-3.718-8.479,5.759,5.759,0,0,0-.363-1.042Zm.793-6.687a1.485,1.485,0,1,0,1.474-1.474A1.471,1.471,0,0,0,502.81,40.609Z"/><path class="cls-1" d="M508.686,47.3a22.213,22.213,0,0,0,3.673.16h12.083a22.206,22.206,0,0,0,3.672-.16v3.152a24.736,24.736,0,0,0-3.7-.114H512.381a24.745,24.745,0,0,0-3.695.114Z"/><path class="cls-1" d="M535.759,58.586a15.3,15.3,0,0,0,.136-2.539V41.516a14.639,14.639,0,0,0-.136-2.312h3.105a15.294,15.294,0,0,0-.09,2.379V45.8a66.6,66.6,0,0,1,10.292,4.784l-1.587,2.675a53.65,53.65,0,0,0-8.025-4.33,7.372,7.372,0,0,1-.771-.385,11.724,11.724,0,0,1,.091,1.541V56.07a24.935,24.935,0,0,0,.09,2.516Z"/><rect class="cls-2" x="162.178" y="0.54" width="423.261" height="96.097"/><path class="cls-1" d="M228.876,148.431,194.8,156.836V207l34.041,2.931,18.56-3.154V155.946Zm-3.647,56.662-11.121-.957V194.6l-6.616-.082v9.052l-8.181-.705V160.366l25.918-6.392Z"/><polygon class="cls-1" points="222.935 157.672 217.565 158.799 217.565 165.122 222.935 164.196 222.935 157.672"/><polygon class="cls-1" points="204.597 161.888 200.854 162.679 200.854 168.228 204.597 167.585 204.597 161.888"/><polygon class="cls-1" points="213.177 159.955 208.423 160.951 208.423 166.812 213.177 165.992 213.177 159.955"/><polygon class="cls-1" points="204.597 172.836 200.854 173.348 200.854 178.906 204.597 178.534 204.597 172.836"/><polygon class="cls-1" points="213.177 171.588 208.423 172.232 208.423 178.093 213.177 177.625 213.177 171.588"/><polygon class="cls-1" points="222.935 170.176 217.565 170.904 217.565 177.127 222.935 176.598 222.935 170.176"/><polygon class="cls-1" points="222.935 182.8 217.565 183.13 217.565 189.354 222.935 189.221 222.935 182.8"/><polygon class="cls-1" points="213.177 183.441 208.423 183.734 208.423 189.595 213.177 189.478 213.177 183.441"/><polygon class="cls-1" points="204.597 184.008 200.854 184.241 200.854 189.799 204.597 189.706 204.597 184.008"/><path class="cls-1" d="M268.184,188.067c-1.315,0-1.972.023-2.9.067a16.14,16.14,0,0,0,.2-3.06V172.765a21.665,21.665,0,0,0-.181-2.789c.952.045,1.315.045,2.856.045h5.35c3.514,0,5.487,1.587,5.487,4.42a4.051,4.051,0,0,1-1.27,3.2,3.83,3.83,0,0,1-1.791.953,4.157,4.157,0,0,1,2.29,1.042,4.478,4.478,0,0,1,1.405,3.47c0,3.173-2.108,4.964-5.871,4.964Zm5.01-10.655c1.723,0,2.743-.929,2.743-2.471a2.313,2.313,0,0,0-.589-1.678,3.215,3.215,0,0,0-2.177-.7h-4.692v4.852Zm-4.715,8.093h4.874c2.017,0,3.151-1,3.151-2.834a2.458,2.458,0,0,0-.726-1.973,3.711,3.711,0,0,0-2.471-.769h-4.828Z"/><path class="cls-1" d="M293.239,187.365a16.181,16.181,0,0,0,.113,2.311h-2.743a13.491,13.491,0,0,0,.136-2.358v-5.69a15.279,15.279,0,0,1-2.516,1.928,8.748,8.748,0,0,0-1.156-2.358,15.641,15.641,0,0,0,3.9-3.061,13.461,13.461,0,0,0,2.471-3.491h-3.695a15.53,15.53,0,0,0-1.9.091v-2.516a14.041,14.041,0,0,0,1.791.09h1.134v-1.9a10.367,10.367,0,0,0-.136-1.723h2.743a9.625,9.625,0,0,0-.136,1.767v1.86h.929a8.294,8.294,0,0,0,1.315-.068l1.089,1.179a6.125,6.125,0,0,0-.5.952,18.6,18.6,0,0,1-2.267,3.876,13.364,13.364,0,0,0,3.6,2.88,9.678,9.678,0,0,0-1.247,2.221,12.411,12.411,0,0,1-2.924-2.562Zm9.612-1.066h2.721a19.564,19.564,0,0,0,2.584-.136v2.743a18.511,18.511,0,0,0-2.584-.159h-7.754a18.176,18.176,0,0,0-2.561.159v-2.743a20.681,20.681,0,0,0,2.607.136h2.471v-8.865h-1.7c-.771,0-1.5.046-2.222.114v-2.563a15.246,15.246,0,0,0,2.222.114h1.7v-3.99a16.069,16.069,0,0,0-.159-2.357h2.834a13.284,13.284,0,0,0-.159,2.357v3.99h2.4a14.7,14.7,0,0,0,2.222-.114v2.563c-.725-.068-1.428-.114-2.222-.114h-2.4Z"/><path class="cls-1" d="M335.171,189.3a13.608,13.608,0,0,0,.136-2.017v-5.918a3.839,3.839,0,0,1-.68.432,35.909,35.909,0,0,1-6.393,2.539,9.414,9.414,0,0,0-1.337-2.472,28.168,28.168,0,0,0,6.3-2.108,24.317,24.317,0,0,0,7.028-4.806h-.476c-.136.022-.136.022-8.3.068a16.667,16.667,0,0,0-2.4.114V172.39a11.643,11.643,0,0,0,2.426.205h3.786v-1.859a9.468,9.468,0,0,0-.113-1.633h3.038a7.294,7.294,0,0,0-.114,1.587v1.881h3.832a4.785,4.785,0,0,0,1.541-.2l1.315,1.541a5.346,5.346,0,0,0-1,.975,29.3,29.3,0,0,1-4.625,4.24,36.97,36.97,0,0,1,7.912,3.558l-1.5,2.381a40.393,40.393,0,0,0-6.914-3.627c-.295-.136-.34-.136-.567-.25.023.272.046.907.046,1.111v4.988a10.186,10.186,0,0,0,.113,2.017Z"/><path class="cls-1" d="M354.309,174.816a26.084,26.084,0,0,1,2.222,5.373l-2.562.816a22.645,22.645,0,0,0-2.063-5.487Zm13.013.158a4.8,4.8,0,0,0-.317,1.157,19.342,19.342,0,0,1-3.129,7.549c-1.677,2.29-3.559,3.763-6.914,5.464a8.229,8.229,0,0,0-1.814-2.245A14.66,14.66,0,0,0,359,184.813a13.022,13.022,0,0,0,5.146-7.866,10.051,10.051,0,0,0,.409-2.607Zm-8.184-1.088a22.252,22.252,0,0,1,2.2,5.214l-2.516.794a24.954,24.954,0,0,0-2.063-5.328Z"/><path class="cls-1" d="M376.962,188.872a15.318,15.318,0,0,0,.136-2.539V171.8a14.671,14.671,0,0,0-.136-2.313h3.105a15.324,15.324,0,0,0-.09,2.381v4.217a66.5,66.5,0,0,1,10.292,4.783l-1.587,2.675a53.609,53.609,0,0,0-8.025-4.33,7.181,7.181,0,0,1-.771-.386,11.729,11.729,0,0,1,.091,1.542v5.985a24.982,24.982,0,0,0,.09,2.517Z"/><path class="cls-1" d="M413.873,172.209a6.235,6.235,0,0,0-.385,1.61c-.726,5.305-1.791,7.98-4.149,10.519a18.438,18.438,0,0,1-7.028,4.489,9.707,9.707,0,0,0-1.859-2.608,14.771,14.771,0,0,0,4.6-2.108c3.242-2.2,4.943-5.531,5.4-10.451l-10.791.023v3.377a10.444,10.444,0,0,0,.091,2l-3.038.023a13.679,13.679,0,0,0,.09-1.949V172.8a13.722,13.722,0,0,0-.068-1.836,18.568,18.568,0,0,0,1.882.113h10.973a9.463,9.463,0,0,0,2.788-.249Z"/><path class="cls-1" d="M417.913,177.582a22.283,22.283,0,0,0,3.672.158h12.084a22.283,22.283,0,0,0,3.672-.158v3.151a24.954,24.954,0,0,0-3.695-.113H421.608a24.962,24.962,0,0,0-3.695.113Z"/><path class="cls-1" d="M458.815,173.342a4.257,4.257,0,0,0-.567,1.36,23.515,23.515,0,0,1-4.648,8.751,22.88,22.88,0,0,1-8.07,5.758,6.989,6.989,0,0,0-1.927-2.379,20.44,20.44,0,0,0,4.964-2.676,17.954,17.954,0,0,0,6.62-9.566l-6.824.112a22.154,22.154,0,0,1-5.3,5.8,6.047,6.047,0,0,0-2.2-1.95,17.442,17.442,0,0,0,5.871-6.574,8.436,8.436,0,0,0,1.156-2.993l3.106.613a4.629,4.629,0,0,0-.385.7,4.691,4.691,0,0,0-.3.635l-.3.589a5.373,5.373,0,0,1-.362.726c.294-.022.657-.045,1.088-.045l4.965-.068a4.007,4.007,0,0,0,1.655-.227Z"/><path class="cls-1" d="M483.235,173.025c-.476-.046-.794-.068-1.564-.091a10.548,10.548,0,0,1-2.041,3.99,12.877,12.877,0,0,0,3.877,1.632,7.046,7.046,0,0,0-1.111,2.222,13.879,13.879,0,0,1-4.307-2.312,12.065,12.065,0,0,1-4.262,2.335,8,8,0,0,0-1-1.746,5.313,5.313,0,0,0-.725,1.224,8.647,8.647,0,0,1-2.879-2.4v.272c.022.205.022.205.068.816v.59a6.574,6.574,0,0,0,.068,1h-2.245a4.143,4.143,0,0,0,.091-1v-.612c0-.25.023-.589.045-1.02a9.931,9.931,0,0,1-3.695,2.992,6.9,6.9,0,0,0-1.247-1.7,9.329,9.329,0,0,0,3.537-2.154h-.635a10.965,10.965,0,0,0-1.723.069c.045-.5.068-.93.068-1.5v-1.61a12.508,12.508,0,0,0-.068-1.451,15.456,15.456,0,0,0,1.791.069h1.927v-.771h-2.426a11.742,11.742,0,0,0-2.018.113v-2.108a15.977,15.977,0,0,0,2.018.113h2.426a6.654,6.654,0,0,0-.114-1.179h2.29c-.045.386-.068.635-.09,1.179h2.539a15.451,15.451,0,0,0,1.972-.113v2.086a17.487,17.487,0,0,0-1.927-.091H469.27v.771h1.95a15.175,15.175,0,0,0,1.79-.069,10.5,10.5,0,0,0-.068,1.384,10.518,10.518,0,0,0,2.9-5.26l2.335.385c-.362.93-.5,1.27-.748,1.814h3.582a17.332,17.332,0,0,0,2.222-.136Zm-11.381,9.884h-5.713a20.124,20.124,0,0,0-2.312.091v-2.153a15.105,15.105,0,0,0,2.312.112h13.716a15.061,15.061,0,0,0,2.358-.112V183a21.038,21.038,0,0,0-2.358-.091h-5.6V184h4.761a12.16,12.16,0,0,0,2.063-.113v2.154a13.172,13.172,0,0,0-2.063-.113h-4.761v1.2h6.529a18.723,18.723,0,0,0,2.562-.136v2.245a22.356,22.356,0,0,0-2.562-.136H465.28a21.66,21.66,0,0,0-2.539.136V186.99a18.8,18.8,0,0,0,2.539.136h1.337V185.29a7.256,7.256,0,0,0-.113-1.519h2.584a10.129,10.129,0,0,0-.09,1.519v1.836h2.856Zm-6.415-8.66v1.269h1.768v-1.269Zm3.831,1.269h1.813v-1.269H469.27Zm3.831,3.2a10.135,10.135,0,0,0,3.469-1.7,9.443,9.443,0,0,1-1.542-2.289,12.367,12.367,0,0,1-1.2,1.36,5.582,5.582,0,0,0-.885-1.043v.589a12.652,12.652,0,0,0,.068,1.473,14.4,14.4,0,0,0-1.7-.045h-.884a7.822,7.822,0,0,0,2.789,1.52Zm3.151-5.737a7.707,7.707,0,0,0,1.769,2.608,7.143,7.143,0,0,0,1.36-2.653h-3.106Z"/><path class="cls-1" d="M493.418,176.561a68.69,68.69,0,0,1-.431,7.436,13.065,13.065,0,0,1-1.836,5.6,12.009,12.009,0,0,0-1.632-1.791c.022.839.045,1.179.113,1.927h-2.607a19.711,19.711,0,0,0,.136-2.7v-6.324c0-.862.023-1.633.068-2.971a11.548,11.548,0,0,1-1.542,2.426,12.26,12.26,0,0,0-1.02-2.72,17.31,17.31,0,0,0,3.106-5.078,16.856,16.856,0,0,0,1.134-3.741l2.448.589c-.113.341-.227.7-.385,1.179a19.087,19.087,0,0,1-1.451,3.673v13.217a8.48,8.48,0,0,0,1.111-3.038,40.505,40.505,0,0,0,.5-7.572c0-.861-.022-1.565-.09-2.29a17.076,17.076,0,0,0,2.38.114h10.156a16.968,16.968,0,0,0,2.472-.114v2.267a21.347,21.347,0,0,0-2.2-.091Zm1-6.46a6.764,6.764,0,0,0-.091-1.36h2.516a7.217,7.217,0,0,0-.09,1.36v.521h3.106V170.1a6.764,6.764,0,0,0-.091-1.36h2.516a7.366,7.366,0,0,0-.09,1.36v.521h1.428a14.54,14.54,0,0,0,2.29-.136v2.29a19.973,19.973,0,0,0-2.29-.091h-1.428v.227A6.275,6.275,0,0,0,502.26,174h-2.471a8.163,8.163,0,0,0,.068-1.111v-.2h-3.106v.2a6.575,6.575,0,0,0,.068,1.111h-2.471a8.3,8.3,0,0,0,.068-1.088v-.227h-.953a18.329,18.329,0,0,0-2.267.091v-2.267a21.866,21.866,0,0,0,2.267.113h.953Zm1.632,15.733v1.36a13.756,13.756,0,0,0,.113,2.449h-2.38a13.529,13.529,0,0,0,.136-2.449V180.03a23.651,23.651,0,0,0-.091-2.471c.68.045,1.134.068,2.4.068h6.892a18.464,18.464,0,0,0,2.2-.09,19.858,19.858,0,0,0-.091,2.425v7.731c0,1.5-.476,1.836-2.607,1.836-.181,0-.181,0-1-.022a6.171,6.171,0,0,0-.454-1.973,10.967,10.967,0,0,0,1.361.114c.408,0,.5-.091.5-.522v-1.292h-2.493v1.043a15.856,15.856,0,0,0,.113,2.494h-2.312a14.556,14.556,0,0,0,.136-2.494v-1.043Zm2.426-6.28h-2.426v1.269h2.426Zm0,3.083h-2.426v1.27h2.426Zm4.556-1.814v-1.269h-2.493v1.269Zm0,3.084v-1.27h-2.493v1.27Z"/><rect class="cls-2" x="162.104" y="131.131" width="423.261" height="96.097"/><path class="cls-1" d="M228.876,279.092,194.8,287.5v50.162l34.041,2.932,18.56-3.154V286.607Zm-3.647,56.662-11.121-.958v-9.54l-6.616-.081v9.052l-8.181-.7V291.027l25.918-6.393Z"/><polygon class="cls-1" points="222.935 288.333 217.565 289.46 217.565 295.782 222.935 294.856 222.935 288.333"/><polygon class="cls-1" points="204.597 292.549 200.854 293.34 200.854 298.889 204.597 298.246 204.597 292.549"/><polygon class="cls-1" points="213.177 290.616 208.423 291.611 208.423 297.472 213.177 296.653 213.177 290.616"/><polygon class="cls-1" points="204.597 303.497 200.854 304.009 200.854 309.567 204.597 309.195 204.597 303.497"/><polygon class="cls-1" points="213.177 302.249 208.423 302.893 208.423 308.754 213.177 308.286 213.177 302.249"/><polygon class="cls-1" points="222.935 300.837 217.565 301.565 217.565 307.788 222.935 307.259 222.935 300.837"/><polygon class="cls-1" points="222.935 313.46 217.565 313.791 217.565 320.015 222.935 319.882 222.935 313.46"/><polygon class="cls-1" points="213.177 314.102 208.423 314.395 208.423 320.256 213.177 320.139 213.177 314.102"/><polygon class="cls-1" points="204.597 314.669 200.854 314.902 200.854 320.46 204.597 320.367 204.597 314.669"/><path class="cls-1" d="M280.7,313.219a8.665,8.665,0,0,1-1.519,3.4,7.716,7.716,0,0,1-6.189,2.471,7.8,7.8,0,0,1-5.826-2.176,11.463,11.463,0,0,1,.181-14.442,7.881,7.881,0,0,1,5.668-2.153,8.008,8.008,0,0,1,4.352,1.088,6.947,6.947,0,0,1,2.4,2.472,8.011,8.011,0,0,1,.7,1.745l-3.151.726a4.708,4.708,0,0,0-.975-1.95,4.1,4.1,0,0,0-3.31-1.406c-3.219,0-5.169,2.517-5.169,6.689,0,4.148,2,6.732,5.169,6.732a4.331,4.331,0,0,0,3.673-1.677,4.638,4.638,0,0,0,.748-2.086Z"/><path class="cls-1" d="M294.123,318.025a16.2,16.2,0,0,0,.113,2.312h-2.743a13.491,13.491,0,0,0,.136-2.358v-5.69a15.334,15.334,0,0,1-2.516,1.928,8.748,8.748,0,0,0-1.156-2.358,15.641,15.641,0,0,0,3.9-3.061,13.437,13.437,0,0,0,2.471-3.491h-3.695a15.736,15.736,0,0,0-1.9.09v-2.516a13.816,13.816,0,0,0,1.79.091h1.134v-1.9a10.358,10.358,0,0,0-.136-1.723h2.743a9.625,9.625,0,0,0-.136,1.767v1.86h.93a8.288,8.288,0,0,0,1.314-.068l1.089,1.178a6.361,6.361,0,0,0-.5.953,18.6,18.6,0,0,1-2.267,3.876,13.341,13.341,0,0,0,3.6,2.879,9.666,9.666,0,0,0-1.246,2.222,12.441,12.441,0,0,1-2.925-2.562Zm9.612-1.066h2.721a19.392,19.392,0,0,0,2.584-.136v2.744a18.5,18.5,0,0,0-2.584-.159H298.7a18.181,18.181,0,0,0-2.562.159v-2.744a20.494,20.494,0,0,0,2.607.136h2.471V308.1h-1.7c-.771,0-1.5.046-2.222.113v-2.562a15.246,15.246,0,0,0,2.222.114h1.7v-3.99a15.955,15.955,0,0,0-.159-2.358h2.834a13.3,13.3,0,0,0-.159,2.358v3.99h2.4a14.687,14.687,0,0,0,2.222-.114v2.562c-.725-.067-1.428-.113-2.222-.113h-2.4Z"/><path class="cls-1" d="M346.529,305.522a5.585,5.585,0,0,0-.634,1.111,16.53,16.53,0,0,1-5.555,6.619,7.486,7.486,0,0,0-2.267-1.835,11.476,11.476,0,0,0,3.741-3.2c.317-.454.453-.657.861-1.337-.362.067-.521.09-.861.136-2.29.272-4.625.566-6.983.906v5.1a10.133,10.133,0,0,0,.091,1.949c.159.885.884,1.134,3.2,1.134a25.123,25.123,0,0,0,6.959-.884l.136,3.06a13.783,13.783,0,0,0-1.382.091,50.565,50.565,0,0,1-5.623.386,15.6,15.6,0,0,1-4.035-.386,2.963,2.963,0,0,1-1.95-2.086,8.7,8.7,0,0,1-.226-2.856v-5.191l-2.131.272a13.4,13.4,0,0,0-2.517.43l-.3-2.811c.25.023.431.023.544.023a17.8,17.8,0,0,0,2-.159l2.4-.294V302.6a11.293,11.293,0,0,0-.136-2.153h3.128a11.06,11.06,0,0,0-.136,2.108v2.856l8.252-1a4.249,4.249,0,0,0,1.746-.385Z"/><path class="cls-1" d="M356.758,302.484a9.79,9.79,0,0,0-.544-2.131l2.992-.476a15.764,15.764,0,0,0,.272,2.131l.363,1.973,4.784-.749a11.589,11.589,0,0,0,2.176-.5l.476,2.721a19.029,19.029,0,0,0-2.176.3l-4.784.748.68,3.718,5.328-.839a20.12,20.12,0,0,0,2.358-.522l.5,2.721a5.45,5.45,0,0,0-1.043.114,1.73,1.73,0,0,0-.362.045c-.159.022-.454.067-.907.136l-5.4.862.816,4.4a12.805,12.805,0,0,0,.545,2.334l-3.038.544a17.262,17.262,0,0,0-.3-2.38l-.816-4.466-5.6.884a18.293,18.293,0,0,0-2.312.5l-.454-2.789a13.834,13.834,0,0,0,2.4-.227l5.508-.883-.68-3.718-4.216.657a23.886,23.886,0,0,0-2.494.522l-.453-2.789a20.919,20.919,0,0,0,2.493-.249l4.217-.658Z"/><path class="cls-1" d="M388.161,316.472a10.124,10.124,0,0,0,2.085-.136v2.584a17.513,17.513,0,0,0-2.085-.091H376.4a17.038,17.038,0,0,0-2.086.091v-2.584a10.269,10.269,0,0,0,2.086.136h6.688c.385-2.018.861-5.215,1.088-7.277h-5.623a14.379,14.379,0,0,0-2.017.091v-2.563a12.918,12.918,0,0,0,2.085.136h5.736a5.079,5.079,0,0,0,1.678-.2l1.247,1.088a8.16,8.16,0,0,0-.522,2.584c-.34,2.494-.589,4.1-.975,6.144Z"/><path class="cls-1" d="M401.336,300.6a11.623,11.623,0,0,0-.09,2.041V308.9a11.03,11.03,0,0,0,.09,2h-3.105a16.369,16.369,0,0,0,.113-2.041V302.62a14.3,14.3,0,0,0-.091-2.04Zm10.293.023a10.742,10.742,0,0,0-.113,2.108v3.061a26.783,26.783,0,0,1-.59,6.869,8.682,8.682,0,0,1-4.466,5.283,19.185,19.185,0,0,1-4.421,1.745,7.738,7.738,0,0,0-1.587-2.7,12.242,12.242,0,0,0,4.9-1.814c2.131-1.406,2.879-2.789,3.129-5.782.09-.974.113-1.971.113-3.785v-2.834a12.016,12.016,0,0,0-.113-2.154Z"/><path class="cls-1" d="M429.452,309.217a12.306,12.306,0,0,1-1.587,6.1c-1.2,2-2.856,3.241-5.917,4.465a7.2,7.2,0,0,0-1.836-2.493c2.72-.839,4.421-2.041,5.373-3.786a9.636,9.636,0,0,0,1-4.285h-5.531a22.334,22.334,0,0,0-2.879.114v-2.7a15.945,15.945,0,0,0,2.924.159h13.262a16.106,16.106,0,0,0,2.925-.159v2.7a22.344,22.344,0,0,0-2.879-.114Zm-9.091-8.3a15.378,15.378,0,0,0,2.925.159h8.7a15.385,15.385,0,0,0,2.925-.159v2.765a21.548,21.548,0,0,0-2.879-.112h-8.8a21.539,21.539,0,0,0-2.879.112Z"/><path class="cls-1" d="M457.432,305.477a4.359,4.359,0,0,0-.771.748,30.384,30.384,0,0,1-4.217,3.718v7.707a13.48,13.48,0,0,0,.113,2.177l-2.924-.022a13.573,13.573,0,0,0,.113-2.155v-6.075a31.935,31.935,0,0,1-6.415,2.879,9.261,9.261,0,0,0-1.406-2.357,24.2,24.2,0,0,0,5.373-2.041,25.832,25.832,0,0,0,6.438-4.6,8.442,8.442,0,0,0,1.383-1.633Z"/><path class="cls-1" d="M466.935,301.645a10.771,10.771,0,0,0-.136-2.131h2.63a17.984,17.984,0,0,0-.114,2.131v1.27h1.61a12.044,12.044,0,0,0,2.176-.136v2.426a16.951,16.951,0,0,0-1.768-.069,23.223,23.223,0,0,1-1.542,6.87c1.429,1.814,1.61,2.063,3.219,4.33l-1.79,2a32.582,32.582,0,0,0-2.608-3.922,22.251,22.251,0,0,1-4.511,5.6,8.119,8.119,0,0,0-1.723-2.108,15.731,15.731,0,0,0,4.647-5.554,41.023,41.023,0,0,0-3.854-4.172l1.655-1.677c.454.453.454.453,1.791,1.836.182.182.567.612,1.429,1.61a22.05,22.05,0,0,0,.884-4.807h-4.194a14.686,14.686,0,0,0-2.109.114v-2.471a16.461,16.461,0,0,0,2.245.136h2.063Zm7.549,6.121a28.518,28.518,0,0,1,3.2,5.238l-2.063,1.36a20.214,20.214,0,0,0-3.174-5.486Zm1.27-1.405a14.227,14.227,0,0,0-2.154.113v-2.493a13.86,13.86,0,0,0,2.154.113h2.879V302.3a15.237,15.237,0,0,0-.159-2.7H481.2a20.336,20.336,0,0,0-.137,2.7v1.791h.273a13.08,13.08,0,0,0,2.131-.136V306.5l-.522-.068a13.254,13.254,0,0,0-1.587-.068h-.3v10.95c0,1.179-.068,1.564-.408,1.972-.43.544-1.246.771-2.743.771-.929,0-1.768-.023-2.675-.091a7.5,7.5,0,0,0-.7-2.516,22.8,22.8,0,0,0,2.744.272c1.224,0,1.36-.069,1.36-.544V306.361Z"/><path class="cls-1" d="M489,303.187a12.942,12.942,0,0,1-2.289,2.448,10.283,10.283,0,0,0-1.61-1.7,9.314,9.314,0,0,0,3.491-4.624l2.426.43c-.091.159-.317.612-.725,1.36h3.037a15.133,15.133,0,0,0,2.2-.136v1.587a7.657,7.657,0,0,0,1.723-3.241l2.426.43c-.453.952-.453.952-.657,1.383h4.466a19.085,19.085,0,0,0,2.494-.136v2.335a17.728,17.728,0,0,0-2.381-.113h-1.859c.34.544.635,1.088.952,1.723l-2.289.611a14.021,14.021,0,0,0-1.089-2.334h-1.5a11.466,11.466,0,0,1-1.315,1.609h.34a7.048,7.048,0,0,0-.113,1.224h6.688a13.46,13.46,0,0,0,2.426-.158v2.358a17.416,17.416,0,0,0-2.426-.114h-6.688v1.133h5.146c1.134-.022,1.837-.045,2.109-.09a14.215,14.215,0,0,0-.091,1.882v2.131a1.522,1.522,0,0,1-.658,1.473,3.621,3.621,0,0,1-1.677.25c-.408,0-.952-.023-1.587-.069a5.926,5.926,0,0,0-.454-1.971,12.25,12.25,0,0,0,1.429.136c.476,0,.634-.091.634-.432v-1.315h-4.851v.817a14.588,14.588,0,0,0,4.466,3.6,24.408,24.408,0,0,0,4.988,1.859,9.125,9.125,0,0,0-1.633,2.243,23.679,23.679,0,0,1-4.42-2.085,13.322,13.322,0,0,1-2.063-1.542,7.533,7.533,0,0,1-1.429-1.518c.023.747.046,1.043.046,1.654l.022,1.723a11.588,11.588,0,0,0,.182,2.358h-2.766a12.686,12.686,0,0,0,.181-2.131v-.249l-.022-1.655c0-.3.022-1,.068-1.587a12.664,12.664,0,0,1-3.537,3.151A24.672,24.672,0,0,1,487,319.781a8.65,8.65,0,0,0-1.745-2.176,25.718,25.718,0,0,0,4.761-1.95,16.369,16.369,0,0,0,2.607-1.859,8.524,8.524,0,0,0,1.655-1.722v-.817h-4.421v2a12.27,12.27,0,0,0,.091,1.837h-2.54a17.417,17.417,0,0,0,.114-2.085v-2a15.066,15.066,0,0,0-.091-1.837,16.5,16.5,0,0,0,1.972.09h4.875v-1.133h-6.189c-.93,0-1.7.045-2.4.114v-2.358a14.554,14.554,0,0,0,2.4.158h6.189a7.545,7.545,0,0,0-.114-1.224h1.519a8.081,8.081,0,0,0-1.292-1.156c.249-.2.317-.272.5-.431a8.843,8.843,0,0,0-1.02-.045h-1.315c.385.658.521.93.906,1.7l-2.221.634a18.233,18.233,0,0,0-1.02-2.335Z"/><rect class="cls-2" x="162.104" y="261.792" width="423.261" height="96.097"/><rect class="cls-1" x="0.438" y="0.517" width="84.22" height="357.396"/><path class="cls-3" d="M40.1,151.765a8.68,8.68,0,0,1-.233,2.478,2.56,2.56,0,0,1-2.681,1.69,9.078,9.078,0,0,1-5.509-2.07,4.279,4.279,0,0,1-1.6-3.293c0-1.369.9-2.914,2.506-4.313a15.566,15.566,0,0,1,4.255-2.477l-.029-4.489c-.233,0-.233,0-1.2.058-.437.029-.845.029-1.574.029-.437,0-1.253-.029-1.6-.029-.379-.029-.641-.029-.729-.029a5.478,5.478,0,0,0-.611.029l-.03-3.264a17.95,17.95,0,0,0,3.527.262c.291,0,.612,0,1.02-.029.7-.029.845-.029,1.166-.029v-1.923a19.938,19.938,0,0,0-.175-3.352h3.643a17.863,17.863,0,0,0-.175,3.177v1.865a32.6,32.6,0,0,0,5.625-1.107l.117,3.263c-.524.088-1.079.175-3.089.525-.963.175-1.545.263-2.653.379v3.789a20.209,20.209,0,0,1,5.946-.817c4.867,0,8.335,2.974,8.335,7.113a6.474,6.474,0,0,1-6.616,6.645,4.7,4.7,0,0,1-4.779-3.235,9.738,9.738,0,0,1-.5-3.731A12.327,12.327,0,0,0,45.7,147.6a10.139,10.139,0,0,0-.058,1.282,5.616,5.616,0,0,0,.408,2.564,2.015,2.015,0,0,0,1.836.992,3,3,0,0,0,2.944-3.235c0-2.507-2.04-4.139-5.159-4.139a18.628,18.628,0,0,0-5.6.962Zm-3.293-4.692c-2.186,1.166-3.468,2.448-3.468,3.5,0,.5.291.932.961,1.34a3.5,3.5,0,0,0,1.866.642c.5,0,.641-.262.641-1.224Zm16.146-5.887a24.855,24.855,0,0,0-5.829-6.3l2.74-1.836a24.728,24.728,0,0,1,5.771,5.974Z"/><path class="cls-3" d="M33.63,185.467c0-.583,0-.874-.029-1.428-1.137.291-1.691.437-3.293.787A8.826,8.826,0,0,0,28.938,182a44.654,44.654,0,0,0,6.528-1.487,38.9,38.9,0,0,0,4.343-1.72,20.66,20.66,0,0,1-2.827-2.331,23.075,23.075,0,0,1-5.072,3.119,8.578,8.578,0,0,0-1.777-2.273,23.69,23.69,0,0,0,7.4-4.868,7.832,7.832,0,0,0,1.631-2.04h-6.12v3.847H29.9a12.451,12.451,0,0,0,.146-2.186V169.7a15.653,15.653,0,0,0-.117-2.156,27.482,27.482,0,0,0,3.323.145h7.52v-.408a8.933,8.933,0,0,0-.146-1.923h3.614a8.34,8.34,0,0,0-.175,1.9v.436h7.782a27.854,27.854,0,0,0,3.41-.145,14.765,14.765,0,0,0-.116,2.156v2.42a11.778,11.778,0,0,0,.145,2.186H52.108V170.4H39.576l2.711.757c-.03.03-.322.38-.9,1.049h5.479a16.736,16.736,0,0,0,2.361-.116l2.011,1.6c-.263.263-.263.263-.787.846a32.749,32.749,0,0,1-4.925,4.254,33.971,33.971,0,0,0,10.783,2.478,11.327,11.327,0,0,0-1.34,3.264c-1.4-.262-1.808-.349-3.177-.67-.029.757-.029.845-.029,1.633v4.051a17.253,17.253,0,0,0,.145,2.681H48.669V191.15H36.691v1.05H33.485c.087-.934.145-1.778.145-2.682Zm15.272-2.39a30.662,30.662,0,0,1-6.208-2.535,31.956,31.956,0,0,1-6.033,2.535ZM36.691,188.5H48.669V185.73H36.691Zm2.331-13.728a24.465,24.465,0,0,0,3.585,2.564,24.967,24.967,0,0,0,3.643-2.681H39.139Z"/><path class="cls-3" d="M41.15,214.942a18.191,18.191,0,0,0-2.682.145v-2.011a11.913,11.913,0,0,0-1.136,2.565,14.991,14.991,0,0,1-1.487-3.235c.058,1.778.087,3.206.087,4.051v7.4a28.3,28.3,0,0,0,.176,3.556H32.814a29.5,29.5,0,0,0,.175-3.556v-6.033c.058-2.186.117-3.556.175-4.051a22.852,22.852,0,0,1-2.973,6.907A15.256,15.256,0,0,0,28.7,217.1a17.617,17.617,0,0,0,2.769-4.955,20.2,20.2,0,0,0,1.108-3.613H31.415a11.555,11.555,0,0,0-1.953.117v-3.032a10.939,10.939,0,0,0,1.953.116h1.574V203.4a18.4,18.4,0,0,0-.175-3.031h3.294a16.811,16.811,0,0,0-.176,3.031v2.331h.788a8.627,8.627,0,0,0,1.661-.116v3a14.916,14.916,0,0,0-1.69-.087h-.642a11.528,11.528,0,0,0,2.419,3.934V212.2a20.79,20.79,0,0,0,2.973.146h3.526v-1.6h-2.68a21.331,21.331,0,0,0-2.74.116v-2.739a21.419,21.419,0,0,0,2.681.117h2.739v-1.517H41.791a17.766,17.766,0,0,0-2.769.146v-2.885a18.826,18.826,0,0,0,2.769.145H42.2a13.046,13.046,0,0,0-1.661-2.826l2.739-.933a19.988,19.988,0,0,1,1.924,3.759H47.8a14.871,14.871,0,0,0,1.749-3.759l3.118.845a28.251,28.251,0,0,1-1.691,2.914H52.4a20.486,20.486,0,0,0,2.914-.175v2.915a20.186,20.186,0,0,0-2.885-.146h-4.46v1.517h3.586a18.778,18.778,0,0,0,2.914-.147v2.8a18.351,18.351,0,0,0-2.914-.146H47.969v1.6h4.722a22.6,22.6,0,0,0,3.031-.175v2.944a25.223,25.223,0,0,0-3.031-.175H48.173a11.546,11.546,0,0,0,1.837,3.41,14.521,14.521,0,0,0,2.681-3.207l2.39,1.692a24.523,24.523,0,0,1-3.322,3.555,15.08,15.08,0,0,0,4.634,3.118,13.06,13.06,0,0,0-1.924,2.886,16.876,16.876,0,0,1-3.5-2.769,15.3,15.3,0,0,1-3.118-4.751c.087,1.312.087,1.545.087,2.1v4.051c0,1.661-.932,2.244-3.643,2.244-.437,0-1.253-.029-2.1-.087a7.8,7.8,0,0,0-.787-2.944,13.079,13.079,0,0,0,2.769.262c.612,0,.786-.145.786-.67v-2.74a40.312,40.312,0,0,1-5.595,3.7c-.233.147-.816.555-1.254.846l-1.194-3.119a14.039,14.039,0,0,0,2.39-.962,37.29,37.29,0,0,0,5.653-3.41v-3.2Zm-.671.233a17.41,17.41,0,0,1,2.915,3.293L41.237,220.1a18.868,18.868,0,0,0-2.8-3.322Z"/><line class="cls-2" x1="84.436" y1="48.692" x2="162.178" y2="48.692"/><line class="cls-2" x1="84.436" y1="178.802" x2="162.178" y2="178.802"/><line class="cls-2" x1="84.436" y1="309.451" x2="162.178" y2="309.451"/><path class="cls-1" d="M106.742,34.388c0-.623.018-1.262.052-2.022a9.457,9.457,0,0,1-1.4,2.039,5.016,5.016,0,0,0-.726-1.279,14.954,14.954,0,0,0,2.973-4.909,12.274,12.274,0,0,0,.656-2.367l1.418.38a6.391,6.391,0,0,0-.259.778,24.044,24.044,0,0,1-1.435,3.508v8.952a17.62,17.62,0,0,0,.087,2.023h-1.47a17.716,17.716,0,0,0,.1-2.056Zm7.76-4.459a11.416,11.416,0,0,1-1.659,2.937v6.291c1.244-.311,1.936-.535,3.56-1.088l.017,1.279c-1.486.5-2.35.76-3.663,1.123-.329.087-.329.087-1.832.449-.294.07-.294.07-.692.173-.484.121-.484.121-.708.19l-.26-1.417a13.707,13.707,0,0,0,2.3-.4V34.405a13.666,13.666,0,0,1-2.368,1.988,4.446,4.446,0,0,0-.812-1.125,11.682,11.682,0,0,0,4.77-5.339h-2.212a13.185,13.185,0,0,0-1.711.086V28.632a11.122,11.122,0,0,0,1.711.1h3.042V27.163a5.546,5.546,0,0,0-.1-1.3H115.4a7.624,7.624,0,0,0-.087,1.314v1.555h3.457a11.947,11.947,0,0,0,1.8-.1v1.4a13.479,13.479,0,0,0-1.8-.1h-3.024a16.769,16.769,0,0,0,.777,3.681,10.758,10.758,0,0,0,2.921-2.593l1,.968a22.722,22.722,0,0,1-3.456,2.8,12.989,12.989,0,0,0,4.113,5.063,6.154,6.154,0,0,0-.881,1.261c-3.474-2.989-5.1-6.169-5.669-11.181Z"/><path class="cls-1" d="M133.246,28.909a12.433,12.433,0,0,0-1.538-.069H130.17v1.5h1.192a11.248,11.248,0,0,0,1.487-.068,9.154,9.154,0,0,0-.053,1.347v1.885a9.709,9.709,0,0,0,.053,1.4,10.957,10.957,0,0,0-1.452-.069h-.934a10.6,10.6,0,0,0,2.766,2.783,3.709,3.709,0,0,0-.692,1.088,9.942,9.942,0,0,1-2.454-2.938c.052.709.087,1.313.087,1.832v2.039a9.783,9.783,0,0,0,.1,1.85h-1.365a12.127,12.127,0,0,0,.1-1.85V37.654a15.819,15.819,0,0,1,.087-1.8,11.861,11.861,0,0,1-2.973,4.113,3.211,3.211,0,0,0-.8-1.072,12.183,12.183,0,0,0,3.336-4.061h-.9a11.122,11.122,0,0,0-1.452.069,11.661,11.661,0,0,0,.07-1.486V31.726a11.069,11.069,0,0,0-.07-1.451,12.853,12.853,0,0,0,1.608.068h1.088v-1.5h-1.434a11.486,11.486,0,0,0-1.728.086V27.6a11.061,11.061,0,0,0,1.728.087h1.434V27.6a10.41,10.41,0,0,0-.1-1.711h1.348a10.245,10.245,0,0,0-.086,1.66v.138h1.538a14,14,0,0,0,1.434-.052V26.316a9.235,9.235,0,0,0,1.711.1h4.719a10.465,10.465,0,0,0,1.745-.1v1.366a11.724,11.724,0,0,0-1.745-.087H137.93a15.543,15.543,0,0,1-.623,1.712h1.763c.847,0,1.21-.018,1.608-.052-.035.431-.052.95-.052,1.607v5.652c0,.639.017,1.158.052,1.693-.536-.035-.951-.051-1.486-.051H135.2c-.605,0-1.055.016-1.452.051.035-.535.052-.916.052-1.573V30.879a14.18,14.18,0,0,0-.069-1.624c.38.034.76.052,1.5.052h.795a12.883,12.883,0,0,0,.6-1.712h-2.039a8.281,8.281,0,0,0-1.348.07Zm-5.721,2.523v2.333h1.486V31.432Zm2.645,2.333h1.5V31.432h-1.5Zm6.187,5.324a10.786,10.786,0,0,1-3.612,2.575,3.405,3.405,0,0,0-.83-1.02,8.152,8.152,0,0,0,2.022-1.02,7.412,7.412,0,0,0,1.435-1.279Zm-1.365-7.225h4.424V30.4h-4.424Zm0,2.541h4.424V32.936h-4.424Zm0,2.626h4.424V35.476h-4.424Zm3.646,1.314a8.939,8.939,0,0,0,3.2,2.316,3.632,3.632,0,0,0-.882,1,11.832,11.832,0,0,1-3.232-2.593Z"/><path class="cls-1" d="M106.955,164c0-.624.017-1.263.051-2.023a9.44,9.44,0,0,1-1.4,2.039,5.081,5.081,0,0,0-.726-1.279,14.947,14.947,0,0,0,2.972-4.908,12.288,12.288,0,0,0,.657-2.367l1.417.379a6.859,6.859,0,0,0-.259.779,24.028,24.028,0,0,1-1.434,3.508v8.952a17.84,17.84,0,0,0,.086,2.022h-1.469a17.7,17.7,0,0,0,.1-2.056Zm7.76-4.46a11.48,11.48,0,0,1-1.659,2.938v6.291c1.244-.311,1.935-.536,3.56-1.088l.017,1.279c-1.486.5-2.351.76-3.664,1.123-.328.086-.328.086-1.832.449-.294.069-.294.069-.691.173-.484.121-.484.121-.709.19l-.259-1.418a13.576,13.576,0,0,0,2.3-.4v-5.064A13.578,13.578,0,0,1,109.409,166a4.461,4.461,0,0,0-.813-1.124,11.686,11.686,0,0,0,4.771-5.34h-2.213a13.01,13.01,0,0,0-1.711.087v-1.384a10.994,10.994,0,0,0,1.711.1H114.2V156.77a5.543,5.543,0,0,0-.1-1.3h1.52a7.626,7.626,0,0,0-.086,1.313v1.556h3.457a11.767,11.767,0,0,0,1.8-.1v1.4a13.279,13.279,0,0,0-1.8-.1h-3.025a16.766,16.766,0,0,0,.778,3.681,10.736,10.736,0,0,0,2.92-2.592l1,.967a22.719,22.719,0,0,1-3.457,2.8,12.976,12.976,0,0,0,4.114,5.063,6.177,6.177,0,0,0-.882,1.262c-3.474-2.99-5.1-6.17-5.669-11.182Z"/><path class="cls-1" d="M133.459,158.516a12.411,12.411,0,0,0-1.539-.07h-1.538v1.5h1.193a11.018,11.018,0,0,0,1.486-.069,9.337,9.337,0,0,0-.052,1.348v1.884a9.887,9.887,0,0,0,.052,1.4,11.151,11.151,0,0,0-1.452-.068h-.933a10.6,10.6,0,0,0,2.765,2.782,3.709,3.709,0,0,0-.691,1.089,9.937,9.937,0,0,1-2.454-2.938c.051.709.086,1.313.086,1.831v2.04a9.75,9.75,0,0,0,.1,1.849h-1.365a12.112,12.112,0,0,0,.1-1.849V167.26a16,16,0,0,1,.086-1.8,11.853,11.853,0,0,1-2.972,4.114,3.216,3.216,0,0,0-.795-1.073,12.179,12.179,0,0,0,3.336-4.06h-.9a11.319,11.319,0,0,0-1.452.068,11.681,11.681,0,0,0,.069-1.485v-1.695a11.1,11.1,0,0,0-.069-1.451,12.593,12.593,0,0,0,1.607.069h1.089v-1.5H127.79a11.484,11.484,0,0,0-1.729.087V157.2a11.228,11.228,0,0,0,1.729.086h1.434V157.2a10.432,10.432,0,0,0-.1-1.712h1.348a10.228,10.228,0,0,0-.087,1.66v.138h1.538c.709,0,1.072-.017,1.435-.051v-1.314a9.325,9.325,0,0,0,1.711.1h4.718a10.616,10.616,0,0,0,1.746-.1v1.365a11.9,11.9,0,0,0-1.746-.086h-1.642a15.535,15.535,0,0,1-.622,1.711h1.763c.846,0,1.21-.018,1.607-.051-.035.431-.052.95-.052,1.607v5.651c0,.639.017,1.158.052,1.694-.535-.035-.95-.052-1.486-.052h-3.993c-.6,0-1.054.017-1.452.052.035-.536.053-.917.053-1.573v-5.756a14.4,14.4,0,0,0-.069-1.623c.38.033.76.051,1.5.051h.8a12.838,12.838,0,0,0,.6-1.711h-2.039a8.412,8.412,0,0,0-1.348.069Zm-5.721,2.523v2.332h1.486v-2.332Zm2.644,2.332h1.5v-2.332h-1.5Zm6.187,5.324a10.762,10.762,0,0,1-3.612,2.575,3.411,3.411,0,0,0-.829-1.019,8.2,8.2,0,0,0,2.022-1.02,7.441,7.441,0,0,0,1.434-1.279ZM135.2,161.47h4.425V160H135.2Zm0,2.541h4.425v-1.468H135.2Zm0,2.627h4.425v-1.555H135.2Zm3.647,1.314a8.924,8.924,0,0,0,3.2,2.315,3.632,3.632,0,0,0-.882,1,11.842,11.842,0,0,1-3.231-2.593Z"/><path class="cls-1" d="M106.955,296.8c0-.623.017-1.262.051-2.022a9.465,9.465,0,0,1-1.4,2.039,5.081,5.081,0,0,0-.726-1.279,14.947,14.947,0,0,0,2.972-4.908,12.288,12.288,0,0,0,.657-2.367l1.417.379a6.9,6.9,0,0,0-.259.778,23.99,23.99,0,0,1-1.434,3.509v8.952a17.84,17.84,0,0,0,.086,2.022h-1.469a17.716,17.716,0,0,0,.1-2.056Zm7.76-4.459a11.48,11.48,0,0,1-1.659,2.938v6.291c1.244-.311,1.935-.536,3.56-1.089l.017,1.28c-1.486.5-2.351.76-3.664,1.122-.328.087-.328.087-1.832.45-.294.069-.294.069-.691.173-.484.121-.484.121-.709.189l-.259-1.417a13.684,13.684,0,0,0,2.3-.4V296.82a13.578,13.578,0,0,1-2.368,1.988,4.461,4.461,0,0,0-.813-1.124,11.686,11.686,0,0,0,4.771-5.34h-2.213a13.01,13.01,0,0,0-1.711.087v-1.384a10.994,10.994,0,0,0,1.711.1H114.2v-1.574a5.553,5.553,0,0,0-.1-1.3h1.52a7.645,7.645,0,0,0-.086,1.314v1.556h3.457a11.767,11.767,0,0,0,1.8-.1v1.4a13.279,13.279,0,0,0-1.8-.1h-3.025a16.766,16.766,0,0,0,.778,3.681,10.737,10.737,0,0,0,2.92-2.593l1,.968a22.719,22.719,0,0,1-3.457,2.8,12.976,12.976,0,0,0,4.114,5.063,6.2,6.2,0,0,0-.882,1.261c-3.474-2.989-5.1-6.169-5.669-11.181Z"/><path class="cls-1" d="M133.459,291.325a12.411,12.411,0,0,0-1.539-.07h-1.538v1.5h1.193a11.018,11.018,0,0,0,1.486-.069,9.337,9.337,0,0,0-.052,1.348v1.884a9.887,9.887,0,0,0,.052,1.4,10.975,10.975,0,0,0-1.452-.068h-.933a10.6,10.6,0,0,0,2.765,2.782,3.718,3.718,0,0,0-.691,1.088,9.921,9.921,0,0,1-2.454-2.937c.051.708.086,1.313.086,1.831v2.04a9.75,9.75,0,0,0,.1,1.849h-1.365a12.112,12.112,0,0,0,.1-1.849v-1.988a16,16,0,0,1,.086-1.8,11.853,11.853,0,0,1-2.972,4.114,3.216,3.216,0,0,0-.795-1.073,12.179,12.179,0,0,0,3.336-4.06h-.9a11.138,11.138,0,0,0-1.452.068,11.688,11.688,0,0,0,.069-1.486v-1.694a11.1,11.1,0,0,0-.069-1.451,12.593,12.593,0,0,0,1.607.069h1.089v-1.5H127.79a11.645,11.645,0,0,0-1.729.086v-1.33a11.228,11.228,0,0,0,1.729.086h1.434v-.086a10.432,10.432,0,0,0-.1-1.712h1.348a10.228,10.228,0,0,0-.087,1.66v.138h1.538c.709,0,1.072-.017,1.435-.051v-1.314a9.325,9.325,0,0,0,1.711.1h4.718a10.616,10.616,0,0,0,1.746-.1V290.1a11.9,11.9,0,0,0-1.746-.086h-1.642a15.611,15.611,0,0,1-.622,1.711h1.763c.846,0,1.21-.018,1.607-.052-.035.432-.052.95-.052,1.607v5.652c0,.639.017,1.158.052,1.694-.535-.035-.95-.052-1.486-.052h-3.993c-.6,0-1.054.017-1.452.052.035-.536.053-.917.053-1.574v-5.755a14.425,14.425,0,0,0-.069-1.624c.38.034.76.052,1.5.052h.8a12.838,12.838,0,0,0,.6-1.711h-2.039a8.412,8.412,0,0,0-1.348.069Zm-5.721,2.523v2.332h1.486v-2.332Zm2.644,2.332h1.5v-2.332h-1.5Zm6.187,5.324a10.762,10.762,0,0,1-3.612,2.575,3.415,3.415,0,0,0-.829-1.02,8.169,8.169,0,0,0,2.022-1.019,7.474,7.474,0,0,0,1.434-1.279Zm-1.365-7.225h4.425V292.81H135.2Zm0,2.541h4.425v-1.469H135.2Zm0,2.627h4.425v-1.555H135.2Zm3.647,1.314a8.924,8.924,0,0,0,3.2,2.315,3.632,3.632,0,0,0-.882,1,11.842,11.842,0,0,1-3.231-2.593Z"/><rect class="cls-4" x="281.398" y="375.017" width="25" height="51" transform="translate(694.414 106.619) rotate(90)"/><polygon class="cls-4" points="292.731 438.017 336.032 405.017 249.43 405.017 292.731 438.017"/><rect class="cls-4" y="518.481" width="78" height="331"/><path class="cls-3" d="M36.732,658.558a8.048,8.048,0,0,1-.215,2.295,2.372,2.372,0,0,1-2.484,1.566,8.4,8.4,0,0,1-5.1-1.917,3.965,3.965,0,0,1-1.485-3.05,5.761,5.761,0,0,1,2.322-4,14.43,14.43,0,0,1,3.94-2.294l-.026-4.157c-.217,0-.217,0-1.107.053-.405.028-.783.028-1.458.028-.4,0-1.16-.028-1.485-.028-.35-.026-.593-.026-.675-.026a5.249,5.249,0,0,0-.566.026l-.027-3.022a16.641,16.641,0,0,0,3.266.242c.27,0,.567,0,.945-.026.648-.028.782-.028,1.079-.028v-1.781a18.618,18.618,0,0,0-.161-3.1h3.374a16.468,16.468,0,0,0-.162,2.942v1.727a30.094,30.094,0,0,0,5.209-1.025l.108,3.022c-.485.082-1,.163-2.861.487-.891.162-1.431.243-2.456.35v3.509a18.742,18.742,0,0,1,5.506-.756c4.508,0,7.72,2.754,7.72,6.587a6,6,0,0,1-6.127,6.155,4.357,4.357,0,0,1-4.427-3,9.015,9.015,0,0,1-.459-3.455,11.416,11.416,0,0,0,3-1.187,9.347,9.347,0,0,0-.054,1.187,5.2,5.2,0,0,0,.378,2.375,1.865,1.865,0,0,0,1.7.918,2.773,2.773,0,0,0,2.726-3c0-2.321-1.89-3.833-4.778-3.833a17.27,17.27,0,0,0-5.182.891Zm-3.049-4.345c-2.025,1.08-3.213,2.267-3.213,3.239,0,.459.27.863.891,1.241a3.245,3.245,0,0,0,1.727.594c.459,0,.595-.242.595-1.133Zm14.953-5.453a23.061,23.061,0,0,0-5.4-5.831l2.537-1.7a22.907,22.907,0,0,1,5.345,5.533Z"/><path class="cls-3" d="M30.74,689.771c0-.54,0-.809-.027-1.322-1.052.269-1.566.4-3.05.728a8.179,8.179,0,0,0-1.268-2.618,41.408,41.408,0,0,0,6.046-1.377,36.171,36.171,0,0,0,4.022-1.592,19.167,19.167,0,0,1-2.619-2.16,21.334,21.334,0,0,1-4.7,2.889,7.919,7.919,0,0,0-1.646-2.1,21.939,21.939,0,0,0,6.856-4.508,7.264,7.264,0,0,0,1.512-1.89H30.2v3.563H27.285a11.567,11.567,0,0,0,.135-2.025v-2.186a14.584,14.584,0,0,0-.108-2,25.523,25.523,0,0,0,3.077.134h6.965v-.378a8.228,8.228,0,0,0-.136-1.781h3.347A7.819,7.819,0,0,0,40.4,672.9v.4h7.207a25.879,25.879,0,0,0,3.158-.134,13.6,13.6,0,0,0-.108,2v2.241a10.837,10.837,0,0,0,.135,2.024H47.854v-3.617H36.247l2.51.7c-.027.028-.3.352-.837.972H43a15.388,15.388,0,0,0,2.186-.108l1.863,1.485c-.243.243-.243.243-.729.783a30.358,30.358,0,0,1-4.562,3.941,31.5,31.5,0,0,0,9.988,2.294,10.475,10.475,0,0,0-1.242,3.023c-1.3-.242-1.674-.323-2.942-.62-.027.7-.027.782-.027,1.511v3.752a15.894,15.894,0,0,0,.135,2.484h-3v-1H33.575v.971h-2.97c.081-.864.135-1.646.135-2.483Zm14.144-2.214a28.3,28.3,0,0,1-5.749-2.347,29.49,29.49,0,0,1-5.588,2.347Zm-11.309,5.022H44.668v-2.565H33.575Zm2.159-12.714a22.757,22.757,0,0,0,3.32,2.375,23.043,23.043,0,0,0,3.374-2.484H35.842Z"/><path class="cls-3" d="M37.705,717.069a16.757,16.757,0,0,0-2.484.135v-1.863a11.018,11.018,0,0,0-1.053,2.375,13.851,13.851,0,0,1-1.376-3c.054,1.647.081,2.97.081,3.752v6.857a26.3,26.3,0,0,0,.162,3.293H29.984a27.211,27.211,0,0,0,.162-3.293v-5.588c.054-2.025.108-3.293.162-3.752a21.143,21.143,0,0,1-2.753,6.4,14.144,14.144,0,0,0-1.377-3.32,16.328,16.328,0,0,0,2.565-4.589,18.828,18.828,0,0,0,1.026-3.346h-1.08a10.759,10.759,0,0,0-1.809.108v-2.808a10.162,10.162,0,0,0,1.809.108h1.457V706.38a16.967,16.967,0,0,0-.162-2.807h3.051a15.6,15.6,0,0,0-.162,2.807v2.159H33.6a8.018,8.018,0,0,0,1.538-.108v2.781a13.745,13.745,0,0,0-1.565-.081h-.6a10.68,10.68,0,0,0,2.241,3.643v-.242a19.313,19.313,0,0,0,2.753.135H41.24v-1.485H38.757a19.657,19.657,0,0,0-2.537.108v-2.537a19.771,19.771,0,0,0,2.483.108H41.24v-1.4H38.3a16.537,16.537,0,0,0-2.564.134V706.92a17.484,17.484,0,0,0,2.564.134h.378a12.1,12.1,0,0,0-1.538-2.618l2.537-.863a18.5,18.5,0,0,1,1.782,3.481h2.4a13.8,13.8,0,0,0,1.62-3.481l2.888.782a26.368,26.368,0,0,1-1.566,2.7h1.323a18.894,18.894,0,0,0,2.7-.162v2.7a18.8,18.8,0,0,0-2.673-.134H44.021v1.4h3.32a17.324,17.324,0,0,0,2.7-.136v2.592a17.044,17.044,0,0,0-2.7-.135h-3.32v1.485h4.373a21,21,0,0,0,2.807-.162v2.726a23.45,23.45,0,0,0-2.807-.162H44.209a10.726,10.726,0,0,0,1.7,3.158,13.444,13.444,0,0,0,2.484-2.97l2.213,1.567a22.706,22.706,0,0,1-3.077,3.293,13.98,13.98,0,0,0,4.292,2.888,12.135,12.135,0,0,0-1.782,2.672,15.624,15.624,0,0,1-3.239-2.564,14.131,14.131,0,0,1-2.888-4.4c.081,1.214.081,1.43.081,1.944v3.752c0,1.538-.864,2.078-3.374,2.078-.4,0-1.161-.027-1.944-.081a7.214,7.214,0,0,0-.729-2.727,12.054,12.054,0,0,0,2.565.244c.567,0,.728-.135.728-.622v-2.537a37.385,37.385,0,0,1-5.182,3.428c-.216.136-.756.514-1.161.783l-1.106-2.888A13.057,13.057,0,0,0,36,723.2a34.648,34.648,0,0,0,5.236-3.158v-2.969Zm-.622.216a16.077,16.077,0,0,1,2.7,3.05l-2,1.511a17.421,17.421,0,0,0-2.591-3.077Z"/><line class="cls-5" x1="63.938" y1="681.75" x2="175.438" y2="681.75"/><path class="cls-4" d="M98.194,663.057A16.223,16.223,0,0,0,96,662.945H86.237a17.049,17.049,0,0,0-2.225.112v-1.585a16.259,16.259,0,0,0,2.225.112H96a15.314,15.314,0,0,0,2.193-.112Z"/><path class="cls-4" d="M102.861,656.878a11.942,11.942,0,0,0-.1-1.633h1.425a9.406,9.406,0,0,0-.112,1.6v1.473h.288a7.158,7.158,0,0,0,1.28-.081v1.233a10.53,10.53,0,0,0-1.28-.064h-.288v3.057a17.041,17.041,0,0,0,1.6-.624l.047,1.12c-.688.3-.912.4-1.648.673v4.8c0,.96-.432,1.217-2.033,1.217-.256,0-.48,0-.96-.033a3.344,3.344,0,0,0-.272-1.2,10.846,10.846,0,0,0,1.536.112c.416,0,.513-.1.513-.431v-4.034c-.593.208-.593.208-1.169.4-.368.128-.577.208-.768.288l-.288-1.3a10.985,10.985,0,0,0,2.225-.592v-3.457h-.817a8.832,8.832,0,0,0-1.3.081v-1.265a8.064,8.064,0,0,0,1.3.1h.817Zm6.738.672c-1.408.208-2,.288-3.185.4a3.725,3.725,0,0,0-.5-1.136,25.364,25.364,0,0,0,6-.9,6.9,6.9,0,0,0,1.761-.7l.784,1.137c-.224.064-.272.08-.592.176a25.953,25.953,0,0,1-3.057.8v2.721h2.753a11.578,11.578,0,0,0,1.68-.1v1.329a13.411,13.411,0,0,0-1.68-.1h-2.753v2.56h2.224a8.166,8.166,0,0,0,1.217-.063,10.38,10.38,0,0,0-.064,1.376v3.17a13.9,13.9,0,0,0,.08,1.6h-1.328v-.864h-5.411v.864h-1.28a14.324,14.324,0,0,0,.08-1.6v-3.2a11.478,11.478,0,0,0-.064-1.345,8.324,8.324,0,0,0,1.152.063H109.6v-2.56H107.31a12.206,12.206,0,0,0-1.68.1v-1.329a13.052,13.052,0,0,0,1.68.1H109.6Zm-2.049,10.309h5.411v-3.026H107.55Z"/><path class="cls-4" d="M118.06,657.79l.576.017c.224,0,.433-.017.929-.049,2.24-.16,6.626-.416,9.267-.528a11.808,11.808,0,0,0,1.873-.159l.112,1.423h-.192a7.707,7.707,0,0,0-4.082,1.362A5.1,5.1,0,0,0,124,663.937c0,1.408.817,2.369,2.417,2.9a7.589,7.589,0,0,0,2.4.416l-.224,1.553a3.155,3.155,0,0,0-.512-.1,8.8,8.8,0,0,1-3.537-1.184,4,4,0,0,1-1.905-3.458c0-2.337,1.584-4.418,4.29-5.634a34.476,34.476,0,0,1-3.522.351,44.9,44.9,0,0,0-5.266.513Zm10.836,2.53a12.569,12.569,0,0,1,1.681,2.48l-.944.528a11.2,11.2,0,0,0-1.665-2.528Zm1.824-.865a11.883,11.883,0,0,1,1.681,2.433l-.928.528a11.757,11.757,0,0,0-1.648-2.481Z"/><path class="cls-4" d="M135.852,663.217c0-.577.016-1.169.048-1.873a8.725,8.725,0,0,1-1.3,1.889,4.631,4.631,0,0,0-.672-1.185,13.843,13.843,0,0,0,2.753-4.546,11.309,11.309,0,0,0,.609-2.192l1.312.351a6.234,6.234,0,0,0-.24.721,22.319,22.319,0,0,1-1.328,3.249v8.291a16.491,16.491,0,0,0,.08,1.873h-1.361a16.387,16.387,0,0,0,.1-1.9Zm7.187-4.13a10.642,10.642,0,0,1-1.536,2.721v5.826c1.152-.288,1.792-.5,3.3-1.008l.015,1.185c-1.376.464-2.177.7-3.392,1.04-.305.08-.305.08-1.7.416-.271.064-.271.064-.639.16-.449.112-.449.112-.657.176l-.24-1.313a12.546,12.546,0,0,0,2.129-.368v-4.689a12.6,12.6,0,0,1-2.193,1.84,4.144,4.144,0,0,0-.752-1.041,10.822,10.822,0,0,0,4.418-4.945h-2.049a12.19,12.19,0,0,0-1.585.08v-1.281a10.282,10.282,0,0,0,1.585.1h2.816v-1.457a5.133,5.133,0,0,0-.095-1.2h1.408a7.065,7.065,0,0,0-.08,1.217v1.441h3.2a11.013,11.013,0,0,0,1.664-.1v1.3a12.281,12.281,0,0,0-1.664-.1h-2.8a15.45,15.45,0,0,0,.721,3.409,9.971,9.971,0,0,0,2.7-2.4l.928.9a21.052,21.052,0,0,1-3.2,2.594,12.028,12.028,0,0,0,3.809,4.69,5.693,5.693,0,0,0-.816,1.168c-3.217-2.769-4.722-5.714-5.25-10.356Z"/><path class="cls-4" d="M158,658.143a11.516,11.516,0,0,0-1.425-.065h-1.425v1.393h1.1a10.243,10.243,0,0,0,1.377-.064,8.509,8.509,0,0,0-.049,1.248V662.4a9.012,9.012,0,0,0,.049,1.3,10.179,10.179,0,0,0-1.345-.064h-.864a9.8,9.8,0,0,0,2.56,2.577,3.424,3.424,0,0,0-.639,1.008,9.183,9.183,0,0,1-2.274-2.721c.048.657.08,1.216.08,1.7v1.888a9.1,9.1,0,0,0,.1,1.713h-1.264a11.182,11.182,0,0,0,.1-1.713v-1.841a14.759,14.759,0,0,1,.08-1.664,11,11,0,0,1-2.753,3.81,2.971,2.971,0,0,0-.736-.993,11.284,11.284,0,0,0,3.089-3.761h-.832a10.315,10.315,0,0,0-1.345.064,10.862,10.862,0,0,0,.064-1.376v-1.57a10.318,10.318,0,0,0-.064-1.344,11.688,11.688,0,0,0,1.488.064h1.009v-1.393h-1.328a10.782,10.782,0,0,0-1.6.08v-1.232a10.381,10.381,0,0,0,1.6.08h1.328v-.08a9.62,9.62,0,0,0-.1-1.585h1.248a9.582,9.582,0,0,0-.08,1.537v.128h1.425a13.091,13.091,0,0,0,1.328-.048v-1.217a8.527,8.527,0,0,0,1.585.1h4.37a9.675,9.675,0,0,0,1.616-.1v1.265a10.977,10.977,0,0,0-1.616-.08h-1.52a14.645,14.645,0,0,1-.577,1.585h1.632c.785,0,1.121-.017,1.49-.048-.033.4-.049.88-.049,1.488v5.235c0,.592.016,1.072.049,1.568-.5-.032-.881-.048-1.377-.048h-3.7c-.56,0-.976.016-1.344.048.032-.5.048-.849.048-1.457v-5.33a13.17,13.17,0,0,0-.064-1.5c.352.031.7.048,1.393.048h.736a12.11,12.11,0,0,0,.56-1.585h-1.889a7.812,7.812,0,0,0-1.248.064Zm-5.3,2.337v2.16h1.377v-2.16Zm2.449,2.16h1.393v-2.16h-1.393Zm5.731,4.931a9.967,9.967,0,0,1-3.346,2.384,3.162,3.162,0,0,0-.768-.944,7.552,7.552,0,0,0,1.872-.944,6.911,6.911,0,0,0,1.33-1.185Zm-1.265-6.692h4.1v-1.36h-4.1Zm0,2.354h4.1v-1.361h-4.1Zm0,2.432h4.1v-1.44h-4.1Zm3.378,1.217a8.281,8.281,0,0,0,2.961,2.145,3.378,3.378,0,0,0-.817.928,10.947,10.947,0,0,1-2.993-2.4Z"/><rect class="cls-6" x="174.962" y="515.75" width="410.5" height="331"/><path class="cls-4" d="M284.1,559.213,252.544,567v46.458l31.527,2.714,17.188-2.921V566.173Zm-3.378,52.477-10.3-.887v-8.836l-6.128-.075v8.383l-7.576-.652V570.266l24-5.92Z"/><polygon class="cls-4" points="278.598 567.771 273.624 568.815 273.624 574.67 278.598 573.813 278.598 567.771"/><polygon class="cls-4" points="261.614 571.675 258.148 572.408 258.148 577.547 261.614 576.952 261.614 571.675"/><polygon class="cls-4" points="269.561 569.885 265.157 570.807 265.157 576.236 269.561 575.476 269.561 569.885"/><polygon class="cls-4" points="261.614 581.815 258.148 582.289 258.148 587.437 261.614 587.092 261.614 581.815"/><polygon class="cls-4" points="269.561 580.659 265.157 581.256 265.157 586.684 269.561 586.25 269.561 580.659"/><polygon class="cls-4" points="278.598 579.352 273.624 580.026 273.624 585.789 278.598 585.299 278.598 579.352"/><polygon class="cls-4" points="278.598 591.043 273.624 591.349 273.624 597.113 278.598 596.99 278.598 591.043"/><polygon class="cls-4" points="269.561 591.637 265.157 591.908 265.157 597.336 269.561 597.228 269.561 591.637"/><polygon class="cls-4" points="261.614 592.162 258.148 592.378 258.148 597.525 261.614 597.439 261.614 592.162"/><path class="cls-4" d="M321.3,597.561a39.219,39.219,0,0,0-4.788.168v-5.1a28.947,28.947,0,0,0,4.872.224h11.2V581.908H321.723c-2.576,0-3.639.029-4.816.14v-5.1a29.323,29.323,0,0,0,4.9.252h12.852c1.513,0,2.3-.028,3.108-.084-.055.981-.084,1.456-.084,2.857v14.615a42.522,42.522,0,0,0,.168,4.62h-5.263v-1.651Z"/><path class="cls-4" d="M357,576.168a11.134,11.134,0,0,0-.729,2.072c-2.183,7.252-3.388,10.808-5.208,15.456a86.127,86.127,0,0,0,9.605-1.091,46.181,46.181,0,0,0-3.529-6.665l4.4-1.68a60.358,60.358,0,0,1,6.664,13.385l-4.788,2.435a21.457,21.457,0,0,0-1.035-3.136c-4,.7-6.861,1.092-11.2,1.54l-6.412.616a14.7,14.7,0,0,0-1.54.253l-.727-5.237c.531.029.756.029.895.029a6.9,6.9,0,0,0,.7-.029l.869-.028a5.36,5.36,0,0,0,.7-.027,128.793,128.793,0,0,0,4.648-13.916,24.816,24.816,0,0,0,1.092-5.013Z"/><path class="cls-4" d="M377.3,597.561a39.219,39.219,0,0,0-4.788.168v-5.1a28.947,28.947,0,0,0,4.872.224h11.2V581.908H377.723c-2.576,0-3.639.029-4.816.14v-5.1a29.323,29.323,0,0,0,4.9.252h12.852c1.513,0,2.3-.028,3.108-.084-.055.981-.084,1.456-.084,2.857v14.615a42.522,42.522,0,0,0,.168,4.62h-5.263v-1.651Z"/><path class="cls-4" d="M417.567,584.876h3.3a25.733,25.733,0,0,0,3.276-.168v4.284a27.483,27.483,0,0,0-3.3-.168h-2.1a17.5,17.5,0,0,0,2.856,3.556,15.834,15.834,0,0,0,3.416,2.464,21.651,21.651,0,0,0-2.1,4.425,18.352,18.352,0,0,1-5.487-6.5c.055.895.083,1.791.083,2.491v1.988a32.213,32.213,0,0,0,.168,3.556h-4.423a33.2,33.2,0,0,0,.168-3.556v-1.708c0-.756.027-1.6.084-2.66a18.5,18.5,0,0,1-5.825,6.272,17.825,17.825,0,0,0-2.267-3.78v1.792a32.338,32.338,0,0,0,.168,3.612h-4.425a33.311,33.311,0,0,0,.168-3.612v-3.78c0-.615.028-1.708.084-2.688a15.012,15.012,0,0,1-2.184,4.508,22.228,22.228,0,0,0-1.372-4.76,19.313,19.313,0,0,0,3.164-7.42h-.643a7.746,7.746,0,0,0-1.792.14V579a7.541,7.541,0,0,0,1.792.14h.924v-1.82a19.711,19.711,0,0,0-.168-2.912h4.452a19.7,19.7,0,0,0-.168,2.912v1.82h.5a5.968,5.968,0,0,0,1.288-.112v1.96a17.169,17.169,0,0,0,1.539-5.879l3.892.979c-.112.364-.2.7-.419,1.652-.057.2-.057.224-.168.7h1.372V577.26a20.047,20.047,0,0,0-.168-2.827h4.479a19.347,19.347,0,0,0-.168,2.827v1.177h2.548a25.31,25.31,0,0,0,3.276-.168v4.283a27.824,27.824,0,0,0-3.3-.168h-2.521Zm-12.151,10.36a16.934,16.934,0,0,0,3.668-2.688,16.463,16.463,0,0,0,2.939-3.724H411.1a20.671,20.671,0,0,0-3.3.2v-1.569c-.449,1.092-.925,2.408-1.2,3.361a9.445,9.445,0,0,1-1.233-2.353c.028.756.057,1.82.057,2.856Zm2.38-10.556a10.585,10.585,0,0,0,1.456.169,14.979,14.979,0,0,0-2.044-1.737v.029a5.509,5.509,0,0,0-1.2-.113h-.5a11.179,11.179,0,0,0,2.3,3.7Zm3.023-2.3a17.5,17.5,0,0,1-1.147,2.465c.588.027.867.027,1.427.027h2.325v-2.492Z"/><path class="cls-4" d="M430.5,589.048c-1.009,0-2.212.057-3.08.112v-4.032a29.984,29.984,0,0,0,3.191.141h6.328a29.216,29.216,0,0,0,3.136-.141v4.032c-.867-.055-2.071-.112-3.108-.112H435.88v5.181c1.763-.309,2.8-.533,5.235-1.093v3.976c-5.235,1.2-7.924,1.708-12.124,2.325a19.562,19.562,0,0,0-1.932.336l-.616-4.4a39.169,39.169,0,0,0,5.236-.5v-5.824Zm18.759-10.388a16.007,16.007,0,0,0,2.716-.139v4.255a30.744,30.744,0,0,0-3.639-.168h-3.221a32.557,32.557,0,0,0,1.372,8.6,12.239,12.239,0,0,0,1.96,3.976,14.869,14.869,0,0,0,.784-4.088,15.855,15.855,0,0,0,3.472,2.072,15.18,15.18,0,0,1-1.6,5.768,2.853,2.853,0,0,1-2.38,1.568c-1.624,0-3.471-1.624-4.9-4.34-1.68-3.164-2.659-7.475-3.024-13.552H430.139c-1.316,0-2.408.056-3.639.168v-4.284a31.5,31.5,0,0,0,3.639.168h10.529a30.939,30.939,0,0,0-.225-3.948h4.62a10.216,10.216,0,0,0-.112,1.652c0,.252,0,.84.028,2.3h2.576a14.182,14.182,0,0,0-2.127-2.408l3.191-1.624a22.561,22.561,0,0,1,2.52,2.912l-2.184,1.12Z"/><path class="cls-4" d="M459.819,584.456a25.324,25.324,0,0,1-3.92,1.9,18.3,18.3,0,0,0-2.1-4.116,21.321,21.321,0,0,0,6.439-3.08,16.612,16.612,0,0,0,4.7-4.536h4.536a16.451,16.451,0,0,0,4.733,4.312,24.14,24.14,0,0,0,6.691,3.108,18.744,18.744,0,0,0-1.96,4.424,26.051,26.051,0,0,1-4.172-2.044v1.6a24.215,24.215,0,0,0-2.66-.112h-9.66a26.089,26.089,0,0,0-2.632.112Zm-1.26,6.972a29.223,29.223,0,0,0-3.416.168v-4.283c.981.084,2.128.139,3.416.139h17.584c1.344,0,2.38-.055,3.388-.139V591.6a28.7,28.7,0,0,0-3.388-.168h-2.772a61.41,61.41,0,0,1,5.908,7.224l-3.864,2.38c-.644-1.008-.644-1.008-1.316-2.072-3.248.364-3.248.364-4.788.5-1.847.2-9.408.84-10.584.9-.98.084-1.763.168-2.464.28l-.532-4.676c.729.057,1.233.084,1.848.084.308,0,.308,0,1.961-.056a33.9,33.9,0,0,0,2.435-4.564Zm12.657-9.3a20.628,20.628,0,0,1-3.92-3.724,19.585,19.585,0,0,1-3.949,3.724Zm-4.313,9.3a35.422,35.422,0,0,1-2.435,4.425c4.087-.168,4.087-.168,7-.421-.785-.951-1.176-1.4-2.38-2.688l3.3-1.316Z"/><path class="cls-4" d="M490.283,597.784a27.458,27.458,0,0,0,.112,2.968h-4.479a21.512,21.512,0,0,0,.168-3.08v-5.684a19.617,19.617,0,0,1-2.492,1.764,15.681,15.681,0,0,0-1.792-4.2,16.89,16.89,0,0,0,4.368-3.192,12.324,12.324,0,0,0,2.911-3.892h-3.947a18.93,18.93,0,0,0-2.437.112v-4.143a14.69,14.69,0,0,0,2.156.111h1.26v-2.071a13.087,13.087,0,0,0-.168-2.128H490.4a12.075,12.075,0,0,0-.139,2.155v2.044h.755a9.848,9.848,0,0,0,1.625-.084l1.819,1.933a9.5,9.5,0,0,0-.644,1.315,23.007,23.007,0,0,1-2.519,4.564,13.631,13.631,0,0,0,4.479,3.36,19.723,19.723,0,0,0-2.1,4,13,13,0,0,1-3.389-2.884Zm12.349-1.96h2.239a29.9,29.9,0,0,0,3.416-.139v4.4c-1.176-.112-2.3-.168-3.388-.168h-9.1a32.108,32.108,0,0,0-3.277.168v-4.4a30.382,30.382,0,0,0,3.361.139h2.323V585.576h-1.455c-.952,0-1.849.056-2.744.14v-4.34a18.409,18.409,0,0,0,2.744.141h1.455v-3.781a24.374,24.374,0,0,0-.2-3.3H502.8a22.759,22.759,0,0,0-.168,3.3v3.781h2.212a18.364,18.364,0,0,0,2.771-.141v4.34c-.924-.084-1.792-.14-2.771-.14h-2.212Z"/><path class="cls-4" d="M292.967,646.681a12.452,12.452,0,0,0-.736,1.512,34.909,34.909,0,0,1-2.96,5.941,50.339,50.339,0,0,1,4.682,4.451l-2.016,2.163a31.261,31.261,0,0,0-4.261-4.43,24.081,24.081,0,0,1-3.276,3.506,26.573,26.573,0,0,1-5,3.464,6.513,6.513,0,0,0-1.847-2.183,22.7,22.7,0,0,0,8.1-6.488,37.631,37.631,0,0,0-5.564-3.779l1.847-1.848c1.533.9,2.436,1.491,3.465,2.226,1.574,1.134,1.574,1.134,1.742,1.238a25.659,25.659,0,0,0,2.961-6.76Z"/><path class="cls-4" d="M299.5,659.992a20,20,0,0,0,6.215-1.553,14.028,14.028,0,0,0,6.236-5.145,17.528,17.528,0,0,0,2.142-4.2,9.033,9.033,0,0,0,2.225,2.058,18.423,18.423,0,0,1-6.656,8.23,22.66,22.66,0,0,1-8,3.149,7.417,7.417,0,0,0-1.386.358Zm1.785-13.039a29.766,29.766,0,0,1,5.417,4.053l-1.806,2.288a22.044,22.044,0,0,0-5.354-4.262Z"/><path class="cls-4" d="M330.158,653.946a11.374,11.374,0,0,1-1.47,5.647c-1.112,1.848-2.645,3-5.479,4.137a6.666,6.666,0,0,0-1.7-2.31c2.519-.777,4.094-1.89,4.976-3.507a8.912,8.912,0,0,0,.924-3.967h-5.123a20.825,20.825,0,0,0-2.667.1v-2.5a14.8,14.8,0,0,0,2.709.146h12.282a14.937,14.937,0,0,0,2.709-.146v2.5a20.825,20.825,0,0,0-2.667-.1Zm-8.419-7.685a14.257,14.257,0,0,0,2.708.146h8.063a14.282,14.282,0,0,0,2.709-.146v2.561a19.8,19.8,0,0,0-2.667-.105H324.4a19.766,19.766,0,0,0-2.666.105Z"/><path class="cls-4" d="M355.547,650.565a15.036,15.036,0,0,0,2.729-.147v2.646a21.517,21.517,0,0,0-2.687-.106h-4.305c-.188,2.919-.546,4.305-1.512,5.921a12.628,12.628,0,0,1-5.353,4.7,6.528,6.528,0,0,0-1.911-2.267,9.7,9.7,0,0,0,5.06-4.136,9.079,9.079,0,0,0,1.029-4.221H343.39a21.525,21.525,0,0,0-2.688.106v-2.646a15.179,15.179,0,0,0,2.73.147h5.291c.021-.882.021-1.26.021-1.638v-1.238a13.2,13.2,0,0,0-.105-2.016h2.9a13.145,13.145,0,0,0-.1,2.016l-.022,1.259c-.02,1.386-.02,1.386-.02,1.617Z"/><path class="cls-4" d="M362.5,659.992a20,20,0,0,0,6.215-1.553,14.028,14.028,0,0,0,6.236-5.145,17.528,17.528,0,0,0,2.142-4.2,9.033,9.033,0,0,0,2.225,2.058,18.423,18.423,0,0,1-6.656,8.23,22.66,22.66,0,0,1-8,3.149,7.417,7.417,0,0,0-1.386.358Zm1.785-13.039a29.766,29.766,0,0,1,5.417,4.053l-1.806,2.288a22.044,22.044,0,0,0-5.354-4.262Z"/><path class="cls-4" d="M398.555,663.2a40.4,40.4,0,0,0-6.447-6.235,24.942,24.942,0,0,1-8,6.067,8.434,8.434,0,0,0-1.7-2.33,17.343,17.343,0,0,0,4.2-2.309,20.235,20.235,0,0,0,7.055-8.546l.231-.546c-.335.021-.335.021-6.95.126a16.534,16.534,0,0,0-2.288.168l-.084-2.688a9.117,9.117,0,0,0,1.848.126h.5l7.39-.1a4.544,4.544,0,0,0,1.869-.232l1.385,1.428a4.1,4.1,0,0,0-.672,1.134,27.757,27.757,0,0,1-3.275,5.795,32.549,32.549,0,0,1,3.885,3.045c.524.462.524.462,3.065,2.918Z"/><path class="cls-4" d="M415.187,649.578l.021-.945v-.672a13.362,13.362,0,0,0-.105-2.33h2.708a7.836,7.836,0,0,0-.084,1.406c0,1.282,0,1.282-.02,2.541h1.344a14.9,14.9,0,0,0,2.729-.147v2.561a21.4,21.4,0,0,0-2.687-.1h-1.408a25.731,25.731,0,0,1-.146,3.464,8.412,8.412,0,0,1-3.023,6.026,11.665,11.665,0,0,1-4.1,2.2,6.244,6.244,0,0,0-1.574-2.225,9.756,9.756,0,0,0,4.009-1.994c1.428-1.24,2.037-2.625,2.226-5.04.042-.483.042-.987.084-2.435h-5.438v3.149a12.927,12.927,0,0,0,.084,1.764h-2.729a14.007,14.007,0,0,0,.084-1.806v-3.107h-1.281a21.409,21.409,0,0,0-2.688.1v-2.561a14.906,14.906,0,0,0,2.73.147h1.239v-2.1a11.166,11.166,0,0,0-.106-1.869h2.751a10.493,10.493,0,0,0-.084,1.8v2.163Z"/><path class="cls-4" d="M429.973,653.63c-.042.126-.064.252-.084.294,0,.042-.042.168-.084.357a22.2,22.2,0,0,1-3.528,8.167,9.193,9.193,0,0,0-2.435-1.364A17.065,17.065,0,0,0,427.39,653Zm9.552-4.493c.442,0,.652,0,1.156-.021a2.416,2.416,0,0,1,.713-4.724,2.424,2.424,0,0,1,.84,4.7v2.477a18.131,18.131,0,0,0-2.667-.1h-4.849v10.183a16.229,16.229,0,0,0,.1,2.351h-2.855a15.614,15.614,0,0,0,.126-2.372V651.468h-4.661a17.964,17.964,0,0,0-2.646.1V648.99a13.478,13.478,0,0,0,2.688.147h4.619v-1.176a11.911,11.911,0,0,0-.126-2.162H434.8a16.543,16.543,0,0,0-.084,2.226v1.112ZM439.3,653a23.13,23.13,0,0,0,3.716,8,13.9,13.9,0,0,0-2.414,1.448,27.984,27.984,0,0,1-3.444-7.852,5.432,5.432,0,0,0-.336-.966Zm.734-6.193a1.376,1.376,0,1,0,2.751,0,1.376,1.376,0,0,0-2.751,0Z"/><path class="cls-4" d="M445.472,653a20.562,20.562,0,0,0,3.4.148h11.19a20.584,20.584,0,0,0,3.4-.148v2.919a23.045,23.045,0,0,0-3.422-.105h-11.15a23.019,23.019,0,0,0-3.421.105Z"/><path class="cls-4" d="M470.545,663.456a14.244,14.244,0,0,0,.126-2.351V647.647a13.489,13.489,0,0,0-.126-2.142h2.876a14.063,14.063,0,0,0-.084,2.2v3.905a61.639,61.639,0,0,1,9.532,4.431l-1.47,2.478a49.5,49.5,0,0,0-7.432-4.011,6.785,6.785,0,0,1-.714-.357,10.857,10.857,0,0,1,.084,1.428v5.543a23.052,23.052,0,0,0,.084,2.33Z"/><rect class="cls-7" x="250.39" y="628.75" width="259.644" height="51.716"/><path class="cls-4" d="M304.917,725.213a12.649,12.649,0,0,0,.126-1.868v-5.481a3.668,3.668,0,0,1-.63.4,33.187,33.187,0,0,1-5.92,2.351,8.7,8.7,0,0,0-1.24-2.289,26.065,26.065,0,0,0,5.837-1.952,22.513,22.513,0,0,0,6.509-4.451h-.44c-.126.021-.126.021-7.685.063a15.492,15.492,0,0,0-2.226.105V709.55a10.787,10.787,0,0,0,2.247.189H305v-1.721a8.661,8.661,0,0,0-.1-1.512h2.813a6.792,6.792,0,0,0-.1,1.47v1.742h3.548a4.452,4.452,0,0,0,1.427-.188l1.218,1.427a4.958,4.958,0,0,0-.924.9,27.03,27.03,0,0,1-4.283,3.926,34.306,34.306,0,0,1,7.328,3.3l-1.385,2.205a37.459,37.459,0,0,0-6.4-3.359c-.272-.126-.314-.126-.524-.231.02.251.042.839.042,1.029v4.619a9.486,9.486,0,0,0,.1,1.868Z"/><path class="cls-4" d="M322.642,711.8a24.189,24.189,0,0,1,2.058,4.976l-2.373.756a21.009,21.009,0,0,0-1.911-5.082Zm12.052.147a4.405,4.405,0,0,0-.294,1.071,17.931,17.931,0,0,1-2.9,6.991,16.124,16.124,0,0,1-6.4,5.061,7.613,7.613,0,0,0-1.68-2.079,13.622,13.622,0,0,0,3.57-1.932,12.069,12.069,0,0,0,4.766-7.285,9.321,9.321,0,0,0,.378-2.415Zm-7.58-1.008a20.685,20.685,0,0,1,2.037,4.829l-2.331.735a23.132,23.132,0,0,0-1.91-4.934Z"/><path class="cls-4" d="M343.62,724.815a14.045,14.045,0,0,0,.126-2.352V709a13.492,13.492,0,0,0-.126-2.141H346.5a14.07,14.07,0,0,0-.084,2.2v3.9a61.72,61.72,0,0,1,9.533,4.43l-1.47,2.477a49.821,49.821,0,0,0-7.433-4.01,6.785,6.785,0,0,1-.714-.357,10.857,10.857,0,0,1,.084,1.428v5.543a23.112,23.112,0,0,0,.084,2.331Z"/><path class="cls-4" d="M377.806,709.382a5.734,5.734,0,0,0-.356,1.491c-.672,4.913-1.66,7.391-3.843,9.742a17.076,17.076,0,0,1-6.509,4.158,8.966,8.966,0,0,0-1.722-2.415,13.705,13.705,0,0,0,4.263-1.953c3-2.037,4.577-5.123,5-9.679l-9.994.021v3.128a9.467,9.467,0,0,0,.084,1.848l-2.814.021a12.64,12.64,0,0,0,.084-1.805v-4.011a12.689,12.689,0,0,0-.063-1.7c.567.062,1.239.1,1.743.1h10.162a8.8,8.8,0,0,0,2.582-.23Z"/><path class="cls-4" d="M381.547,714.359a20.662,20.662,0,0,0,3.4.146H396.14a20.647,20.647,0,0,0,3.4-.146v2.918a23.037,23.037,0,0,0-3.422-.105H384.97a23.062,23.062,0,0,0-3.423.105Z"/><path class="cls-4" d="M419.428,710.432a3.932,3.932,0,0,0-.524,1.26,21.772,21.772,0,0,1-4.305,8.1,21.2,21.2,0,0,1-7.475,5.333,6.452,6.452,0,0,0-1.784-2.2,18.884,18.884,0,0,0,4.6-2.478,16.623,16.623,0,0,0,6.131-8.86l-6.32.105a20.564,20.564,0,0,1-4.913,5.375,5.579,5.579,0,0,0-2.037-1.806,16.159,16.159,0,0,0,5.439-6.089,7.848,7.848,0,0,0,1.07-2.771l2.877.567a4.209,4.209,0,0,0-.357.65,4.392,4.392,0,0,0-.273.588l-.273.546a4.953,4.953,0,0,1-.336.672c.273-.02.609-.042,1.007-.042l4.6-.062a3.715,3.715,0,0,0,1.532-.21Z"/><path class="cls-4" d="M442.045,710.138c-.441-.042-.735-.063-1.449-.084a9.74,9.74,0,0,1-1.89,3.7,11.935,11.935,0,0,0,3.591,1.512,6.521,6.521,0,0,0-1.029,2.058,12.869,12.869,0,0,1-3.989-2.142,11.153,11.153,0,0,1-3.948,2.163,7.372,7.372,0,0,0-.923-1.617,4.9,4.9,0,0,0-.672,1.134,8.035,8.035,0,0,1-2.666-2.226v.252c.02.189.02.189.062.756v.546a6.177,6.177,0,0,0,.064.924h-2.079a3.848,3.848,0,0,0,.084-.924v-.567c0-.231.021-.546.042-.945a9.2,9.2,0,0,1-3.422,2.772,6.365,6.365,0,0,0-1.156-1.575,8.615,8.615,0,0,0,3.276-2h-.588a10.141,10.141,0,0,0-1.6.064c.042-.462.064-.862.064-1.386v-1.491a11.473,11.473,0,0,0-.064-1.344,14.554,14.554,0,0,0,1.659.063H427.2v-.713h-2.247a10.917,10.917,0,0,0-1.869.1V707.22a14.993,14.993,0,0,0,1.869.1H427.2a6.136,6.136,0,0,0-.105-1.091h2.12c-.042.357-.062.588-.084,1.091h2.352a14.508,14.508,0,0,0,1.827-.1v1.932a16.283,16.283,0,0,0-1.785-.084h-2.414v.713h1.8a14.277,14.277,0,0,0,1.659-.063,9.667,9.667,0,0,0-.063,1.281,9.754,9.754,0,0,0,2.688-4.871l2.162.357c-.336.861-.462,1.175-.693,1.679h3.318a15.914,15.914,0,0,0,2.057-.126Zm-10.54,9.154h-5.291a18.873,18.873,0,0,0-2.141.084v-1.994a13.863,13.863,0,0,0,2.141.105h12.7a13.821,13.821,0,0,0,2.184-.105v1.994a19.728,19.728,0,0,0-2.184-.084h-5.185V720.3h4.409a11.305,11.305,0,0,0,1.91-.1v1.994a12.213,12.213,0,0,0-1.91-.105h-4.409V723.2h6.047a17.421,17.421,0,0,0,2.372-.125v2.079a20.766,20.766,0,0,0-2.372-.126H425.416a20.115,20.115,0,0,0-2.351.126v-2.079a17.494,17.494,0,0,0,2.351.125h1.239v-1.7a6.738,6.738,0,0,0-.1-1.407h2.394a9.25,9.25,0,0,0-.084,1.407v1.7h2.645Zm-5.942-8.02v1.175H427.2v-1.175Zm3.549,1.175h1.679v-1.175h-1.679Zm3.548,2.961a9.356,9.356,0,0,0,3.212-1.575,8.733,8.733,0,0,1-1.427-2.12,11.384,11.384,0,0,1-1.114,1.26,5.134,5.134,0,0,0-.818-.966v.546a11.648,11.648,0,0,0,.063,1.364,13.244,13.244,0,0,0-1.575-.042h-.819a7.211,7.211,0,0,0,2.583,1.407Zm2.918-5.312a7.133,7.133,0,0,0,1.638,2.415,6.618,6.618,0,0,0,1.26-2.457H435.6Z"/><path class="cls-4" d="M451.476,713.413a64.147,64.147,0,0,1-.4,6.887,12.1,12.1,0,0,1-1.7,5.187,11.09,11.09,0,0,0-1.511-1.66c.021.778.042,1.092.105,1.786h-2.415a18.061,18.061,0,0,0,.126-2.5v-5.857c0-.8.022-1.512.064-2.751a10.749,10.749,0,0,1-1.428,2.247,11.466,11.466,0,0,0-.946-2.519,16.035,16.035,0,0,0,2.877-4.7,15.643,15.643,0,0,0,1.05-3.465l2.268.546c-.106.315-.21.651-.358,1.091a17.554,17.554,0,0,1-1.343,3.4v12.241a7.841,7.841,0,0,0,1.029-2.814,37.569,37.569,0,0,0,.462-7.012c0-.8-.022-1.449-.084-2.121a15.882,15.882,0,0,0,2.2.105h9.406a15.761,15.761,0,0,0,2.289-.105v2.1a19.788,19.788,0,0,0-2.037-.084Zm.924-5.983a6.276,6.276,0,0,0-.084-1.26h2.331a6.6,6.6,0,0,0-.084,1.26v.482h2.876v-.482a6.276,6.276,0,0,0-.084-1.26h2.331a6.743,6.743,0,0,0-.084,1.26v.482h1.322a13.37,13.37,0,0,0,2.121-.126v2.121a18.716,18.716,0,0,0-2.121-.084H459.6v.21a5.9,5.9,0,0,0,.062,1.008h-2.288a7.511,7.511,0,0,0,.063-1.029v-.189h-2.876v.189a6.183,6.183,0,0,0,.062,1.029h-2.288a7.636,7.636,0,0,0,.063-1.008v-.21h-.882a17.19,17.19,0,0,0-2.1.084v-2.1a20.282,20.282,0,0,0,2.1.1h.882ZM453.912,722v1.26a12.665,12.665,0,0,0,.105,2.268h-2.2a12.5,12.5,0,0,0,.126-2.268v-6.635a21.917,21.917,0,0,0-.084-2.289c.63.042,1.05.064,2.225.064h6.383a17.075,17.075,0,0,0,2.037-.084,18.4,18.4,0,0,0-.084,2.246v7.16c0,1.386-.441,1.7-2.415,1.7-.168,0-.168,0-.923-.02a5.717,5.717,0,0,0-.42-1.828,9.966,9.966,0,0,0,1.259.106c.378,0,.462-.084.462-.484V722h-2.309v.966a14.709,14.709,0,0,0,.1,2.31h-2.141a13.552,13.552,0,0,0,.126-2.31V722Zm2.247-5.816h-2.247v1.176h2.247Zm0,2.855h-2.247v1.176h2.247Zm4.219-1.679v-1.176h-2.309v1.176Zm0,2.855V719.04h-2.309v1.176Z"/><rect class="cls-7" x="250.39" y="690.108" width="259.644" height="51.716"/><path class="cls-4" d="M315.3,774.881a5.2,5.2,0,0,0-.588,1.028,15.3,15.3,0,0,1-5.144,6.131,6.942,6.942,0,0,0-2.1-1.7,10.605,10.605,0,0,0,3.465-2.961c.294-.42.42-.608.8-1.238-.336.062-.484.084-.8.126-2.121.252-4.283.524-6.467.84v4.723a9.365,9.365,0,0,0,.084,1.806c.147.819.819,1.05,2.96,1.05a23.246,23.246,0,0,0,6.446-.819l.126,2.834c-.567.022-.735.022-1.281.084a46.8,46.8,0,0,1-5.207.358,14.431,14.431,0,0,1-3.737-.358,2.747,2.747,0,0,1-1.806-1.931,8.083,8.083,0,0,1-.21-2.646V777.4l-1.973.252a12.407,12.407,0,0,0-2.331.4l-.273-2.6a4.967,4.967,0,0,0,.5.022,16.816,16.816,0,0,0,1.848-.147l2.225-.273v-2.877a10.344,10.344,0,0,0-.126-1.994h2.9a10.208,10.208,0,0,0-.126,1.952v2.646l7.642-.924a3.931,3.931,0,0,0,1.617-.357Z"/><path class="cls-4" d="M324.773,772.068a9.033,9.033,0,0,0-.5-1.974l2.771-.441a14.759,14.759,0,0,0,.252,1.973l.336,1.827,4.431-.693a10.756,10.756,0,0,0,2.016-.462l.44,2.52a17.889,17.889,0,0,0-2.016.273l-4.429.692.63,3.444,4.933-.777a18.661,18.661,0,0,0,2.184-.483l.462,2.52a5.037,5.037,0,0,0-.966.105,1.632,1.632,0,0,0-.336.042c-.147.021-.42.063-.84.126l-5,.8.756,4.073a11.845,11.845,0,0,0,.5,2.162l-2.814.5a15.686,15.686,0,0,0-.272-2.2l-.756-4.137-5.187.82a16.918,16.918,0,0,0-2.141.462l-.42-2.583a12.923,12.923,0,0,0,2.226-.21l5.1-.819-.63-3.443-3.9.608a22.359,22.359,0,0,0-2.31.484l-.42-2.583a19.519,19.519,0,0,0,2.31-.231l3.905-.609Z"/><path class="cls-4" d="M353.857,785.022a9.352,9.352,0,0,0,1.931-.126v2.393a16.238,16.238,0,0,0-1.931-.084h-10.9a15.8,15.8,0,0,0-1.931.084V784.9a9.479,9.479,0,0,0,1.931.126h6.195c.356-1.868.8-4.829,1.008-6.74h-5.208a13.5,13.5,0,0,0-1.869.084v-2.373a12.022,12.022,0,0,0,1.932.126h5.312a4.714,4.714,0,0,0,1.554-.188l1.154,1.008a7.584,7.584,0,0,0-.482,2.393c-.315,2.31-.546,3.8-.9,5.69Z"/><path class="cls-4" d="M366.059,770.324a10.68,10.68,0,0,0-.084,1.89v5.795a10.137,10.137,0,0,0,.084,1.848h-2.876a15.368,15.368,0,0,0,.1-1.89v-5.773a13.1,13.1,0,0,0-.084-1.89Zm9.532.022a9.976,9.976,0,0,0-.1,1.952v2.835a24.832,24.832,0,0,1-.546,6.361,8.046,8.046,0,0,1-4.137,4.893A17.693,17.693,0,0,1,366.71,788a7.182,7.182,0,0,0-1.469-2.5,11.328,11.328,0,0,0,4.535-1.68c1.973-1.3,2.666-2.583,2.9-5.354.084-.9.105-1.826.105-3.506V772.34a11.045,11.045,0,0,0-.105-1.994Z"/><path class="cls-4" d="M392.1,778.3a11.378,11.378,0,0,1-1.47,5.648c-1.112,1.848-2.645,3-5.479,4.136a6.672,6.672,0,0,0-1.7-2.309c2.519-.777,4.094-1.89,4.976-3.506a8.918,8.918,0,0,0,.924-3.969h-5.123a20.779,20.779,0,0,0-2.667.105v-2.5a14.76,14.76,0,0,0,2.709.148h12.282a14.9,14.9,0,0,0,2.709-.148v2.5a20.779,20.779,0,0,0-2.667-.105Zm-8.419-7.685a14.206,14.206,0,0,0,2.708.148h8.063a14.237,14.237,0,0,0,2.709-.148v2.562a19.8,19.8,0,0,0-2.667-.1h-8.147a19.757,19.757,0,0,0-2.666.1Z"/><path class="cls-4" d="M418.011,774.839a4.118,4.118,0,0,0-.714.692,28.093,28.093,0,0,1-3.905,3.444v7.138a12.4,12.4,0,0,0,.105,2.016l-2.709-.02a12.583,12.583,0,0,0,.106-2v-5.626a29.616,29.616,0,0,1-5.942,2.667,8.575,8.575,0,0,0-1.3-2.184,22.39,22.39,0,0,0,4.976-1.89,23.929,23.929,0,0,0,5.963-4.262,7.877,7.877,0,0,0,1.281-1.512Z"/><path class="cls-4" d="M426.813,771.29a10.018,10.018,0,0,0-.126-1.973h2.435a16.647,16.647,0,0,0-.105,1.973v1.176h1.491a11.123,11.123,0,0,0,2.016-.126v2.247a15.683,15.683,0,0,0-1.638-.063,21.513,21.513,0,0,1-1.428,6.362c1.323,1.68,1.491,1.91,2.982,4.01l-1.659,1.847a30.254,30.254,0,0,0-2.414-3.631,20.631,20.631,0,0,1-4.179,5.185,7.49,7.49,0,0,0-1.6-1.952A14.575,14.575,0,0,0,426.9,781.2a38.408,38.408,0,0,0-3.569-3.863l1.532-1.554c.42.42.42.42,1.659,1.7.168.168.524.566,1.322,1.49a20.414,20.414,0,0,0,.82-4.451h-3.885a13.5,13.5,0,0,0-1.952.105V772.34a15.1,15.1,0,0,0,2.078.126h1.911Zm6.991,5.669a26.371,26.371,0,0,1,2.961,4.851l-1.911,1.26a18.7,18.7,0,0,0-2.94-5.082Zm1.176-1.3a13.059,13.059,0,0,0-1.994.106v-2.31a12.732,12.732,0,0,0,1.994.105h2.667V771.9a13.953,13.953,0,0,0-.148-2.5h2.52a18.91,18.91,0,0,0-.126,2.5v1.658h.252a12.042,12.042,0,0,0,1.974-.126v2.351c-.168-.02-.168-.02-.483-.062a12.154,12.154,0,0,0-1.47-.064h-.273V785.8c0,1.092-.063,1.448-.378,1.826-.4.5-1.154.714-2.54.714-.861,0-1.638-.02-2.478-.084a6.953,6.953,0,0,0-.651-2.33,21.1,21.1,0,0,0,2.541.252c1.134,0,1.26-.064,1.26-.5V775.657Z"/><path class="cls-4" d="M447.245,772.718a11.954,11.954,0,0,1-2.12,2.268,9.468,9.468,0,0,0-1.491-1.575,8.632,8.632,0,0,0,3.234-4.283l2.247.4c-.084.147-.294.567-.672,1.259h2.813a14.06,14.06,0,0,0,2.036-.126v1.47a7.094,7.094,0,0,0,1.6-3l2.247.4c-.42.881-.42.881-.609,1.281h4.136a17.722,17.722,0,0,0,2.31-.126v2.162a16.452,16.452,0,0,0-2.2-.105h-1.722c.316.5.588,1.008.882,1.6l-2.12.567a12.986,12.986,0,0,0-1.008-2.163h-1.386a10.569,10.569,0,0,1-1.217,1.491h.314a6.5,6.5,0,0,0-.1,1.133H460.6a12.434,12.434,0,0,0,2.247-.146V777.4a16.158,16.158,0,0,0-2.247-.106h-6.193v1.05h4.765c1.05-.021,1.7-.042,1.953-.084A13.179,13.179,0,0,0,461.04,780v1.974a1.409,1.409,0,0,1-.609,1.364,3.353,3.353,0,0,1-1.554.231c-.378,0-.882-.021-1.469-.063a5.514,5.514,0,0,0-.42-1.826,11.319,11.319,0,0,0,1.323.126c.44,0,.588-.084.588-.4v-1.217h-4.493v.755a13.491,13.491,0,0,0,4.135,3.339,22.565,22.565,0,0,0,4.62,1.722,8.477,8.477,0,0,0-1.512,2.078,21.936,21.936,0,0,1-4.094-1.932,12.407,12.407,0,0,1-1.911-1.427,6.966,6.966,0,0,1-1.322-1.406c.02.692.042.965.042,1.532l.02,1.595a10.785,10.785,0,0,0,.168,2.184h-2.561a11.72,11.72,0,0,0,.168-1.974v-.23l-.021-1.533c0-.273.021-.924.063-1.47a11.723,11.723,0,0,1-3.276,2.919,22.96,22.96,0,0,1-3.527,1.742,8.044,8.044,0,0,0-1.616-2.015,23.924,23.924,0,0,0,4.409-1.806,15.155,15.155,0,0,0,2.414-1.722,7.862,7.862,0,0,0,1.533-1.6v-.755h-4.095v1.847a11.5,11.5,0,0,0,.084,1.7h-2.351a16.127,16.127,0,0,0,.1-1.931v-1.848a13.956,13.956,0,0,0-.084-1.7,15.259,15.259,0,0,0,1.826.084h4.515V777.3h-5.732c-.861,0-1.575.042-2.226.106v-2.184a13.441,13.441,0,0,0,2.226.146h5.732a6.946,6.946,0,0,0-.1-1.133h1.407a7.515,7.515,0,0,0-1.2-1.071c.231-.189.294-.252.461-.4a8.1,8.1,0,0,0-.944-.042h-1.218c.357.609.483.861.84,1.575l-2.057.588a16.9,16.9,0,0,0-.946-2.163Z"/><rect class="cls-7" x="251.653" y="753.108" width="259.644" height="51.716"/><rect class="cls-8" x="183.434" y="523.014" width="393.557" height="317.338"/><path class="cls-4" d="M312.034,492.284a11.593,11.593,0,0,0,2.553-4.8l1.76.792a15.791,15.791,0,0,1-2.662,5.3Zm8.648-16.677a6.939,6.939,0,0,0-.11-1.431h2.222a8.6,8.6,0,0,0-.11,1.431v.483h6.469c1.034,0,1.606-.021,2.354-.088a9.734,9.734,0,0,0-.088,1.563v1.188a11.52,11.52,0,0,0,.088,1.76h-1.826c-.176.528-.33.748-.638.9a7.408,7.408,0,0,1-3.058.374c-2.773,0-3.3-.219-3.3-1.3v-2.684h-1.937a4.374,4.374,0,0,1-1.231,2.265c-1.276,1.365-2.618,2.069-5.435,2.862a5.888,5.888,0,0,0-1.123-1.607c2.377-.484,3.543-.924,4.555-1.76a3.07,3.07,0,0,0,1.232-1.76h-4.378v2.64h-2.024a10.818,10.818,0,0,0,.088-1.672v-1.21a10.35,10.35,0,0,0-.088-1.563,23.355,23.355,0,0,0,2.354.088h5.985Zm1.276,5.589a37.345,37.345,0,0,1-2.684,3.564c4.356-.154,4.356-.154,6.865-.374-.572-.484-.969-.771-2-1.541l1.54-.968a28.372,28.372,0,0,1,4.775,4l-1.672,1.188c-.528-.616-.7-.814-1.078-1.232-4.181.44-7.767.682-12.63.858-.682.022-.9.022-1.562.087l-.308-2.045c.946.066.946.066,3.806.066a20.975,20.975,0,0,0,2.839-4.181Zm-2.354,6.248a10.417,10.417,0,0,0-.088,1.628v2.355c0,.813.132.857,2.618.857,2.42,0,3.124-.087,3.366-.418a4.887,4.887,0,0,0,.33-2.221,7.422,7.422,0,0,0,1.914.593c-.351,3.719-.527,3.829-5.83,3.829-3.653,0-4.335-.308-4.335-1.98v-2.839a10.076,10.076,0,0,0-.11-1.8Zm3.63,3.323a11.973,11.973,0,0,0-2.508-3.125l1.584-.9a12.43,12.43,0,0,1,2.553,2.906Zm1.32-11c0,.462.133.484,2.179.484,1.21,0,1.254-.044,1.342-1.518a6.022,6.022,0,0,0,1.408.4v-1.32h-4.929Zm5.633,13.685a24.492,24.492,0,0,0-3.235-5.456l1.673-.836a26.948,26.948,0,0,1,3.367,5.17Z"/><path class="cls-4" d="M336.542,493.671a18.311,18.311,0,0,0,.155-2.663V478.532c0-.967-.044-1.606-.111-2.376a18.473,18.473,0,0,0,2.4.111h12.1a19.032,19.032,0,0,0,2.421-.111,18.116,18.116,0,0,0-.11,2.376v12.476a22.816,22.816,0,0,0,.132,2.663h-2.288v-1.65H338.853v1.65ZM338.853,490h12.388V478.29H338.853Z"/><path class="cls-4" d="M364.858,477.5a9.209,9.209,0,0,0,.946-2.838l2.42.308a2.217,2.217,0,0,0-.264.506c-.242.572-.242.572-.682,1.606-.066.132-.132.286-.176.374a.647.647,0,0,0,.176-.021h.11c.11,0,.506-.023,1.1-.067a27.48,27.48,0,0,0,5.852-.748l.132,2.091c-.484.044-.484.044-1.716.2-1.54.2-4.379.4-6.535.441a13.284,13.284,0,0,1-2.376,3.433l.022.043a4.991,4.991,0,0,1,.461-.352,5.5,5.5,0,0,1,3.345-1.144,3.321,3.321,0,0,1,2.135.7,2.646,2.646,0,0,1,.9,1.672c1.783-.66,2.971-1.1,3.565-1.3a5.622,5.622,0,0,0,1.562-.638l.9,2.112a35.667,35.667,0,0,0-5.788,1.826c.023.793.023.793.023,1.189v1.034c-.023.374-.023.616-.023.77a7.873,7.873,0,0,0,.067,1.079l-2.135.044a25.975,25.975,0,0,0,.132-2.861v-.528c-2.706,1.232-3.7,2.112-3.7,3.278,0,1.32,1.144,1.805,4.224,1.805a18.588,18.588,0,0,0,6.1-.9l.221,2.375a6.052,6.052,0,0,0-.969.111,39.863,39.863,0,0,1-5.479.4,9.482,9.482,0,0,1-4.753-.881,3.035,3.035,0,0,1-1.54-2.706c0-2.045,1.827-3.806,5.633-5.434a1.372,1.372,0,0,0-1.5-1.408c-1.32,0-2.948.792-4.686,2.288a8.8,8.8,0,0,0-1.805,1.936l-1.694-1.694a18.519,18.519,0,0,0,3.543-4c.263-.418.725-1.166,1.364-2.223H363.6l-2.135-.021c-.55-.023-.968-.044-1.276-.044h-.132a2.278,2.278,0,0,0-.33.021l.044-2.089a23.833,23.833,0,0,0,4.291.263Z"/><path class="cls-4" d="M401.028,485.354a25.352,25.352,0,0,0-3.169-.155H384.613c-1.21,0-2.332.067-3.191.155V482.8a25.015,25.015,0,0,0,3.191.154h13.246a23.118,23.118,0,0,0,3.169-.154Z"/><path class="cls-4" d="M407.251,480.072a24.047,24.047,0,0,0-2.53.133v-2.266a17.545,17.545,0,0,0,2.53.154h5.875V476.4a11.654,11.654,0,0,0-.154-2.025h2.288a13.893,13.893,0,0,0-.132,2v1.717h6.205a16.613,16.613,0,0,0,2.575-.154v2.266a25.576,25.576,0,0,0-2.575-.133h-5.171a21.68,21.68,0,0,0,3.477,4.908,18.989,18.989,0,0,0,4.973,3.872,6.892,6.892,0,0,0-1.254,2.024,23.853,23.853,0,0,1-4.313-3.63,21.683,21.683,0,0,1-4.026-5.875c.065,1.254.109,2.069.109,2.685v4.092h2.244a12.214,12.214,0,0,0,2.091-.11v2.178a15.3,15.3,0,0,0-2.2-.132h-2.135v1.738a18.513,18.513,0,0,0,.155,2.663h-2.311a19.09,19.09,0,0,0,.154-2.663v-1.738h-1.914a15.093,15.093,0,0,0-2.2.132v-2.178a12.33,12.33,0,0,0,2.112.11h2v-4.071c0-.748.022-1.232.088-2.64a21.438,21.438,0,0,1-3.961,5.985,22.829,22.829,0,0,1-4,3.5,6.136,6.136,0,0,0-1.255-1.914,20.228,20.228,0,0,0,4.885-4.2,18.854,18.854,0,0,0,3.1-4.732Z"/><path class="cls-4" d="M430.769,485.31c0-.99,0-1.452.044-2.553a18.85,18.85,0,0,1-2.487,3.19,9.017,9.017,0,0,0-1.055-2.045,20.536,20.536,0,0,0,4.708-7.041,9.612,9.612,0,0,0,.748-2.619l2.2.638c-.177.418-.265.638-.484,1.233a37.955,37.955,0,0,1-1.651,3.916v11.706a23.356,23.356,0,0,0,.155,2.75h-2.333a22.538,22.538,0,0,0,.154-2.794Zm8.207,5.831c0,.66.374.792,2.442.792,2.223,0,3.037-.132,3.324-.506.374-.507.527-1.452.659-4.027a8.359,8.359,0,0,0,2,.792c-.2,2.575-.506,4-1.013,4.643-.638.792-1.782,1.012-5.259,1.012-3.586,0-4.224-.33-4.224-2.223V477.08a19.484,19.484,0,0,0-.132-2.53h2.333a19.28,19.28,0,0,0-.133,2.53v5.457a24.226,24.226,0,0,0,3.7-2.442,14.274,14.274,0,0,0,2.728-2.641l1.629,1.629c-.2.154-.287.241-.529.462a34.5,34.5,0,0,1-7.525,5.259Z"/><line class="cls-9" x1="271.093" y1="500.728" x2="259.093" y2="468.728"/><line class="cls-9" x1="489.331" y1="500.728" x2="501.331" y2="468.728"/></g></g></svg>