<svg xmlns="http://www.w3.org/2000/svg" viewBox="0 0 924.049 924.049"><defs><style>.cls-1{fill:#5ebf6e;}.cls-2{fill:#5ecf6e;}.cls-3{fill:#fff;}</style></defs><g id="レイヤー_2" data-name="レイヤー 2"><g id="レイヤー_1-2" data-name="レイヤー 1"><path class="cls-1" d="M391.637,924.049H844.486a79.562,79.562,0,0,0,79.563-79.563v-399.7Z"/><path class="cls-2" d="M924.049,79.563A79.563,79.563,0,0,0,844.486,0H79.563A79.564,79.564,0,0,0,0,79.563V844.486a79.563,79.563,0,0,0,79.563,79.563H391.637L924.049,444.785Z"/><path class="cls-3" d="M809.074,256.343h0a61.048,61.048,0,0,0-86.337,0L414.558,564.522,223.6,373.563a61.048,61.048,0,0,0-86.337,0h0a61.048,61.048,0,0,0,0,86.337L370,692.643a64.532,64.532,0,0,0,89.107,0L809.074,342.68A61.048,61.048,0,0,0,809.074,256.343Z"/></g></g></svg>