<svg xmlns="http://www.w3.org/2000/svg" viewBox="0 0 154.35 154.349"><defs><style>.cls-1{fill:#36af35;stroke:#fff;stroke-miterlimit:10;stroke-width:7.35px;}.cls-2{fill:#fff;}</style></defs><g id="レイヤー_2" data-name="レイヤー 2"><g id="レイヤー_1-2" data-name="レイヤー 1"><circle class="cls-1" cx="77.175" cy="77.175" r="73.5"/><path class="cls-2" d="M48.443,58.589a12.528,12.528,0,0,0,.125-2.01V48.147a13.99,13.99,0,0,0-.125-2.01c.67.031,1.154.046,1.98.046H53.68A4.429,4.429,0,0,1,57,47.29a3.643,3.643,0,0,1,.966,2.681,4,4,0,0,1-1.044,2.867A4.416,4.416,0,0,1,53.6,53.96H50.625v2.6a12.609,12.609,0,0,0,.125,2.026ZM53.6,52.168a1.961,1.961,0,0,0,2.213-2.135,2.1,2.1,0,0,0-.514-1.5,2.128,2.128,0,0,0-1.7-.561H50.625v4.192Z"/><path class="cls-2" d="M70.579,47.493a6.721,6.721,0,0,1,1.745,4.862c0,3.943-2.291,6.5-5.829,6.5s-5.813-2.541-5.813-6.5a6.669,6.669,0,0,1,1.777-4.862,5.4,5.4,0,0,1,4.021-1.559A5.462,5.462,0,0,1,70.579,47.493Zm-.437,4.862a5.033,5.033,0,0,0-1.231-3.631,3.352,3.352,0,0,0-2.4-.951c-2.245,0-3.663,1.777-3.663,4.6a5.147,5.147,0,0,0,1.263,3.678A3.367,3.367,0,0,0,66.527,57C68.755,57,70.142,55.223,70.142,52.355Z"/><path class="cls-2" d="M78.08,46.183a11.6,11.6,0,0,0-.125,2.011v8.385a11.693,11.693,0,0,0,.125,2.01H75.711a11.8,11.8,0,0,0,.125-2.01V48.194a11.7,11.7,0,0,0-.125-2.011Z"/><path class="cls-2" d="M89.958,58.589a15.63,15.63,0,0,0-1-1.667L84.94,50.859c-.3-.467-.686-1.138-1.06-1.87.015.218.015.218.062.8.016.3.047,1,.047,1.356v5.112a17.248,17.248,0,0,0,.124,2.337H81.838a16.828,16.828,0,0,0,.125-2.353V48.194a12.93,12.93,0,0,0-.125-2.011h2.431a8.552,8.552,0,0,0,.951,1.652l3.943,5.939c.374.561.873,1.371,1.216,1.995-.062-.608-.109-1.543-.109-2.2V48.334a13.7,13.7,0,0,0-.125-2.151h2.276a13.576,13.576,0,0,0-.125,2.151v8.245a11.693,11.693,0,0,0,.125,2.01Z"/><path class="cls-2" d="M101.667,56.563a12.869,12.869,0,0,0,.125,2.026H99.439a13.126,13.126,0,0,0,.124-2.026V48.054h-2.1a15.465,15.465,0,0,0-2.135.109V46.074a15.666,15.666,0,0,0,2.12.109h6.171a16.552,16.552,0,0,0,2.292-.109v2.089a16.4,16.4,0,0,0-2.292-.109h-1.948Z"/><path class="cls-2" d="M68.438,90.622l1.169-6.8A38.015,38.015,0,0,0,82.132,73.812h3.78l-6.733,39.172H72.9L77.556,86a28.421,28.421,0,0,1-9.118,4.621Z"/></g></g></svg>