<svg xmlns="http://www.w3.org/2000/svg" viewBox="0 0 64.761 64.761"><defs><style>.cls-1{fill:#36af35;stroke:#fff;stroke-miterlimit:10;stroke-width:6px;}.cls-2{fill:#fff;}</style></defs><g id="レイヤー_2" data-name="レイヤー 2"><g id="レイヤー_1-2" data-name="レイヤー 1"><rect class="cls-1" x="3" y="3" width="58.761" height="58.761" rx="12"/><path class="cls-2" d="M30.818,27.449l-4.174-.76a9.967,9.967,0,0,1,2.4-5.7,6.137,6.137,0,0,1,4.571-1.906,6.119,6.119,0,0,1,4.715,1.933A7.329,7.329,0,0,1,40.122,26.2,10.135,10.135,0,0,1,38.8,31.134a33.993,33.993,0,0,1-3.975,5.185,42.546,42.546,0,0,0-3.721,4.625H38.64l-.813,4.733H24.639a14.188,14.188,0,0,1,1.879-5.619,52.025,52.025,0,0,1,4.9-6.268,44.334,44.334,0,0,0,3.577-4.517A6.186,6.186,0,0,0,36,26.166a3.388,3.388,0,0,0-.66-2.213,2.017,2.017,0,0,0-1.617-.8Q31.5,23.148,30.818,27.449Z"/></g></g></svg>