<svg xmlns="http://www.w3.org/2000/svg" viewBox="0 0 154.35 154.349"><defs><style>.cls-1{fill:#36af35;stroke:#fff;stroke-miterlimit:10;stroke-width:7.35px;}.cls-2{fill:#fff;}</style></defs><g id="レイヤー_2" data-name="レイヤー 2"><g id="レイヤー_1-2" data-name="レイヤー 1"><circle class="cls-1" cx="77.175" cy="77.175" r="73.5"/><path class="cls-2" d="M41.957,60.529a15.377,15.377,0,0,0,.153-2.463V47.73a17.19,17.19,0,0,0-.153-2.464c.822.038,1.414.057,2.427.057h3.992a5.429,5.429,0,0,1,4.069,1.356,4.465,4.465,0,0,1,1.185,3.286,4.906,4.906,0,0,1-1.28,3.515,5.413,5.413,0,0,1-4.069,1.376H44.632v3.19a15.341,15.341,0,0,0,.153,2.483Zm6.324-7.87a2.4,2.4,0,0,0,2.713-2.617,2.575,2.575,0,0,0-.631-1.834,2.606,2.606,0,0,0-2.082-.688H44.632v5.139Z"/><path class="cls-2" d="M69.09,46.928a8.238,8.238,0,0,1,2.139,5.96c0,4.834-2.808,7.967-7.145,7.967s-7.125-3.115-7.125-7.967a8.175,8.175,0,0,1,2.178-5.96,6.616,6.616,0,0,1,4.928-1.911A6.692,6.692,0,0,1,69.09,46.928Zm-.535,5.96a6.17,6.17,0,0,0-1.509-4.451A4.113,4.113,0,0,0,64.1,47.272c-2.751,0-4.489,2.177-4.489,5.635a6.3,6.3,0,0,0,1.548,4.508,4.12,4.12,0,0,0,2.961,1.166C66.854,58.581,68.555,56.4,68.555,52.888Z"/><path class="cls-2" d="M78.284,45.323a14.236,14.236,0,0,0-.153,2.464V58.066a14.349,14.349,0,0,0,.153,2.463h-2.9a14.349,14.349,0,0,0,.153-2.463V47.787a14.229,14.229,0,0,0-.153-2.464Z"/><path class="cls-2" d="M92.844,60.529a19.077,19.077,0,0,0-1.223-2.043l-4.929-7.432c-.363-.572-.841-1.4-1.3-2.292.019.266.019.266.077.974.019.363.057,1.222.057,1.662v6.266a21.031,21.031,0,0,0,.153,2.865H82.891a20.738,20.738,0,0,0,.152-2.883V47.787a16,16,0,0,0-.152-2.464h2.98a10.513,10.513,0,0,0,1.165,2.025l4.834,7.278c.458.688,1.069,1.682,1.489,2.445-.076-.744-.133-1.89-.133-2.693V47.959a16.772,16.772,0,0,0-.153-2.636h2.789a16.651,16.651,0,0,0-.153,2.636V58.066a14.356,14.356,0,0,0,.153,2.463Z"/><path class="cls-2" d="M107.2,58.046a15.805,15.805,0,0,0,.153,2.483h-2.885a15.953,15.953,0,0,0,.153-2.483V47.615h-2.579a18.879,18.879,0,0,0-2.617.134v-2.56a19.285,19.285,0,0,0,2.6.134h7.565a20.369,20.369,0,0,0,2.809-.134v2.56a20.03,20.03,0,0,0-2.809-.134H107.2Z"/><path class="cls-2" d="M65.822,100.812l5.975-.876a8.657,8.657,0,0,0,1.354,4.3,3.2,3.2,0,0,0,2.6,1.2,4.385,4.385,0,0,0,3.479-1.713,6.781,6.781,0,0,0,1.434-4.5,5.689,5.689,0,0,0-1.175-3.864,3.856,3.856,0,0,0-3.042-1.341,5.142,5.142,0,0,0-.988.105l1.089-6.346.637.052a4.77,4.77,0,0,0,3.771-1.5,6.225,6.225,0,0,0,1.328-4.262,4.516,4.516,0,0,0-.9-3A2.857,2.857,0,0,0,79.112,78q-2.937,0-4.1,5.338L69.3,81.956a15.8,15.8,0,0,1,3.372-6.984,9.1,9.1,0,0,1,6.905-3.081,8.307,8.307,0,0,1,6.467,2.749,10.619,10.619,0,0,1,2.483,7.4,10.3,10.3,0,0,1-1.5,5.55,8.776,8.776,0,0,1-3.971,3.506,8.339,8.339,0,0,1,2.921,3.227,9.653,9.653,0,0,1,1.036,4.5,13.575,13.575,0,0,1-2.841,8.366,10.26,10.26,0,0,1-8.5,4.462,8.787,8.787,0,0,1-6.586-2.749Q66.432,106.151,65.822,100.812Z"/></g></g></svg>