<svg xmlns="http://www.w3.org/2000/svg" viewBox="0 0 154.35 154.349"><defs><style>.cls-1{fill:#36af35;stroke:#fff;stroke-miterlimit:10;stroke-width:7.35px;}.cls-2{fill:#fff;}</style></defs><g id="レイヤー_2" data-name="レイヤー 2"><g id="レイヤー_1-2" data-name="レイヤー 1"><circle class="cls-1" cx="77.175" cy="77.175" r="73.5"/><path class="cls-2" d="M41.958,60.529a15.512,15.512,0,0,0,.152-2.464V47.73a17.328,17.328,0,0,0-.152-2.464c.821.038,1.413.057,2.425.057h3.994a5.424,5.424,0,0,1,4.068,1.356,4.466,4.466,0,0,1,1.185,3.286,4.906,4.906,0,0,1-1.28,3.515,5.413,5.413,0,0,1-4.069,1.376H44.632v3.19a15.448,15.448,0,0,0,.153,2.483Zm6.323-7.87a2.4,2.4,0,0,0,2.713-2.617,2.573,2.573,0,0,0-.631-1.834,2.6,2.6,0,0,0-2.082-.688H44.632v5.139Z"/><path class="cls-2" d="M69.09,46.928a8.238,8.238,0,0,1,2.139,5.96c0,4.833-2.807,7.967-7.144,7.967s-7.126-3.115-7.126-7.967a8.18,8.18,0,0,1,2.177-5.96,6.625,6.625,0,0,1,4.929-1.911A6.7,6.7,0,0,1,69.09,46.928Zm-.536,5.96a6.171,6.171,0,0,0-1.508-4.451A4.114,4.114,0,0,0,64.1,47.272c-2.751,0-4.489,2.177-4.489,5.635a6.313,6.313,0,0,0,1.548,4.509,4.125,4.125,0,0,0,2.961,1.165C66.854,58.581,68.554,56.4,68.554,52.888Z"/><path class="cls-2" d="M78.284,45.323a14.346,14.346,0,0,0-.152,2.464V58.065a14.473,14.473,0,0,0,.152,2.464h-2.9a14.473,14.473,0,0,0,.152-2.464V47.787a14.346,14.346,0,0,0-.152-2.464Z"/><path class="cls-2" d="M92.843,60.529a18.885,18.885,0,0,0-1.222-2.043l-4.929-7.432c-.363-.573-.841-1.4-1.3-2.292.019.267.019.267.076.974.02.363.058,1.223.058,1.662v6.266a21.24,21.24,0,0,0,.152,2.865H82.89a20.538,20.538,0,0,0,.154-2.884V47.787a15.73,15.73,0,0,0-.154-2.464h2.981a10.457,10.457,0,0,0,1.165,2.025l4.834,7.279c.458.687,1.069,1.681,1.489,2.445-.076-.745-.134-1.891-.134-2.694V47.959a16.789,16.789,0,0,0-.152-2.636h2.789a16.789,16.789,0,0,0-.152,2.636V58.065a14.48,14.48,0,0,0,.152,2.464Z"/><path class="cls-2" d="M107.2,58.046a15.8,15.8,0,0,0,.153,2.483h-2.884a16.087,16.087,0,0,0,.152-2.483V47.615h-2.579a19.047,19.047,0,0,0-2.617.134v-2.56a19.12,19.12,0,0,0,2.6.134h7.565a20.164,20.164,0,0,0,2.808-.134v2.56a20.152,20.152,0,0,0-2.808-.134H107.2Z"/><path class="cls-2" d="M77.848,103.043H65.3l1.089-6.374L83.678,72.05h5.369l-4.2,24.513h3.876l-1.116,6.48h-3.87l-1.36,7.941h-5.9Zm1.115-6.48,2.086-12.137L72.636,96.563Z"/></g></g></svg>