<svg xmlns="http://www.w3.org/2000/svg" viewBox="0 0 270.993 183.183"><defs><style>.cls-1,.cls-2{fill:#25813a;}.cls-2{font-size:20px;font-family:ArialNarrow-Italic, Arial Narrow;font-style:italic;}</style></defs><g id="レイヤー_2" data-name="レイヤー 2"><g id="レイヤー_" data-name="レイヤー １"><path class="cls-1" d="M270.843,180.613l-22.232-51.66a1.843,1.843,0,0,0-1.692-1.113H221.028a1.842,1.842,0,1,0,0,3.684h24.678L266.352,179.5H96.032l20.646-47.975h95.88a1.842,1.842,0,1,0,0-3.684H115.465a1.843,1.843,0,0,0-1.692,1.113l-22.232,51.66a1.841,1.841,0,0,0,1.692,2.57H269.151a1.841,1.841,0,0,0,1.692-2.57Z"/><path class="cls-1" d="M129.361,149.738a1.843,1.843,0,0,0,0,3.685h12.117a1.843,1.843,0,0,0,0-3.685Z"/><path class="cls-1" d="M149.629,150.553a3.112,3.112,0,0,0-.23-.28,1.934,1.934,0,0,0-.28-.22,1.409,1.409,0,0,0-.32-.17,2.036,2.036,0,0,0-.35-.11,1.747,1.747,0,0,0-.72,0,1.93,1.93,0,0,0-.34.11,1.409,1.409,0,0,0-.32.17,1.51,1.51,0,0,0-.28.22,1.889,1.889,0,0,0-.54,1.31,2.045,2.045,0,0,0,.14.7,1.962,1.962,0,0,0,.17.32,1.857,1.857,0,0,0,.51.51,1.962,1.962,0,0,0,.32.17,1.906,1.906,0,0,0,.34.1,1.64,1.64,0,0,0,.72,0,2.014,2.014,0,0,0,.35-.1,1.962,1.962,0,0,0,.32-.17,2.011,2.011,0,0,0,.28-.23,2.146,2.146,0,0,0,.23-.28,1.912,1.912,0,0,0,.16-.32,1.5,1.5,0,0,0,.11-.34,1.64,1.64,0,0,0,0-.72,1.425,1.425,0,0,0-.11-.35A1.912,1.912,0,0,0,149.629,150.553Z"/><path class="cls-1" d="M174.28,162.491a1.843,1.843,0,0,0,0,3.685H186.4a1.843,1.843,0,0,0,0-3.685Z"/><path class="cls-1" d="M194.539,163.313a1.51,1.51,0,0,0-.22-.28,1.63,1.63,0,0,0-.29-.23,1.167,1.167,0,0,0-.31-.17,2.036,2.036,0,0,0-.35-.11,1.846,1.846,0,0,0-1.66.51,1.56,1.56,0,0,0-.23.28,1.623,1.623,0,0,0-.17.32,1.331,1.331,0,0,0-.1.34,1.64,1.64,0,0,0,0,.72,1.536,1.536,0,0,0,.1.35,1.869,1.869,0,0,0,.17.31,1.56,1.56,0,0,0,.23.28,1.227,1.227,0,0,0,.28.23,1.409,1.409,0,0,0,.32.17,1.93,1.93,0,0,0,.34.11,2.186,2.186,0,0,0,.36.03,1.846,1.846,0,0,0,1.31-.54,1.51,1.51,0,0,0,.22-.28,1.345,1.345,0,0,0,.17-.31,2.355,2.355,0,0,0,.11-.35,2.175,2.175,0,0,0,0-.72,1.93,1.93,0,0,0-.11-.34A1.227,1.227,0,0,0,194.539,163.313Z"/><path class="cls-1" d="M219.2,153.423h12.117a1.843,1.843,0,1,0,0-3.685H219.2a1.843,1.843,0,0,0,0,3.685Z"/><path class="cls-1" d="M236.4,152.6a1.56,1.56,0,0,0,.23.28,1.848,1.848,0,0,0,1.3.54,1.472,1.472,0,0,0,.36-.04,2.3,2.3,0,0,0,.35-.1,1.869,1.869,0,0,0,.31-.17,2.146,2.146,0,0,0,.28-.23,1.227,1.227,0,0,0,.23-.28,1.409,1.409,0,0,0,.17-.32,2.24,2.24,0,0,0,.11-.34,2.186,2.186,0,0,0,.03-.36,1.806,1.806,0,0,0-.54-1.3,1.846,1.846,0,0,0-1.66-.51,1.352,1.352,0,0,0-.34.11,1.821,1.821,0,0,0-.6.4,1.806,1.806,0,0,0-.54,1.3,2.186,2.186,0,0,0,.03.36,2.24,2.24,0,0,0,.11.34A1.962,1.962,0,0,0,236.4,152.6Z"/><path class="cls-1" d="M111.644,66.654a2.7,2.7,0,0,0,3.808,0L117.7,64.4l22.185,22.185a6.588,6.588,0,0,0-2.022,3.72,6.573,6.573,0,0,0,6.05,7.066c.085,0,.175.013.265.013.05,0,.1-.008.153-.009a5.148,5.148,0,0,0-.615,1.863,6.585,6.585,0,0,0,6.049,7.067c.172.015.342.018.516.018a6.538,6.538,0,0,0,2.392-.458.435.435,0,0,0,0,.048,6.577,6.577,0,0,0,6.046,7.07c.161.012.321.017.479.017a6.461,6.461,0,0,0,2.734-.631,6.212,6.212,0,0,0,5.539,6.407,5.844,5.844,0,0,0,.9.071,5.358,5.358,0,0,0,3.11-.994,7.489,7.489,0,0,0,11.206-4.982l.753.75A7.493,7.493,0,0,0,196.1,109.6a7.5,7.5,0,0,0,11.741-6.173,7.275,7.275,0,0,0-.918-3.339,7.533,7.533,0,0,0,6.645-7.444,9,9,0,0,0-2.446-5.512l-1.165-1.166,24.879-24.879,3,3a2.7,2.7,0,0,0,3.807,0l10.576-11.137-.029-2.16-34.6-34.6a1.548,1.548,0,0,0-2.189,2.189l33.535,33.535-9.2,9.692-36.6-36.6L224.905,2.627A1.548,1.548,0,0,0,222.686.468L200.673,23.106a2.7,2.7,0,0,0,0,3.813l3.688,3.689-5.19,5.192h-30.96c-2.786,0-5.535,2.289-5.839,2.55l-.087.081-.385.385h-8.713l-4.95-4.952,4.381-4.38a2.7,2.7,0,0,0,.015-3.8L130.6,3.033a1.548,1.548,0,1,0-2.218,2.159L150.15,27.574l-36.58,36.58-9.4-10.915L137.313,21.6a1.548,1.548,0,0,0-2.137-2.24l-34.21,32.652-.1,2.129,10.7,12.422Zm32.537,28.435a.842.842,0,0,1-.09,0,4.281,4.281,0,0,1-3.938-4.6c.114-1.463,2.951-4.12,4.6-4.3a3.523,3.523,0,0,1,.4-.022,4.753,4.753,0,0,1,3.326,1.455,3.238,3.238,0,0,1,.962,2.4C149.353,91.809,145.957,95.089,144.181,95.089Zm8.842,7.941a4.243,4.243,0,0,1-3.078.985,4.291,4.291,0,0,1-3.94-4.6c.09-1.163,2.223-3.736,3.71-5.187l.075-.078c1.318-1.556,2.531-2.28,3.814-2.28a3.858,3.858,0,0,1,.766.08c1.77.365,3.854,2.216,3.786,3.968C158.1,97.411,155.131,100.966,153.023,103.03Zm9.047,6.6a4.634,4.634,0,0,1-3.177,1.061,4.283,4.283,0,0,1-3.938-4.6c.046-.56.49-1.663,2.361-3.744,1.455-1.611,2.682-2.329,4.1-2.39l.059,0a4.9,4.9,0,0,1,2.681,1.159,4.48,4.48,0,0,1,1.319,3.521,4.1,4.1,0,0,1-.72,2.051A20.019,20.019,0,0,1,162.07,109.631Zm10.8,2.888a6.278,6.278,0,0,1-1.255,2.02l-.109.133c-1.212,1.506-2.306,2.043-3.686,1.836a3.93,3.93,0,0,1-3.6-4.284c.005-.916.984-1.97,1.719-2.68a4.395,4.395,0,0,1,2.362-1.476,2.144,2.144,0,0,1,.44-.045,4.832,4.832,0,0,1,3.512,2.1A2.771,2.771,0,0,1,172.865,112.519Zm-8.437-71.854c.594-.5,2.413-1.77,3.783-1.77h32.243l6.1-6.1,26.1,26.1-24.878,24.88-30.91-30.909.843-.843a26.454,26.454,0,0,0,24.172,9.028,1.588,1.588,0,1,0-.479-3.14,23.784,23.784,0,0,1-3.549.267,23.36,23.36,0,0,1-17.581-8.05H187.9a1.589,1.589,0,1,0,0-3.178H169.945a1.582,1.582,0,0,0-.346.041h-.406l-.3.367a1.559,1.559,0,0,0-.31.376c-3.046,3.7-6.448,7.08-10.665,7.08-1.989,0-4.285-1-4.722-2.054-.063-.151-.252-.608.661-1.521C155.686,49.412,163.752,41.342,164.428,40.665Zm-18.439-4.553,5.882,5.882h6.853c-2.641,2.641-5.962,5.963-7.056,7.055-2.067,2.069-1.722,3.955-1.332,4.9,1.066,2.575,4.7,3.965,7.582,3.965,5.315,0,9.395-3.837,12.7-7.782h4.04l-2.568,2.462,36.754,36.754a5.983,5.983,0,0,1,1.547,3.3,4.319,4.319,0,0,1-4.315,4.312,7.744,7.744,0,0,1-3.064-1.421l-19.5-19.493a1.621,1.621,0,0,0-2.247,0,1.591,1.591,0,0,0,0,2.248l21.856,21.855a5.889,5.889,0,0,1,1.535,3.284,4.314,4.314,0,0,1-7.3,3.111l-3.879-4.032-.075.073L178.22,87.394a1.628,1.628,0,0,0-2.246,0,1.586,1.586,0,0,0,0,2.248l16.032,16.031a4.968,4.968,0,0,1,1.028,2.638,4.293,4.293,0,0,1-6.93,3.409,1.554,1.554,0,0,0-.228-.292l-5.406-5.408-.39-.4-.006.005L166.932,92.477a1.633,1.633,0,0,0-2.248,0,1.592,1.592,0,0,0,0,2.247L178.1,108.145a5.978,5.978,0,0,1,1.537,3.286,4.318,4.318,0,0,1-4.313,4.313,4.252,4.252,0,0,1-1.518-.289,7.312,7.312,0,0,0,1.229-2.21,5,5,0,0,0-.927-4.467,7.106,7.106,0,0,0-5.373-3.046,4.59,4.59,0,0,0-.916.092c-.08.018-.15.042-.229.061a5.9,5.9,0,0,0,.176-1.14,6.679,6.679,0,0,0-2.1-5.357,6.965,6.965,0,0,0-4.354-1.725,6.5,6.5,0,0,0-1.391.211A5.166,5.166,0,0,0,160.45,96c.114-3.006-2.867-5.735-5.62-6.3a6.2,6.2,0,0,0-1.226-.128,5.689,5.689,0,0,0-1.873.32,5.538,5.538,0,0,0-1.588-3.865,7.041,7.041,0,0,0-4.989-2.169,6.273,6.273,0,0,0-.657.036,5.815,5.815,0,0,0-2.074.729L119.949,62.152Z"/><path class="cls-1" d="M84.674,98.083c1.15.868,2.468.483,3.178-.964,1.13-2.3,3.481-7.326,3.481-7.326l.247-.06c.017.046.035.09.052.136a41.39,41.39,0,0,1-68.177,43.422,1.842,1.842,0,0,0-2.6,2.607,45.331,45.331,0,0,0,32,13.205A45.019,45.019,0,0,0,95.114,88.666l.066-.072c2.323,1.128,4.636,2.276,6.972,3.375,1.418.667,2.486.366,3.076-.774a2.038,2.038,0,0,0-1.1-2.965c-3.892-1.977-7.812-3.9-11.735-5.817a1.868,1.868,0,0,0-2.81,1.025q-2.769,5.935-5.536,11.871A2.079,2.079,0,0,0,84.674,98.083Z"/><path class="cls-1" d="M1.512,120.773c4.011,1.724,8.046,3.392,12.083,5.054a1.869,1.869,0,0,0,2.739-1.2q2.383-6.1,4.764-12.2a2.078,2.078,0,0,0-.808-2.728c-1.2-.793-2.493-.325-3.109,1.166-.981,2.371-3.006,7.533-3.006,7.533l-.268.085c-.034-.093-.076-.188-.11-.281a41.394,41.394,0,0,1,68.455-43.15,1.843,1.843,0,0,0,2.629-2.583,45.08,45.08,0,0,0-74.547,46.994c.039.1.087.214.126.32l-.047.058c-2.39-.977-4.771-1.975-7.173-2.922-1.458-.574-2.505-.205-3.021.97A2.038,2.038,0,0,0,1.512,120.773Z"/><text class="cls-2" transform="translate(29.649 110.705)">Lease</text></g></g></svg>